<?xml version="1.0" encoding="UTF-8"?><svg xmlns="http://www.w3.org/2000/svg" xmlns:xlink="http://www.w3.org/1999/xlink" fill-opacity="1" color-rendering="auto" color-interpolation="auto" text-rendering="auto" stroke="black" stroke-linecap="square" width="963" stroke-miterlimit="10" shape-rendering="auto" stroke-opacity="1" fill="black" stroke-dasharray="none" font-weight="normal" stroke-width="1" height="199" font-family="'Dialog'" font-style="normal" stroke-linejoin="miter" font-size="12px" stroke-dashoffset="0" image-rendering="auto">
  <!--Generated by ySVG 2.5-->
  <defs id="genericDefs"/>
  <g>
    <defs id="defs1">
      <clipPath clipPathUnits="userSpaceOnUse" id="clipPath1">
        <path d="M0 0 L963 0 L963 199 L0 199 L0 0 Z"/>
      </clipPath>
      <clipPath clipPathUnits="userSpaceOnUse" id="clipPath2">
        <path d="M1072 679 L2035 679 L2035 878 L1072 878 L1072 679 Z"/>
      </clipPath>
    </defs>
    <g fill="rgb(153,51,102)" text-rendering="geometricPrecision" shape-rendering="geometricPrecision" transform="matrix(1,0,0,1,-1072,-679)" stroke="rgb(153,51,102)">
      <rect x="1120" width="250" height="35" y="694" clip-path="url(#clipPath2)" stroke="none"/>
    </g>
    <g text-rendering="geometricPrecision" stroke-miterlimit="1.45" shape-rendering="geometricPrecision" transform="matrix(1,0,0,1,-1072,-679)" stroke-linecap="butt">
      <rect fill="none" x="1120" width="250" height="35" y="694" clip-path="url(#clipPath2)"/>
      <text x="1208.3115" xml:space="preserve" y="716.2139" clip-path="url(#clipPath2)" font-family="sans-serif" stroke="none">Header buffer</text>
    </g>
    <g fill="rgb(0,204,255)" text-rendering="geometricPrecision" shape-rendering="geometricPrecision" transform="matrix(1,0,0,1,-1072,-679)" stroke="rgb(0,204,255)">
      <rect x="1370" width="650" height="35" y="694" clip-path="url(#clipPath2)" stroke="none"/>
    </g>
    <g text-rendering="geometricPrecision" stroke-miterlimit="1.45" shape-rendering="geometricPrecision" transform="matrix(1,0,0,1,-1072,-679)" stroke-linecap="butt">
      <rect fill="none" x="1370" width="650" height="35" y="694" clip-path="url(#clipPath2)"/>
      <text x="1673.3174" xml:space="preserve" y="716.2139" clip-path="url(#clipPath2)" font-family="sans-serif" stroke="none">Payload</text>
    </g>
    <g fill="silver" text-rendering="geometricPrecision" shape-rendering="geometricPrecision" transform="matrix(1,0,0,1,-1072,-679)" stroke="silver">
      <rect x="1120" width="95" height="35" y="773.5" clip-path="url(#clipPath2)" stroke="none"/>
    </g>
    <g text-rendering="geometricPrecision" stroke-miterlimit="1.45" shape-rendering="geometricPrecision" transform="matrix(1,0,0,1,-1072,-679)" stroke-linecap="butt">
      <rect fill="none" x="1120" width="95" height="35" y="773.5" clip-path="url(#clipPath2)"/>
    </g>
    <g fill="rgb(0,204,255)" text-rendering="geometricPrecision" shape-rendering="geometricPrecision" transform="matrix(1,0,0,1,-1072,-679)" stroke="rgb(0,204,255)">
      <rect x="1370" width="650" height="35" y="773.5" clip-path="url(#clipPath2)" stroke="none"/>
    </g>
    <g text-rendering="geometricPrecision" stroke-miterlimit="1.45" shape-rendering="geometricPrecision" transform="matrix(1,0,0,1,-1072,-679)" stroke-linecap="butt">
      <rect fill="none" x="1370" width="650" height="35" y="773.5" clip-path="url(#clipPath2)"/>
      <text x="1673.3174" xml:space="preserve" y="795.7139" clip-path="url(#clipPath2)" font-family="sans-serif" stroke="none">Payload</text>
    </g>
    <g fill="rgb(255,204,0)" text-rendering="geometricPrecision" shape-rendering="geometricPrecision" transform="matrix(1,0,0,1,-1072,-679)" stroke="rgb(255,204,0)">
      <rect x="1215" width="155" height="35" y="773.5" clip-path="url(#clipPath2)" stroke="none"/>
    </g>
    <g text-rendering="geometricPrecision" stroke-miterlimit="1.45" shape-rendering="geometricPrecision" transform="matrix(1,0,0,1,-1072,-679)" stroke-linecap="butt">
      <rect fill="none" x="1215" width="155" height="35" y="773.5" clip-path="url(#clipPath2)"/>
      <text x="1272.8213" xml:space="preserve" y="795.7139" clip-path="url(#clipPath2)" font-family="sans-serif" stroke="none">Header</text>
    </g>
    <g fill="rgb(51,153,102)" text-rendering="geometricPrecision" shape-rendering="geometricPrecision" transform="matrix(1,0,0,1,-1072,-679)" stroke="rgb(51,153,102)">
      <rect x="1087" width="33" height="35" y="694" clip-path="url(#clipPath2)" stroke="none"/>
    </g>
    <g text-rendering="geometricPrecision" stroke-miterlimit="1.45" shape-rendering="geometricPrecision" transform="matrix(1,0,0,1,-1072,-679)" stroke-linecap="butt">
      <rect fill="none" x="1087" width="33" height="35" y="694" clip-path="url(#clipPath2)"/>
      <text x="1093.4893" xml:space="preserve" y="716.2139" clip-path="url(#clipPath2)" font-family="sans-serif" stroke="none">Len</text>
    </g>
    <g fill="rgb(51,153,102)" text-rendering="geometricPrecision" shape-rendering="geometricPrecision" transform="matrix(1,0,0,1,-1072,-679)" stroke="rgb(51,153,102)">
      <rect x="1087" width="33" height="35" y="773.5" clip-path="url(#clipPath2)" stroke="none"/>
    </g>
    <g text-rendering="geometricPrecision" stroke-miterlimit="1.45" shape-rendering="geometricPrecision" transform="matrix(1,0,0,1,-1072,-679)" stroke-linecap="butt">
      <rect fill="none" x="1087" width="33" height="35" y="773.5" clip-path="url(#clipPath2)"/>
      <text x="1093.4893" xml:space="preserve" y="795.7139" clip-path="url(#clipPath2)" font-family="sans-serif" stroke="none">Len</text>
      <rect stroke-linecap="square" x="1215" y="817.8" clip-path="url(#clipPath2)" width="5.2" height="44.4" stroke="none" stroke-miterlimit="10"/>
      <rect fill="none" x="1215" width="5.2" height="44.4" y="817.8" clip-path="url(#clipPath2)"/>
      <text x="1232.0938" xml:space="preserve" y="858.2979" clip-path="url(#clipPath2)" font-family="sans-serif" stroke="none">Packet going on air</text>
      <path fill="none" d="M1220.2 839.9898 L1394.96 839.304 L1432.51 839.304" stroke-width="7" clip-path="url(#clipPath2)"/>
      <path d="M1451.76 839.304 L1430.76 828.804 L1430.76 849.804 Z" stroke-width="7" clip-path="url(#clipPath2)" stroke="none"/>
    </g>
  </g>
</svg>
