<!DOCTYPE svg PUBLIC "-//W3C//DTD SVG 1.1//EN"
 "http://www.w3.org/Graphics/SVG/1.1/DTD/svg11.dtd">
<svg version="1.1"
 width="1200px" height="504px"
 viewBox="0 0 1200 504"
 xmlns="http://www.w3.org/2000/svg" shape-rendering="crispEdges"
 stroke-width="1" text-rendering="geometricPrecision">
<polygon fill="white" points="106,7 132,7 132,16 106,16"/>
<text x="120" y="16" textLength="25" font-family="Helvetica" font-size="12" fill="black" text-anchor="middle">

User
</text>
<polygon fill="white" points="326,7 392,7 392,16 326,16"/>
<text x="360" y="16" textLength="65" font-family="Helvetica" font-size="12" fill="black" text-anchor="middle">

Mesh config
</text>
<polygon fill="white" points="566,7 632,7 632,16 566,16"/>
<text x="600" y="16" textLength="64" font-family="Helvetica" font-size="12" fill="black" text-anchor="middle">

State owner
</text>
<polygon fill="white" points="796,7 882,7 882,16 796,16"/>
<text x="840" y="16" textLength="84" font-family="Helvetica" font-size="12" fill="black" text-anchor="middle">

Change listener
</text>
<polygon fill="white" points="1055,7 1103,7 1103,16 1055,16"/>
<text x="1080" y="16" textLength="47" font-family="Helvetica" font-size="12" fill="black" text-anchor="middle">

Backend
</text>
<line x1="120" y1="22" x2="120" y2="50" stroke="black"/>
<line x1="360" y1="22" x2="360" y2="50" stroke="black"/>
<line x1="600" y1="22" x2="600" y2="50" stroke="black"/>
<line x1="840" y1="22" x2="840" y2="50" stroke="black"/>
<line x1="1080" y1="22" x2="1080" y2="50" stroke="black"/>
<line x1="120" y1="33" x2="360" y2="33" stroke="black"/>
<polygon fill="black" points="360,33 350,39 350,27"/>
<polygon fill="white" points="142,23 337,23 337,32 142,32"/>
<text x="143" y="32" textLength="193" font-family="Helvetica" font-size="12" fill="black">
mesh_config_entry_set(ID, value=5)
</text>
<line x1="120" y1="50" x2="120" y2="78" stroke="black"/>
<line x1="360" y1="50" x2="360" y2="78" stroke="black"/>
<line x1="600" y1="50" x2="600" y2="78" stroke="black"/>
<line x1="840" y1="50" x2="840" y2="78" stroke="black"/>
<line x1="1080" y1="50" x2="1080" y2="78" stroke="black"/>
<line x1="360" y1="61" x2="600" y2="61" stroke="black"/>
<polygon fill="black" points="600,61 590,67 590,55"/>
<polygon fill="white" points="404,51 555,51 555,60 404,60"/>
<text x="405" y="60" textLength="149" font-family="Helvetica" font-size="12" fill="black">
setter_callback(ID, value=5)
</text>
<line x1="120" y1="78" x2="120" y2="106" stroke="black"/>
<line x1="360" y1="78" x2="360" y2="106" stroke="black"/>
<line x1="600" y1="78" x2="600" y2="106" stroke="black"/>
<line x1="840" y1="78" x2="840" y2="106" stroke="black"/>
<line x1="1080" y1="78" x2="1080" y2="106" stroke="black"/>
<line x1="600" y1="89" x2="360" y2="89" stroke="black"/>
<line x1="360" y1="89" x2="370" y2="95" stroke="black"/>
<polygon fill="white" points="434,79 525,79 525,88 434,88"/>
<text x="435" y="88" textLength="89" font-family="Helvetica" font-size="12" fill="black">
NRF_SUCCESS
</text>
<line x1="120" y1="106" x2="120" y2="134" stroke="black"/>
<line x1="360" y1="106" x2="360" y2="134" stroke="black"/>
<line x1="600" y1="106" x2="600" y2="134" stroke="black"/>
<line x1="840" y1="106" x2="840" y2="134" stroke="black"/>
<line x1="1080" y1="106" x2="1080" y2="134" stroke="black"/>
<line x1="360" y1="117" x2="840" y2="117" stroke="black"/>
<polygon fill="black" points="840,117 830,123 830,111"/>
<polygon fill="white" points="467,107 732,107 732,116 467,116"/>
<text x="468" y="116" textLength="263" font-family="Helvetica" font-size="12" fill="black">
value_change(ID, value=5, change_reason=SET)
</text>
<line x1="120" y1="134" x2="120" y2="162" stroke="black"/>
<line x1="360" y1="134" x2="360" y2="162" stroke="black"/>
<line x1="600" y1="134" x2="600" y2="162" stroke="black"/>
<line x1="840" y1="134" x2="840" y2="162" stroke="black"/>
<line x1="1080" y1="134" x2="1080" y2="162" stroke="black"/>
<polygon fill="white" points="968,134 1180,134 1180,156 968,156"/>
<polygon fill="white" points="968,146 1192,146 1192,156 968,156"/>
<polygon fill="white" points="1180,134 1192,146 1180,146"/>
<line x1="968" y1="134" x2="1180" y2="134" stroke="black"/>
<line x1="968" y1="156" x2="1192" y2="156" stroke="black"/>
<line x1="968" y1="134" x2="968" y2="156" stroke="black"/>
<line x1="1192" y1="146" x2="1192" y2="156" stroke="black"/>
<line x1="1180" y1="134" x2="1192" y2="146" stroke="black"/>
<line x1="1180" y1="134" x2="1180" y2="146" stroke="black"/>
<line x1="1192" y1="146" x2="1180" y2="146" stroke="black"/>
<polygon fill="white" points="1035,141 1124,141 1124,150 1035,150"/>
<text x="1036" y="150" textLength="87" font-family="Helvetica" font-size="12" fill="black">
Backend is busy
</text>
<line x1="120" y1="162" x2="120" y2="190" stroke="black"/>
<line x1="360" y1="162" x2="360" y2="190" stroke="black"/>
<line x1="600" y1="162" x2="600" y2="190" stroke="black"/>
<line x1="840" y1="162" x2="840" y2="190" stroke="black"/>
<line x1="1080" y1="162" x2="1080" y2="190" stroke="black"/>
<line x1="360" y1="173" x2="1080" y2="173" stroke="black"/>
<polygon fill="black" points="1080,173 1070,179 1070,167"/>
<polygon fill="white" points="671,163 767,163 767,172 671,172"/>
<text x="672" y="172" textLength="94" font-family="Helvetica" font-size="12" fill="black">
save(ID, value=5)
</text>
<line x1="120" y1="190" x2="120" y2="218" stroke="black"/>
<line x1="360" y1="190" x2="360" y2="218" stroke="black"/>
<line x1="600" y1="190" x2="600" y2="218" stroke="black"/>
<line x1="840" y1="190" x2="840" y2="218" stroke="black"/>
<line x1="1080" y1="190" x2="1080" y2="218" stroke="black"/>
<line x1="600" y1="201" x2="360" y2="201" stroke="black"/>
<line x1="360" y1="201" x2="370" y2="207" stroke="black"/>
<polygon fill="white" points="421,191 537,191 537,200 421,200"/>
<text x="422" y="200" textLength="114" font-family="Helvetica" font-size="12" fill="black">
NRF_ERROR_BUSY
</text>
<line x1="120" y1="218" x2="120" y2="246" stroke="black"/>
<line x1="360" y1="218" x2="360" y2="246" stroke="black"/>
<line x1="600" y1="218" x2="600" y2="246" stroke="black"/>
<line x1="840" y1="218" x2="840" y2="246" stroke="black"/>
<line x1="1080" y1="218" x2="1080" y2="246" stroke="black"/>
<line x1="360" y1="229" x2="120" y2="229" stroke="black"/>
<line x1="120" y1="229" x2="130" y2="235" stroke="black"/>
<polygon fill="white" points="194,219 285,219 285,228 194,228"/>
<text x="195" y="228" textLength="89" font-family="Helvetica" font-size="12" fill="black">
NRF_SUCCESS
</text>
<line x1="120" y1="246" x2="120" y2="263" stroke="black" stroke-dasharray="2,2"/>
<line x1="360" y1="246" x2="360" y2="263" stroke="black" stroke-dasharray="2,2"/>
<line x1="600" y1="246" x2="600" y2="263" stroke="black" stroke-dasharray="2,2"/>
<line x1="840" y1="246" x2="840" y2="263" stroke="black" stroke-dasharray="2,2"/>
<line x1="1080" y1="246" x2="1080" y2="263" stroke="black" stroke-dasharray="2,2"/>
<line x1="120" y1="263" x2="120" y2="291" stroke="black"/>
<line x1="360" y1="263" x2="360" y2="291" stroke="black"/>
<line x1="600" y1="263" x2="600" y2="291" stroke="black"/>
<line x1="840" y1="263" x2="840" y2="291" stroke="black"/>
<line x1="1080" y1="263" x2="1080" y2="291" stroke="black"/>
<polygon fill="white" points="968,263 1180,263 1180,285 968,285"/>
<polygon fill="white" points="968,275 1192,275 1192,285 968,285"/>
<polygon fill="white" points="1180,263 1192,275 1180,275"/>
<line x1="968" y1="263" x2="1180" y2="263" stroke="black"/>
<line x1="968" y1="285" x2="1192" y2="285" stroke="black"/>
<line x1="968" y1="263" x2="968" y2="285" stroke="black"/>
<line x1="1192" y1="275" x2="1192" y2="285" stroke="black"/>
<line x1="1180" y1="263" x2="1192" y2="275" stroke="black"/>
<line x1="1180" y1="263" x2="1180" y2="275" stroke="black"/>
<line x1="1192" y1="275" x2="1180" y2="275" stroke="black"/>
<polygon fill="white" points="1004,270 1155,270 1155,279 1004,279"/>
<text x="1005" y="279" textLength="149" font-family="Helvetica" font-size="12" fill="black">
Backend becomes available
</text>
<line x1="120" y1="291" x2="120" y2="319" stroke="black"/>
<line x1="360" y1="291" x2="360" y2="319" stroke="black"/>
<line x1="600" y1="291" x2="600" y2="319" stroke="black"/>
<line x1="840" y1="291" x2="840" y2="319" stroke="black"/>
<line x1="1080" y1="291" x2="1080" y2="319" stroke="black"/>
<line x1="1080" y1="302" x2="360" y2="302" stroke="black" stroke-dasharray="2,2"/>
<polygon fill="black" points="360,302 370,308 370,296"/>
<polygon fill="white" points="698,292 741,292 741,301 698,301"/>
<text x="699" y="301" textLength="41" font-family="Helvetica" font-size="12" fill="black">
READY
</text>
<line x1="120" y1="319" x2="120" y2="347" stroke="black"/>
<line x1="360" y1="319" x2="360" y2="347" stroke="black"/>
<line x1="600" y1="319" x2="600" y2="347" stroke="black"/>
<line x1="840" y1="319" x2="840" y2="347" stroke="black"/>
<line x1="1080" y1="319" x2="1080" y2="347" stroke="black"/>
<line x1="360" y1="330" x2="600" y2="330" stroke="black"/>
<polygon fill="black" points="600,330 590,336 590,324"/>
<polygon fill="white" points="428,320 531,320 531,329 428,329"/>
<text x="429" y="329" textLength="101" font-family="Helvetica" font-size="12" fill="black">
getter_callback(ID)
</text>
<line x1="120" y1="347" x2="120" y2="375" stroke="black"/>
<line x1="360" y1="347" x2="360" y2="375" stroke="black"/>
<line x1="600" y1="347" x2="600" y2="375" stroke="black"/>
<line x1="840" y1="347" x2="840" y2="375" stroke="black"/>
<line x1="1080" y1="347" x2="1080" y2="375" stroke="black"/>
<line x1="600" y1="358" x2="360" y2="358" stroke="black"/>
<line x1="360" y1="358" x2="370" y2="364" stroke="black"/>
<polygon fill="white" points="457,348 501,348 501,357 457,357"/>
<text x="458" y="357" textLength="42" font-family="Helvetica" font-size="12" fill="black">
value=5
</text>
<line x1="120" y1="375" x2="120" y2="403" stroke="black"/>
<line x1="360" y1="375" x2="360" y2="403" stroke="black"/>
<line x1="600" y1="375" x2="600" y2="403" stroke="black"/>
<line x1="840" y1="375" x2="840" y2="403" stroke="black"/>
<line x1="1080" y1="375" x2="1080" y2="403" stroke="black"/>
<line x1="360" y1="386" x2="1080" y2="386" stroke="black"/>
<polygon fill="black" points="1080,386 1070,392 1070,380"/>
<polygon fill="white" points="671,376 767,376 767,385 671,385"/>
<text x="672" y="385" textLength="94" font-family="Helvetica" font-size="12" fill="black">
save(ID, value=5)
</text>
<line x1="120" y1="403" x2="120" y2="431" stroke="black"/>
<line x1="360" y1="403" x2="360" y2="431" stroke="black"/>
<line x1="600" y1="403" x2="600" y2="431" stroke="black"/>
<line x1="840" y1="403" x2="840" y2="431" stroke="black"/>
<line x1="1080" y1="403" x2="1080" y2="431" stroke="black"/>
<line x1="600" y1="414" x2="360" y2="414" stroke="black"/>
<line x1="360" y1="414" x2="370" y2="420" stroke="black"/>
<polygon fill="white" points="434,404 525,404 525,413 434,413"/>
<text x="435" y="413" textLength="89" font-family="Helvetica" font-size="12" fill="black">
NRF_SUCCESS
</text>
<line x1="120" y1="431" x2="120" y2="448" stroke="black" stroke-dasharray="2,2"/>
<line x1="360" y1="431" x2="360" y2="448" stroke="black" stroke-dasharray="2,2"/>
<line x1="600" y1="431" x2="600" y2="448" stroke="black" stroke-dasharray="2,2"/>
<line x1="840" y1="431" x2="840" y2="448" stroke="black" stroke-dasharray="2,2"/>
<line x1="1080" y1="431" x2="1080" y2="448" stroke="black" stroke-dasharray="2,2"/>
<line x1="120" y1="448" x2="120" y2="476" stroke="black"/>
<line x1="360" y1="448" x2="360" y2="476" stroke="black"/>
<line x1="600" y1="448" x2="600" y2="476" stroke="black"/>
<line x1="840" y1="448" x2="840" y2="476" stroke="black"/>
<line x1="1080" y1="448" x2="1080" y2="476" stroke="black"/>
<line x1="1080" y1="459" x2="360" y2="459" stroke="black" stroke-dasharray="2,2"/>
<polygon fill="black" points="360,459 370,465 370,453"/>
<polygon fill="white" points="668,449 771,449 771,458 668,458"/>
<text x="669" y="458" textLength="101" font-family="Helvetica" font-size="12" fill="black">
save_complete(ID)
</text>
<line x1="120" y1="476" x2="120" y2="504" stroke="black"/>
<line x1="360" y1="476" x2="360" y2="504" stroke="black"/>
<line x1="600" y1="476" x2="600" y2="504" stroke="black"/>
<line x1="840" y1="476" x2="840" y2="504" stroke="black"/>
<line x1="1080" y1="476" x2="1080" y2="504" stroke="black"/>
<line x1="360" y1="487" x2="120" y2="487" stroke="black" stroke-dasharray="2,2"/>
<polygon fill="black" points="120,487 130,493 130,481"/>
<polygon fill="white" points="137,477 341,477 341,486 137,486"/>
<text x="138" y="486" textLength="202" font-family="Helvetica" font-size="12" fill="black">
NRF_MESH_EVT_CONFIG_STABLE
</text>
<line x1="120" y1="498" x2="120" y2="504" stroke="black"/>
<line x1="360" y1="498" x2="360" y2="504" stroke="black"/>
<line x1="600" y1="498" x2="600" y2="504" stroke="black"/>
<line x1="840" y1="498" x2="840" y2="504" stroke="black"/>
<line x1="1080" y1="498" x2="1080" y2="504" stroke="black"/>
</svg>
