<?xml version="1.0" encoding="UTF-8"?><svg xmlns="http://www.w3.org/2000/svg" xmlns:xlink="http://www.w3.org/1999/xlink" fill-opacity="1" color-rendering="auto" color-interpolation="auto" text-rendering="auto" stroke="black" stroke-linecap="square" width="925" stroke-miterlimit="10" shape-rendering="auto" stroke-opacity="1" fill="black" stroke-dasharray="none" font-weight="normal" stroke-width="1" height="94" font-family="'Dialog'" font-style="normal" stroke-linejoin="miter" font-size="12px" stroke-dashoffset="0" image-rendering="auto">
  <!--Generated by ySVG 2.5-->
  <defs id="genericDefs"/>
  <g>
    <defs id="defs1">
      <clipPath clipPathUnits="userSpaceOnUse" id="clipPath1">
        <path d="M0 0 L925 0 L925 94 L0 94 L0 0 Z"/>
      </clipPath>
      <clipPath clipPathUnits="userSpaceOnUse" id="clipPath2">
        <path d="M280 591 L1205 591 L1205 685 L280 685 L280 591 Z"/>
      </clipPath>
    </defs>
    <g fill="silver" text-rendering="geometricPrecision" shape-rendering="geometricPrecision" transform="matrix(1,0,0,1,-280,-591)" stroke="silver">
      <rect x="897" width="163" height="64" y="606" clip-path="url(#clipPath2)" stroke="none"/>
    </g>
    <g text-rendering="geometricPrecision" stroke-miterlimit="1.45" shape-rendering="geometricPrecision" transform="matrix(1,0,0,1,-280,-591)" stroke-linecap="butt">
      <rect fill="none" x="897" width="163" height="64" y="606" clip-path="url(#clipPath2)"/>
    </g>
    <g fill="rgb(255,204,0)" text-rendering="geometricPrecision" shape-rendering="geometricPrecision" transform="matrix(1,0,0,1,-280,-591)" stroke="rgb(255,204,0)">
      <rect x="295" width="109" height="64" y="606" clip-path="url(#clipPath2)" stroke="none"/>
    </g>
    <g text-rendering="geometricPrecision" stroke-miterlimit="1.45" shape-rendering="geometricPrecision" transform="matrix(1,0,0,1,-280,-591)" stroke-linecap="butt">
      <rect fill="none" x="295" width="109" height="64" y="606" clip-path="url(#clipPath2)"/>
      <text x="324.4834" xml:space="preserve" y="642.7139" clip-path="url(#clipPath2)" font-family="sans-serif" stroke="none">Metadata</text>
    </g>
    <g fill="rgb(51,153,102)" text-rendering="geometricPrecision" shape-rendering="geometricPrecision" transform="matrix(1,0,0,1,-280,-591)" stroke="rgb(51,153,102)">
      <rect x="1060" width="130" height="64" y="606" clip-path="url(#clipPath2)" stroke="none"/>
    </g>
    <g text-rendering="geometricPrecision" stroke-miterlimit="1.45" shape-rendering="geometricPrecision" transform="matrix(1,0,0,1,-280,-591)" stroke-linecap="butt">
      <rect fill="none" x="1060" width="130" height="64" y="606" clip-path="url(#clipPath2)"/>
      <text x="1089.9902" xml:space="preserve" y="642.7139" clip-path="url(#clipPath2)" font-family="sans-serif" stroke="none">TX Token list</text>
    </g>
    <g fill="rgb(0,204,255)" text-rendering="geometricPrecision" shape-rendering="geometricPrecision" transform="matrix(1,0,0,1,-280,-591)" stroke="rgb(0,204,255)">
      <rect x="404" width="493" height="64" y="606" clip-path="url(#clipPath2)" stroke="none"/>
    </g>
    <g text-rendering="geometricPrecision" stroke-miterlimit="1.45" shape-rendering="geometricPrecision" transform="matrix(1,0,0,1,-280,-591)" stroke-linecap="butt">
      <rect fill="none" x="404" width="493" height="64" y="606" clip-path="url(#clipPath2)"/>
      <text x="623.1572" xml:space="preserve" y="642.7139" clip-path="url(#clipPath2)" font-family="sans-serif" stroke="none">Packet list</text>
      <path fill="none" d="M1060 638 L1048.25 638" stroke-width="7" clip-path="url(#clipPath2)"/>
      <path d="M1029 638 L1050 648.5 L1050 627.5 Z" stroke-width="7" clip-path="url(#clipPath2)" stroke="none"/>
      <path fill="none" d="M897 638 L913.75 638" stroke-width="7" clip-path="url(#clipPath2)"/>
      <path d="M933 638 L912 627.5 L912 648.5 Z" stroke-width="7" clip-path="url(#clipPath2)" stroke="none"/>
    </g>
  </g>
</svg>
