<?xml version="1.0" encoding="UTF-8"?><svg xmlns="http://www.w3.org/2000/svg" xmlns:xlink="http://www.w3.org/1999/xlink" fill-opacity="1" color-rendering="auto" color-interpolation="auto" text-rendering="auto" stroke="black" stroke-linecap="square" width="791" stroke-miterlimit="10" shape-rendering="auto" stroke-opacity="1" fill="black" stroke-dasharray="none" font-weight="normal" stroke-width="1" height="180" font-family="'Dialog'" font-style="normal" stroke-linejoin="miter" font-size="12px" stroke-dashoffset="0" image-rendering="auto">
  <!--Generated by ySVG 2.5-->
  <defs id="genericDefs"/>
  <g>
    <defs id="defs1">
      <clipPath clipPathUnits="userSpaceOnUse" id="clipPath1">
        <path d="M0 0 L791 0 L791 180 L0 180 L0 0 Z"/>
      </clipPath>
      <clipPath clipPathUnits="userSpaceOnUse" id="clipPath2">
        <path d="M384 120 L1175 120 L1175 300 L384 300 L384 120 Z"/>
      </clipPath>
    </defs>
    <g fill="rgb(0,204,255)" text-rendering="geometricPrecision" shape-rendering="geometricPrecision" transform="matrix(1,0,0,1,-384,-120)" stroke="rgb(0,204,255)">
      <rect x="850" width="100" height="30" y="255" clip-path="url(#clipPath2)" stroke="none"/>
    </g>
    <g text-rendering="geometricPrecision" stroke-miterlimit="1.45" shape-rendering="geometricPrecision" transform="matrix(1,0,0,1,-384,-120)" stroke-linecap="butt">
      <rect fill="none" x="850" width="100" height="30" y="255" clip-path="url(#clipPath2)"/>
      <text x="861.6592" xml:space="preserve" y="274.7139" clip-path="url(#clipPath2)" font-family="sans-serif" stroke="none">AUX ADV IND</text>
    </g>
    <g fill="rgb(255,204,0)" text-rendering="geometricPrecision" shape-rendering="geometricPrecision" transform="matrix(1,0,0,1,-384,-120)" stroke="rgb(255,204,0)">
      <rect x="700" width="100" height="30" y="195" clip-path="url(#clipPath2)" stroke="none"/>
    </g>
    <g text-rendering="geometricPrecision" stroke-miterlimit="1.45" shape-rendering="geometricPrecision" transform="matrix(1,0,0,1,-384,-120)" stroke-linecap="butt">
      <rect fill="none" x="700" width="100" height="30" y="195" clip-path="url(#clipPath2)"/>
      <text x="702.3193" xml:space="preserve" y="214.7139" clip-path="url(#clipPath2)" font-family="sans-serif" stroke="none">ADV EXT IND[39]</text>
    </g>
    <g fill="rgb(255,204,0)" text-rendering="geometricPrecision" shape-rendering="geometricPrecision" transform="matrix(1,0,0,1,-384,-120)" stroke="rgb(255,204,0)">
      <rect x="550" width="100" height="30" y="165" clip-path="url(#clipPath2)" stroke="none"/>
    </g>
    <g text-rendering="geometricPrecision" stroke-miterlimit="1.45" shape-rendering="geometricPrecision" transform="matrix(1,0,0,1,-384,-120)" stroke-linecap="butt">
      <rect fill="none" x="550" width="100" height="30" y="165" clip-path="url(#clipPath2)"/>
      <text x="552.3193" xml:space="preserve" y="184.7139" clip-path="url(#clipPath2)" font-family="sans-serif" stroke="none">ADV EXT IND[38]</text>
    </g>
    <g fill="rgb(255,204,0)" text-rendering="geometricPrecision" shape-rendering="geometricPrecision" transform="matrix(1,0,0,1,-384,-120)" stroke="rgb(255,204,0)">
      <rect x="400" width="100" height="30" y="135" clip-path="url(#clipPath2)" stroke="none"/>
    </g>
    <g text-rendering="geometricPrecision" stroke-miterlimit="1.45" shape-rendering="geometricPrecision" transform="matrix(1,0,0,1,-384,-120)" stroke-linecap="butt">
      <rect fill="none" x="400" width="100" height="30" y="135" clip-path="url(#clipPath2)"/>
      <text x="402.3193" xml:space="preserve" y="154.7139" clip-path="url(#clipPath2)" font-family="sans-serif" stroke="none">ADV EXT IND[37]</text>
    </g>
    <g fill="rgb(0,204,255)" text-rendering="geometricPrecision" shape-rendering="geometricPrecision" transform="matrix(1,0,0,1,-384,-120)" stroke="rgb(0,204,255)">
      <rect x="1060" width="100" height="30" y="255" clip-path="url(#clipPath2)" stroke="none"/>
    </g>
    <g text-rendering="geometricPrecision" stroke-miterlimit="1.45" stroke-dasharray="6,2" shape-rendering="geometricPrecision" transform="matrix(1,0,0,1,-384,-120)" stroke-linecap="butt">
      <rect fill="none" x="1060" width="100" height="30" y="255" clip-path="url(#clipPath2)"/>
      <text x="1065.3281" y="274.7139" clip-path="url(#clipPath2)" font-family="sans-serif" stroke-dasharray="none" stroke="none" xml:space="preserve">AUX CHAIN IND</text>
      <path fill="none" stroke-dasharray="none" d="M750 225 L750 270 L842 270" clip-path="url(#clipPath2)"/>
      <path stroke-dasharray="none" d="M850 270 L838 265 L841 270 L838 275 Z" clip-path="url(#clipPath2)" stroke="none"/>
      <text x="701.9941" y="244.0645" clip-path="url(#clipPath2)" font-family="sans-serif" stroke-dasharray="none" stroke="none" xml:space="preserve">AuxPtr</text>
      <path fill="none" stroke-dasharray="none" d="M600 195 L600 270 L850.0161 270" clip-path="url(#clipPath2)"/>
      <text x="551.9941" y="214.0645" clip-path="url(#clipPath2)" font-family="sans-serif" stroke-dasharray="none" stroke="none" xml:space="preserve">AuxPtr</text>
      <path fill="none" stroke-dasharray="none" d="M450 165 L450 270 L849.9795 270" clip-path="url(#clipPath2)"/>
      <text x="401.9941" y="184.0645" clip-path="url(#clipPath2)" font-family="sans-serif" stroke-dasharray="none" stroke="none" xml:space="preserve">AuxPtr</text>
      <path fill="none" d="M950 270 L1052 270" clip-path="url(#clipPath2)"/>
      <path d="M1060 270 L1048 265 L1051 270 L1048 275 Z" clip-path="url(#clipPath2)" stroke="none"/>
      <text x="986.9941" y="244.7139" clip-path="url(#clipPath2)" font-family="sans-serif" stroke-dasharray="none" stroke="none" xml:space="preserve">AuxPtr</text>
    </g>
  </g>
</svg>
