<?xml version="1.0" encoding="UTF-8" standalone="no"?>
<!DOCTYPE svg PUBLIC "-//W3C//DTD SVG 1.1//EN" "http://www.w3.org/Graphics/SVG/1.1/DTD/svg11.dtd">
<!-- Generated by Microsoft Visio, SVG Export dfu_process_init.svg dfu_process_init -->
<svg xmlns="http://www.w3.org/2000/svg" xmlns:xlink="http://www.w3.org/1999/xlink" xmlns:ev="http://www.w3.org/2001/xml-events"
		xmlns:v="http://schemas.microsoft.com/visio/2003/SVGExtensions/" width="9.86458in" height="3.32083in"
		viewBox="0 0 710.25 239.1" xml:space="preserve" color-interpolation-filters="sRGB" class="st7">
	<v:documentProperties v:langID="1033" v:viewMarkup="false"/>

	<style type="text/css">
	<![CDATA[
		.st1 {fill:#ffffff;stroke:none;stroke-linecap:butt;stroke-width:0.75}
		.st2 {fill:none;stroke:none;stroke-linecap:butt;stroke-width:0.75}
		.st3 {fill:#000000;font-family:Calibri;font-size:0.75em}
		.st4 {stroke:#000000;stroke-linecap:butt;stroke-width:0.75}
		.st5 {stroke:#000000;stroke-dasharray:0.75,1.5;stroke-linecap:butt;stroke-width:0.75}
		.st6 {fill:#000000;stroke:none;stroke-linecap:butt;stroke-width:0.75}
		.st7 {fill:none;fill-rule:evenodd;font-size:12px;overflow:visible;stroke-linecap:square;stroke-miterlimit:3}
	]]>
	</style>

	<g v:mID="0" v:index="1" v:groupContext="foregroundPage">
		<title>dfu_process_init</title>
		<v:pageProperties v:drawingScale="1" v:pageScale="1" v:drawingUnits="19" v:shadowOffsetX="9" v:shadowOffsetY="-9"/>
		<g id="shape1-1" v:mID="1" v:groupContext="shape" transform="translate(27.75,-212.25)">
			<title>Sheet.1</title>
			<rect x="0" y="232.35" width="45" height="6.75" class="st1"/>
		</g>
		<g id="shape2-3" v:mID="2" v:groupContext="shape" transform="translate(23.225,-209.55)">
			<title>Sheet.2</title>
			<desc>Application</desc>
			<v:textBlock v:margins="rect(0,0,0,0)"/>
			<v:textRect cx="27.4" cy="233.7" width="54.81" height="10.8"/>
			<rect x="0" y="228.3" width="54.8" height="10.8" class="st2"/>
			<text x="6.67" y="236.4" class="st3" v:langID="1033"><v:paragraph v:horizAlign="1"/><v:tabList/>Application</text>		</g>
		<g id="shape3-6" v:mID="3" v:groupContext="shape" transform="translate(296.25,-212.25)">
			<title>Sheet.3</title>
			<rect x="0" y="232.35" width="48" height="6.75" class="st1"/>
		</g>
		<g id="shape4-8" v:mID="4" v:groupContext="shape" transform="translate(275.975,-209.55)">
			<title>Sheet.4</title>
			<desc>Mesh Stack</desc>
			<v:textBlock v:margins="rect(0,0,0,0)"/>
			<v:textRect cx="45.025" cy="233.7" width="90.06" height="10.8"/>
			<rect x="0" y="228.3" width="90.05" height="10.8" class="st2"/>
			<text x="24.12" y="236.4" class="st3" v:langID="1033"><v:paragraph v:horizAlign="1"/><v:tabList/>Mesh Stack</text>		</g>
		<g id="shape5-11" v:mID="5" v:groupContext="shape" transform="translate(568.5,-212.25)">
			<title>Sheet.5</title>
			<rect x="0" y="232.35" width="43.5" height="6.75" class="st1"/>
		</g>
		<g id="shape6-13" v:mID="6" v:groupContext="shape" transform="translate(554.975,-209.55)">
			<title>Sheet.6</title>
			<desc>Mesh DFU</desc>
			<v:textBlock v:margins="rect(0,0,0,0)"/>
			<v:textRect cx="36.025" cy="233.7" width="72.06" height="10.8"/>
			<rect x="0" y="228.3" width="72.05" height="10.8" class="st2"/>
			<text x="17.07" y="236.4" class="st3" v:langID="1033"><v:paragraph v:horizAlign="1"/><v:tabList/>Mesh DFU</text>		</g>
		<g id="shape7-16" v:mID="7" v:groupContext="shape" transform="translate(290.1,31.35) rotate(90)">
			<title>Sheet.7</title>
			<path d="M0 239.1 L12.75 239.1" class="st4"/>
		</g>
		<g id="shape8-19" v:mID="8" v:groupContext="shape" transform="translate(560.1,31.35) rotate(90)">
			<title>Sheet.8</title>
			<path d="M0 239.1 L12.75 239.1" class="st4"/>
		</g>
		<g id="shape9-22" v:mID="9" v:groupContext="shape" transform="translate(830.1,31.35) rotate(90)">
			<title>Sheet.9</title>
			<path d="M0 239.1 L12.75 239.1" class="st4"/>
		</g>
		<g id="shape10-25" v:mID="10" v:groupContext="shape" transform="translate(18.75,-204)">
			<title>Sheet.10</title>
			<path d="M0 239.1 L612 239.1" class="st5"/>
		</g>
		<g id="shape11-28" v:mID="11" v:groupContext="shape" transform="translate(253.5,-200.25)">
			<title>Sheet.11</title>
			<rect x="0" y="232.35" width="133.5" height="6.75" class="st1"/>
		</g>
		<g id="shape12-30" v:mID="12" v:groupContext="shape" transform="translate(254.225,-197.55)">
			<title>Sheet.12</title>
			<desc>Initializing the Mesh DFU module</desc>
			<v:textBlock v:margins="rect(0,0,0,0)"/>
			<v:textRect cx="144.025" cy="233.7" width="288.05" height="10.8"/>
			<rect x="0" y="228.3" width="288.05" height="10.8" class="st2"/>
			<text x="0" y="236.4" class="st3" v:langID="1033"><v:paragraph/><v:tabList/>Initializing the Mesh DFU module</text>		</g>
		<g id="shape13-33" v:mID="13" v:groupContext="shape" transform="translate(290.1,44.1) rotate(90)">
			<title>Sheet.13</title>
			<path d="M0 239.1 L29.25 239.1" class="st4"/>
		</g>
		<g id="shape14-36" v:mID="14" v:groupContext="shape" transform="translate(560.1,44.1) rotate(90)">
			<title>Sheet.14</title>
			<path d="M0 239.1 L29.25 239.1" class="st4"/>
		</g>
		<g id="shape15-39" v:mID="15" v:groupContext="shape" transform="translate(830.1,44.1) rotate(90)">
			<title>Sheet.15</title>
			<path d="M0 239.1 L29.25 239.1" class="st4"/>
		</g>
		<g id="shape16-42" v:mID="16" v:groupContext="shape" transform="translate(477.75,-170.25)">
			<title>Sheet.16</title>
			<rect x="0" y="214.35" width="198" height="24.75" class="st1"/>
		</g>
		<g id="shape17-44" v:mID="17" v:groupContext="shape" transform="translate(477.75,-170.25)">
			<title>Sheet.17</title>
			<rect x="0" y="223.35" width="189" height="15.75" class="st1"/>
		</g>
		<g id="shape18-46" v:mID="18" v:groupContext="shape" transform="translate(682.5,-186)">
			<title>Sheet.18</title>
			<path d="M0 230.1 L9 239.1 L0 239.1 L0 230.1 Z" class="st1"/>
		</g>
		<g id="shape19-48" v:mID="19" v:groupContext="shape" transform="translate(462,-195)">
			<title>Sheet.19</title>
			<path d="M0 239.1 L220.5 239.1" class="st4"/>
		</g>
		<g id="shape20-51" v:mID="20" v:groupContext="shape" transform="translate(462,-170.25)">
			<title>Sheet.20</title>
			<path d="M0 239.1 L229.5 239.1" class="st4"/>
		</g>
		<g id="shape21-54" v:mID="21" v:groupContext="shape" transform="translate(701.1,44.1) rotate(90)">
			<title>Sheet.21</title>
			<path d="M0 239.1 L24.75 239.1" class="st4"/>
		</g>
		<g id="shape22-57" v:mID="22" v:groupContext="shape" transform="translate(930.6,53.1) rotate(90)">
			<title>Sheet.22</title>
			<path d="M0 239.1 L15.75 239.1" class="st4"/>
		</g>
		<g id="shape23-60" v:mID="23" v:groupContext="shape" transform="translate(851.569,-124.969) rotate(45)">
			<title>Sheet.23</title>
			<path d="M0 239.1 L12.73 239.1" class="st4"/>
		</g>
		<g id="shape24-63" v:mID="24" v:groupContext="shape" transform="translate(921.6,44.1) rotate(90)">
			<title>Sheet.24</title>
			<path d="M0 239.1 L9 239.1" class="st4"/>
		</g>
		<g id="shape25-66" v:mID="25" v:groupContext="shape" transform="translate(691.5,292.2) rotate(180)">
			<title>Sheet.25</title>
			<path d="M0 239.1 L9 239.1" class="st4"/>
		</g>
		<g id="shape26-69" v:mID="26" v:groupContext="shape" transform="translate(589.5,-187.5)">
			<title>Sheet.26</title>
			<rect x="0" y="232.35" width="1.5" height="6.75" class="st1"/>
		</g>
		<g id="shape27-71" v:mID="27" v:groupContext="shape" transform="translate(484.5,-179.25)">
			<title>Sheet.27</title>
			<rect x="0" y="232.35" width="182.25" height="6.75" class="st1"/>
		</g>
		<g id="shape28-73" v:mID="28" v:groupContext="shape" transform="translate(485.225,-176.55)">
			<title>Sheet.28</title>
			<desc>State = NRF_MESH_DFU_STATE_UNINITIALIZED.</desc>
			<v:textBlock v:margins="rect(0,0,0,0)"/>
			<v:textRect cx="90.7625" cy="233.7" width="181.53" height="10.8"/>
			<rect x="0" y="228.3" width="181.525" height="10.8" class="st2"/>
			<text x="0" y="236.4" class="st3" v:langID="1033"><v:paragraph/><v:tabList/>State = NRF_MESH_DFU_STATE_UNINITIALIZED.</text>		</g>
		<g id="shape29-76" v:mID="29" v:groupContext="shape" transform="translate(589.5,-171)">
			<title>Sheet.29</title>
			<rect x="0" y="232.35" width="1.5" height="6.75" class="st1"/>
		</g>
		<g id="shape30-78" v:mID="30" v:groupContext="shape" transform="translate(290.1,73.35) rotate(90)">
			<title>Sheet.30</title>
			<path d="M0 239.1 L21 239.1" class="st4"/>
		</g>
		<g id="shape31-81" v:mID="31" v:groupContext="shape" transform="translate(560.1,73.35) rotate(90)">
			<title>Sheet.31</title>
			<path d="M0 239.1 L21 239.1" class="st4"/>
		</g>
		<g id="shape32-84" v:mID="32" v:groupContext="shape" transform="translate(830.1,73.35) rotate(90)">
			<title>Sheet.32</title>
			<path d="M0 239.1 L21 239.1" class="st4"/>
		</g>
		<g id="shape33-87" v:mID="33" v:groupContext="shape" transform="translate(51,-157.5)">
			<title>Sheet.33</title>
			<path d="M0 239.1 L270 239.1" class="st4"/>
		</g>
		<g id="shape34-90" v:mID="34" v:groupContext="shape" transform="translate(313.5,-153)">
			<title>Sheet.34</title>
			<path d="M7.5 234.6 L0 239.1 L0 230.1 L7.5 234.6 Z" class="st6"/>
		</g>
		<g id="shape35-92" v:mID="35" v:groupContext="shape" transform="translate(149.25,-158.25)">
			<title>Sheet.35</title>
			<rect x="0" y="232.35" width="72" height="6.75" class="st1"/>
		</g>
		<g id="shape36-94" v:mID="36" v:groupContext="shape" transform="translate(149.975,-155.55)">
			<title>Sheet.36</title>
			<desc>mesh_stack_init()</desc>
			<v:textBlock v:margins="rect(0,0,0,0)"/>
			<v:textRect cx="76.525" cy="233.7" width="153.06" height="10.8"/>
			<rect x="0" y="228.3" width="153.05" height="10.8" class="st2"/>
			<text x="0" y="236.4" class="st3" v:langID="1033"><v:paragraph/><v:tabList/>mesh_stack_init()</text>		</g>
		<g id="shape37-97" v:mID="37" v:groupContext="shape" transform="translate(290.1,94.35) rotate(90)">
			<title>Sheet.37</title>
			<path d="M0 239.1 L21 239.1" class="st4"/>
		</g>
		<g id="shape38-100" v:mID="38" v:groupContext="shape" transform="translate(560.1,94.35) rotate(90)">
			<title>Sheet.38</title>
			<path d="M0 239.1 L21 239.1" class="st4"/>
		</g>
		<g id="shape39-103" v:mID="39" v:groupContext="shape" transform="translate(830.1,94.35) rotate(90)">
			<title>Sheet.39</title>
			<path d="M0 239.1 L21 239.1" class="st4"/>
		</g>
		<g id="shape40-106" v:mID="40" v:groupContext="shape" transform="translate(321,-136.5)">
			<title>Sheet.40</title>
			<path d="M0 239.1 L270 239.1" class="st4"/>
		</g>
		<g id="shape41-109" v:mID="41" v:groupContext="shape" transform="translate(583.5,-132)">
			<title>Sheet.41</title>
			<path d="M7.5 234.6 L0 239.1 L0 230.1 L7.5 234.6 Z" class="st6"/>
		</g>
		<g id="shape42-111" v:mID="42" v:groupContext="shape" transform="translate(416.25,-137.25)">
			<title>Sheet.42</title>
			<rect x="0" y="232.35" width="78.75" height="6.75" class="st1"/>
		</g>
		<g id="shape43-113" v:mID="43" v:groupContext="shape" transform="translate(416.975,-134.55)">
			<title>Sheet.43</title>
			<desc>nrf_mesh_dfu_init()</desc>
			<v:textBlock v:margins="rect(0,0,0,0)"/>
			<v:textRect cx="85.525" cy="233.7" width="171.05" height="10.8"/>
			<rect x="0" y="228.3" width="171.05" height="10.8" class="st2"/>
			<text x="0" y="236.4" class="st3" v:langID="1033"><v:paragraph/><v:tabList/>nrf_mesh_dfu_init()</text>		</g>
		<g id="shape44-116" v:mID="44" v:groupContext="shape" transform="translate(290.1,115.35) rotate(90)">
			<title>Sheet.44</title>
			<path d="M0 239.1 L29.25 239.1" class="st4"/>
		</g>
		<g id="shape45-119" v:mID="45" v:groupContext="shape" transform="translate(560.1,115.35) rotate(90)">
			<title>Sheet.45</title>
			<path d="M0 239.1 L29.25 239.1" class="st4"/>
		</g>
		<g id="shape46-122" v:mID="46" v:groupContext="shape" transform="translate(830.1,115.35) rotate(90)">
			<title>Sheet.46</title>
			<path d="M0 239.1 L29.25 239.1" class="st4"/>
		</g>
		<g id="shape47-125" v:mID="47" v:groupContext="shape" transform="translate(462,-99)">
			<title>Sheet.47</title>
			<rect x="0" y="214.35" width="228.75" height="24.75" class="st1"/>
		</g>
		<g id="shape48-127" v:mID="48" v:groupContext="shape" transform="translate(462,-99)">
			<title>Sheet.48</title>
			<rect x="0" y="216.6" width="204.75" height="22.5" class="st1"/>
		</g>
		<g id="shape49-129" v:mID="49" v:groupContext="shape" transform="translate(682.5,-114.75)">
			<title>Sheet.49</title>
			<path d="M0 230.1 L9 239.1 L0 239.1 L0 230.1 Z" class="st1"/>
		</g>
		<g id="shape50-131" v:mID="50" v:groupContext="shape" transform="translate(462,-123.75)">
			<title>Sheet.50</title>
			<path d="M0 239.1 L220.5 239.1" class="st4"/>
		</g>
		<g id="shape51-134" v:mID="51" v:groupContext="shape" transform="translate(461.56,-98.9996) rotate(-0.105322)">
			<title>Sheet.51</title>
			<path d="M0 239.1 L229.5 239.1" class="st4"/>
		</g>
		<g id="shape52-137" v:mID="52" v:groupContext="shape" transform="translate(701.1,115.35) rotate(90)">
			<title>Sheet.52</title>
			<path d="M0 239.1 L24.75 239.1" class="st4"/>
		</g>
		<g id="shape53-140" v:mID="53" v:groupContext="shape" transform="translate(930.6,124.35) rotate(90)">
			<title>Sheet.53</title>
			<path d="M0 239.1 L15.75 239.1" class="st4"/>
		</g>
		<g id="shape54-143" v:mID="54" v:groupContext="shape" transform="translate(851.569,-53.7192) rotate(45)">
			<title>Sheet.54</title>
			<path d="M0 239.1 L12.73 239.1" class="st4"/>
		</g>
		<g id="shape55-146" v:mID="55" v:groupContext="shape" transform="translate(921.6,115.35) rotate(90)">
			<title>Sheet.55</title>
			<path d="M0 239.1 L9 239.1" class="st4"/>
		</g>
		<g id="shape56-149" v:mID="56" v:groupContext="shape" transform="translate(691.5,363.45) rotate(180)">
			<title>Sheet.56</title>
			<path d="M0 239.1 L9 239.1" class="st4"/>
		</g>
		<g id="shape57-152" v:mID="57" v:groupContext="shape" transform="translate(589.5,-116.25)">
			<title>Sheet.57</title>
			<rect x="0" y="232.35" width="1.5" height="6.75" class="st1"/>
		</g>
		<g id="shape58-154" v:mID="58" v:groupContext="shape" transform="translate(491.25,-108)">
			<title>Sheet.58</title>
			<rect x="0" y="232.35" width="175.5" height="6.75" class="st1"/>
		</g>
		<g id="shape59-156" v:mID="59" v:groupContext="shape" transform="translate(491.975,-105.3)">
			<title>Sheet.59</title>
			<desc>State = NRF_MESH_DFU_STATE_INITIALIZED.</desc>
			<v:textBlock v:margins="rect(0,0,0,0)"/>
			<v:textRect cx="82.8875" cy="233.7" width="165.78" height="10.8"/>
			<rect x="0" y="228.3" width="165.775" height="10.8" class="st2"/>
			<text x="0" y="236.4" class="st3" v:langID="1033"><v:paragraph/><v:tabList/>State = NRF_MESH_DFU_STATE_INITIALIZED.</text>		</g>
		<g id="shape60-159" v:mID="60" v:groupContext="shape" transform="translate(589.5,-99.75)">
			<title>Sheet.60</title>
			<rect x="0" y="232.35" width="1.5" height="6.75" class="st1"/>
		</g>
		<g id="shape61-161" v:mID="61" v:groupContext="shape" transform="translate(290.1,144.6) rotate(90)">
			<title>Sheet.61</title>
			<path d="M0 239.1 L12.75 239.1" class="st4"/>
		</g>
		<g id="shape62-164" v:mID="62" v:groupContext="shape" transform="translate(560.1,144.6) rotate(90)">
			<title>Sheet.62</title>
			<path d="M0 239.1 L12.75 239.1" class="st4"/>
		</g>
		<g id="shape63-167" v:mID="63" v:groupContext="shape" transform="translate(830.1,144.6) rotate(90)">
			<title>Sheet.63</title>
			<path d="M0 239.1 L12.75 239.1" class="st4"/>
		</g>
		<g id="shape64-170" v:mID="64" v:groupContext="shape" transform="translate(18.75,-90.75)">
			<title>Sheet.64</title>
			<path d="M0 239.1 L612 239.1" class="st5"/>
		</g>
		<g id="shape65-173" v:mID="65" v:groupContext="shape" transform="translate(255.75,-87)">
			<title>Sheet.65</title>
			<rect x="0" y="232.35" width="129" height="6.75" class="st1"/>
		</g>
		<g id="shape66-175" v:mID="66" v:groupContext="shape" transform="translate(256.475,-84.3)">
			<title>Sheet.66</title>
			<desc>Enabling the Mesh DFU module</desc>
			<v:textBlock v:margins="rect(0,0,0,0)"/>
			<v:textRect cx="126.025" cy="233.7" width="252.06" height="10.8"/>
			<rect x="0" y="228.3" width="252.05" height="10.8" class="st2"/>
			<text x="0" y="236.4" class="st3" v:langID="1033"><v:paragraph/><v:tabList/>Enabling the Mesh DFU module</text>		</g>
		<g id="shape67-178" v:mID="67" v:groupContext="shape" transform="translate(290.1,157.35) rotate(90)">
			<title>Sheet.67</title>
			<path d="M0 239.1 L21 239.1" class="st4"/>
		</g>
		<g id="shape68-181" v:mID="68" v:groupContext="shape" transform="translate(560.1,157.35) rotate(90)">
			<title>Sheet.68</title>
			<path d="M0 239.1 L21 239.1" class="st4"/>
		</g>
		<g id="shape69-184" v:mID="69" v:groupContext="shape" transform="translate(830.1,157.35) rotate(90)">
			<title>Sheet.69</title>
			<path d="M0 239.1 L21 239.1" class="st4"/>
		</g>
		<g id="shape70-187" v:mID="70" v:groupContext="shape" transform="translate(51,-73.5)">
			<title>Sheet.70</title>
			<path d="M0 239.1 L270 239.1" class="st4"/>
		</g>
		<g id="shape71-190" v:mID="71" v:groupContext="shape" transform="translate(313.5,-69)">
			<title>Sheet.71</title>
			<path d="M7.5 234.6 L0 239.1 L0 230.1 L7.5 234.6 Z" class="st6"/>
		</g>
		<g id="shape72-192" v:mID="72" v:groupContext="shape" transform="translate(146.25,-74.25)">
			<title>Sheet.72</title>
			<rect x="0" y="232.35" width="78" height="6.75" class="st1"/>
		</g>
		<g id="shape73-194" v:mID="73" v:groupContext="shape" transform="translate(146.975,-71.55)">
			<title>Sheet.73</title>
			<desc>mesh_stack_start()</desc>
			<v:textBlock v:margins="rect(0,0,0,0)"/>
			<v:textRect cx="81.025" cy="233.7" width="162.06" height="10.8"/>
			<rect x="0" y="228.3" width="162.05" height="10.8" class="st2"/>
			<text x="0" y="236.4" class="st3" v:langID="1033"><v:paragraph/><v:tabList/>mesh_stack_start()</text>		</g>
		<g id="shape74-197" v:mID="74" v:groupContext="shape" transform="translate(290.1,178.35) rotate(90)">
			<title>Sheet.74</title>
			<path d="M0 239.1 L21 239.1" class="st4"/>
		</g>
		<g id="shape75-200" v:mID="75" v:groupContext="shape" transform="translate(560.1,178.35) rotate(90)">
			<title>Sheet.75</title>
			<path d="M0 239.1 L21 239.1" class="st4"/>
		</g>
		<g id="shape76-203" v:mID="76" v:groupContext="shape" transform="translate(830.1,178.35) rotate(90)">
			<title>Sheet.76</title>
			<path d="M0 239.1 L21 239.1" class="st4"/>
		</g>
		<g id="shape77-206" v:mID="77" v:groupContext="shape" transform="translate(321,-52.5)">
			<title>Sheet.77</title>
			<path d="M0 239.1 L270 239.1" class="st4"/>
		</g>
		<g id="shape78-209" v:mID="78" v:groupContext="shape" transform="translate(583.5,-48)">
			<title>Sheet.78</title>
			<path d="M7.5 234.6 L0 239.1 L0 230.1 L7.5 234.6 Z" class="st6"/>
		</g>
		<g id="shape79-211" v:mID="79" v:groupContext="shape" transform="translate(408,-53.25)">
			<title>Sheet.79</title>
			<rect x="0" y="232.35" width="94.5" height="6.75" class="st1"/>
		</g>
		<g id="shape80-213" v:mID="80" v:groupContext="shape" transform="translate(408.725,-50.55)">
			<title>Sheet.80</title>
			<desc>nrf_mesh_dfu_enable()</desc>
			<v:textBlock v:margins="rect(0,0,0,0)"/>
			<v:textRect cx="94.525" cy="233.7" width="189.06" height="10.8"/>
			<rect x="0" y="228.3" width="189.05" height="10.8" class="st2"/>
			<text x="0" y="236.4" class="st3" v:langID="1033"><v:paragraph/><v:tabList/>nrf_mesh_dfu_enable()</text>		</g>
		<g id="shape81-216" v:mID="81" v:groupContext="shape" transform="translate(290.1,199.35) rotate(90)">
			<title>Sheet.81</title>
			<path d="M0 239.1 L21 239.1" class="st4"/>
		</g>
		<g id="shape82-219" v:mID="82" v:groupContext="shape" transform="translate(560.1,199.35) rotate(90)">
			<title>Sheet.82</title>
			<path d="M0 239.1 L21 239.1" class="st4"/>
		</g>
		<g id="shape83-222" v:mID="83" v:groupContext="shape" transform="translate(830.1,199.35) rotate(90)">
			<title>Sheet.83</title>
			<path d="M0 239.1 L21 239.1" class="st4"/>
		</g>
		<g id="shape84-225" v:mID="84" v:groupContext="shape" transform="translate(591,446.7) rotate(180)">
			<title>Sheet.84</title>
			<path d="M0 239.1 L270 239.1" class="st4"/>
		</g>
		<g id="shape85-228" v:mID="85" v:groupContext="shape" transform="translate(444.016,2.57344) rotate(30.9638)">
			<title>Sheet.85</title>
			<path d="M0 239.1 L8.75 239.1" class="st4"/>
		</g>
		<g id="shape86-231" v:mID="86" v:groupContext="shape" transform="translate(403.5,-32.25)">
			<title>Sheet.86</title>
			<rect x="0" y="232.35" width="104.25" height="6.75" class="st1"/>
		</g>
		<g id="shape87-233" v:mID="87" v:groupContext="shape" transform="translate(404.225,-29.55)">
			<title>Sheet.87</title>
			<desc>Sends firmware ID packet</desc>
			<v:textBlock v:margins="rect(0,0,0,0)"/>
			<v:textRect cx="108.025" cy="233.7" width="216.06" height="10.8"/>
			<rect x="0" y="228.3" width="216.05" height="10.8" class="st2"/>
			<text x="0" y="236.4" class="st3" v:langID="1033"><v:paragraph/><v:tabList/>Sends firmware ID packet</text>		</g>
		<g id="shape88-236" v:mID="88" v:groupContext="shape" transform="translate(290.1,215.85) rotate(90)">
			<title>Sheet.88</title>
			<path d="M0 239.1 L4.5 239.1" class="st4"/>
		</g>
		<g id="shape89-239" v:mID="89" v:groupContext="shape" transform="translate(560.1,215.85) rotate(90)">
			<title>Sheet.89</title>
			<path d="M0 239.1 L4.5 239.1" class="st4"/>
		</g>
		<g id="shape90-242" v:mID="90" v:groupContext="shape" transform="translate(830.1,215.85) rotate(90)">
			<title>Sheet.90</title>
			<path d="M0 239.1 L4.5 239.1" class="st4"/>
		</g>
	</g>
</svg>
