<?xml version="1.0" encoding="UTF-8"?><svg xmlns="http://www.w3.org/2000/svg" xmlns:xlink="http://www.w3.org/1999/xlink" fill-opacity="1" color-rendering="auto" color-interpolation="auto" text-rendering="auto" stroke="black" stroke-linecap="square" width="827" stroke-miterlimit="10" shape-rendering="auto" stroke-opacity="1" fill="black" stroke-dasharray="none" font-weight="normal" stroke-width="1" height="754" font-family="'Dialog'" font-style="normal" stroke-linejoin="miter" font-size="12px" stroke-dashoffset="0" image-rendering="auto">
  <!--Generated by ySVG 2.5-->
  <defs id="genericDefs"/>
  <g>
    <defs id="defs1">
      <clipPath clipPathUnits="userSpaceOnUse" id="clipPath1">
        <path d="M0 0 L827 0 L827 754 L0 754 L0 0 Z"/>
      </clipPath>
      <clipPath clipPathUnits="userSpaceOnUse" id="clipPath2">
        <path d="M-604 -258 L223 -258 L223 496 L-604 496 L-604 -258 Z"/>
      </clipPath>
    </defs>
    <g fill="white" text-rendering="geometricPrecision" shape-rendering="geometricPrecision" transform="translate(604,258)" stroke="white">
      <rect x="-604" width="827" height="754" y="-258" clip-path="url(#clipPath2)" stroke="none"/>
    </g>
    <g text-rendering="geometricPrecision" stroke-miterlimit="1.45" stroke-dasharray="6,2" shape-rendering="geometricPrecision" transform="matrix(1,0,0,1,604,258)" stroke-linecap="butt">
      <path fill="none" d="M-585.3207 151.9595 Q-585.3207 141.9595 -575.3207 141.9595 L193.9673 141.9595 Q203.9673 141.9595 203.9673 151.9595 L203.9673 470.6555 Q203.9673 480.6555 193.9673 480.6555 L-575.3207 480.6555 Q-585.3207 480.6555 -585.3207 470.6555 Z" clip-path="url(#clipPath2)"/>
      <text x="-579.3207" y="156.0239" clip-path="url(#clipPath2)" font-family="sans-serif" stroke-dasharray="none" stroke="none" xml:space="preserve">Node's response time to </text>
      <text x="-579.3207" y="170.7251" clip-path="url(#clipPath2)" font-family="sans-serif" stroke-dasharray="none" stroke="none" xml:space="preserve">external messages is now</text>
      <text x="-579.3207" y="185.4263" clip-path="url(#clipPath2)" font-family="sans-serif" stroke-dasharray="none" stroke="none" xml:space="preserve">limited by polling intervals</text>
    </g>
    <g fill="rgb(255,153,153)" text-rendering="geometricPrecision" shape-rendering="geometricPrecision" transform="matrix(1,0,0,1,604,258)" stroke="rgb(255,153,153)">
      <ellipse rx="75.4258" ry="29.5396" clip-path="url(#clipPath2)" cx="-120.1625" cy="36.6449" stroke="none"/>
    </g>
    <g text-rendering="geometricPrecision" stroke-miterlimit="1.45" shape-rendering="geometricPrecision" transform="matrix(1,0,0,1,604,258)" stroke-linecap="butt">
      <ellipse rx="75.4258" fill="none" ry="29.5396" clip-path="url(#clipPath2)" cx="-120.1625" cy="36.6449"/>
      <text x="-166.185" xml:space="preserve" y="34.0082" clip-path="url(#clipPath2)" font-family="sans-serif" stroke="none">Normal operation</text>
      <text x="-167.5209" xml:space="preserve" y="48.7093" clip-path="url(#clipPath2)" font-family="sans-serif" stroke="none">(continuous scan)</text>
    </g>
    <g fill="rgb(153,204,0)" text-rendering="geometricPrecision" shape-rendering="geometricPrecision" transform="matrix(1,0,0,1,604,258)" stroke="rgb(153,204,0)">
      <ellipse rx="51.7002" ry="20.7344" clip-path="url(#clipPath2)" cx="52.3948" cy="187.6939" stroke="none"/>
    </g>
    <g text-rendering="geometricPrecision" stroke-miterlimit="1.45" shape-rendering="geometricPrecision" transform="matrix(1,0,0,1,604,258)" stroke-linecap="butt">
      <ellipse rx="51.7002" fill="none" ry="20.7344" clip-path="url(#clipPath2)" cx="52.3948" cy="187.6939"/>
      <text x="16.7082" xml:space="preserve" y="185.0571" clip-path="url(#clipPath2)" font-family="sans-serif" stroke="none">Searching for</text>
      <text x="37.386" xml:space="preserve" y="199.7583" clip-path="url(#clipPath2)" font-family="sans-serif" stroke="none">friend</text>
    </g>
    <g fill="rgb(153,204,0)" text-rendering="geometricPrecision" shape-rendering="geometricPrecision" transform="matrix(1,0,0,1,604,258)" stroke="rgb(153,204,0)">
      <ellipse rx="51.7002" ry="20.7344" clip-path="url(#clipPath2)" cx="52.3948" cy="353.2718" stroke="none"/>
    </g>
    <g text-rendering="geometricPrecision" stroke-miterlimit="1.45" shape-rendering="geometricPrecision" transform="matrix(1,0,0,1,604,258)" stroke-linecap="butt">
      <ellipse rx="51.7002" fill="none" ry="20.7344" clip-path="url(#clipPath2)" cx="52.3948" cy="353.2718"/>
      <text x="19.7082" xml:space="preserve" y="350.635" clip-path="url(#clipPath2)" font-family="sans-serif" stroke="none">In friendship</text>
      <text x="34.0549" xml:space="preserve" y="365.3362" clip-path="url(#clipPath2)" font-family="sans-serif" stroke="none">(sleep)</text>
    </g>
    <g fill="rgb(153,204,0)" text-rendering="geometricPrecision" shape-rendering="geometricPrecision" transform="matrix(1,0,0,1,604,258)" stroke="rgb(153,204,0)">
      <ellipse rx="51.7002" ry="20.7344" clip-path="url(#clipPath2)" cx="-275.7079" cy="353.2718" stroke="none"/>
    </g>
    <g text-rendering="geometricPrecision" stroke-miterlimit="1.45" shape-rendering="geometricPrecision" transform="matrix(1,0,0,1,604,258)" stroke-linecap="butt">
      <ellipse rx="51.7002" fill="none" ry="20.7344" clip-path="url(#clipPath2)" cx="-275.7079" cy="353.2718"/>
      <text x="-307.0585" xml:space="preserve" y="350.635" clip-path="url(#clipPath2)" font-family="sans-serif" stroke="none">Poll to fetch</text>
      <text x="-303.0536" xml:space="preserve" y="365.3362" clip-path="url(#clipPath2)" font-family="sans-serif" stroke="none">messages</text>
    </g>
    <g fill="rgb(255,153,153)" text-rendering="geometricPrecision" shape-rendering="geometricPrecision" transform="matrix(1,0,0,1,604,258)" stroke="rgb(255,153,153)">
      <ellipse rx="51.7002" ry="22.1104" clip-path="url(#clipPath2)" cx="-44.0279" cy="-211.4173" stroke="none"/>
    </g>
    <g text-rendering="geometricPrecision" stroke-miterlimit="1.45" shape-rendering="geometricPrecision" transform="matrix(1,0,0,1,604,258)" stroke-linecap="butt">
      <ellipse rx="51.7002" fill="none" ry="22.1104" clip-path="url(#clipPath2)" cx="-44.0279" cy="-211.4173"/>
      <text x="-71.0367" xml:space="preserve" y="-206.7035" clip-path="url(#clipPath2)" font-family="sans-serif" stroke="none">Power UP</text>
    </g>
    <g fill="rgb(153,204,0)" text-rendering="geometricPrecision" shape-rendering="geometricPrecision" transform="matrix(1,0,0,1,604,258)" stroke="rgb(153,204,0)">
      <ellipse rx="51.7002" ry="22.1104" clip-path="url(#clipPath2)" cx="-275.7079" cy="182.0792" stroke="none"/>
    </g>
    <g text-rendering="geometricPrecision" stroke-miterlimit="1.45" shape-rendering="geometricPrecision" transform="matrix(1,0,0,1,604,258)" stroke-linecap="butt">
      <ellipse rx="51.7002" fill="none" ry="22.1104" clip-path="url(#clipPath2)" cx="-275.7079" cy="182.0792"/>
      <text x="-310.0644" xml:space="preserve" y="179.4425" clip-path="url(#clipPath2)" font-family="sans-serif" stroke="none">Leave power</text>
      <text x="-309.7275" xml:space="preserve" y="194.1436" clip-path="url(#clipPath2)" font-family="sans-serif" stroke="none">saving mode</text>
    </g>
    <g fill="rgb(255,153,153)" text-rendering="geometricPrecision" shape-rendering="geometricPrecision" transform="matrix(1,0,0,1,604,258)" stroke="rgb(255,153,153)">
      <ellipse rx="70.9002" ry="30.7504" clip-path="url(#clipPath2)" cx="-229.956" cy="-103.9773" stroke="none"/>
    </g>
    <g text-rendering="geometricPrecision" stroke-miterlimit="1.45" shape-rendering="geometricPrecision" transform="matrix(1,0,0,1,604,258)" stroke-linecap="butt">
      <ellipse rx="70.9002" fill="none" ry="30.7504" clip-path="url(#clipPath2)" cx="-229.956" cy="-103.9773"/>
      <text x="-282.9951" xml:space="preserve" y="-106.6141" clip-path="url(#clipPath2)" font-family="sans-serif" stroke="none">Send unprovisioned</text>
      <text x="-267.6552" xml:space="preserve" y="-91.9129" clip-path="url(#clipPath2)" font-family="sans-serif" stroke="none">node beacons</text>
    </g>
    <g fill="rgb(255,153,153)" text-rendering="geometricPrecision" shape-rendering="geometricPrecision" transform="matrix(1,0,0,1,604,258)" stroke="rgb(255,153,153)">
      <path d="M-110.2279 -103.9773 L-44.0279 -134.7278 L22.1721 -103.9773 L-44.0279 -73.2269 Z" fill-rule="evenodd" clip-path="url(#clipPath2)" stroke="none"/>
    </g>
    <g text-rendering="geometricPrecision" stroke-miterlimit="1.45" shape-rendering="geometricPrecision" transform="matrix(1,0,0,1,604,258)" stroke-linecap="butt">
      <path fill="none" d="M-110.2279 -103.9773 L-44.0279 -134.7278 L22.1721 -103.9773 L-44.0279 -73.2269 Z" fill-rule="evenodd" clip-path="url(#clipPath2)"/>
      <text x="-78.7154" xml:space="preserve" y="-99.2635" clip-path="url(#clipPath2)" font-family="sans-serif" stroke="none">Provisioned?</text>
      <text x="-586.9684" font-size="10px" y="-231.2083" clip-path="url(#clipPath2)" font-family="'Consolas'" stroke="none" xml:space="preserve">Legend</text>
    </g>
    <g fill="rgb(153,204,0)" text-rendering="geometricPrecision" shape-rendering="geometricPrecision" transform="matrix(1,0,0,1,604,258)" stroke="rgb(153,204,0)">
      <rect x="-585.3207" width="122.4058" height="19.5142" y="-221.1745" clip-path="url(#clipPath2)" stroke="none"/>
    </g>
    <g text-rendering="geometricPrecision" stroke-miterlimit="1.45" shape-rendering="geometricPrecision" transform="matrix(1,0,0,1,604,258)" stroke-linecap="butt">
      <rect fill="none" x="-585.3207" width="122.4058" height="19.5142" y="-221.1745" clip-path="url(#clipPath2)"/>
      <text x="-576.3492" font-size="10px" y="-208.1361" clip-path="url(#clipPath2)" font-family="'Consolas'" stroke="none" xml:space="preserve">Low power operation</text>
    </g>
    <g fill="rgb(255,153,153)" text-rendering="geometricPrecision" shape-rendering="geometricPrecision" transform="matrix(1,0,0,1,604,258)" stroke="rgb(255,153,153)">
      <rect x="-585.3207" width="122.4058" height="19.5142" y="-194.0589" clip-path="url(#clipPath2)" stroke="none"/>
    </g>
    <g text-rendering="geometricPrecision" stroke-miterlimit="1.45" shape-rendering="geometricPrecision" transform="matrix(1,0,0,1,604,258)" stroke-linecap="butt">
      <rect fill="none" x="-585.3207" width="122.4058" height="19.5142" y="-194.0589" clip-path="url(#clipPath2)"/>
      <text x="-579.0983" font-size="10px" y="-181.0206" clip-path="url(#clipPath2)" font-family="'Consolas'" stroke="none" xml:space="preserve">High power operation</text>
      <path fill="none" d="M-89.3591 63.6088 L24.8409 163.5744" clip-path="url(#clipPath2)"/>
      <path d="M30.8605 168.8437 L25.1244 157.1776 L24.0885 162.9158 L18.5378 164.702 Z" clip-path="url(#clipPath2)" stroke="none"/>
      <text x="14.9457" xml:space="preserve" y="83.057" clip-path="url(#clipPath2)" font-family="sans-serif" stroke="none">Send Friend Request</text>
      <text x="-10.399" xml:space="preserve" y="97.7581" clip-path="url(#clipPath2)" font-family="sans-serif" stroke="none">(continuous scanning turns off)</text>
      <path fill="none" d="M52.3948 208.4283 L52.3948 324.5374" clip-path="url(#clipPath2)"/>
      <path d="M52.3948 332.5374 L57.3948 320.5374 L52.3948 323.5374 L47.3948 320.5374 Z" clip-path="url(#clipPath2)" stroke="none"/>
      <text x="63.5308" xml:space="preserve" y="264.4706" clip-path="url(#clipPath2)" font-family="sans-serif" stroke="none">Friendship established</text>
      <path fill="none" d="M0.6946 353.2718 L-216.0078 353.2718" clip-path="url(#clipPath2)"/>
      <path d="M-224.0078 353.2718 L-212.0078 358.2718 L-215.0078 353.2718 L-212.0078 348.2718 Z" clip-path="url(#clipPath2)" stroke="none"/>
      <text x="-167.016" xml:space="preserve" y="336.1776" clip-path="url(#clipPath2)" font-family="sans-serif" stroke="none">Wake up periodically</text>
      <path fill="none" d="M-327.4344 353.2718 L-346.8535 353.2718 L-360.1274 353.8271 L-370.8443 355.4932 L-379.0042 358.2701 L-382.1252 360.075 L-384.6069 362.1576 L-386.4494 364.5179 L-387.6527 367.1559 L-388.2166 370.0715 L-388.1413 373.2649 L-387.4268 376.7359 L-386.0729 380.4846 L-381.4474 388.8151 L-376.1995 396.7136 L-370.1239 404.4886 L-363.7054 410.0423 L-360.3674 411.9861 L-356.9437 413.3745 L-353.4342 414.2075 L-349.839 414.4852 L-346.158 414.2075 L-342.3912 413.3745 L-334.6004 410.0423 L-326.4665 404.4886 L-317.9895 396.7136 L-300.0956 378.3286" clip-path="url(#clipPath2)"/>
      <path d="M-294.5158 372.5957 L-306.4685 377.7077 L-300.7931 379.0452 L-299.3024 384.6824 Z" clip-path="url(#clipPath2)" stroke="none"/>
      <text x="-536.3548" xml:space="preserve" y="415.1125" clip-path="url(#clipPath2)" font-family="sans-serif" stroke="none">Process received messages,</text>
      <text x="-558.3802" xml:space="preserve" y="429.8137" clip-path="url(#clipPath2)" font-family="sans-serif" stroke="none">send polls until friend queue is empty</text>
      <path fill="none" d="M-258.2427 372.7979 L-223.3378 411.8216 L-217.7397 417.4354 L-211.6577 422.3007 L-205.0917 426.4175 L-198.0418 429.7858 L-190.5078 432.4055 L-182.4899 434.2768 L-173.988 435.3995 L-165.0021 435.7738 L-155.5322 435.3995 L-145.5783 434.2768 L-135.1405 432.4055 L-124.2187 429.7858 L-112.8129 426.4175 L-100.9231 422.3007 L-88.5493 417.4354 L-75.6916 411.8216 L11.0021 372.1928" clip-path="url(#clipPath2)"/>
      <path d="M18.278 368.8669 L5.2855 369.3083 L10.0927 372.6086 L9.4429 378.4032 Z" clip-path="url(#clipPath2)" stroke="none"/>
      <text x="-286.8623" xml:space="preserve" y="446.5641" clip-path="url(#clipPath2)" font-family="sans-serif" stroke="none">No more message in friend queue</text>
      <path fill="none" d="M0.6946 187.6938 L-217.6782 187.6938" clip-path="url(#clipPath2)"/>
      <path d="M-225.6782 187.6938 L-213.6782 192.6938 L-216.6782 187.6938 L-213.6782 182.6938 Z" clip-path="url(#clipPath2)" stroke="none"/>
      <text x="-164.0247" xml:space="preserve" y="213.3322" clip-path="url(#clipPath2)" font-family="sans-serif" stroke="none">Cannot find a friend</text>
      <path fill="none" d="M-275.7079 332.5374 L-275.7079 212.1896" clip-path="url(#clipPath2)"/>
      <path d="M-275.7079 204.1896 L-280.7079 216.1896 L-275.7079 213.1896 L-270.7079 216.1896 Z" clip-path="url(#clipPath2)" stroke="none"/>
      <text x="-444.8614" xml:space="preserve" y="276.0911" clip-path="url(#clipPath2)" font-family="sans-serif" stroke="none">No response from friend, or</text>
      <text x="-454.878" xml:space="preserve" y="290.7922" clip-path="url(#clipPath2)" font-family="sans-serif" stroke="none">Application initiated termination</text>
      <path fill="none" d="M-254.2031 161.9723 L-155.1464 69.3546" clip-path="url(#clipPath2)"/>
      <path d="M-149.3028 63.8909 L-161.483 68.4343 L-155.8768 70.0376 L-154.6534 75.7388 Z" clip-path="url(#clipPath2)" stroke="none"/>
      <text x="-360.7774" xml:space="preserve" y="125.4536" clip-path="url(#clipPath2)" font-family="sans-serif" stroke="none">Turn on scanner if required</text>
      <path fill="none" d="M-207.2155 -74.8516 L-147.1414 2.0907" clip-path="url(#clipPath2)"/>
      <path d="M-142.2181 8.3964 L-145.662 -4.1392 L-147.7568 1.3025 L-153.5441 2.0149 Z" clip-path="url(#clipPath2)" stroke="none"/>
      <text x="-242.3931" xml:space="preserve" y="-26.2911" clip-path="url(#clipPath2)" font-family="sans-serif" stroke="none">Provisioned</text>
      <path fill="none" d="M-44.0279 -189.3069 L-44.0279 -142.7677" clip-path="url(#clipPath2)"/>
      <path d="M-44.0279 -134.7677 L-39.0279 -146.7677 L-44.0279 -143.7677 L-49.0279 -146.7677 Z" clip-path="url(#clipPath2)" stroke="none"/>
      <path fill="none" d="M-110.2557 -103.9773 L-151.0559 -103.9773" clip-path="url(#clipPath2)"/>
      <path d="M-159.0559 -103.9773 L-147.0559 -98.9773 L-150.0559 -103.9773 L-147.0559 -108.9773 Z" clip-path="url(#clipPath2)" stroke="none"/>
      <text x="-125.5349" xml:space="preserve" y="-109.4235" clip-path="url(#clipPath2)" font-family="sans-serif" stroke="none">N</text>
      <path fill="none" d="M-57.318 -79.4303 L-100.7084 0.7126" clip-path="url(#clipPath2)"/>
      <path d="M-104.5173 7.7477 L-94.407 -0.4244 L-100.2323 -0.1668 L-103.2009 -5.1855 Z" clip-path="url(#clipPath2)" stroke="none"/>
      <text x="-81.281" xml:space="preserve" y="-56.4991" clip-path="url(#clipPath2)" font-family="sans-serif" stroke="none">Y</text>
    </g>
  </g>
</svg>
