<?xml version="1.0" encoding="UTF-8" standalone="no"?>
<!DOCTYPE svg PUBLIC "-//W3C//DTD SVG 1.1//EN" "http://www.w3.org/Graphics/SVG/1.1/DTD/svg11.dtd">
<!-- Generated by Microsoft Visio, SVG Export mesh_config_overview.svg Page-1 -->
<svg xmlns="http://www.w3.org/2000/svg" xmlns:xlink="http://www.w3.org/1999/xlink" xmlns:ev="http://www.w3.org/2001/xml-events"
		xmlns:v="http://schemas.microsoft.com/visio/2003/SVGExtensions/" width="9.75in" height="5.75333in" viewBox="0 0 702 414.24"
		xml:space="preserve" color-interpolation-filters="sRGB" class="st15">
	<v:documentProperties v:langID="1033" v:viewMarkup="false">
		<v:userDefs>
			<v:ud v:nameU="msvNoAutoConnect" v:val="VT0(1):26"/>
		</v:userDefs>
	</v:documentProperties>

	<style type="text/css">
	<![CDATA[
		.st1 {fill:#00b0f0;stroke:#000000;stroke-linecap:round;stroke-linejoin:round;stroke-opacity:0;stroke-width:0.24}
		.st2 {fill:#ffffff;font-family:Calibri;font-size:1.16666em}
		.st3 {fill:#dbeef3;stroke:#31859b;stroke-linecap:round;stroke-linejoin:round;stroke-width:0.24}
		.st4 {fill:#000000;font-family:Calibri;font-size:0.833336em}
		.st5 {fill:#b7dde8;stroke:#92cddc;stroke-linecap:round;stroke-linejoin:round;stroke-width:0.24}
		.st6 {fill:#0070c0;stroke:#000000;stroke-linecap:round;stroke-linejoin:round;stroke-opacity:0;stroke-width:0.24}
		.st7 {fill:#4bacc6;stroke:#000000;stroke-linecap:round;stroke-linejoin:round;stroke-opacity:0;stroke-width:0.24}
		.st8 {fill:#fff2cc;stroke:#fee599;stroke-linecap:round;stroke-linejoin:round;stroke-width:2}
		.st9 {fill:#ffd965;stroke:#fee599;stroke-linecap:round;stroke-linejoin:round;stroke-width:0.24}
		.st10 {fill:#eeeaf2;stroke:#ddd6e5;stroke-linecap:round;stroke-linejoin:round;stroke-width:2}
		.st11 {fill:none;stroke:none;stroke-linecap:round;stroke-linejoin:round;stroke-width:0.75}
		.st12 {fill:#000000;font-family:Calibri;font-size:1.00001em}
		.st13 {fill:#ffffff;stroke:#000000;stroke-linecap:round;stroke-linejoin:round;stroke-width:1.5}
		.st14 {fill:#ffffff;font-family:Calibri;font-size:0.833336em}
		.st15 {fill:none;fill-rule:evenodd;font-size:12px;overflow:visible;stroke-linecap:square;stroke-miterlimit:3}
	]]>
	</style>

	<g v:mID="0" v:index="1" v:groupContext="foregroundPage">
		<title>Page-1</title>
		<v:pageProperties v:drawingScale="1" v:pageScale="1" v:drawingUnits="19" v:shadowOffsetX="9" v:shadowOffsetY="-9"/>
		<g id="shape77-1" v:mID="77" v:groupContext="shape" transform="translate(198,-117.12)">
			<title>Rectangle.77</title>
			<desc>Mesh configuration module</desc>
			<v:userDefs>
				<v:ud v:nameU="visVersion" v:val="VT0(15):26"/>
			</v:userDefs>
			<v:textBlock v:margins="rect(4,4,4,4)" v:verticalAlign="0"/>
			<v:textRect cx="153" cy="322.365" width="306" height="183.75"/>
			<rect x="0" y="230.49" width="306" height="183.75" class="st1"/>
			<text x="4" y="247.09" class="st2" v:langID="1033"><v:paragraph/><v:tabList/>Mesh configuration module</text>		</g>
		<g id="shape55-4" v:mID="55" v:groupContext="shape" transform="translate(207,-138.87)">
			<title>Rectangle</title>
			<desc>File</desc>
			<v:userDefs>
				<v:ud v:nameU="visVersion" v:val="VT0(15):26"/>
			</v:userDefs>
			<v:textBlock v:margins="rect(4,4,4,4)" v:verticalAlign="0"/>
			<v:textRect cx="45" cy="346.74" width="90" height="135"/>
			<rect x="0" y="279.24" width="90" height="135" class="st3"/>
			<text x="4" y="292.24" class="st4" v:langID="1033"><v:paragraph/><v:tabList/>File</text>		</g>
		<g id="shape56-7" v:mID="56" v:groupContext="shape" transform="translate(216,-237.87)">
			<title>Rectangle.56</title>
			<desc>Entry</desc>
			<v:userDefs>
				<v:ud v:nameU="visVersion" v:val="VT0(15):26"/>
			</v:userDefs>
			<v:textBlock v:margins="rect(4,4,4,4)"/>
			<v:textRect cx="36" cy="407.49" width="72" height="13.5"/>
			<rect x="0" y="400.74" width="72" height="13.5" class="st5"/>
			<text x="25.25" y="410.49" class="st4" v:langID="1033"><v:paragraph v:horizAlign="1"/><v:tabList/>Entry</text>		</g>
		<g id="shape59-10" v:mID="59" v:groupContext="shape" transform="translate(216,-215.37)">
			<title>Rectangle.59</title>
			<desc>Entry</desc>
			<v:userDefs>
				<v:ud v:nameU="visVersion" v:val="VT0(15):26"/>
			</v:userDefs>
			<v:textBlock v:margins="rect(4,4,4,4)"/>
			<v:textRect cx="36" cy="407.49" width="72" height="13.5"/>
			<rect x="0" y="400.74" width="72" height="13.5" class="st5"/>
			<text x="25.25" y="410.49" class="st4" v:langID="1033"><v:paragraph v:horizAlign="1"/><v:tabList/>Entry</text>		</g>
		<g id="shape60-13" v:mID="60" v:groupContext="shape" transform="translate(216,-192.87)">
			<title>Rectangle.60</title>
			<desc>Entry</desc>
			<v:userDefs>
				<v:ud v:nameU="visVersion" v:val="VT0(15):26"/>
			</v:userDefs>
			<v:textBlock v:margins="rect(4,4,4,4)"/>
			<v:textRect cx="36" cy="407.49" width="72" height="13.5"/>
			<rect x="0" y="400.74" width="72" height="13.5" class="st5"/>
			<text x="25.25" y="410.49" class="st4" v:langID="1033"><v:paragraph v:horizAlign="1"/><v:tabList/>Entry</text>		</g>
		<g id="shape61-16" v:mID="61" v:groupContext="shape" transform="translate(216,-170.37)">
			<title>Rectangle.61</title>
			<desc>Entry</desc>
			<v:userDefs>
				<v:ud v:nameU="visVersion" v:val="VT0(15):26"/>
			</v:userDefs>
			<v:textBlock v:margins="rect(4,4,4,4)"/>
			<v:textRect cx="36" cy="407.49" width="72" height="13.5"/>
			<rect x="0" y="400.74" width="72" height="13.5" class="st5"/>
			<text x="25.25" y="410.49" class="st4" v:langID="1033"><v:paragraph v:horizAlign="1"/><v:tabList/>Entry</text>		</g>
		<g id="shape63-19" v:mID="63" v:groupContext="shape" transform="translate(216,-147.87)">
			<title>Rectangle.63</title>
			<desc>Entry</desc>
			<v:userDefs>
				<v:ud v:nameU="visVersion" v:val="VT0(15):26"/>
			</v:userDefs>
			<v:textBlock v:margins="rect(4,4,4,4)"/>
			<v:textRect cx="36" cy="407.49" width="72" height="13.5"/>
			<rect x="0" y="400.74" width="72" height="13.5" class="st5"/>
			<text x="25.25" y="410.49" class="st4" v:langID="1033"><v:paragraph v:horizAlign="1"/><v:tabList/>Entry</text>		</g>
		<g id="shape64-22" v:mID="64" v:groupContext="shape" transform="translate(306,-138.87)">
			<title>Rectangle.64</title>
			<desc>File</desc>
			<v:userDefs>
				<v:ud v:nameU="visVersion" v:val="VT0(15):26"/>
			</v:userDefs>
			<v:textBlock v:margins="rect(4,4,4,4)" v:verticalAlign="0"/>
			<v:textRect cx="45" cy="346.74" width="90" height="135"/>
			<rect x="0" y="279.24" width="90" height="135" class="st3"/>
			<text x="4" y="292.24" class="st4" v:langID="1033"><v:paragraph/><v:tabList/>File</text>		</g>
		<g id="shape65-25" v:mID="65" v:groupContext="shape" transform="translate(315,-237.87)">
			<title>Rectangle.65</title>
			<desc>Entry</desc>
			<v:userDefs>
				<v:ud v:nameU="visVersion" v:val="VT0(15):26"/>
			</v:userDefs>
			<v:textBlock v:margins="rect(4,4,4,4)"/>
			<v:textRect cx="36" cy="407.49" width="72" height="13.5"/>
			<rect x="0" y="400.74" width="72" height="13.5" class="st5"/>
			<text x="25.25" y="410.49" class="st4" v:langID="1033"><v:paragraph v:horizAlign="1"/><v:tabList/>Entry</text>		</g>
		<g id="shape66-28" v:mID="66" v:groupContext="shape" transform="translate(315,-215.37)">
			<title>Rectangle.66</title>
			<desc>Entry</desc>
			<v:userDefs>
				<v:ud v:nameU="visVersion" v:val="VT0(15):26"/>
			</v:userDefs>
			<v:textBlock v:margins="rect(4,4,4,4)"/>
			<v:textRect cx="36" cy="407.49" width="72" height="13.5"/>
			<rect x="0" y="400.74" width="72" height="13.5" class="st5"/>
			<text x="25.25" y="410.49" class="st4" v:langID="1033"><v:paragraph v:horizAlign="1"/><v:tabList/>Entry</text>		</g>
		<g id="shape67-31" v:mID="67" v:groupContext="shape" transform="translate(315,-192.87)">
			<title>Rectangle.67</title>
			<desc>Entry</desc>
			<v:userDefs>
				<v:ud v:nameU="visVersion" v:val="VT0(15):26"/>
			</v:userDefs>
			<v:textBlock v:margins="rect(4,4,4,4)"/>
			<v:textRect cx="36" cy="407.49" width="72" height="13.5"/>
			<rect x="0" y="400.74" width="72" height="13.5" class="st5"/>
			<text x="25.25" y="410.49" class="st4" v:langID="1033"><v:paragraph v:horizAlign="1"/><v:tabList/>Entry</text>		</g>
		<g id="shape68-34" v:mID="68" v:groupContext="shape" transform="translate(315,-170.37)">
			<title>Rectangle.68</title>
			<desc>Entry</desc>
			<v:userDefs>
				<v:ud v:nameU="visVersion" v:val="VT0(15):26"/>
			</v:userDefs>
			<v:textBlock v:margins="rect(4,4,4,4)"/>
			<v:textRect cx="36" cy="407.49" width="72" height="13.5"/>
			<rect x="0" y="400.74" width="72" height="13.5" class="st5"/>
			<text x="25.25" y="410.49" class="st4" v:langID="1033"><v:paragraph v:horizAlign="1"/><v:tabList/>Entry</text>		</g>
		<g id="shape69-37" v:mID="69" v:groupContext="shape" transform="translate(315,-147.87)">
			<title>Rectangle.69</title>
			<desc>Entry</desc>
			<v:userDefs>
				<v:ud v:nameU="visVersion" v:val="VT0(15):26"/>
			</v:userDefs>
			<v:textBlock v:margins="rect(4,4,4,4)"/>
			<v:textRect cx="36" cy="407.49" width="72" height="13.5"/>
			<rect x="0" y="400.74" width="72" height="13.5" class="st5"/>
			<text x="25.25" y="410.49" class="st4" v:langID="1033"><v:paragraph v:horizAlign="1"/><v:tabList/>Entry</text>		</g>
		<g id="shape70-40" v:mID="70" v:groupContext="shape" transform="translate(405,-138.87)">
			<title>Rectangle.70</title>
			<desc>File</desc>
			<v:userDefs>
				<v:ud v:nameU="visVersion" v:val="VT0(15):26"/>
			</v:userDefs>
			<v:textBlock v:margins="rect(4,4,4,4)" v:verticalAlign="0"/>
			<v:textRect cx="45" cy="346.74" width="90" height="135"/>
			<rect x="0" y="279.24" width="90" height="135" class="st3"/>
			<text x="4" y="292.24" class="st4" v:langID="1033"><v:paragraph/><v:tabList/>File</text>		</g>
		<g id="shape71-43" v:mID="71" v:groupContext="shape" transform="translate(414,-237.87)">
			<title>Rectangle.71</title>
			<desc>Entry</desc>
			<v:userDefs>
				<v:ud v:nameU="visVersion" v:val="VT0(15):26"/>
			</v:userDefs>
			<v:textBlock v:margins="rect(4,4,4,4)"/>
			<v:textRect cx="36" cy="407.49" width="72" height="13.5"/>
			<rect x="0" y="400.74" width="72" height="13.5" class="st5"/>
			<text x="25.25" y="410.49" class="st4" v:langID="1033"><v:paragraph v:horizAlign="1"/><v:tabList/>Entry</text>		</g>
		<g id="shape72-46" v:mID="72" v:groupContext="shape" transform="translate(414,-215.37)">
			<title>Rectangle.72</title>
			<desc>Entry</desc>
			<v:userDefs>
				<v:ud v:nameU="visVersion" v:val="VT0(15):26"/>
			</v:userDefs>
			<v:textBlock v:margins="rect(4,4,4,4)"/>
			<v:textRect cx="36" cy="407.49" width="72" height="13.5"/>
			<rect x="0" y="400.74" width="72" height="13.5" class="st5"/>
			<text x="25.25" y="410.49" class="st4" v:langID="1033"><v:paragraph v:horizAlign="1"/><v:tabList/>Entry</text>		</g>
		<g id="shape73-49" v:mID="73" v:groupContext="shape" transform="translate(414,-192.87)">
			<title>Rectangle.73</title>
			<desc>Entry</desc>
			<v:userDefs>
				<v:ud v:nameU="visVersion" v:val="VT0(15):26"/>
			</v:userDefs>
			<v:textBlock v:margins="rect(4,4,4,4)"/>
			<v:textRect cx="36" cy="407.49" width="72" height="13.5"/>
			<rect x="0" y="400.74" width="72" height="13.5" class="st5"/>
			<text x="25.25" y="410.49" class="st4" v:langID="1033"><v:paragraph v:horizAlign="1"/><v:tabList/>Entry</text>		</g>
		<g id="shape74-52" v:mID="74" v:groupContext="shape" transform="translate(414,-170.37)">
			<title>Rectangle.74</title>
			<desc>Entry</desc>
			<v:userDefs>
				<v:ud v:nameU="visVersion" v:val="VT0(15):26"/>
			</v:userDefs>
			<v:textBlock v:margins="rect(4,4,4,4)"/>
			<v:textRect cx="36" cy="407.49" width="72" height="13.5"/>
			<rect x="0" y="400.74" width="72" height="13.5" class="st5"/>
			<text x="25.25" y="410.49" class="st4" v:langID="1033"><v:paragraph v:horizAlign="1"/><v:tabList/>Entry</text>		</g>
		<g id="shape75-55" v:mID="75" v:groupContext="shape" transform="translate(414,-147.87)">
			<title>Rectangle.75</title>
			<desc>Entry</desc>
			<v:userDefs>
				<v:ud v:nameU="visVersion" v:val="VT0(15):26"/>
			</v:userDefs>
			<v:textBlock v:margins="rect(4,4,4,4)"/>
			<v:textRect cx="36" cy="407.49" width="72" height="13.5"/>
			<rect x="0" y="400.74" width="72" height="13.5" class="st5"/>
			<text x="25.25" y="410.49" class="st4" v:langID="1033"><v:paragraph v:horizAlign="1"/><v:tabList/>Entry</text>		</g>
		<g id="shape78-58" v:mID="78" v:groupContext="shape" transform="translate(198,-346.62)">
			<title>Rectangle.78</title>
			<desc>Application</desc>
			<v:userDefs>
				<v:ud v:nameU="visVersion" v:val="VT0(15):26"/>
			</v:userDefs>
			<v:textBlock v:margins="rect(4,4,4,4)"/>
			<v:textRect cx="153" cy="389.49" width="306" height="49.5"/>
			<rect x="0" y="364.74" width="306" height="49.5" class="st6"/>
			<text x="120.75" y="393.69" class="st2" v:langID="1033"><v:paragraph v:horizAlign="1"/><v:tabList/>Application</text>		</g>
		<g id="shape79-61" v:mID="79" v:groupContext="shape" transform="translate(198,-18.12)">
			<title>Rectangle.79</title>
			<desc>Backend</desc>
			<v:userDefs>
				<v:ud v:nameU="visVersion" v:val="VT0(15):26"/>
			</v:userDefs>
			<v:textBlock v:margins="rect(4,4,4,4)"/>
			<v:textRect cx="153" cy="389.49" width="306" height="49.5"/>
			<rect x="0" y="364.74" width="306" height="49.5" class="st7"/>
			<text x="128.86" y="393.69" class="st2" v:langID="1033"><v:paragraph v:horizAlign="1"/><v:tabList/>Backend</text>		</g>
		<g id="shape80-64" v:mID="80" v:groupContext="shape" transform="translate(567,-218.182)">
			<title>Rectangle.80</title>
			<v:userDefs>
				<v:ud v:nameU="visVersion" v:val="VT0(15):26"/>
			</v:userDefs>
			<rect x="0" y="381.99" width="116" height="32.25" class="st8"/>
		</g>
		<g id="shape83-66" v:mID="83" v:groupContext="shape" transform="translate(576,-227.182)">
			<title>Rectangle.83</title>
			<desc>RAM representation</desc>
			<v:userDefs>
				<v:ud v:nameU="visVersion" v:val="VT0(15):26"/>
			</v:userDefs>
			<v:textBlock v:margins="rect(4,4,4,4)"/>
			<v:textRect cx="49.5" cy="407.49" width="99" height="13.5"/>
			<rect x="0" y="400.74" width="99" height="13.5" class="st9"/>
			<text x="8.17" y="410.49" class="st4" v:langID="1033"><v:paragraph v:horizAlign="1"/><v:tabList/>RAM representation</text>		</g>
		<g id="shape88-69" v:mID="88" v:groupContext="shape" transform="translate(567,-175.245)">
			<title>Rectangle.88</title>
			<v:userDefs>
				<v:ud v:nameU="visVersion" v:val="VT0(15):26"/>
			</v:userDefs>
			<rect x="0" y="381.99" width="116" height="32.25" class="st8"/>
		</g>
		<g id="shape89-71" v:mID="89" v:groupContext="shape" transform="translate(576,-184.432)">
			<title>Rectangle.89</title>
			<desc>RAM representation</desc>
			<v:userDefs>
				<v:ud v:nameU="visVersion" v:val="VT0(15):26"/>
			</v:userDefs>
			<v:textBlock v:margins="rect(4,4,4,4)"/>
			<v:textRect cx="49.5" cy="407.49" width="99" height="13.5"/>
			<rect x="0" y="400.74" width="99" height="13.5" class="st9"/>
			<text x="8.17" y="410.49" class="st4" v:langID="1033"><v:paragraph v:horizAlign="1"/><v:tabList/>RAM representation</text>		</g>
		<g id="shape90-74" v:mID="90" v:groupContext="shape" transform="translate(567,-131.932)">
			<title>Rectangle.90</title>
			<v:userDefs>
				<v:ud v:nameU="visVersion" v:val="VT0(15):26"/>
			</v:userDefs>
			<rect x="0" y="381.99" width="116" height="32.25" class="st8"/>
		</g>
		<g id="shape91-76" v:mID="91" v:groupContext="shape" transform="translate(576,-140.932)">
			<title>Rectangle.91</title>
			<desc>RAM representation</desc>
			<v:userDefs>
				<v:ud v:nameU="visVersion" v:val="VT0(15):26"/>
			</v:userDefs>
			<v:textBlock v:margins="rect(4,4,4,4)"/>
			<v:textRect cx="49.5" cy="407.49" width="99" height="13.5"/>
			<rect x="0" y="400.74" width="99" height="13.5" class="st9"/>
			<text x="8.17" y="410.49" class="st4" v:langID="1033"><v:paragraph v:horizAlign="1"/><v:tabList/>RAM representation</text>		</g>
		<g id="shape92-79" v:mID="92" v:groupContext="shape" transform="translate(19,-218.182)">
			<title>Rectangle.92</title>
			<v:userDefs>
				<v:ud v:nameU="visVersion" v:val="VT0(15):26"/>
			</v:userDefs>
			<rect x="0" y="381.99" width="116" height="32.25" class="st10"/>
		</g>
		<g id="shape94-81" v:mID="94" v:groupContext="shape" transform="translate(19,-174.87)">
			<title>Rectangle.94</title>
			<v:userDefs>
				<v:ud v:nameU="visVersion" v:val="VT0(15):26"/>
			</v:userDefs>
			<rect x="0" y="381.99" width="116" height="32.25" class="st10"/>
		</g>
		<g id="shape95-83" v:mID="95" v:groupContext="shape" transform="translate(19,-131.557)">
			<title>Rectangle.95</title>
			<v:userDefs>
				<v:ud v:nameU="visVersion" v:val="VT0(15):26"/>
			</v:userDefs>
			<rect x="0" y="381.99" width="116" height="32.25" class="st10"/>
		</g>
		<g id="shape103-85" v:mID="103" v:groupContext="shape" transform="translate(19,-261.495)">
			<title>Sheet.103</title>
			<desc>State change listeners</desc>
			<v:textBlock v:margins="rect(4,4,4,4)"/>
			<v:textRect cx="58" cy="405.24" width="116" height="18"/>
			<rect x="0" y="396.24" width="116" height="18" class="st11"/>
			<text x="4.45" y="408.84" class="st12" v:langID="1033"><v:paragraph v:horizAlign="1"/><v:tabList/>State change listeners</text>		</g>
		<g id="shape106-88" v:mID="106" v:groupContext="shape" transform="translate(567,-261.12)">
			<title>Sheet.106</title>
			<desc>State owners</desc>
			<v:textBlock v:margins="rect(4,4,4,4)"/>
			<v:textRect cx="58" cy="405.24" width="116.01" height="18"/>
			<rect x="0" y="396.24" width="116" height="18" class="st11"/>
			<text x="25.98" y="408.84" class="st12" v:langID="1033"><v:paragraph v:horizAlign="1"/><v:tabList/>State owners</text>		</g>
		<g id="shape109-91" v:mID="109" v:groupContext="shape" transform="translate(145.726,-234.304) rotate(0.23873)">
			<title>Simple Arrow</title>
			<desc>Change</desc>
			<v:userDefs>
				<v:ud v:nameU="visVersion" v:val="VT0(15):26"/>
				<v:ud v:nameU="ArrowType" v:prompt="" v:val="VT0(2):26"/>
			</v:userDefs>
			<v:textBlock v:margins="rect(4,4,4,4)"/>
			<v:textRect cx="22.5002" cy="414.24" width="45.01" height="0"/>
			<path d="M0 414.24 L12 402.24 L12 408.24 L45 408.24 L45 414.24 L45 420.24 L12 420.24 L12 426.24 L0 414.24 Z"
					class="st13"/>
			<text x="7.34" y="417.24" class="st4" v:langID="1033"><v:paragraph v:horizAlign="1"/><v:tabList/>Change</text>		</g>
		<g id="shape110-94" v:mID="110" v:groupContext="shape" transform="translate(145.726,-189.304) rotate(0.23873)">
			<title>Simple Arrow.110</title>
			<desc>Change</desc>
			<v:userDefs>
				<v:ud v:nameU="visVersion" v:val="VT0(15):26"/>
				<v:ud v:nameU="ArrowType" v:prompt="" v:val="VT0(2):26"/>
			</v:userDefs>
			<v:textBlock v:margins="rect(4,4,4,4)"/>
			<v:textRect cx="22.5002" cy="414.24" width="45.01" height="0"/>
			<path d="M0 414.24 L12 402.24 L12 408.24 L45 408.24 L45 414.24 L45 420.24 L12 420.24 L12 426.24 L0 414.24 Z"
					class="st13"/>
			<text x="7.34" y="417.24" class="st4" v:langID="1033"><v:paragraph v:horizAlign="1"/><v:tabList/>Change</text>		</g>
		<g id="shape111-97" v:mID="111" v:groupContext="shape" transform="translate(149.178,-148.025) rotate(0.716159)">
			<title>Simple Arrow.111</title>
			<desc>Change</desc>
			<v:userDefs>
				<v:ud v:nameU="visVersion" v:val="VT0(15):26"/>
				<v:ud v:nameU="ArrowType" v:prompt="" v:val="VT0(2):26"/>
			</v:userDefs>
			<v:textBlock v:margins="rect(4,4,4,4)"/>
			<v:textRect cx="22.5018" cy="414.24" width="45.01" height="0"/>
			<path d="M0 414.24 L12 402.24 L12 408.24 L45 408.24 L45 414.24 L45 420.24 L12 420.24 L12 426.24 L0 414.24 Z"
					class="st13"/>
			<text x="7.35" y="417.24" class="st4" v:langID="1033"><v:paragraph v:horizAlign="1"/><v:tabList/>Change</text>		</g>
		<g id="shape112-100" v:mID="112" v:groupContext="shape" transform="translate(513,-171.12)">
			<title>Simple Arrow.112</title>
			<desc>Get</desc>
			<v:userDefs>
				<v:ud v:nameU="visVersion" v:val="VT0(15):26"/>
				<v:ud v:nameU="ArrowType" v:prompt="" v:val="VT0(2):26"/>
			</v:userDefs>
			<v:textBlock v:margins="rect(4,4,4,4)"/>
			<v:textRect cx="22.5" cy="414.24" width="45" height="0"/>
			<path d="M0 414.24 L12 402.24 L12 408.24 L45 408.24 L45 414.24 L45 420.24 L12 420.24 L12 426.24 L0 414.24 Z"
					class="st13"/>
			<text x="15.18" y="417.24" class="st4" v:langID="1033"><v:paragraph v:horizAlign="1"/><v:tabList/>Get</text>		</g>
		<g id="shape120-103" v:mID="120" v:groupContext="shape" transform="translate(558,617.985) rotate(180)">
			<title>Simple Arrow.120</title>
			<desc>Set</desc>
			<v:userDefs>
				<v:ud v:nameU="visVersion" v:val="VT0(15):26"/>
				<v:ud v:nameU="ArrowType" v:prompt="" v:val="VT0(2):26"/>
			</v:userDefs>
			<v:textBlock v:margins="rect(4,4,4,4)"/>
			<v:textRect cx="22.5" cy="414.24" width="45" height="0" transform="rotate(180)"/>
			<path d="M0 414.24 L12 402.24 L12 408.24 L45 408.24 L45 414.24 L45 420.24 L12 420.24 L12 426.24 L0 414.24 Z"
					class="st13"/>
			<text x="-28.96" y="-411.24" transform="rotate(180)" class="st4" v:langID="1033"><v:paragraph v:horizAlign="1"/><v:tabList/>Set</text>		</g>
		<g id="shape121-106" v:mID="121" v:groupContext="shape" transform="translate(702.24,72.12) rotate(90)">
			<title>Simple Arrow.121</title>
			<desc>Set</desc>
			<v:userDefs>
				<v:ud v:nameU="visVersion" v:val="VT0(15):26"/>
				<v:ud v:nameU="ArrowType" v:prompt="" v:val="VT0(2):26"/>
			</v:userDefs>
			<v:textBlock v:margins="rect(4,4,4,4)"/>
			<v:textRect cx="18" cy="414.24" width="36" height="0" transform="rotate(-90)"/>
			<path d="M0 414.24 L12 388.36 L12 401.3 L36 401.3 L36 414.24 L36 427.18 L12 427.18 L12 440.11 L0 414.24 Z" class="st13"/>
			<text x="-421.99" y="21.6" transform="rotate(-90)" class="st12" v:langID="1033"><v:paragraph v:horizAlign="1"/><v:tabList/>Set</text>		</g>
		<g id="shape123-109" v:mID="123" v:groupContext="shape" transform="translate(-17.8873,115.045) rotate(-90.4911)">
			<title>Simple Arrow.123</title>
			<desc>Get</desc>
			<v:userDefs>
				<v:ud v:nameU="visVersion" v:val="VT0(15):26"/>
				<v:ud v:nameU="ArrowType" v:prompt="" v:val="VT0(2):26"/>
			</v:userDefs>
			<v:textBlock v:margins="rect(4,4,4,4)"/>
			<v:textRect cx="19.6882" cy="414.24" width="39.38" height="0" transform="rotate(450.491)"/>
			<path d="M0 414.24 L12 388.36 L12 401.3 L39.38 401.3 L39.38 414.24 L39.38 427.18 L12 427.18 L12 440.11 L0 414.24 Z"
					class="st13"/>
			<text x="405.28" y="-19.64" transform="rotate(90.4911)" class="st12" v:langID="1033"><v:paragraph v:horizAlign="1"/><v:tabList/>Get</text>		</g>
		<g id="shape125-112" v:mID="125" v:groupContext="shape" transform="translate(810.24,306.12) rotate(90)">
			<title>Simple Arrow.125</title>
			<desc>Load</desc>
			<v:userDefs>
				<v:ud v:nameU="visVersion" v:val="VT0(15):26"/>
				<v:ud v:nameU="ArrowType" v:prompt="" v:val="VT0(2):26"/>
			</v:userDefs>
			<v:textBlock v:margins="rect(4,4,4,4)"/>
			<v:textRect cx="18" cy="414.24" width="36" height="0" transform="rotate(-90)"/>
			<path d="M0 414.24 L12 388.36 L12 401.3 L36 401.3 L36 414.24 L36 427.18 L12 427.18 L12 440.11 L0 414.24 Z" class="st13"/>
			<text x="-425.95" y="21.6" transform="rotate(-90)" class="st12" v:langID="1033"><v:paragraph v:horizAlign="1"/><v:tabList/>Load</text>		</g>
		<g id="shape129-115" v:mID="129" v:groupContext="shape" transform="translate(-125.887,345.67) rotate(-90.4911)">
			<title>Simple Arrow.129</title>
			<desc>Store</desc>
			<v:userDefs>
				<v:ud v:nameU="visVersion" v:val="VT0(15):26"/>
				<v:ud v:nameU="ArrowType" v:prompt="" v:val="VT0(2):26"/>
			</v:userDefs>
			<v:textBlock v:margins="rect(4,4,4,4)"/>
			<v:textRect cx="19.6882" cy="414.24" width="39.38" height="0" transform="rotate(450.491)"/>
			<path d="M0 414.24 L12 388.36 L12 401.3 L39.38 401.3 L39.38 414.24 L39.38 427.18 L12 427.18 L12 440.11 L0 414.24 Z"
					class="st13"/>
			<text x="403.22" y="-20.24" transform="rotate(90.4911)" class="st4" v:langID="1033"><v:paragraph v:horizAlign="1"/><v:tabList/>Store</text>		</g>
		<g id="shape131-118" v:mID="131" v:groupContext="shape" transform="translate(261,-19.245)">
			<title>Sheet.131</title>
			<desc>(Storing takes place in persistent storage.)</desc>
			<v:textBlock v:margins="rect(4,4,4,4)"/>
			<v:textRect cx="90" cy="406.365" width="180" height="15.75"/>
			<rect x="0" y="398.49" width="180" height="15.75" class="st11"/>
			<text x="4.61" y="409.37" class="st14" v:langID="1033"><v:paragraph v:horizAlign="1"/><v:tabList/>(Storing takes place in persistent storage.)</text>		</g>
	</g>
</svg>
