<?xml version="1.0" encoding="UTF-8"?><svg xmlns="http://www.w3.org/2000/svg" xmlns:xlink="http://www.w3.org/1999/xlink" fill-opacity="1" color-rendering="auto" color-interpolation="auto" text-rendering="auto" stroke="black" stroke-linecap="square" width="864" stroke-miterlimit="10" shape-rendering="auto" stroke-opacity="1" fill="black" stroke-dasharray="none" font-weight="normal" stroke-width="1" height="464" font-family="'Dialog'" font-style="normal" stroke-linejoin="miter" font-size="12px" stroke-dashoffset="0" image-rendering="auto">
  <!--Generated by ySVG 2.5-->
  <defs id="genericDefs"/>
  <g>
    <defs id="defs1">
      <clipPath clipPathUnits="userSpaceOnUse" id="clipPath1">
        <path d="M0 0 L864 0 L864 464 L0 464 L0 0 Z"/>
      </clipPath>
      <clipPath clipPathUnits="userSpaceOnUse" id="clipPath2">
        <path d="M235 -89 L1099 -89 L1099 375 L235 375 L235 -89 Z"/>
      </clipPath>
    </defs>
    <g fill="white" text-rendering="geometricPrecision" shape-rendering="geometricPrecision" transform="translate(-235,89)" stroke="white">
      <rect x="235" width="864" height="464" y="-89" clip-path="url(#clipPath2)" stroke="none"/>
    </g>
    <g fill="rgb(0,90,127)" text-rendering="geometricPrecision" shape-rendering="geometricPrecision" transform="matrix(1,0,0,1,-235,89)" stroke="rgb(0,90,127)">
      <rect x="250.08" width="198.464" height="50" y="200" clip-path="url(#clipPath2)" stroke="none"/>
      <rect stroke-linecap="butt" x="250.08" y="200" clip-path="url(#clipPath2)" fill="none" width="198.464" height="50" stroke-miterlimit="1.45"/>
    </g>
    <g stroke-linecap="butt" font-size="16px" transform="matrix(1,0,0,1,-235,89)" fill="white" text-rendering="geometricPrecision" font-family="sans-serif" shape-rendering="geometricPrecision" stroke="white" stroke-miterlimit="1.45">
      <text x="323.8823" xml:space="preserve" y="230.5391" clip-path="url(#clipPath2)" stroke="none">L2CAP</text>
    </g>
    <g fill="rgb(0,90,127)" text-rendering="geometricPrecision" shape-rendering="geometricPrecision" transform="matrix(1,0,0,1,-235,89)" stroke="rgb(0,90,127)">
      <rect x="250.08" width="96.928" height="50" y="145.3753" clip-path="url(#clipPath2)" stroke="none"/>
      <rect stroke-linecap="butt" x="250.08" y="145.3753" clip-path="url(#clipPath2)" fill="none" width="96.928" height="50" stroke-miterlimit="1.45"/>
    </g>
    <g stroke-linecap="butt" font-size="16px" transform="matrix(1,0,0,1,-235,89)" fill="white" text-rendering="geometricPrecision" font-family="sans-serif" shape-rendering="geometricPrecision" stroke="white" stroke-miterlimit="1.45">
      <text x="283.2979" xml:space="preserve" y="175.9144" clip-path="url(#clipPath2)" stroke="none">ATT</text>
    </g>
    <g fill="rgb(0,90,127)" text-rendering="geometricPrecision" shape-rendering="geometricPrecision" transform="matrix(1,0,0,1,-235,89)" stroke="rgb(0,90,127)">
      <rect x="351.616" width="96.928" height="104.6247" y="90.7507" clip-path="url(#clipPath2)" stroke="none"/>
      <rect stroke-linecap="butt" x="351.616" y="90.7507" clip-path="url(#clipPath2)" fill="none" width="96.928" height="104.6247" stroke-miterlimit="1.45"/>
    </g>
    <g stroke-linecap="butt" font-size="16px" transform="matrix(1,0,0,1,-235,89)" fill="white" text-rendering="geometricPrecision" font-family="sans-serif" shape-rendering="geometricPrecision" stroke="white" stroke-miterlimit="1.45">
      <text x="367.2284" xml:space="preserve" y="139.2896" clip-path="url(#clipPath2)" stroke="none">Security</text>
      <text x="365.0136" xml:space="preserve" y="157.9146" clip-path="url(#clipPath2)" stroke="none">Manager</text>
    </g>
    <g fill="rgb(0,90,127)" text-rendering="geometricPrecision" shape-rendering="geometricPrecision" transform="matrix(1,0,0,1,-235,89)" stroke="rgb(0,90,127)">
      <rect x="250.08" width="604.608" height="50" y="254.6247" clip-path="url(#clipPath2)" stroke="none"/>
      <rect stroke-linecap="butt" x="250.08" y="254.6247" clip-path="url(#clipPath2)" fill="none" width="604.608" height="50" stroke-miterlimit="1.45"/>
    </g>
    <g stroke-linecap="butt" font-size="16px" transform="matrix(1,0,0,1,-235,89)" fill="white" text-rendering="geometricPrecision" font-family="sans-serif" shape-rendering="geometricPrecision" stroke="white" stroke-miterlimit="1.45">
      <text x="511.1535" xml:space="preserve" y="285.1637" clip-path="url(#clipPath2)" stroke="none">Link Layer</text>
    </g>
    <g fill="rgb(0,90,127)" text-rendering="geometricPrecision" shape-rendering="geometricPrecision" transform="matrix(1,0,0,1,-235,89)" stroke="rgb(0,90,127)">
      <rect x="250.08" width="96.928" height="50" y="90.7507" clip-path="url(#clipPath2)" stroke="none"/>
      <rect stroke-linecap="butt" x="250.08" y="90.7507" clip-path="url(#clipPath2)" fill="none" width="96.928" height="50" stroke-miterlimit="1.45"/>
    </g>
    <g stroke-linecap="butt" font-size="16px" transform="matrix(1,0,0,1,-235,89)" fill="white" text-rendering="geometricPrecision" font-family="sans-serif" shape-rendering="geometricPrecision" stroke="white" stroke-miterlimit="1.45">
      <text x="277.0987" xml:space="preserve" y="121.2897" clip-path="url(#clipPath2)" stroke="none">GATT</text>
    </g>
    <g fill="rgb(0,90,127)" text-rendering="geometricPrecision" shape-rendering="geometricPrecision" transform="matrix(1,0,0,1,-235,89)" stroke="rgb(0,90,127)">
      <rect x="250.08" width="604.608" height="50" y="309.2493" clip-path="url(#clipPath2)" stroke="none"/>
      <rect stroke-linecap="butt" x="250.08" y="309.2493" clip-path="url(#clipPath2)" fill="none" width="604.608" height="50" stroke-miterlimit="1.45"/>
    </g>
    <g stroke-linecap="butt" font-size="16px" transform="matrix(1,0,0,1,-235,89)" fill="white" text-rendering="geometricPrecision" font-family="sans-serif" shape-rendering="geometricPrecision" stroke="white" stroke-miterlimit="1.45">
      <text x="494.9934" xml:space="preserve" y="339.7884" clip-path="url(#clipPath2)" stroke="none">Physical Layer</text>
    </g>
    <g fill="rgb(0,90,127)" text-rendering="geometricPrecision" shape-rendering="geometricPrecision" transform="matrix(1,0,0,1,-235,89)" stroke="rgb(0,90,127)">
      <rect x="250.08" width="198.464" height="50" y="36.126" clip-path="url(#clipPath2)" stroke="none"/>
      <rect stroke-linecap="butt" x="250.08" y="36.126" clip-path="url(#clipPath2)" fill="none" width="198.464" height="50" stroke-miterlimit="1.45"/>
    </g>
    <g stroke-linecap="butt" font-size="16px" transform="matrix(1,0,0,1,-235,89)" fill="white" text-rendering="geometricPrecision" font-family="sans-serif" shape-rendering="geometricPrecision" stroke="white" stroke-miterlimit="1.45">
      <text x="332.8159" xml:space="preserve" y="66.665" clip-path="url(#clipPath2)" stroke="none">GAP</text>
    </g>
    <g fill="rgb(0,154,217)" text-rendering="geometricPrecision" shape-rendering="geometricPrecision" transform="matrix(1,0,0,1,-235,89)" stroke="rgb(0,154,217)">
      <rect x="453.152" width="401.536" height="50" y="200" clip-path="url(#clipPath2)" stroke="none"/>
      <rect stroke-linecap="butt" x="453.152" y="200" clip-path="url(#clipPath2)" fill="none" width="401.536" height="50" stroke-miterlimit="1.45"/>
    </g>
    <g stroke-linecap="butt" font-size="16px" transform="matrix(1,0,0,1,-235,89)" fill="white" text-rendering="geometricPrecision" font-family="sans-serif" shape-rendering="geometricPrecision" stroke="white" stroke-miterlimit="1.45">
      <text x="627.1075" xml:space="preserve" y="230.5391" clip-path="url(#clipPath2)" stroke="none">Bearer</text>
    </g>
    <g fill="rgb(0,154,217)" text-rendering="geometricPrecision" shape-rendering="geometricPrecision" transform="matrix(1,0,0,1,-235,89)" stroke="rgb(0,154,217)">
      <rect x="453.152" width="198.464" height="50" y="145.3753" clip-path="url(#clipPath2)" stroke="none"/>
      <rect stroke-linecap="butt" x="453.152" y="145.3753" clip-path="url(#clipPath2)" fill="none" width="198.464" height="50" stroke-miterlimit="1.45"/>
    </g>
    <g stroke-linecap="butt" font-size="16px" transform="matrix(1,0,0,1,-235,89)" fill="white" text-rendering="geometricPrecision" font-family="sans-serif" shape-rendering="geometricPrecision" stroke="white" stroke-miterlimit="1.45">
      <text x="518.9816" xml:space="preserve" y="175.9144" clip-path="url(#clipPath2)" stroke="none">Network</text>
    </g>
    <g fill="rgb(0,154,217)" text-rendering="geometricPrecision" shape-rendering="geometricPrecision" transform="matrix(1,0,0,1,-235,89)" stroke="rgb(0,154,217)">
      <rect x="453.152" width="198.464" height="50" y="90.7507" clip-path="url(#clipPath2)" stroke="none"/>
      <rect stroke-linecap="butt" x="453.152" y="90.7507" clip-path="url(#clipPath2)" fill="none" width="198.464" height="50" stroke-miterlimit="1.45"/>
    </g>
    <g stroke-linecap="butt" font-size="16px" transform="matrix(1,0,0,1,-235,89)" fill="white" text-rendering="geometricPrecision" font-family="sans-serif" shape-rendering="geometricPrecision" stroke="white" stroke-miterlimit="1.45">
      <text x="513.6691" xml:space="preserve" y="121.2897" clip-path="url(#clipPath2)" stroke="none">Transport</text>
    </g>
    <g fill="rgb(0,154,217)" text-rendering="geometricPrecision" shape-rendering="geometricPrecision" transform="matrix(1,0,0,1,-235,89)" stroke="rgb(0,154,217)">
      <rect x="453.152" width="198.464" height="50" y="36.126" clip-path="url(#clipPath2)" stroke="none"/>
      <rect stroke-linecap="butt" x="453.152" y="36.126" clip-path="url(#clipPath2)" fill="none" width="198.464" height="50" stroke-miterlimit="1.45"/>
    </g>
    <g stroke-linecap="butt" font-size="16px" transform="matrix(1,0,0,1,-235,89)" fill="white" text-rendering="geometricPrecision" font-family="sans-serif" shape-rendering="geometricPrecision" stroke="white" stroke-miterlimit="1.45">
      <text x="524.8566" xml:space="preserve" y="66.665" clip-path="url(#clipPath2)" stroke="none">Access</text>
    </g>
    <g fill="rgb(0,154,217)" text-rendering="geometricPrecision" shape-rendering="geometricPrecision" transform="matrix(1,0,0,1,-235,89)" stroke="rgb(0,154,217)">
      <rect x="656.224" width="198.464" height="159.2493" y="36.126" clip-path="url(#clipPath2)" stroke="none"/>
      <rect stroke-linecap="butt" x="656.224" y="36.126" clip-path="url(#clipPath2)" fill="none" width="198.464" height="159.2493" stroke-miterlimit="1.45"/>
    </g>
    <g stroke-linecap="butt" font-size="16px" transform="matrix(1,0,0,1,-235,89)" fill="white" text-rendering="geometricPrecision" font-family="sans-serif" shape-rendering="geometricPrecision" stroke="white" stroke-miterlimit="1.45">
      <text x="706.7646" xml:space="preserve" y="121.2897" clip-path="url(#clipPath2)" stroke="none">Provisioning</text>
    </g>
    <g fill="rgb(0,90,127)" text-rendering="geometricPrecision" shape-rendering="geometricPrecision" transform="matrix(1,0,0,1,-235,89)" stroke="rgb(0,90,127)">
      <rect x="884.688" width="198.464" height="30" y="36.126" clip-path="url(#clipPath2)" stroke="none"/>
      <rect stroke-linecap="butt" x="884.688" y="36.126" clip-path="url(#clipPath2)" fill="none" width="198.464" height="30" stroke-miterlimit="1.45"/>
    </g>
    <g stroke-linecap="butt" font-size="16px" transform="matrix(1,0,0,1,-235,89)" fill="white" text-rendering="geometricPrecision" font-family="sans-serif" shape-rendering="geometricPrecision" stroke="white" stroke-miterlimit="1.45">
      <text x="895.9551" xml:space="preserve" y="56.665" clip-path="url(#clipPath2)" stroke="none">Bluetooth Low Energy</text>
    </g>
    <g fill="rgb(0,154,217)" text-rendering="geometricPrecision" shape-rendering="geometricPrecision" transform="matrix(1,0,0,1,-235,89)" stroke="rgb(0,154,217)">
      <rect x="884.688" width="198.464" height="30" y="70.892" clip-path="url(#clipPath2)" stroke="none"/>
      <rect stroke-linecap="butt" x="884.688" y="70.892" clip-path="url(#clipPath2)" fill="none" width="198.464" height="30" stroke-miterlimit="1.45"/>
    </g>
    <g stroke-linecap="butt" font-size="16px" transform="matrix(1,0,0,1,-235,89)" fill="white" text-rendering="geometricPrecision" font-family="sans-serif" shape-rendering="geometricPrecision" stroke="white" stroke-miterlimit="1.45">
      <text x="921.4786" xml:space="preserve" y="91.431" clip-path="url(#clipPath2)" stroke="none">Bluetooth Mesh</text>
    </g>
    <g fill="rgb(108,108,108)" text-rendering="geometricPrecision" shape-rendering="geometricPrecision" transform="matrix(1,0,0,1,-235,89)" stroke="rgb(108,108,108)">
      <rect x="250.08" width="604.608" height="50" y="-73.5746" clip-path="url(#clipPath2)" stroke="none"/>
      <rect stroke-linecap="butt" x="250.08" y="-73.5746" clip-path="url(#clipPath2)" fill="none" width="604.608" height="50" stroke-miterlimit="1.45"/>
    </g>
    <g stroke-linecap="butt" font-size="16px" transform="matrix(1,0,0,1,-235,89)" fill="white" text-rendering="geometricPrecision" font-family="sans-serif" shape-rendering="geometricPrecision" stroke="white" stroke-miterlimit="1.45">
      <text x="507.6848" xml:space="preserve" y="-43.0355" clip-path="url(#clipPath2)" stroke="none">Application</text>
    </g>
    <g fill="rgb(0,154,217)" text-rendering="geometricPrecision" shape-rendering="geometricPrecision" transform="matrix(1,0,0,1,-235,89)" stroke="rgb(0,154,217)">
      <rect x="453.152" width="401.536" height="50" y="-18.7243" clip-path="url(#clipPath2)" stroke="none"/>
      <rect stroke-linecap="butt" x="453.152" y="-18.7243" clip-path="url(#clipPath2)" fill="none" width="401.536" height="50" stroke-miterlimit="1.45"/>
    </g>
    <g stroke-linecap="butt" font-size="16px" transform="matrix(1,0,0,1,-235,89)" fill="white" text-rendering="geometricPrecision" font-family="sans-serif" shape-rendering="geometricPrecision" stroke="white" stroke-miterlimit="1.45">
      <text x="601.2364" xml:space="preserve" y="11.8148" clip-path="url(#clipPath2)" stroke="none">Mesh models</text>
    </g>
    <g fill="rgb(0,90,127)" text-rendering="geometricPrecision" shape-rendering="geometricPrecision" transform="matrix(1,0,0,1,-235,89)" stroke="rgb(0,90,127)">
      <rect x="250.08" width="198.464" height="50" y="-18.7243" clip-path="url(#clipPath2)" stroke="none"/>
      <rect stroke-linecap="butt" x="250.08" y="-18.7243" clip-path="url(#clipPath2)" fill="none" width="198.464" height="50" stroke-miterlimit="1.45"/>
    </g>
    <g stroke-linecap="butt" font-size="16px" transform="matrix(1,0,0,1,-235,89)" fill="white" text-rendering="geometricPrecision" font-family="sans-serif" shape-rendering="geometricPrecision" stroke="white" stroke-miterlimit="1.45">
      <text x="292.4995" xml:space="preserve" y="11.8148" clip-path="url(#clipPath2)" stroke="none">GATT services</text>
    </g>
  </g>
</svg>
