<?xml version="1.0" encoding="UTF-8"?><svg xmlns="http://www.w3.org/2000/svg" xmlns:xlink="http://www.w3.org/1999/xlink" fill-opacity="1" color-rendering="auto" color-interpolation="auto" text-rendering="auto" stroke="black" stroke-linecap="square" width="478" stroke-miterlimit="10" shape-rendering="auto" stroke-opacity="1" fill="black" stroke-dasharray="none" font-weight="normal" stroke-width="1" height="349" font-family="'Dialog'" font-style="normal" stroke-linejoin="miter" font-size="12px" stroke-dashoffset="0" image-rendering="auto">
  <!--Generated by ySVG 2.5-->
  <defs id="genericDefs"/>
  <g>
    <g fill="white" text-rendering="geometricPrecision" shape-rendering="geometricPrecision" transform="translate(-178,-239)" stroke="white">
      <rect x="178" width="478" height="349" y="239" clip-path="url(#clipPath2)" stroke="none"/>
    </g>
    <g fill="rgb(255,204,0)" text-rendering="geometricPrecision" shape-rendering="geometricPrecision" transform="matrix(1,0,0,1,-178,-239)" stroke="rgb(255,204,0)">
      <ellipse rx="17.6624" ry="17.6624" clip-path="url(#clipPath2)" cx="231.6768" cy="303.0512" stroke="none"/>
    </g>
    <g text-rendering="geometricPrecision" stroke-miterlimit="1.45" shape-rendering="geometricPrecision" transform="matrix(1,0,0,1,-178,-239)" stroke-linecap="butt">
      <ellipse rx="17.6624" fill="none" ry="17.6624" clip-path="url(#clipPath2)" cx="231.6768" cy="303.0512"/>
      <text x="227.6749" xml:space="preserve" y="307.7651" clip-path="url(#clipPath2)" font-family="sans-serif" stroke="none">E</text>
    </g>
    <g fill="rgb(255,102,0)" text-rendering="geometricPrecision" shape-rendering="geometricPrecision" transform="matrix(1,0,0,1,-178,-239)" stroke="rgb(255,102,0)">
      <ellipse rx="17.6624" ry="17.6624" clip-path="url(#clipPath2)" cx="310.8256" cy="351.4336" stroke="none"/>
    </g>
    <g text-rendering="geometricPrecision" stroke-miterlimit="1.45" shape-rendering="geometricPrecision" transform="matrix(1,0,0,1,-178,-239)" stroke-linecap="butt">
      <ellipse rx="17.6624" fill="none" ry="17.6624" clip-path="url(#clipPath2)" cx="310.8256" cy="351.4336"/>
      <text x="306.4926" xml:space="preserve" y="356.1475" clip-path="url(#clipPath2)" font-family="sans-serif" stroke="none">R</text>
    </g>
    <g fill="rgb(255,204,0)" text-rendering="geometricPrecision" shape-rendering="geometricPrecision" transform="matrix(1,0,0,1,-178,-239)" stroke="rgb(255,204,0)">
      <ellipse rx="17.6624" ry="17.6624" clip-path="url(#clipPath2)" cx="321.8848" cy="276.8928" stroke="none"/>
    </g>
    <g text-rendering="geometricPrecision" stroke-miterlimit="1.45" shape-rendering="geometricPrecision" transform="matrix(1,0,0,1,-178,-239)" stroke-linecap="butt">
      <ellipse rx="17.6624" fill="none" ry="17.6624" clip-path="url(#clipPath2)" cx="321.8848" cy="276.8928"/>
      <text x="317.8828" xml:space="preserve" y="281.6067" clip-path="url(#clipPath2)" font-family="sans-serif" stroke="none">E</text>
    </g>
    <g fill="rgb(255,102,0)" text-rendering="geometricPrecision" shape-rendering="geometricPrecision" transform="matrix(1,0,0,1,-178,-239)" stroke="rgb(255,102,0)">
      <ellipse rx="17.6624" ry="17.6624" clip-path="url(#clipPath2)" cx="523.064" cy="435.6328" stroke="none"/>
    </g>
    <g text-rendering="geometricPrecision" stroke-miterlimit="1.45" shape-rendering="geometricPrecision" transform="matrix(1,0,0,1,-178,-239)" stroke-linecap="butt">
      <ellipse rx="17.6624" fill="none" ry="17.6624" clip-path="url(#clipPath2)" cx="523.064" cy="435.6328"/>
      <text x="518.731" xml:space="preserve" y="440.3467" clip-path="url(#clipPath2)" font-family="sans-serif" stroke="none">R</text>
    </g>
    <g fill="rgb(255,204,0)" text-rendering="geometricPrecision" shape-rendering="geometricPrecision" transform="matrix(1,0,0,1,-178,-239)" stroke="rgb(255,204,0)">
      <ellipse rx="17.6624" ry="17.6624" clip-path="url(#clipPath2)" cx="211.1968" cy="371.5824" stroke="none"/>
    </g>
    <g text-rendering="geometricPrecision" stroke-miterlimit="1.45" shape-rendering="geometricPrecision" transform="matrix(1,0,0,1,-178,-239)" stroke-linecap="butt">
      <ellipse rx="17.6624" fill="none" ry="17.6624" clip-path="url(#clipPath2)" cx="211.1968" cy="371.5824"/>
      <text x="207.1948" xml:space="preserve" y="376.2963" clip-path="url(#clipPath2)" font-family="sans-serif" stroke="none">E</text>
    </g>
    <g fill="red" text-rendering="geometricPrecision" shape-rendering="geometricPrecision" transform="matrix(1,0,0,1,-178,-239)" stroke="red">
      <ellipse rx="17.6624" ry="17.6624" clip-path="url(#clipPath2)" cx="438.7952" cy="353.9936" stroke="none"/>
    </g>
    <g text-rendering="geometricPrecision" stroke-miterlimit="1.45" shape-rendering="geometricPrecision" transform="matrix(1,0,0,1,-178,-239)" stroke-linecap="butt">
      <ellipse rx="17.6624" fill="none" ry="17.6624" clip-path="url(#clipPath2)" cx="438.7952" cy="353.9936"/>
      <text x="435.1302" xml:space="preserve" y="358.7075" clip-path="url(#clipPath2)" font-family="sans-serif" stroke="none">F</text>
    </g>
    <g fill="rgb(153,204,0)" text-rendering="geometricPrecision" shape-rendering="geometricPrecision" transform="matrix(1,0,0,1,-178,-239)" stroke="rgb(153,204,0)">
      <ellipse rx="17.6624" ry="17.6624" clip-path="url(#clipPath2)" cx="429.5792" cy="272.3544" stroke="none"/>
    </g>
    <g text-rendering="geometricPrecision" stroke-miterlimit="1.45" shape-rendering="geometricPrecision" transform="matrix(1,0,0,1,-178,-239)" stroke-linecap="butt">
      <ellipse rx="17.6624" fill="none" ry="17.6624" clip-path="url(#clipPath2)" cx="429.5792" cy="272.3544"/>
      <text x="426.2423" xml:space="preserve" y="277.0683" clip-path="url(#clipPath2)" font-family="sans-serif" stroke="none">L</text>
    </g>
    <g fill="rgb(255,204,0)" text-rendering="geometricPrecision" shape-rendering="geometricPrecision" transform="matrix(1,0,0,1,-178,-239)" stroke="rgb(255,204,0)">
      <ellipse rx="17.6624" ry="17.6624" clip-path="url(#clipPath2)" cx="422.4112" cy="435.6328" stroke="none"/>
    </g>
    <g text-rendering="geometricPrecision" stroke-miterlimit="1.45" shape-rendering="geometricPrecision" transform="matrix(1,0,0,1,-178,-239)" stroke-linecap="butt">
      <ellipse rx="17.6624" fill="none" ry="17.6624" clip-path="url(#clipPath2)" cx="422.4112" cy="435.6328"/>
      <text x="418.4092" xml:space="preserve" y="440.3467" clip-path="url(#clipPath2)" font-family="sans-serif" stroke="none">E</text>
    </g>
    <g fill="rgb(255,204,0)" text-rendering="geometricPrecision" shape-rendering="geometricPrecision" transform="matrix(1,0,0,1,-178,-239)" stroke="rgb(255,204,0)">
      <ellipse rx="17.6624" ry="17.6624" clip-path="url(#clipPath2)" cx="585.072" cy="463.0696" stroke="none"/>
    </g>
    <g text-rendering="geometricPrecision" stroke-miterlimit="1.45" shape-rendering="geometricPrecision" transform="matrix(1,0,0,1,-178,-239)" stroke-linecap="butt">
      <ellipse rx="17.6624" fill="none" ry="17.6624" clip-path="url(#clipPath2)" cx="585.072" cy="463.0696"/>
      <text x="581.0701" xml:space="preserve" y="467.7835" clip-path="url(#clipPath2)" font-family="sans-serif" stroke="none">E</text>
    </g>
    <g fill="red" text-rendering="geometricPrecision" shape-rendering="geometricPrecision" transform="matrix(1,0,0,1,-178,-239)" stroke="red">
      <ellipse rx="17.6624" ry="17.6624" clip-path="url(#clipPath2)" cx="310.8256" cy="463.0696" stroke="none"/>
    </g>
    <g text-rendering="geometricPrecision" stroke-miterlimit="1.45" shape-rendering="geometricPrecision" transform="matrix(1,0,0,1,-178,-239)" stroke-linecap="butt">
      <ellipse rx="17.6624" fill="none" ry="17.6624" clip-path="url(#clipPath2)" cx="310.8256" cy="463.0696"/>
      <text x="307.1606" xml:space="preserve" y="467.7835" clip-path="url(#clipPath2)" font-family="sans-serif" stroke="none">F</text>
    </g>
    <g fill="rgb(255,204,0)" text-rendering="geometricPrecision" shape-rendering="geometricPrecision" transform="matrix(1,0,0,1,-178,-239)" stroke="rgb(255,204,0)">
      <ellipse rx="17.6624" ry="17.6624" clip-path="url(#clipPath2)" cx="310.8256" cy="544.9796" stroke="none"/>
    </g>
    <g text-rendering="geometricPrecision" stroke-miterlimit="1.45" shape-rendering="geometricPrecision" transform="matrix(1,0,0,1,-178,-239)" stroke-linecap="butt">
      <ellipse rx="17.6624" fill="none" ry="17.6624" clip-path="url(#clipPath2)" cx="310.8256" cy="544.9796"/>
      <text x="306.8236" xml:space="preserve" y="549.6935" clip-path="url(#clipPath2)" font-family="sans-serif" stroke="none">E</text>
    </g>
    <g fill="rgb(153,204,0)" text-rendering="geometricPrecision" shape-rendering="geometricPrecision" transform="matrix(1,0,0,1,-178,-239)" stroke="rgb(153,204,0)">
      <ellipse rx="17.6624" ry="17.6624" clip-path="url(#clipPath2)" cx="231.6768" cy="449.1432" stroke="none"/>
    </g>
    <g text-rendering="geometricPrecision" stroke-miterlimit="1.45" shape-rendering="geometricPrecision" transform="matrix(1,0,0,1,-178,-239)" stroke-linecap="butt">
      <ellipse rx="17.6624" fill="none" ry="17.6624" clip-path="url(#clipPath2)" cx="231.6768" cy="449.1432"/>
      <text x="228.3399" xml:space="preserve" y="453.8571" clip-path="url(#clipPath2)" font-family="sans-serif" stroke="none">L</text>
    </g>
    <g fill="rgb(255,204,0)" text-rendering="geometricPrecision" shape-rendering="geometricPrecision" transform="matrix(1,0,0,1,-178,-239)" stroke="rgb(255,204,0)">
      <ellipse rx="17.6624" ry="17.6624" clip-path="url(#clipPath2)" cx="525.4192" cy="312.2416" stroke="none"/>
    </g>
    <g text-rendering="geometricPrecision" stroke-miterlimit="1.45" shape-rendering="geometricPrecision" transform="matrix(1,0,0,1,-178,-239)" stroke-linecap="butt">
      <ellipse rx="17.6624" fill="none" ry="17.6624" clip-path="url(#clipPath2)" cx="525.4192" cy="312.2416"/>
      <text x="521.4172" xml:space="preserve" y="316.9555" clip-path="url(#clipPath2)" font-family="sans-serif" stroke="none">E</text>
    </g>
    <g fill="red" text-rendering="geometricPrecision" shape-rendering="geometricPrecision" transform="matrix(1,0,0,1,-178,-239)" stroke="red">
      <ellipse rx="7.9344" ry="7.9344" clip-path="url(#clipPath2)" cx="424.9712" cy="518.6664" stroke="none"/>
    </g>
    <g text-rendering="geometricPrecision" stroke-miterlimit="1.45" shape-rendering="geometricPrecision" transform="matrix(1,0,0,1,-178,-239)" stroke-linecap="butt">
      <ellipse rx="7.9344" fill="none" ry="7.9344" clip-path="url(#clipPath2)" cx="424.9712" cy="518.6664"/>
      <text x="421.3062" xml:space="preserve" y="523.3802" clip-path="url(#clipPath2)" font-family="sans-serif" stroke="none">F</text>
    </g>
    <g fill="rgb(255,102,0)" text-rendering="geometricPrecision" shape-rendering="geometricPrecision" transform="matrix(1,0,0,1,-178,-239)" stroke="rgb(255,102,0)">
      <ellipse rx="7.9344" ry="7.9344" clip-path="url(#clipPath2)" cx="424.9712" cy="538.9352" stroke="none"/>
    </g>
    <g text-rendering="geometricPrecision" stroke-miterlimit="1.45" shape-rendering="geometricPrecision" transform="matrix(1,0,0,1,-178,-239)" stroke-linecap="butt">
      <ellipse rx="7.9344" fill="none" ry="7.9344" clip-path="url(#clipPath2)" cx="424.9712" cy="538.9352"/>
      <text x="420.6382" xml:space="preserve" y="543.649" clip-path="url(#clipPath2)" font-family="sans-serif" stroke="none">R</text>
    </g>
    <g fill="rgb(255,204,0)" text-rendering="geometricPrecision" shape-rendering="geometricPrecision" transform="matrix(1,0,0,1,-178,-239)" stroke="rgb(255,204,0)">
      <ellipse rx="7.9344" ry="7.9344" clip-path="url(#clipPath2)" cx="424.9712" cy="559.204" stroke="none"/>
    </g>
    <g text-rendering="geometricPrecision" stroke-miterlimit="1.45" shape-rendering="geometricPrecision" transform="matrix(1,0,0,1,-178,-239)" stroke-linecap="butt">
      <ellipse rx="7.9344" fill="none" ry="7.9344" clip-path="url(#clipPath2)" cx="424.9712" cy="559.204"/>
      <text x="420.9692" xml:space="preserve" y="563.9178" clip-path="url(#clipPath2)" font-family="sans-serif" stroke="none">E</text>
    </g>
    <g fill="rgb(153,204,0)" text-rendering="geometricPrecision" shape-rendering="geometricPrecision" transform="matrix(1,0,0,1,-178,-239)" stroke="rgb(153,204,0)">
      <ellipse rx="7.9344" ry="7.9344" clip-path="url(#clipPath2)" cx="530.812" cy="518.6664" stroke="none"/>
    </g>
    <g text-rendering="geometricPrecision" stroke-miterlimit="1.45" shape-rendering="geometricPrecision" transform="matrix(1,0,0,1,-178,-239)" stroke-linecap="butt">
      <ellipse rx="7.9344" fill="none" ry="7.9344" clip-path="url(#clipPath2)" cx="530.812" cy="518.6664"/>
      <text x="527.4751" xml:space="preserve" y="523.3802" clip-path="url(#clipPath2)" font-family="sans-serif" stroke="none">L</text>
      <text x="434.9056" xml:space="preserve" y="522.6039" clip-path="url(#clipPath2)" font-family="'Consolas'" stroke="none">Friend node</text>
      <text x="434.9056" xml:space="preserve" y="542.8727" clip-path="url(#clipPath2)" font-family="'Consolas'" stroke="none">Relay node</text>
      <text x="434.9056" xml:space="preserve" y="563.1415" clip-path="url(#clipPath2)" font-family="'Consolas'" stroke="none">Edge node</text>
      <text x="545.8802" xml:space="preserve" y="522.6039" clip-path="url(#clipPath2)" font-family="'Consolas'" stroke="none">Low Power node</text>
      <text x="419.0368" xml:space="preserve" y="505.1663" clip-path="url(#clipPath2)" font-family="'Consolas'" stroke="none">Legend:</text>
    </g>
    <g text-rendering="geometricPrecision" shape-rendering="geometricPrecision" transform="matrix(1,0,0,1,407.3696,122.5088)">
      <g clip-path="url(#clipPath3)">
        <svg xml:space="preserve" opacity="1" writing-mode="lr-tb" stop-color="rgb(0, 0, 0)" shape-rendering="auto" glyph-orientation-horizontal="0deg" color-profile="auto" lighting-color="rgb(255, 255, 255)" color="rgb(0, 0, 0)" font-weight="400" alignment-baseline="auto" font-style="normal" version="1.1" color-interpolation-filters="linearrgb" text-anchor="start" stroke-linecap="butt" color-interpolation="srgb" font-variant="normal" word-spacing="normal" fill-opacity="1" text-rendering="auto" clip-path="none" text-decoration="none" letter-spacing="normal" viewBox="0 0 23 38" glyph-orientation-vertical="auto" display="inline" font-size-adjust="none" overflow="visible" fill="rgb(0, 0, 0)" font-stretch="normal" stroke-dasharray="none" stroke-miterlimit="4" stop-opacity="1" color-rendering="auto" font-size="12" pointer-events="visiblepainted" mask="none" direction="ltr" baseline-shift="baseline" enable-background="new 0 0 23 38" fill-rule="nonzero" image-rendering="auto" stroke-dashoffset="0" width="23px" marker-end="none" clip="auto" cursor="auto" stroke="none" filter="none" visibility="visible" kerning="auto" stroke-width="1" font-family="&quot;Arial&quot;,&quot;Helvetica&quot;,sans-serif" flood-opacity="1" clip-rule="nonzero" src="none" height="38px" unicode-bidi="normal" stroke-linejoin="miter" stroke-opacity="1" flood-color="rgb(0, 0, 0)" dominant-baseline="auto" marker-start="none" x="0px" marker-mid="none" y="0px">
<defs>
<clipPath clipPathUnits="userSpaceOnUse" id="clipPath1">
              <path d="M0 0 L478 0 L478 349 L0 349 L0 0 Z"/>
            </clipPath>
            <clipPath clipPathUnits="userSpaceOnUse" id="clipPath2">
              <path d="M178 239 L656 239 L656 588 L178 588 L178 239 Z"/>
            </clipPath>
            <clipPath clipPathUnits="userSpaceOnUse" id="clipPath3">
              <path d="M-407.3696 -122.5088 L70.6304 -122.5088 L70.6304 226.4912 L-407.3696 226.4912 L-407.3696 -122.5088 Z"/>
            </clipPath>
          </defs>
<g>
	<path fill="#C5C5C5" d="M23,35.916C23,37.063,22.063,38,20.916,38H2.084C0.938,38,0,37.063,0,35.916V2.084C0,0.938,0.938,0,2.084,0   h18.832C22.063,0,23,0.938,23,2.084V35.916z"/>
</g>
<g>
	<linearGradient y2="2.0005" id="svg1.SVGID_1_" x1="11.5005" gradientUnits="userSpaceOnUse" x2="11.5005" y1="34">
		<stop offset="0" style="stop-color:#515151"/>
		<stop offset="1" style="stop-color:#848484"/>
	</linearGradient>
	<path fill="url(#svg1.SVGID_1_)" d="M22,32.184C22,33.187,21.187,34,20.184,34H2.816C1.813,34,1,33.187,1,32.184V3.816   C1,2.813,1.813,2,2.816,2h17.367C21.187,2,22,2.813,22,3.816V32.184z"/>
</g>
<radialGradient gradientTransform="matrix(1 0 0 0.9565 0 1.1737)" id="svg1.SVGID_2_" r="23.5037" cx="11.5" gradientUnits="userSpaceOnUse" cy="4.1665">
	<stop offset="0" style="stop-color:#9CD7FF"/>
	<stop offset="1" style="stop-color:#3C89C9"/>
</radialGradient>
<rect x="2" fill="url(#svg1.SVGID_2_)" width="19" y="5" height="22"/>
<linearGradient y2="29.334" id="svg1.SVGID_3_" x1="11.5835" gradientUnits="userSpaceOnUse" x2="11.5835" y1="31.5">
	<stop offset="0" style="stop-color:#B8B8B8"/>
	<stop offset="1" style="stop-color:#F2F2F2"/>
</linearGradient>
<ellipse rx="1.5" fill="url(#svg1.SVGID_3_)" ry="1.083" cx="11.583" cy="30.417"/>
<linearGradient y2="29.6631" id="svg1.SVGID_4_" x1="15.334" gradientUnits="userSpaceOnUse" x2="15.334" y1="31.1709">
	<stop offset="0" style="stop-color:#B8B8B8"/>
	<stop offset="1" style="stop-color:#F2F2F2"/>
</linearGradient>
<ellipse rx="1.043" fill="url(#svg1.SVGID_4_)" ry="0.754" cx="15.333" cy="30.417"/>
<linearGradient y2="29.6631" id="svg1.SVGID_5_" x1="19.084" gradientUnits="userSpaceOnUse" x2="19.084" y1="31.1709">
	<stop offset="0" style="stop-color:#B8B8B8"/>
	<stop offset="1" style="stop-color:#F2F2F2"/>
</linearGradient>
<ellipse rx="1.043" fill="url(#svg1.SVGID_5_)" ry="0.754" cx="19.083" cy="30.417"/>
<linearGradient y2="29.6631" id="svg1.SVGID_6_" x1="4.0835" gradientUnits="userSpaceOnUse" x2="4.0835" y1="31.1709">
	<stop offset="0" style="stop-color:#B8B8B8"/>
	<stop offset="1" style="stop-color:#F2F2F2"/>
</linearGradient>
<ellipse rx="1.043" fill="url(#svg1.SVGID_6_)" ry="0.754" cx="4.083" cy="30.417"/>
<linearGradient y2="29.6631" id="svg1.SVGID_7_" x1="7.8335" gradientUnits="userSpaceOnUse" x2="7.8335" y1="31.1709">
	<stop offset="0" style="stop-color:#B8B8B8"/>
	<stop offset="1" style="stop-color:#F2F2F2"/>
</linearGradient>
<ellipse rx="1.043" fill="url(#svg1.SVGID_7_)" ry="0.754" cx="7.833" cy="30.417"/>
<linearGradient y2="2.4658" id="svg1.SVGID_8_" x1="11.0835" gradientUnits="userSpaceOnUse" x2="11.0835" y1="4.3682">
	<stop offset="0" style="stop-color:#B8B8B8"/>
	<stop offset="1" style="stop-color:#A2A2A2"/>
</linearGradient>
<ellipse rx="1.063" fill="url(#svg1.SVGID_8_)" ry="0.951" cx="11.083" cy="3.417"/>
<linearGradient y2="2.918" id="svg1.SVGID_9_" x1="11.0835" gradientUnits="userSpaceOnUse" x2="11.0835" y1="3.916">
	<stop offset="0" style="stop-color:#9CD7FF"/>
	<stop offset="1" style="stop-color:#F2F2F2"/>
</linearGradient>
<ellipse rx="0.558" fill="url(#svg1.SVGID_9_)" ry="0.499" cx="11.083" cy="3.417"/>
<path fill="#F2F2F2" opacity="0.24" d="M20.938,15.065c0,0-6.654,2.879-10.771,4.019C6.05,20.223,2,21.125,2,21.125V5h19  L20.938,15.065z"/>
</svg>
      </g>
    </g>
    <g text-rendering="geometricPrecision" stroke-miterlimit="1.45" shape-rendering="geometricPrecision" font-family="'Consolas'" transform="matrix(1,0,0,1,-178,-239)" stroke-linecap="butt">
      <text x="545.5649" xml:space="preserve" y="542.8727" clip-path="url(#clipPath2)" stroke="none">ADV bearer</text>
      <text x="545.5649" xml:space="preserve" y="563.1415" clip-path="url(#clipPath2)" stroke="none">GATT bearer</text>
      <path fill="none" d="M288.93 338.0492 L253.5724 316.4356" clip-path="url(#clipPath2)"/>
      <path d="M295.7558 342.2216 L288.1249 331.6969 L288.0768 337.5276 L282.9094 340.2291 Z" clip-path="url(#clipPath2)" stroke="none"/>
      <path d="M246.7466 312.2632 L254.3775 322.7879 L254.4256 316.9572 L259.593 314.2558 Z" clip-path="url(#clipPath2)" stroke="none"/>
      <path fill="none" d="M314.5918 326.0491 L318.1187 302.2773" clip-path="url(#clipPath2)"/>
      <path d="M313.4177 333.9625 L320.1247 322.8262 L314.7385 325.0599 L310.2329 321.3586 Z" clip-path="url(#clipPath2)" stroke="none"/>
      <path d="M319.2927 294.364 L312.5858 305.5002 L317.9719 303.2665 L322.4775 306.9678 Z" clip-path="url(#clipPath2)" stroke="none"/>
      <path fill="none" d="M285.6724 356.5205 L236.35 366.4955" clip-path="url(#clipPath2)"/>
      <path d="M293.5137 354.9348 L280.7607 352.4127 L284.6923 356.7188 L282.7429 362.2142 Z" clip-path="url(#clipPath2)" stroke="none"/>
      <path d="M228.5087 368.0813 L241.2617 370.6033 L237.3301 366.2972 L239.2794 360.8018 Z" clip-path="url(#clipPath2)" stroke="none"/>
      <path fill="none" d="M504.6327 417.7766 L457.2266 371.8498" clip-path="url(#clipPath2)"/>
      <path d="M510.3785 423.3431 L505.2388 411.4023 L503.9145 417.0808 L498.2807 418.5845 Z" clip-path="url(#clipPath2)" stroke="none"/>
      <path d="M451.4808 366.2833 L456.6204 378.2242 L457.9448 372.5456 L463.5785 371.0419 Z" clip-path="url(#clipPath2)" stroke="none"/>
      <path fill="none" d="M413.1379 353.4803 L336.4829 351.9469" clip-path="url(#clipPath2)"/>
      <path d="M421.1364 353.6404 L409.2388 348.4013 L412.1382 353.4604 L409.0388 358.3994 Z" clip-path="url(#clipPath2)" stroke="none"/>
      <path d="M328.4845 351.7869 L340.382 357.0259 L337.4827 351.9669 L340.5821 347.0279 Z" clip-path="url(#clipPath2)" stroke="none"/>
      <path fill="none" d="M435.9165 328.4932 L432.4579 297.8548" clip-path="url(#clipPath2)"/>
      <path d="M436.8139 336.4427 L440.4363 323.9575 L435.8044 327.4995 L430.4994 325.0793 Z" clip-path="url(#clipPath2)" stroke="none"/>
      <path d="M431.5605 289.9053 L427.9381 302.3905 L432.57 298.8485 L437.875 301.2687 Z" clip-path="url(#clipPath2)" stroke="none"/>
      <path fill="none" d="M497.4016 435.6328 L448.0736 435.6328" clip-path="url(#clipPath2)"/>
      <path d="M505.4016 435.6328 L493.4016 430.6328 L496.4016 435.6328 L493.4016 440.6328 Z" clip-path="url(#clipPath2)" stroke="none"/>
      <path d="M440.0736 435.6328 L452.0736 440.6328 L449.0736 435.6328 L452.0736 430.6328 Z" clip-path="url(#clipPath2)" stroke="none"/>
      <path fill="none" d="M427.4607 410.4721 L433.7458 379.1543" clip-path="url(#clipPath2)"/>
      <path d="M425.8865 418.3157 L433.15 407.5341 L427.6574 409.4916 L423.3455 405.5664 Z" clip-path="url(#clipPath2)" stroke="none"/>
      <path d="M435.3199 371.3107 L428.0565 382.0923 L433.549 380.1348 L437.861 384.06 Z" clip-path="url(#clipPath2)" stroke="none"/>
      <path fill="none" d="M546.5317 446.0166 L561.6042 452.6858" clip-path="url(#clipPath2)"/>
      <path d="M539.2159 442.7796 L548.1665 452.2076 L547.4462 446.4213 L552.2128 443.0627 Z" clip-path="url(#clipPath2)" stroke="none"/>
      <path d="M568.9201 455.9228 L559.9695 446.4949 L560.6898 452.2812 L555.9232 455.6397 Z" clip-path="url(#clipPath2)" stroke="none"/>
      <path fill="none" d="M310.8256 437.4072 L310.8256 377.096" clip-path="url(#clipPath2)"/>
      <path d="M310.8256 445.4072 L315.8256 433.4072 L310.8256 436.4072 L305.8256 433.4072 Z" clip-path="url(#clipPath2)" stroke="none"/>
      <path d="M310.8256 369.096 L305.8256 381.096 L310.8256 378.096 L315.8256 381.096 Z" clip-path="url(#clipPath2)" stroke="none"/>
      <path fill="none" d="M310.8256 488.732 L310.8256 519.3172" clip-path="url(#clipPath2)"/>
      <path d="M310.8256 480.732 L305.8256 492.732 L310.8256 489.732 L315.8256 492.732 Z" clip-path="url(#clipPath2)" stroke="none"/>
      <path d="M310.8256 527.3172 L315.8256 515.3172 L310.8256 518.3172 L305.8256 515.3172 Z" clip-path="url(#clipPath2)" stroke="none"/>
      <path fill="none" d="M285.5515 458.6226 L256.951 453.5902" clip-path="url(#clipPath2)"/>
      <path d="M293.4304 460.0089 L282.4784 453.005 L284.5666 458.4493 L280.7455 462.8538 Z" clip-path="url(#clipPath2)" stroke="none"/>
      <path d="M249.072 452.2039 L260.024 459.2078 L257.9358 453.7635 L261.7569 449.359 Z" clip-path="url(#clipPath2)" stroke="none"/>
      <path fill="none" d="M502.3019 323.3839 L461.9124 342.8513" clip-path="url(#clipPath2)"/>
      <path d="M509.5085 319.9104 L496.5277 320.6165 L501.4011 323.8181 L500.8696 329.6248 Z" clip-path="url(#clipPath2)" stroke="none"/>
      <path d="M454.7059 346.3248 L467.6867 345.6187 L462.8133 342.4171 L463.3448 336.6104 Z" clip-path="url(#clipPath2)" stroke="none"/>
      <path fill="none" stroke-dasharray="6,2" d="M543.6246 420.2764 L578.9544 393.8893" clip-path="url(#clipPath2)"/>
      <path stroke-dasharray="6,2" d="M537.2151 425.0637 L549.8215 421.8888 L544.4258 419.678 L543.8374 413.8769 Z" clip-path="url(#clipPath2)" stroke="none"/>
      <path stroke-dasharray="6,2" d="M585.364 389.1021 L572.7576 392.2769 L578.1532 394.4877 L578.7416 400.2889 Z" clip-path="url(#clipPath2)" stroke="none"/>
      <path fill="none" d="M526.0014 538.5487 L538.9199 538.5487" clip-path="url(#clipPath2)"/>
      <path fill="none" stroke-dasharray="6,2" d="M526.8402 559.1846 L538.7521 559.1846" clip-path="url(#clipPath2)"/>
    </g>
  </g>
</svg>
