<?xml version="1.0" encoding="UTF-8" standalone="no"?>
<!DOCTYPE svg PUBLIC "-//W3C//DTD SVG 1.1//EN"
 "http://www.w3.org/Graphics/SVG/1.1/DTD/svg11.dtd">
<!-- Generated by graphviz version 2.38.0 (20140413.2041)
 -->
<!-- Title: %3 Pages: 1 -->
<svg width="454pt" height="341pt"
 viewBox="0.00 0.00 454.00 341.00" xmlns="http://www.w3.org/2000/svg" xmlns:xlink="http://www.w3.org/1999/xlink">
<g id="graph0" class="graph" transform="scale(1 1) rotate(0) translate(4 337)">
<title>%3</title>
<polygon fill="white" stroke="none" points="-4,4 -4,-337 450,-337 450,4 -4,4"/>
<!-- s_RX_start -->
<g id="node1" class="node"><title>s_RX_start</title>
<text text-anchor="middle" x="96" y="-312.2" font-family="Times,serif" font-size="11.00">RX[START]</text>
</g>
<!-- s_TRX -->
<g id="node6" class="node"><title>s_TRX</title>
<polygon fill="lightgrey" stroke="black" points="96,-260 1.42109e-14,-228 96,-196 192,-228 96,-260"/>
<text text-anchor="middle" x="96" y="-231.2" font-family="Times,serif" font-size="11.00">TRANSACTION</text>
<text text-anchor="middle" x="96" y="-219.2" font-family="Times,serif" font-size="11.00">NUMBER?</text>
</g>
<!-- s_RX_start&#45;&gt;s_TRX -->
<g id="edge1" class="edge"><title>s_RX_start&#45;&gt;s_TRX</title>
<path fill="none" stroke="black" d="M96,-296.799C96,-289.104 96,-279.669 96,-270.312"/>
<polygon fill="black" stroke="black" points="99.5001,-270.274 96,-260.274 92.5001,-270.274 99.5001,-270.274"/>
</g>
<!-- s_IGNORE -->
<g id="node2" class="node"><title>s_IGNORE</title>
<text text-anchor="middle" x="116" y="-15.2" font-family="Times,serif" font-size="11.00">IGNORE</text>
</g>
<!-- s_Set_params -->
<g id="node3" class="node"><title>s_Set_params</title>
<polygon fill="lightgrey" stroke="black" points="230,-36 164,-36 164,-0 230,-0 230,-36"/>
<text text-anchor="middle" x="197" y="-15.2" font-family="Times,serif" font-size="11.00">Set params</text>
</g>
<!-- s_ACK -->
<g id="node4" class="node"><title>s_ACK</title>
<polygon fill="lightgrey" stroke="black" points="82,-134 28,-134 28,-98 82,-98 82,-134"/>
<text text-anchor="middle" x="55" y="-113.2" font-family="Times,serif" font-size="11.00">ACK</text>
</g>
<!-- s_STATE -->
<g id="node5" class="node"><title>s_STATE</title>
<polygon fill="lightgrey" stroke="black" points="159,-148 100,-116 159,-84 218,-116 159,-148"/>
<text text-anchor="middle" x="159" y="-119.2" font-family="Times,serif" font-size="11.00">BUFFER</text>
<text text-anchor="middle" x="159" y="-107.2" font-family="Times,serif" font-size="11.00">STATE?</text>
</g>
<!-- s_STATE&#45;&gt;s_IGNORE -->
<g id="edge4" class="edge"><title>s_STATE&#45;&gt;s_IGNORE</title>
<path fill="none" stroke="black" d="M142.285,-92.9958C136.753,-84.8618 130.996,-75.3415 127,-66 124.361,-59.8313 122.297,-52.924 120.706,-46.3435"/>
<polygon fill="black" stroke="black" points="124.099,-45.4697 118.581,-36.4248 117.254,-46.9361 124.099,-45.4697"/>
<text text-anchor="middle" x="151.5" y="-57.2" font-family="Times,serif" font-size="11.00">(TX || RX)</text>
</g>
<!-- s_STATE&#45;&gt;s_Set_params -->
<g id="edge5" class="edge"><title>s_STATE&#45;&gt;s_Set_params</title>
<path fill="none" stroke="black" d="M169.183,-89.2738C174.561,-75.6873 181.15,-59.0418 186.565,-45.3618"/>
<polygon fill="black" stroke="black" points="189.84,-46.5971 190.267,-36.0108 183.332,-44.0207 189.84,-46.5971"/>
<text text-anchor="middle" x="206" y="-57.2" font-family="Times,serif" font-size="11.00">UNUSED</text>
</g>
<!-- s_TRX&#45;&gt;s_ACK -->
<g id="edge3" class="edge"><title>s_TRX&#45;&gt;s_ACK</title>
<path fill="none" stroke="black" d="M84.5154,-199.636C81.6556,-192.615 78.6509,-185.053 76,-178 71.8191,-166.877 67.4968,-154.497 63.8684,-143.811"/>
<polygon fill="black" stroke="black" points="67.1351,-142.545 60.6295,-134.182 60.5004,-144.777 67.1351,-142.545"/>
<text text-anchor="middle" x="96.5" y="-169.2" font-family="Times,serif" font-size="11.00">&lt; current</text>
</g>
<!-- s_TRX&#45;&gt;s_STATE -->
<g id="edge2" class="edge"><title>s_TRX&#45;&gt;s_STATE</title>
<path fill="none" stroke="black" d="M110.93,-200.932C119.711,-185.6 130.893,-166.077 140.262,-149.718"/>
<polygon fill="black" stroke="black" points="143.321,-151.419 145.253,-141.002 137.246,-147.94 143.321,-151.419"/>
<text text-anchor="middle" x="153.5" y="-169.2" font-family="Times,serif" font-size="11.00">&gt;= current</text>
</g>
<!-- RX_cont -->
<g id="node7" class="node"><title>RX_cont</title>
<text text-anchor="middle" x="327" y="-312.2" font-family="Times,serif" font-size="11.00">RX[CONTINUATION]</text>
</g>
<!-- TRX -->
<g id="node12" class="node"><title>TRX</title>
<polygon fill="lightgrey" stroke="black" points="327,-260 231,-228 327,-196 423,-228 327,-260"/>
<text text-anchor="middle" x="327" y="-231.2" font-family="Times,serif" font-size="11.00">TRANSACTION</text>
<text text-anchor="middle" x="327" y="-219.2" font-family="Times,serif" font-size="11.00">NUMBER?</text>
</g>
<!-- RX_cont&#45;&gt;TRX -->
<g id="edge6" class="edge"><title>RX_cont&#45;&gt;TRX</title>
<path fill="none" stroke="black" d="M327,-296.799C327,-289.104 327,-279.669 327,-270.312"/>
<polygon fill="black" stroke="black" points="330.5,-270.274 327,-260.274 323.5,-270.274 330.5,-270.274"/>
</g>
<!-- IGNORE -->
<g id="node8" class="node"><title>IGNORE</title>
<text text-anchor="middle" x="317" y="-15.2" font-family="Times,serif" font-size="11.00">IGNORE</text>
</g>
<!-- store -->
<g id="node9" class="node"><title>store</title>
<polygon fill="lightgrey" stroke="black" points="446,-36 392,-36 392,-0 446,-0 446,-36"/>
<text text-anchor="middle" x="419" y="-21.2" font-family="Times,serif" font-size="11.00">Store</text>
<text text-anchor="middle" x="419" y="-9.2" font-family="Times,serif" font-size="11.00">data</text>
</g>
<!-- ACK -->
<g id="node10" class="node"><title>ACK</title>
<polygon fill="lightgrey" stroke="black" points="291,-134 237,-134 237,-98 291,-98 291,-134"/>
<text text-anchor="middle" x="264" y="-113.2" font-family="Times,serif" font-size="11.00">ACK</text>
</g>
<!-- STATE -->
<g id="node11" class="node"><title>STATE</title>
<polygon fill="lightgrey" stroke="black" points="368,-148 309,-116 368,-84 427,-116 368,-148"/>
<text text-anchor="middle" x="368" y="-119.2" font-family="Times,serif" font-size="11.00">BUFFER</text>
<text text-anchor="middle" x="368" y="-107.2" font-family="Times,serif" font-size="11.00">STATE?</text>
</g>
<!-- STATE&#45;&gt;IGNORE -->
<g id="edge9" class="edge"><title>STATE&#45;&gt;IGNORE</title>
<path fill="none" stroke="black" d="M342.942,-97.3387C333.288,-89.0424 323.309,-78.27 318,-66 315.362,-59.9047 314.301,-52.9355 314.079,-46.2638"/>
<polygon fill="black" stroke="black" points="317.58,-46.273 314.318,-36.193 310.582,-46.1073 317.58,-46.273"/>
<text text-anchor="middle" x="357.5" y="-57.2" font-family="Times,serif" font-size="11.00">(TX || UNUSED)</text>
</g>
<!-- STATE&#45;&gt;store -->
<g id="edge10" class="edge"><title>STATE&#45;&gt;store</title>
<path fill="none" stroke="black" d="M382.629,-91.3365C387.38,-83.3788 392.567,-74.3905 397,-66 400.45,-59.4705 403.946,-52.3039 407.105,-45.5775"/>
<polygon fill="black" stroke="black" points="410.437,-46.7097 411.448,-36.1631 404.081,-43.7776 410.437,-46.7097"/>
<text text-anchor="middle" x="410" y="-57.2" font-family="Times,serif" font-size="11.00">RX</text>
</g>
<!-- TRX&#45;&gt;ACK -->
<g id="edge8" class="edge"><title>TRX&#45;&gt;ACK</title>
<path fill="none" stroke="black" d="M312.07,-200.932C302.123,-183.563 289.094,-160.814 279.11,-143.382"/>
<polygon fill="black" stroke="black" points="281.922,-141.25 273.915,-134.312 275.848,-144.729 281.922,-141.25"/>
<text text-anchor="middle" x="318.5" y="-169.2" font-family="Times,serif" font-size="11.00">&lt; current</text>
</g>
<!-- TRX&#45;&gt;STATE -->
<g id="edge7" class="edge"><title>TRX&#45;&gt;STATE</title>
<path fill="none" stroke="black" d="M337.346,-199.242C342.639,-185.041 349.14,-167.599 354.792,-152.437"/>
<polygon fill="black" stroke="black" points="358.148,-153.452 358.361,-142.86 351.589,-151.007 358.148,-153.452"/>
<text text-anchor="middle" x="371.5" y="-169.2" font-family="Times,serif" font-size="11.00">&gt;= current</text>
</g>
</g>
</svg>
