<?xml version="1.0" encoding="UTF-8" standalone="no"?>
<!DOCTYPE svg PUBLIC "-//W3C//DTD SVG 1.1//EN" "http://www.w3.org/Graphics/SVG/1.1/DTD/svg11.dtd">
<!-- Generated by Microsoft Visio, SVG Export dfu_process_relay.svg dfu_process_relay -->
<svg xmlns="http://www.w3.org/2000/svg" xmlns:xlink="http://www.w3.org/1999/xlink" xmlns:ev="http://www.w3.org/2001/xml-events"
		xmlns:v="http://schemas.microsoft.com/visio/2003/SVGExtensions/" width="10.1253in" height="5.41458in"
		viewBox="0 0 729.025 389.85" xml:space="preserve" color-interpolation-filters="sRGB" class="st7">
	<v:documentProperties v:langID="1033" v:viewMarkup="false"/>

	<style type="text/css">
	<![CDATA[
		.st1 {fill:#ffffff;stroke:none;stroke-linecap:butt;stroke-width:0.75}
		.st2 {fill:none;stroke:none;stroke-linecap:butt;stroke-width:0.75}
		.st3 {fill:#000000;font-family:Calibri;font-size:0.75em}
		.st4 {stroke:#000000;stroke-linecap:butt;stroke-width:0.75}
		.st5 {stroke:#000000;stroke-dasharray:0.75,1.5;stroke-linecap:butt;stroke-width:0.75}
		.st6 {fill:#000000;stroke:none;stroke-linecap:butt;stroke-width:0.75}
		.st7 {fill:none;fill-rule:evenodd;font-size:12px;overflow:visible;stroke-linecap:square;stroke-miterlimit:3}
	]]>
	</style>

	<g v:mID="0" v:index="1" v:groupContext="foregroundPage">
		<title>dfu_process_relay</title>
		<v:pageProperties v:drawingScale="1" v:pageScale="1" v:drawingUnits="19" v:shadowOffsetX="9" v:shadowOffsetY="-9"/>
		<g id="shape1-1" v:mID="1" v:groupContext="shape" transform="translate(32.25,-363)">
			<title>Sheet.1</title>
			<rect x="0" y="383.1" width="45" height="6.75" class="st1"/>
		</g>
		<g id="shape2-3" v:mID="2" v:groupContext="shape" transform="translate(25.85,-360.3)">
			<title>Sheet.2</title>
			<desc>Application</desc>
			<v:textBlock v:margins="rect(0,0,0,0)"/>
			<v:textRect cx="29.6375" cy="384.45" width="59.28" height="10.8"/>
			<rect x="0" y="379.05" width="59.275" height="10.8" class="st2"/>
			<text x="8.9" y="387.15" class="st3" v:langID="1033"><v:paragraph v:horizAlign="1"/><v:tabList/>Application</text>		</g>
		<g id="shape3-6" v:mID="3" v:groupContext="shape" transform="translate(300.75,-363)">
			<title>Sheet.3</title>
			<rect x="0" y="383.1" width="48" height="6.75" class="st1"/>
		</g>
		<g id="shape4-8" v:mID="4" v:groupContext="shape" transform="translate(280.475,-360.3)">
			<title>Sheet.4</title>
			<desc>Mesh Stack</desc>
			<v:textBlock v:margins="rect(0,0,0,0)"/>
			<v:textRect cx="45.025" cy="384.45" width="90.06" height="10.8"/>
			<rect x="0" y="379.05" width="90.05" height="10.8" class="st2"/>
			<text x="24.12" y="387.15" class="st3" v:langID="1033"><v:paragraph v:horizAlign="1"/><v:tabList/>Mesh Stack</text>		</g>
		<g id="shape5-11" v:mID="5" v:groupContext="shape" transform="translate(573,-363)">
			<title>Sheet.5</title>
			<rect x="0" y="383.1" width="43.5" height="6.75" class="st1"/>
		</g>
		<g id="shape6-13" v:mID="6" v:groupContext="shape" transform="translate(559.475,-360.3)">
			<title>Sheet.6</title>
			<desc>Mesh DFU</desc>
			<v:textBlock v:margins="rect(0,0,0,0)"/>
			<v:textRect cx="36.025" cy="384.45" width="72.06" height="10.8"/>
			<rect x="0" y="379.05" width="72.05" height="10.8" class="st2"/>
			<text x="17.07" y="387.15" class="st3" v:langID="1033"><v:paragraph v:horizAlign="1"/><v:tabList/>Mesh DFU</text>		</g>
		<g id="shape7-16" v:mID="7" v:groupContext="shape" transform="translate(445.35,31.35) rotate(90)">
			<title>Sheet.7</title>
			<path d="M0 389.85 L12.75 389.85" class="st4"/>
		</g>
		<g id="shape8-19" v:mID="8" v:groupContext="shape" transform="translate(715.35,31.35) rotate(90)">
			<title>Sheet.8</title>
			<path d="M0 389.85 L12.75 389.85" class="st4"/>
		</g>
		<g id="shape9-22" v:mID="9" v:groupContext="shape" transform="translate(985.35,31.35) rotate(90)">
			<title>Sheet.9</title>
			<path d="M0 389.85 L12.75 389.85" class="st4"/>
		</g>
		<g id="shape10-25" v:mID="10" v:groupContext="shape" transform="translate(18.8862,-354.975) rotate(0.0200102)">
			<title>Sheet.10</title>
			<path d="M0 389.85 L644.25 389.85" class="st5"/>
		</g>
		<g id="shape11-28" v:mID="11" v:groupContext="shape" transform="translate(288,-351)">
			<title>Sheet.11</title>
			<rect x="0" y="383.1" width="74.25" height="6.75" class="st1"/>
		</g>
		<g id="shape12-30" v:mID="12" v:groupContext="shape" transform="translate(288.725,-348.3)">
			<title>Sheet.12</title>
			<desc>Receiving packets</desc>
			<v:textBlock v:margins="rect(0,0,0,0)"/>
			<v:textRect cx="76.525" cy="384.45" width="153.06" height="10.8"/>
			<rect x="0" y="379.05" width="153.05" height="10.8" class="st2"/>
			<text x="0" y="387.15" class="st3" v:langID="1033"><v:paragraph/><v:tabList/>Receiving packets</text>		</g>
		<g id="shape13-33" v:mID="13" v:groupContext="shape" transform="translate(445.35,44.1) rotate(90)">
			<title>Sheet.13</title>
			<path d="M0 389.85 L21 389.85" class="st4"/>
		</g>
		<g id="shape14-36" v:mID="14" v:groupContext="shape" transform="translate(715.35,44.1) rotate(90)">
			<title>Sheet.14</title>
			<path d="M0 389.85 L21 389.85" class="st4"/>
		</g>
		<g id="shape15-39" v:mID="15" v:groupContext="shape" transform="translate(985.35,44.1) rotate(90)">
			<title>Sheet.15</title>
			<path d="M0 389.85 L21 389.85" class="st4"/>
		</g>
		<g id="shape16-42" v:mID="16" v:groupContext="shape" transform="translate(325.5,-337.5)">
			<title>Sheet.16</title>
			<path d="M0 389.85 L270 389.85" class="st4"/>
		</g>
		<g id="shape17-45" v:mID="17" v:groupContext="shape" transform="translate(588,-333)">
			<title>Sheet.17</title>
			<path d="M7.5 385.35 L0 389.85 L0 380.85 L7.5 385.35 Z" class="st6"/>
		</g>
		<g id="shape18-47" v:mID="18" v:groupContext="shape" transform="translate(422.25,-338.25)">
			<title>Sheet.18</title>
			<rect x="0" y="383.1" width="75" height="6.75" class="st1"/>
		</g>
		<g id="shape19-49" v:mID="19" v:groupContext="shape" transform="translate(422.975,-335.55)">
			<title>Sheet.19</title>
			<desc>nrf_mesh_dfu_rx()</desc>
			<v:textBlock v:margins="rect(0,0,0,0)"/>
			<v:textRect cx="76.525" cy="384.45" width="153.06" height="10.8"/>
			<rect x="0" y="379.05" width="153.05" height="10.8" class="st2"/>
			<text x="0" y="387.15" class="st3" v:langID="1033"><v:paragraph/><v:tabList/>nrf_mesh_dfu_rx()</text>		</g>
		<g id="shape20-52" v:mID="20" v:groupContext="shape" transform="translate(445.35,65.1) rotate(90)">
			<title>Sheet.20</title>
			<path d="M0 389.85 L29.25 389.85" class="st4"/>
		</g>
		<g id="shape21-55" v:mID="21" v:groupContext="shape" transform="translate(715.35,65.1) rotate(90)">
			<title>Sheet.21</title>
			<path d="M0 389.85 L29.25 389.85" class="st4"/>
		</g>
		<g id="shape22-58" v:mID="22" v:groupContext="shape" transform="translate(985.35,65.1) rotate(90)">
			<title>Sheet.22</title>
			<path d="M0 389.85 L29.25 389.85" class="st4"/>
		</g>
		<g id="shape23-61" v:mID="23" v:groupContext="shape" transform="translate(466.5,-300)">
			<title>Sheet.23</title>
			<rect x="0" y="365.1" width="222" height="24.75" class="st1"/>
		</g>
		<g id="shape24-63" v:mID="24" v:groupContext="shape" transform="translate(466.5,-300)">
			<title>Sheet.24</title>
			<rect x="0" y="374.1" width="224.25" height="15.75" class="st1"/>
		</g>
		<g id="shape25-65" v:mID="25" v:groupContext="shape" transform="translate(693,-315.75)">
			<title>Sheet.25</title>
			<path d="M0 380.85 L9 389.85 L0 389.85 L0 380.85 Z" class="st1"/>
		</g>
		<g id="shape26-67" v:mID="26" v:groupContext="shape" transform="translate(466.5,-324.75)">
			<title>Sheet.26</title>
			<path d="M0 389.85 L226.5 389.85" class="st4"/>
		</g>
		<g id="shape27-70" v:mID="27" v:groupContext="shape" transform="translate(466.5,-300)">
			<title>Sheet.27</title>
			<path d="M0 389.85 L235.5 389.85" class="st4"/>
		</g>
		<g id="shape28-73" v:mID="28" v:groupContext="shape" transform="translate(856.35,65.1) rotate(90)">
			<title>Sheet.28</title>
			<path d="M0 389.85 L24.75 389.85" class="st4"/>
		</g>
		<g id="shape29-76" v:mID="29" v:groupContext="shape" transform="translate(1091.85,74.1) rotate(90)">
			<title>Sheet.29</title>
			<path d="M0 389.85 L15.75 389.85" class="st4"/>
		</g>
		<g id="shape30-79" v:mID="30" v:groupContext="shape" transform="translate(968.666,-210.566) rotate(45)">
			<title>Sheet.30</title>
			<path d="M0 389.85 L12.73 389.85" class="st4"/>
		</g>
		<g id="shape31-82" v:mID="31" v:groupContext="shape" transform="translate(1082.85,65.1) rotate(90)">
			<title>Sheet.31</title>
			<path d="M0 389.85 L9 389.85" class="st4"/>
		</g>
		<g id="shape32-85" v:mID="32" v:groupContext="shape" transform="translate(702,463.95) rotate(180)">
			<title>Sheet.32</title>
			<path d="M0 389.85 L9 389.85" class="st4"/>
		</g>
		<g id="shape33-88" v:mID="33" v:groupContext="shape" transform="translate(594,-317.25)">
			<title>Sheet.33</title>
			<rect x="0" y="383.1" width="1.5" height="6.75" class="st1"/>
		</g>
		<g id="shape34-90" v:mID="34" v:groupContext="shape" transform="translate(480.75,-309)">
			<title>Sheet.34</title>
			<rect x="0" y="383.1" width="210" height="6.75" class="st1"/>
		</g>
		<g id="shape35-92" v:mID="35" v:groupContext="shape" transform="translate(481.475,-306.3)">
			<title>Sheet.35</title>
			<desc>The Mesh DFU module receives the Firmware ID packet.</desc>
			<v:textBlock v:margins="rect(0,0,0,0)"/>
			<v:textRect cx="110.263" cy="384.45" width="220.53" height="10.8"/>
			<rect x="0" y="379.05" width="220.525" height="10.8" class="st2"/>
			<text x="0" y="387.15" class="st3" v:langID="1033"><v:paragraph/><v:tabList/>The Mesh DFU module receives the Firmware ID packet.</text>		</g>
		<g id="shape36-95" v:mID="36" v:groupContext="shape" transform="translate(594,-300.75)">
			<title>Sheet.36</title>
			<rect x="0" y="383.1" width="1.5" height="6.75" class="st1"/>
		</g>
		<g id="shape37-97" v:mID="37" v:groupContext="shape" transform="translate(445.35,94.35) rotate(90)">
			<title>Sheet.37</title>
			<path d="M0 389.85 L21 389.85" class="st4"/>
		</g>
		<g id="shape38-100" v:mID="38" v:groupContext="shape" transform="translate(715.35,94.35) rotate(90)">
			<title>Sheet.38</title>
			<path d="M0 389.85 L21 389.85" class="st4"/>
		</g>
		<g id="shape39-103" v:mID="39" v:groupContext="shape" transform="translate(985.35,94.35) rotate(90)">
			<title>Sheet.39</title>
			<path d="M0 389.85 L21 389.85" class="st4"/>
		</g>
		<g id="shape40-106" v:mID="40" v:groupContext="shape" transform="translate(595.5,492.45) rotate(180)">
			<title>Sheet.40</title>
			<path d="M0 389.85 L540 389.85" class="st4"/>
		</g>
		<g id="shape41-109" v:mID="41" v:groupContext="shape" transform="translate(256.076,-231.694) rotate(30.9638)">
			<title>Sheet.41</title>
			<path d="M0 389.85 L8.75 389.85" class="st4"/>
		</g>
		<g id="shape42-112" v:mID="42" v:groupContext="shape" transform="translate(195,-288)">
			<title>Sheet.42</title>
			<rect x="0" y="383.1" width="259.5" height="6.75" class="st1"/>
		</g>
		<g id="shape43-114" v:mID="43" v:groupContext="shape" transform="translate(195.725,-285.3)">
			<title>Sheet.43</title>
			<desc>NRF_MESH_EVT_DFU_FIRMWARE_OUTDATED(_NO_AUTH)</desc>
			<v:textBlock v:margins="rect(0,0,0,0)"/>
			<v:textRect cx="198.025" cy="384.45" width="396.05" height="10.8"/>
			<rect x="0" y="379.05" width="396.05" height="10.8" class="st2"/>
			<text x="0" y="387.15" class="st3" v:langID="1033"><v:paragraph/><v:tabList/>NRF_MESH_EVT_DFU_FIRMWARE_OUTDATED(_NO_AUTH)</text>		</g>
		<g id="shape44-117" v:mID="44" v:groupContext="shape" transform="translate(445.35,115.35) rotate(90)">
			<title>Sheet.44</title>
			<path d="M0 389.85 L12.75 389.85" class="st4"/>
		</g>
		<g id="shape45-120" v:mID="45" v:groupContext="shape" transform="translate(715.35,115.35) rotate(90)">
			<title>Sheet.45</title>
			<path d="M0 389.85 L12.75 389.85" class="st4"/>
		</g>
		<g id="shape46-123" v:mID="46" v:groupContext="shape" transform="translate(985.35,115.35) rotate(90)">
			<title>Sheet.46</title>
			<path d="M0 389.85 L12.75 389.85" class="st4"/>
		</g>
		<g id="shape47-126" v:mID="47" v:groupContext="shape" transform="translate(18.7046,-270.675) rotate(-0.00667006)">
			<title>Sheet.47</title>
			<path d="M0 389.85 L644.25 389.85" class="st5"/>
		</g>
		<g id="shape48-129" v:mID="48" v:groupContext="shape" transform="translate(288,-267)">
			<title>Sheet.48</title>
			<rect x="0" y="383.1" width="73.5" height="6.75" class="st1"/>
		</g>
		<g id="shape49-131" v:mID="49" v:groupContext="shape" transform="translate(288.725,-264.3)">
			<title>Sheet.49</title>
			<desc>Relaying firmware</desc>
			<v:textBlock v:margins="rect(0,0,0,0)"/>
			<v:textRect cx="76.525" cy="384.45" width="153.06" height="10.8"/>
			<rect x="0" y="379.05" width="153.05" height="10.8" class="st2"/>
			<text x="0" y="387.15" class="st3" v:langID="1033"><v:paragraph/><v:tabList/>Relaying firmware</text>		</g>
		<g id="shape50-134" v:mID="50" v:groupContext="shape" transform="translate(445.35,128.1) rotate(90)">
			<title>Sheet.50</title>
			<path d="M0 389.85 L21 389.85" class="st4"/>
		</g>
		<g id="shape51-137" v:mID="51" v:groupContext="shape" transform="translate(715.35,128.1) rotate(90)">
			<title>Sheet.51</title>
			<path d="M0 389.85 L21 389.85" class="st4"/>
		</g>
		<g id="shape52-140" v:mID="52" v:groupContext="shape" transform="translate(985.35,128.1) rotate(90)">
			<title>Sheet.52</title>
			<path d="M0 389.85 L21 389.85" class="st4"/>
		</g>
		<g id="shape53-143" v:mID="53" v:groupContext="shape" transform="translate(55.5,-253.5)">
			<title>Sheet.53</title>
			<path d="M0 389.85 L540 389.85" class="st4"/>
		</g>
		<g id="shape54-146" v:mID="54" v:groupContext="shape" transform="translate(588,-249)">
			<title>Sheet.54</title>
			<path d="M7.5 385.35 L0 389.85 L0 380.85 L7.5 385.35 Z" class="st6"/>
		</g>
		<g id="shape55-148" v:mID="55" v:groupContext="shape" transform="translate(281.25,-254.25)">
			<title>Sheet.55</title>
			<rect x="0" y="383.1" width="87" height="6.75" class="st1"/>
		</g>
		<g id="shape56-150" v:mID="56" v:groupContext="shape" transform="translate(281.975,-251.55)">
			<title>Sheet.56</title>
			<desc>nrf_mesh_dfu_relay()</desc>
			<v:textBlock v:margins="rect(0,0,0,0)"/>
			<v:textRect cx="90.025" cy="384.45" width="180.06" height="10.8"/>
			<rect x="0" y="379.05" width="180.05" height="10.8" class="st2"/>
			<text x="0" y="387.15" class="st3" v:langID="1033"><v:paragraph/><v:tabList/>nrf_mesh_dfu_relay()</text>		</g>
		<g id="shape57-153" v:mID="57" v:groupContext="shape" transform="translate(445.35,149.1) rotate(90)">
			<title>Sheet.57</title>
			<path d="M0 389.85 L37.5 389.85" class="st4"/>
		</g>
		<g id="shape58-156" v:mID="58" v:groupContext="shape" transform="translate(715.35,149.1) rotate(90)">
			<title>Sheet.58</title>
			<path d="M0 389.85 L37.5 389.85" class="st4"/>
		</g>
		<g id="shape59-159" v:mID="59" v:groupContext="shape" transform="translate(985.35,149.1) rotate(90)">
			<title>Sheet.59</title>
			<path d="M0 389.85 L37.5 389.85" class="st4"/>
		</g>
		<g id="shape60-162" v:mID="60" v:groupContext="shape" transform="translate(466.5,-207.75)">
			<title>Sheet.60</title>
			<rect x="0" y="356.85" width="235.5" height="33" class="st1"/>
		</g>
		<g id="shape61-164" v:mID="61" v:groupContext="shape" transform="translate(466.5,-207.75)">
			<title>Sheet.61</title>
			<rect x="0" y="365.85" width="211.875" height="24" class="st1"/>
		</g>
		<g id="shape62-166" v:mID="62" v:groupContext="shape" transform="translate(693,-231.75)">
			<title>Sheet.62</title>
			<path d="M0 380.85 L9 389.85 L0 389.85 L0 380.85 Z" class="st1"/>
		</g>
		<g id="shape63-168" v:mID="63" v:groupContext="shape" transform="translate(466.822,-240.75) rotate(0.0473889)">
			<title>Sheet.63</title>
			<path d="M0 389.85 L226.69 389.85" class="st4"/>
		</g>
		<g id="shape64-171" v:mID="64" v:groupContext="shape" transform="translate(466.5,-207.75)">
			<title>Sheet.64</title>
			<path d="M0 389.85 L235.5 389.85" class="st4"/>
		</g>
		<g id="shape65-174" v:mID="65" v:groupContext="shape" transform="translate(856.35,149.1) rotate(90)">
			<title>Sheet.65</title>
			<path d="M0 389.85 L33 389.85" class="st4"/>
		</g>
		<g id="shape66-177" v:mID="66" v:groupContext="shape" transform="translate(1091.85,158.1) rotate(90)">
			<title>Sheet.66</title>
			<path d="M0 389.85 L24 389.85" class="st4"/>
		</g>
		<g id="shape67-180" v:mID="67" v:groupContext="shape" transform="translate(968.666,-126.566) rotate(45)">
			<title>Sheet.67</title>
			<path d="M0 389.85 L12.73 389.85" class="st4"/>
		</g>
		<g id="shape68-183" v:mID="68" v:groupContext="shape" transform="translate(1082.85,149.1) rotate(90)">
			<title>Sheet.68</title>
			<path d="M0 389.85 L9 389.85" class="st4"/>
		</g>
		<g id="shape69-186" v:mID="69" v:groupContext="shape" transform="translate(702,547.95) rotate(180)">
			<title>Sheet.69</title>
			<path d="M0 389.85 L9 389.85" class="st4"/>
		</g>
		<g id="shape70-189" v:mID="70" v:groupContext="shape" transform="translate(594,-233.25)">
			<title>Sheet.70</title>
			<rect x="0" y="383.1" width="1.5" height="6.75" class="st1"/>
		</g>
		<g id="shape71-191" v:mID="71" v:groupContext="shape" transform="translate(510,-225)">
			<title>Sheet.71</title>
			<rect x="0" y="383.1" width="169.5" height="6.75" class="st1"/>
		</g>
		<g id="shape72-193" v:mID="72" v:groupContext="shape" transform="translate(510.725,-222.3)">
			<title>Sheet.72</title>
			<desc>Role = NRF_MESH_DFU_ROLE_RELAY.</desc>
			<v:textBlock v:margins="rect(0,0,0,0)"/>
			<v:textRect cx="95.6375" cy="384.45" width="191.28" height="10.8"/>
			<rect x="0" y="379.05" width="191.275" height="10.8" class="st2"/>
			<text x="0" y="387.15" class="st3" v:langID="1033"><v:paragraph/><v:tabList/>Role = NRF_MESH_DFU_ROLE_RELAY.</text>		</g>
		<g id="shape73-196" v:mID="73" v:groupContext="shape" transform="translate(477.75,-216.75)">
			<title>Sheet.73</title>
			<rect x="0" y="383.1" width="195" height="6.75" class="st1"/>
		</g>
		<g id="shape74-198" v:mID="74" v:groupContext="shape" transform="translate(478.475,-214.05)">
			<title>Sheet.74</title>
			<desc>State = NRF_MESH_DFU_STATE_RELAY_CANDIDATE.</desc>
			<v:textBlock v:margins="rect(0,0,0,0)"/>
			<v:textRect cx="111.763" cy="384.45" width="223.53" height="10.8"/>
			<rect x="0" y="379.05" width="223.525" height="10.8" class="st2"/>
			<text x="0" y="387.15" class="st3" v:langID="1033"><v:paragraph/><v:tabList/>State = NRF_MESH_DFU_STATE_RELAY_CANDIDATE.</text>		</g>
		<g id="shape75-201" v:mID="75" v:groupContext="shape" transform="translate(594,-208.5)">
			<title>Sheet.75</title>
			<rect x="0" y="383.1" width="1.5" height="6.75" class="st1"/>
		</g>
		<g id="shape76-203" v:mID="76" v:groupContext="shape" transform="translate(445.35,186.6) rotate(90)">
			<title>Sheet.76</title>
			<path d="M0 389.85 L12.75 389.85" class="st5"/>
		</g>
		<g id="shape77-206" v:mID="77" v:groupContext="shape" transform="translate(715.35,186.6) rotate(90)">
			<title>Sheet.77</title>
			<path d="M0 389.85 L12.75 389.85" class="st5"/>
		</g>
		<g id="shape78-209" v:mID="78" v:groupContext="shape" transform="translate(985.35,186.6) rotate(90)">
			<title>Sheet.78</title>
			<path d="M0 389.85 L12.75 389.85" class="st5"/>
		</g>
		<g id="shape79-212" v:mID="79" v:groupContext="shape" transform="translate(445.35,199.35) rotate(90)">
			<title>Sheet.79</title>
			<path d="M0 389.85 L21 389.85" class="st4"/>
		</g>
		<g id="shape80-215" v:mID="80" v:groupContext="shape" transform="translate(715.35,199.35) rotate(90)">
			<title>Sheet.80</title>
			<path d="M0 389.85 L21 389.85" class="st4"/>
		</g>
		<g id="shape81-218" v:mID="81" v:groupContext="shape" transform="translate(985.35,199.35) rotate(90)">
			<title>Sheet.81</title>
			<path d="M0 389.85 L21 389.85" class="st4"/>
		</g>
		<g id="shape82-221" v:mID="82" v:groupContext="shape" transform="translate(325.5,-182.25)">
			<title>Sheet.82</title>
			<path d="M0 389.85 L270 389.85" class="st4"/>
		</g>
		<g id="shape83-224" v:mID="83" v:groupContext="shape" transform="translate(588,-177.75)">
			<title>Sheet.83</title>
			<path d="M7.5 385.35 L0 389.85 L0 380.85 L7.5 385.35 Z" class="st6"/>
		</g>
		<g id="shape84-226" v:mID="84" v:groupContext="shape" transform="translate(422.25,-183)">
			<title>Sheet.84</title>
			<rect x="0" y="383.1" width="75" height="6.75" class="st1"/>
		</g>
		<g id="shape85-228" v:mID="85" v:groupContext="shape" transform="translate(422.975,-180.3)">
			<title>Sheet.85</title>
			<desc>nrf_mesh_dfu_rx()</desc>
			<v:textBlock v:margins="rect(0,0,0,0)"/>
			<v:textRect cx="76.525" cy="384.45" width="153.06" height="10.8"/>
			<rect x="0" y="379.05" width="153.05" height="10.8" class="st2"/>
			<text x="0" y="387.15" class="st3" v:langID="1033"><v:paragraph/><v:tabList/>nrf_mesh_dfu_rx()</text>		</g>
		<g id="shape86-231" v:mID="86" v:groupContext="shape" transform="translate(445.35,220.35) rotate(90)">
			<title>Sheet.86</title>
			<path d="M0 389.85 L37.5 389.85" class="st4"/>
		</g>
		<g id="shape87-234" v:mID="87" v:groupContext="shape" transform="translate(715.35,220.35) rotate(90)">
			<title>Sheet.87</title>
			<path d="M0 389.85 L37.5 389.85" class="st4"/>
		</g>
		<g id="shape88-237" v:mID="88" v:groupContext="shape" transform="translate(985.35,220.35) rotate(90)">
			<title>Sheet.88</title>
			<path d="M0 389.85 L37.5 389.85" class="st4"/>
		</g>
		<g id="shape89-240" v:mID="89" v:groupContext="shape" transform="translate(466.5,-136.5)">
			<title>Sheet.89</title>
			<rect x="0" y="356.85" width="217.5" height="33" class="st1"/>
		</g>
		<g id="shape90-242" v:mID="90" v:groupContext="shape" transform="translate(466.5,-136.5)">
			<title>Sheet.90</title>
			<rect x="0" y="365.85" width="217.5" height="24" class="st1"/>
		</g>
		<g id="shape91-244" v:mID="91" v:groupContext="shape" transform="translate(693,-160.5)">
			<title>Sheet.91</title>
			<path d="M0 380.85 L9 389.85 L0 389.85 L0 380.85 Z" class="st1"/>
		</g>
		<g id="shape92-246" v:mID="92" v:groupContext="shape" transform="translate(466.5,-169.5)">
			<title>Sheet.92</title>
			<path d="M0 389.85 L226.5 389.85" class="st4"/>
		</g>
		<g id="shape93-249" v:mID="93" v:groupContext="shape" transform="translate(466.5,-136.5)">
			<title>Sheet.93</title>
			<path d="M0 389.85 L235.5 389.85" class="st4"/>
		</g>
		<g id="shape94-252" v:mID="94" v:groupContext="shape" transform="translate(856.35,220.35) rotate(90)">
			<title>Sheet.94</title>
			<path d="M0 389.85 L33 389.85" class="st4"/>
		</g>
		<g id="shape95-255" v:mID="95" v:groupContext="shape" transform="translate(1091.85,229.35) rotate(90)">
			<title>Sheet.95</title>
			<path d="M0 389.85 L24 389.85" class="st4"/>
		</g>
		<g id="shape96-258" v:mID="96" v:groupContext="shape" transform="translate(968.666,-55.3156) rotate(45)">
			<title>Sheet.96</title>
			<path d="M0 389.85 L12.73 389.85" class="st4"/>
		</g>
		<g id="shape97-261" v:mID="97" v:groupContext="shape" transform="translate(1082.85,220.35) rotate(90)">
			<title>Sheet.97</title>
			<path d="M0 389.85 L9 389.85" class="st4"/>
		</g>
		<g id="shape98-264" v:mID="98" v:groupContext="shape" transform="translate(702,619.2) rotate(180)">
			<title>Sheet.98</title>
			<path d="M0 389.85 L9 389.85" class="st4"/>
		</g>
		<g id="shape99-267" v:mID="99" v:groupContext="shape" transform="translate(594,-162)">
			<title>Sheet.99</title>
			<rect x="0" y="383.1" width="1.5" height="6.75" class="st1"/>
		</g>
		<g id="shape100-269" v:mID="100" v:groupContext="shape" transform="translate(510.75,-153.75)">
			<title>Sheet.100</title>
			<rect x="0" y="383.1" width="168.75" height="6.75" class="st1"/>
		</g>
		<g id="shape101-271" v:mID="101" v:groupContext="shape" transform="translate(511.475,-151.05)">
			<title>Sheet.101</title>
			<desc>The device receives the DFU data packet.</desc>
			<v:textBlock v:margins="rect(0,0,0,0)"/>
			<v:textRect cx="87.3875" cy="384.45" width="174.78" height="10.8"/>
			<rect x="0" y="379.05" width="174.775" height="10.8" class="st2"/>
			<text x="0" y="387.15" class="st3" v:langID="1033"><v:paragraph/><v:tabList/>The device receives the DFU data packet.</text>		</g>
		<g id="shape102-274" v:mID="102" v:groupContext="shape" transform="translate(506.25,-145.5)">
			<title>Sheet.102</title>
			<rect x="0" y="383.1" width="177" height="6.75" class="st1"/>
		</g>
		<g id="shape103-276" v:mID="103" v:groupContext="shape" transform="translate(513,-142.8)">
			<title>Sheet.103</title>
			<desc>State = NRF_MESH_DFU_STATE_RELAY.</desc>
			<v:textBlock v:margins="rect(0,0,0,0)"/>
			<v:textRect cx="76.5" cy="384.45" width="153" height="10.8"/>
			<rect x="0" y="379.05" width="153" height="10.8" class="st2"/>
			<text x="0" y="387.15" class="st3" v:langID="1033"><v:paragraph/><v:tabList/>State = NRF_MESH_DFU_STATE_RELAY.</text>		</g>
		<g id="shape104-279" v:mID="104" v:groupContext="shape" transform="translate(594,-137.25)">
			<title>Sheet.104</title>
			<rect x="0" y="383.1" width="1.5" height="6.75" class="st1"/>
		</g>
		<g id="shape105-281" v:mID="105" v:groupContext="shape" transform="translate(445.35,257.85) rotate(90)">
			<title>Sheet.105</title>
			<path d="M0 389.85 L21 389.85" class="st4"/>
		</g>
		<g id="shape106-284" v:mID="106" v:groupContext="shape" transform="translate(715.35,257.85) rotate(90)">
			<title>Sheet.106</title>
			<path d="M0 389.85 L21 389.85" class="st4"/>
		</g>
		<g id="shape107-287" v:mID="107" v:groupContext="shape" transform="translate(985.35,257.85) rotate(90)">
			<title>Sheet.107</title>
			<path d="M0 389.85 L21 389.85" class="st4"/>
		</g>
		<g id="shape108-290" v:mID="108" v:groupContext="shape" transform="translate(595.5,655.95) rotate(180)">
			<title>Sheet.108</title>
			<path d="M0 389.85 L540 389.85" class="st4"/>
		</g>
		<g id="shape109-293" v:mID="109" v:groupContext="shape" transform="translate(256.076,-68.1936) rotate(30.9638)">
			<title>Sheet.109</title>
			<path d="M0 389.85 L8.75 389.85" class="st4"/>
		</g>
		<g id="shape110-296" v:mID="110" v:groupContext="shape" transform="translate(259.5,-124.5)">
			<title>Sheet.110</title>
			<rect x="0" y="383.1" width="131.25" height="6.75" class="st1"/>
		</g>
		<g id="shape111-298" v:mID="111" v:groupContext="shape" transform="translate(260.225,-121.8)">
			<title>Sheet.111</title>
			<desc>NRF_MESH_EVT_DFU_START</desc>
			<v:textBlock v:margins="rect(0,0,0,0)"/>
			<v:textRect cx="99.025" cy="384.45" width="198.06" height="10.8"/>
			<rect x="0" y="379.05" width="198.05" height="10.8" class="st2"/>
			<text x="0" y="387.15" class="st3" v:langID="1033"><v:paragraph/><v:tabList/>NRF_MESH_EVT_DFU_START</text>		</g>
		<g id="shape112-301" v:mID="112" v:groupContext="shape" transform="translate(445.35,278.85) rotate(90)">
			<title>Sheet.112</title>
			<path d="M0 389.85 L21 389.85" class="st4"/>
		</g>
		<g id="shape113-304" v:mID="113" v:groupContext="shape" transform="translate(715.35,278.85) rotate(90)">
			<title>Sheet.113</title>
			<path d="M0 389.85 L21 389.85" class="st4"/>
		</g>
		<g id="shape114-307" v:mID="114" v:groupContext="shape" transform="translate(985.35,278.85) rotate(90)">
			<title>Sheet.114</title>
			<path d="M0 389.85 L21 389.85" class="st4"/>
		</g>
		<g id="shape115-310" v:mID="115" v:groupContext="shape" transform="translate(325.5,-102.75)">
			<title>Sheet.115</title>
			<path d="M0 389.85 L270 389.85" class="st4"/>
		</g>
		<g id="shape116-313" v:mID="116" v:groupContext="shape" transform="translate(796.076,621.394) rotate(149.036)">
			<title>Sheet.116</title>
			<path d="M0 389.85 L8.75 389.85" class="st4"/>
		</g>
		<g id="shape117-316" v:mID="117" v:groupContext="shape" transform="translate(526.076,-47.1936) rotate(30.9638)">
			<title>Sheet.117</title>
			<path d="M0 389.85 L8.75 389.85" class="st4"/>
		</g>
		<g id="shape118-319" v:mID="118" v:groupContext="shape" transform="translate(404.25,-103.5)">
			<title>Sheet.118</title>
			<rect x="0" y="383.1" width="111" height="6.75" class="st1"/>
		</g>
		<g id="shape119-321" v:mID="119" v:groupContext="shape" transform="translate(404.975,-100.8)">
			<title>Sheet.119</title>
			<desc>Relaying DFU data packets</desc>
			<v:textBlock v:margins="rect(0,0,0,0)"/>
			<v:textRect cx="112.525" cy="384.45" width="225.06" height="10.8"/>
			<rect x="0" y="379.05" width="225.05" height="10.8" class="st2"/>
			<text x="0" y="387.15" class="st3" v:langID="1033"><v:paragraph/><v:tabList/>Relaying DFU data packets</text>		</g>
		<g id="shape120-324" v:mID="120" v:groupContext="shape" transform="translate(445.35,299.85) rotate(90)">
			<title>Sheet.120</title>
			<path d="M0 389.85 L12.75 389.85" class="st5"/>
		</g>
		<g id="shape121-327" v:mID="121" v:groupContext="shape" transform="translate(715.35,299.85) rotate(90)">
			<title>Sheet.121</title>
			<path d="M0 389.85 L12.75 389.85" class="st5"/>
		</g>
		<g id="shape122-330" v:mID="122" v:groupContext="shape" transform="translate(985.35,299.85) rotate(90)">
			<title>Sheet.122</title>
			<path d="M0 389.85 L12.75 389.85" class="st5"/>
		</g>
		<g id="shape123-333" v:mID="123" v:groupContext="shape" transform="translate(445.35,312.6) rotate(90)">
			<title>Sheet.123</title>
			<path d="M0 389.85 L37.5 389.85" class="st4"/>
		</g>
		<g id="shape124-336" v:mID="124" v:groupContext="shape" transform="translate(715.35,312.6) rotate(90)">
			<title>Sheet.124</title>
			<path d="M0 389.85 L37.5 389.85" class="st4"/>
		</g>
		<g id="shape125-339" v:mID="125" v:groupContext="shape" transform="translate(985.35,312.6) rotate(90)">
			<title>Sheet.125</title>
			<path d="M0 389.85 L37.5 389.85" class="st4"/>
		</g>
		<g id="shape126-342" v:mID="126" v:groupContext="shape" transform="translate(466.5,-44.25)">
			<title>Sheet.126</title>
			<rect x="0" y="356.85" width="235.5" height="33" class="st1"/>
		</g>
		<g id="shape127-344" v:mID="127" v:groupContext="shape" transform="translate(466.5,-44.25)">
			<title>Sheet.127</title>
			<rect x="0" y="365.85" width="235.5" height="24" class="st1"/>
		</g>
		<g id="shape128-346" v:mID="128" v:groupContext="shape" transform="translate(693,-68.25)">
			<title>Sheet.128</title>
			<path d="M0 380.85 L9 389.85 L0 389.85 L0 380.85 Z" class="st1"/>
		</g>
		<g id="shape129-348" v:mID="129" v:groupContext="shape" transform="translate(466.5,-77.25)">
			<title>Sheet.129</title>
			<path d="M0 389.85 L226.5 389.85" class="st4"/>
		</g>
		<g id="shape130-351" v:mID="130" v:groupContext="shape" transform="translate(466.5,-44.25)">
			<title>Sheet.130</title>
			<path d="M0 389.85 L235.5 389.85" class="st4"/>
		</g>
		<g id="shape131-354" v:mID="131" v:groupContext="shape" transform="translate(856.35,312.6) rotate(90)">
			<title>Sheet.131</title>
			<path d="M0 389.85 L33 389.85" class="st4"/>
		</g>
		<g id="shape132-357" v:mID="132" v:groupContext="shape" transform="translate(1091.85,321.6) rotate(90)">
			<title>Sheet.132</title>
			<path d="M0 389.85 L24 389.85" class="st4"/>
		</g>
		<g id="shape133-360" v:mID="133" v:groupContext="shape" transform="translate(968.666,36.9344) rotate(45)">
			<title>Sheet.133</title>
			<path d="M0 389.85 L12.73 389.85" class="st4"/>
		</g>
		<g id="shape134-363" v:mID="134" v:groupContext="shape" transform="translate(1082.85,312.6) rotate(90)">
			<title>Sheet.134</title>
			<path d="M0 389.85 L9 389.85" class="st4"/>
		</g>
		<g id="shape135-366" v:mID="135" v:groupContext="shape" transform="translate(702,711.45) rotate(180)">
			<title>Sheet.135</title>
			<path d="M0 389.85 L9 389.85" class="st4"/>
		</g>
		<g id="shape136-369" v:mID="136" v:groupContext="shape" transform="translate(594,-69.75)">
			<title>Sheet.136</title>
			<rect x="0" y="383.1" width="1.5" height="6.75" class="st1"/>
		</g>
		<g id="shape137-371" v:mID="137" v:groupContext="shape" transform="translate(476.25,-61.5)">
			<title>Sheet.137</title>
			<rect x="0" y="383.1" width="216.75" height="6.75" class="st1"/>
		</g>
		<g id="shape138-373" v:mID="138" v:groupContext="shape" transform="translate(476.975,-58.8)">
			<title>Sheet.138</title>
			<desc>The Mesh DFU module didn&#39;t receive any DFU data packet</desc>
			<v:textBlock v:margins="rect(0,0,0,0)"/>
			<v:textRect cx="108.013" cy="384.45" width="216.03" height="10.8"/>
			<rect x="0" y="379.05" width="216.025" height="10.8" class="st2"/>
			<text x="0" y="387.15" class="st3" v:langID="1033"><v:paragraph/><v:tabList/>The Mesh DFU module didn&#39;t receive any DFU data packet</text>		</g>
		<g id="shape139-376" v:mID="139" v:groupContext="shape" transform="translate(566.25,-53.25)">
			<title>Sheet.139</title>
			<rect x="0" y="383.1" width="57.75" height="6.75" class="st1"/>
		</g>
		<g id="shape140-378" v:mID="140" v:groupContext="shape" transform="translate(566.975,-50.55)">
			<title>Sheet.140</title>
			<desc>during 60 sec.</desc>
			<v:textBlock v:margins="rect(0,0,0,0)"/>
			<v:textRect cx="63.025" cy="384.45" width="126.06" height="10.8"/>
			<rect x="0" y="379.05" width="126.05" height="10.8" class="st2"/>
			<text x="0" y="387.15" class="st3" v:langID="1033"><v:paragraph/><v:tabList/>during 60 sec.</text>		</g>
		<g id="shape141-381" v:mID="141" v:groupContext="shape" transform="translate(594,-45)">
			<title>Sheet.141</title>
			<rect x="0" y="383.1" width="1.5" height="6.75" class="st1"/>
		</g>
		<g id="shape142-383" v:mID="142" v:groupContext="shape" transform="translate(445.35,350.1) rotate(90)">
			<title>Sheet.142</title>
			<path d="M0 389.85 L21 389.85" class="st4"/>
		</g>
		<g id="shape143-386" v:mID="143" v:groupContext="shape" transform="translate(715.35,350.1) rotate(90)">
			<title>Sheet.143</title>
			<path d="M0 389.85 L21 389.85" class="st4"/>
		</g>
		<g id="shape144-389" v:mID="144" v:groupContext="shape" transform="translate(985.35,350.1) rotate(90)">
			<title>Sheet.144</title>
			<path d="M0 389.85 L21 389.85" class="st4"/>
		</g>
		<g id="shape145-392" v:mID="145" v:groupContext="shape" transform="translate(595.5,748.2) rotate(180)">
			<title>Sheet.145</title>
			<path d="M0 389.85 L540 389.85" class="st4"/>
		</g>
		<g id="shape146-395" v:mID="146" v:groupContext="shape" transform="translate(256.076,24.0564) rotate(30.9638)">
			<title>Sheet.146</title>
			<path d="M0 389.85 L8.75 389.85" class="st4"/>
		</g>
		<g id="shape147-398" v:mID="147" v:groupContext="shape" transform="translate(151.5,-32.25)">
			<title>Sheet.147</title>
			<rect x="0" y="383.1" width="347.25" height="6.75" class="st1"/>
		</g>
		<g id="shape148-400" v:mID="148" v:groupContext="shape" transform="translate(152.225,-29.55)">
			<title>Sheet.148</title>
			<desc>NRF_MESH_EVT_DFU_END (reason = NRF_MESH_DFU_END_ERROR_TIMEOUT)</desc>
			<v:textBlock v:margins="rect(0,0,0,0)"/>
			<v:textRect cx="279.025" cy="384.45" width="558.05" height="10.8"/>
			<rect x="0" y="379.05" width="558.05" height="10.8" class="st2"/>
			<text x="0" y="387.15" class="st3" v:langID="1033"><v:paragraph/><v:tabList/>NRF_MESH_EVT_DFU_END (reason = NRF_MESH_DFU_END_ERROR_TIMEOUT)</text>		</g>
		<g id="shape149-403" v:mID="149" v:groupContext="shape" transform="translate(445.35,366.6) rotate(90)">
			<title>Sheet.149</title>
			<path d="M0 389.85 L4.5 389.85" class="st4"/>
		</g>
		<g id="shape150-406" v:mID="150" v:groupContext="shape" transform="translate(715.35,366.6) rotate(90)">
			<title>Sheet.150</title>
			<path d="M0 389.85 L4.5 389.85" class="st4"/>
		</g>
		<g id="shape151-409" v:mID="151" v:groupContext="shape" transform="translate(985.35,366.6) rotate(90)">
			<title>Sheet.151</title>
			<path d="M0 389.85 L4.5 389.85" class="st4"/>
		</g>
	</g>
</svg>
