<?xml version="1.0" encoding="UTF-8"?><svg xmlns="http://www.w3.org/2000/svg" xmlns:xlink="http://www.w3.org/1999/xlink" fill-opacity="1" color-rendering="auto" color-interpolation="auto" text-rendering="auto" stroke="black" stroke-linecap="square" width="432" stroke-miterlimit="10" shape-rendering="auto" stroke-opacity="1" fill="black" stroke-dasharray="none" font-weight="normal" stroke-width="1" height="299" font-family="'Dialog'" font-style="normal" stroke-linejoin="miter" font-size="12px" stroke-dashoffset="0" image-rendering="auto">
  <!--Generated by ySVG 2.5-->
  <defs id="genericDefs"/>
  <g>
    <defs id="defs1">
      <clipPath clipPathUnits="userSpaceOnUse" id="clipPath1">
        <path d="M0 0 L432 0 L432 299 L0 299 L0 0 Z"/>
      </clipPath>
      <clipPath clipPathUnits="userSpaceOnUse" id="clipPath2">
        <path d="M235 21 L667 21 L667 320 L235 320 L235 21 Z"/>
      </clipPath>
    </defs>
    <g fill="white" text-rendering="geometricPrecision" shape-rendering="geometricPrecision" transform="translate(-235,-21)" stroke="white">
      <rect x="235" width="432" height="299" y="21" clip-path="url(#clipPath2)" stroke="none"/>
    </g>
    <g fill="rgb(0,154,217)" text-rendering="geometricPrecision" shape-rendering="geometricPrecision" transform="matrix(1,0,0,1,-235,-21)" stroke="rgb(0,154,217)">
      <rect x="250.08" width="198.464" height="50" y="200" clip-path="url(#clipPath2)" stroke="none"/>
      <rect stroke-linecap="butt" x="250.08" y="200" clip-path="url(#clipPath2)" fill="none" width="198.464" height="50" stroke-miterlimit="1.45"/>
    </g>
    <g stroke-linecap="butt" font-size="16px" transform="matrix(1,0,0,1,-235,-21)" fill="white" text-rendering="geometricPrecision" font-family="sans-serif" shape-rendering="geometricPrecision" stroke="white" stroke-miterlimit="1.45">
      <text x="331.9722" xml:space="preserve" y="231.2852" clip-path="url(#clipPath2)" stroke="none">Core</text>
    </g>
    <g fill="rgb(0,154,217)" text-rendering="geometricPrecision" shape-rendering="geometricPrecision" transform="matrix(1,0,0,1,-235,-21)" stroke="rgb(0,154,217)">
      <rect x="250.08" width="96.928" height="50" y="145.3753" clip-path="url(#clipPath2)" stroke="none"/>
      <rect stroke-linecap="butt" x="250.08" y="145.3753" clip-path="url(#clipPath2)" fill="none" width="96.928" height="50" stroke-miterlimit="1.45"/>
    </g>
    <g stroke-linecap="butt" font-size="16px" transform="matrix(1,0,0,1,-235,-21)" fill="white" text-rendering="geometricPrecision" font-family="sans-serif" shape-rendering="geometricPrecision" stroke="white" stroke-miterlimit="1.45">
      <text x="272.7589" xml:space="preserve" y="176.6605" clip-path="url(#clipPath2)" stroke="none">Access</text>
    </g>
    <g fill="rgb(0,154,217)" text-rendering="geometricPrecision" shape-rendering="geometricPrecision" transform="matrix(1,0,0,1,-235,-21)" stroke="rgb(0,154,217)">
      <rect x="351.616" width="96.928" height="50" y="145.3753" clip-path="url(#clipPath2)" stroke="none"/>
      <rect stroke-linecap="butt" x="351.616" y="145.3753" clip-path="url(#clipPath2)" fill="none" width="96.928" height="50" stroke-miterlimit="1.45"/>
    </g>
    <g stroke-linecap="butt" font-size="16px" transform="matrix(1,0,0,1,-235,-21)" fill="white" text-rendering="geometricPrecision" font-family="sans-serif" shape-rendering="geometricPrecision" stroke="white" stroke-miterlimit="1.45">
      <text x="382.3026" xml:space="preserve" y="176.6605" clip-path="url(#clipPath2)" stroke="none">DSM</text>
    </g>
    <g fill="rgb(0,154,217)" text-rendering="geometricPrecision" shape-rendering="geometricPrecision" transform="matrix(1,0,0,1,-235,-21)" stroke="rgb(0,154,217)">
      <rect x="250.08" width="401.536" height="50" y="254.6247" clip-path="url(#clipPath2)" stroke="none"/>
      <rect stroke-linecap="butt" x="250.08" y="254.6247" clip-path="url(#clipPath2)" fill="none" width="401.536" height="50" stroke-miterlimit="1.45"/>
    </g>
    <g stroke-linecap="butt" font-size="16px" transform="matrix(1,0,0,1,-235,-21)" fill="white" text-rendering="geometricPrecision" font-family="sans-serif" shape-rendering="geometricPrecision" stroke="white" stroke-miterlimit="1.45">
      <text x="426.8363" xml:space="preserve" y="285.9098" clip-path="url(#clipPath2)" stroke="none">Bearer</text>
    </g>
    <g fill="rgb(0,154,217)" text-rendering="geometricPrecision" shape-rendering="geometricPrecision" transform="matrix(1,0,0,1,-235,-21)" stroke="rgb(0,154,217)">
      <rect x="453.152" width="96.928" height="159.2493" y="90.7507" clip-path="url(#clipPath2)" stroke="none"/>
      <rect stroke-linecap="butt" x="453.152" y="90.7507" clip-path="url(#clipPath2)" fill="none" width="96.928" height="159.2493" stroke-miterlimit="1.45"/>
    </g>
    <g stroke-linecap="butt" font-size="16px" transform="matrix(1,0,0,1,-235,-21)" fill="white" text-rendering="geometricPrecision" font-family="sans-serif" shape-rendering="geometricPrecision" stroke="white" stroke-miterlimit="1.45">
      <text x="458.0379" xml:space="preserve" y="176.6605" clip-path="url(#clipPath2)" stroke="none">Provisioning</text>
    </g>
    <g fill="rgb(0,154,217)" text-rendering="geometricPrecision" shape-rendering="geometricPrecision" transform="matrix(1,0,0,1,-235,-21)" stroke="rgb(0,154,217)">
      <rect x="554.688" width="96.928" height="159.2493" y="90.7507" clip-path="url(#clipPath2)" stroke="none"/>
      <rect stroke-linecap="butt" x="554.688" y="90.7507" clip-path="url(#clipPath2)" fill="none" width="96.928" height="159.2493" stroke-miterlimit="1.45"/>
    </g>
    <g stroke-linecap="butt" font-size="16px" transform="matrix(1,0,0,1,-235,-21)" fill="white" text-rendering="geometricPrecision" font-family="sans-serif" shape-rendering="geometricPrecision" stroke="white" stroke-miterlimit="1.45">
      <text x="586.7106" xml:space="preserve" y="176.6605" clip-path="url(#clipPath2)" stroke="none">DFU</text>
    </g>
    <g fill="rgb(0,154,217)" text-rendering="geometricPrecision" shape-rendering="geometricPrecision" transform="matrix(1,0,0,1,-235,-21)" stroke="rgb(0,154,217)">
      <rect x="250.08" width="198.464" height="50" y="90.7507" clip-path="url(#clipPath2)" stroke="none"/>
      <rect stroke-linecap="butt" x="250.08" y="90.7507" clip-path="url(#clipPath2)" fill="none" width="198.464" height="50" stroke-miterlimit="1.45"/>
    </g>
    <g stroke-linecap="butt" font-size="16px" transform="matrix(1,0,0,1,-235,-21)" fill="white" text-rendering="geometricPrecision" font-family="sans-serif" shape-rendering="geometricPrecision" stroke="white" stroke-miterlimit="1.45">
      <text x="323.5229" xml:space="preserve" y="122.0358" clip-path="url(#clipPath2)" stroke="none">Models</text>
    </g>
    <g fill="rgb(0,90,127)" text-rendering="geometricPrecision" shape-rendering="geometricPrecision" transform="matrix(1,0,0,1,-235,-21)" stroke="rgb(0,90,127)">
      <rect x="250.08" width="401.536" height="50" y="36.126" clip-path="url(#clipPath2)" stroke="none"/>
      <rect stroke-linecap="butt" x="250.08" y="36.126" clip-path="url(#clipPath2)" fill="none" width="401.536" height="50" stroke-miterlimit="1.45"/>
    </g>
    <g stroke-linecap="butt" font-size="16px" transform="matrix(1,0,0,1,-235,-21)" fill="white" text-rendering="geometricPrecision" font-family="sans-serif" shape-rendering="geometricPrecision" stroke="white" stroke-miterlimit="1.45">
      <text x="411.7113" xml:space="preserve" y="67.4111" clip-path="url(#clipPath2)" stroke="none">Application</text>
    </g>
  </g>
</svg>
