<?xml version="1.0" encoding="UTF-8" standalone="no"?><svg xmlns="http://www.w3.org/2000/svg" xmlns:xlink="http://www.w3.org/1999/xlink" contentScriptType="application/ecmascript" contentStyleType="text/css" height="1358px" preserveAspectRatio="none" style="width:961px;height:1358px;" version="1.1" viewBox="0 0 961 1358" width="961px" zoomAndPan="magnify"><defs><filter height="300%" id="f125so8vol5fjf" width="300%" x="-1" y="-1"><feGaussianBlur result="blurOut" stdDeviation="2.0"/><feColorMatrix in="blurOut" result="blurOut2" type="matrix" values="0 0 0 0 0 0 0 0 0 0 0 0 0 0 0 0 0 0 .4 0"/><feOffset dx="4.0" dy="4.0" in="blurOut2" result="blurOut3"/><feBlend in="SourceGraphic" in2="blurOut3" mode="normal"/></filter></defs><g><rect fill="#FFFFFF" height="1343.9058" style="stroke: #A80036; stroke-width: 1.0;" width="354" x="118" y="4"/><text fill="#000000" font-family="Arial" font-size="13" font-weight="bold" lengthAdjust="spacingAndGlyphs" textLength="72" x="259" y="16.4065">Application</text><rect fill="#DDDDDD" height="1343.9058" style="stroke: #A80036; stroke-width: 1.0;" width="129" x="821.5" y="4"/><text fill="#000000" font-family="Arial" font-size="13" font-weight="bold" lengthAdjust="spacingAndGlyphs" textLength="123" x="824.5" y="16.4065">Mesh core modules</text><rect fill="#FFFFFF" filter="url(#f125so8vol5fjf)" height="22.9487" style="stroke: #FFFFFF; stroke-width: 1.0;" width="10" x="740.5" y="691.2725"/><line style="stroke: #A80036; stroke-width: 1.0;" x1="740.5" x2="740.5" y1="691.2725" y2="714.2212"/><line style="stroke: #A80036; stroke-width: 1.0;" x1="750.5" x2="750.5" y1="691.2725" y2="714.2212"/><line style="stroke: #A80036; stroke-width: 1.0;" x1="740.5" x2="750.5" y1="691.2725" y2="691.2725"/><rect fill="#FFFFFF" filter="url(#f125so8vol5fjf)" height="34" style="stroke: #FFFFFF; stroke-width: 1.0;" width="10" x="740.5" y="742.2212"/><line style="stroke: #A80036; stroke-width: 1.0;" x1="740.5" x2="740.5" y1="742.2212" y2="776.2212"/><line style="stroke: #A80036; stroke-width: 1.0;" x1="750.5" x2="750.5" y1="742.2212" y2="776.2212"/><line style="stroke: #A80036; stroke-width: 1.0;" x1="740.5" x2="750.5" y1="776.2212" y2="776.2212"/><rect fill="#FFFFFF" filter="url(#f125so8vol5fjf)" height="22.9487" style="stroke: #FFFFFF; stroke-width: 1.0;" width="10" x="740.5" y="805.1699"/><line style="stroke: #A80036; stroke-width: 1.0;" x1="740.5" x2="740.5" y1="805.1699" y2="828.1187"/><line style="stroke: #A80036; stroke-width: 1.0;" x1="750.5" x2="750.5" y1="805.1699" y2="828.1187"/><line style="stroke: #A80036; stroke-width: 1.0;" x1="740.5" x2="750.5" y1="805.1699" y2="805.1699"/><rect fill="#FFFFFF" filter="url(#f125so8vol5fjf)" height="34" style="stroke: #FFFFFF; stroke-width: 1.0;" width="10" x="740.5" y="856.1187"/><line style="stroke: #A80036; stroke-width: 1.0;" x1="740.5" x2="740.5" y1="856.1187" y2="890.1187"/><line style="stroke: #A80036; stroke-width: 1.0;" x1="750.5" x2="750.5" y1="856.1187" y2="890.1187"/><line style="stroke: #A80036; stroke-width: 1.0;" x1="740.5" x2="750.5" y1="890.1187" y2="890.1187"/><rect fill="#FFFFFF" filter="url(#f125so8vol5fjf)" height="22.9487" style="stroke: #FFFFFF; stroke-width: 1.0;" width="10" x="740.5" y="919.0674"/><line style="stroke: #A80036; stroke-width: 1.0;" x1="740.5" x2="740.5" y1="919.0674" y2="942.0161"/><line style="stroke: #A80036; stroke-width: 1.0;" x1="750.5" x2="750.5" y1="919.0674" y2="942.0161"/><line style="stroke: #A80036; stroke-width: 1.0;" x1="740.5" x2="750.5" y1="919.0674" y2="919.0674"/><rect fill="#FFFFFF" filter="url(#f125so8vol5fjf)" height="34" style="stroke: #FFFFFF; stroke-width: 1.0;" width="10" x="740.5" y="970.0161"/><line style="stroke: #A80036; stroke-width: 1.0;" x1="740.5" x2="740.5" y1="970.0161" y2="1004.0161"/><line style="stroke: #A80036; stroke-width: 1.0;" x1="750.5" x2="750.5" y1="970.0161" y2="1004.0161"/><line style="stroke: #A80036; stroke-width: 1.0;" x1="740.5" x2="750.5" y1="1004.0161" y2="1004.0161"/><rect fill="#FFFFFF" filter="url(#f125so8vol5fjf)" height="22.9487" style="stroke: #FFFFFF; stroke-width: 1.0;" width="10" x="740.5" y="1032.9648"/><line style="stroke: #A80036; stroke-width: 1.0;" x1="740.5" x2="740.5" y1="1032.9648" y2="1055.9136"/><line style="stroke: #A80036; stroke-width: 1.0;" x1="750.5" x2="750.5" y1="1032.9648" y2="1055.9136"/><line style="stroke: #A80036; stroke-width: 1.0;" x1="740.5" x2="750.5" y1="1032.9648" y2="1032.9648"/><rect fill="#FFFFFF" filter="url(#f125so8vol5fjf)" height="34" style="stroke: #FFFFFF; stroke-width: 1.0;" width="10" x="740.5" y="1083.9136"/><line style="stroke: #A80036; stroke-width: 1.0;" x1="740.5" x2="740.5" y1="1083.9136" y2="1117.9136"/><line style="stroke: #A80036; stroke-width: 1.0;" x1="750.5" x2="750.5" y1="1083.9136" y2="1117.9136"/><line style="stroke: #A80036; stroke-width: 1.0;" x1="740.5" x2="750.5" y1="1117.9136" y2="1117.9136"/><rect fill="#FFFFFF" filter="url(#f125so8vol5fjf)" height="22.9487" style="stroke: #FFFFFF; stroke-width: 1.0;" width="10" x="740.5" y="1146.8623"/><line style="stroke: #A80036; stroke-width: 1.0;" x1="740.5" x2="740.5" y1="1146.8623" y2="1169.811"/><line style="stroke: #A80036; stroke-width: 1.0;" x1="750.5" x2="750.5" y1="1146.8623" y2="1169.811"/><line style="stroke: #A80036; stroke-width: 1.0;" x1="740.5" x2="750.5" y1="1146.8623" y2="1146.8623"/><rect fill="#FFFFFF" filter="url(#f125so8vol5fjf)" height="34" style="stroke: #FFFFFF; stroke-width: 1.0;" width="10" x="740.5" y="1197.811"/><line style="stroke: #A80036; stroke-width: 1.0;" x1="740.5" x2="740.5" y1="1197.811" y2="1231.811"/><line style="stroke: #A80036; stroke-width: 1.0;" x1="750.5" x2="750.5" y1="1197.811" y2="1231.811"/><line style="stroke: #A80036; stroke-width: 1.0;" x1="740.5" x2="750.5" y1="1231.811" y2="1231.811"/><rect fill="#FFFFFF" filter="url(#f125so8vol5fjf)" height="1146.6138" style="stroke: #000000; stroke-width: 2.0;" width="821" x="102" y="130.0947"/><rect fill="#FFFFFF" filter="url(#f125so8vol5fjf)" height="457.3315" style="stroke: #000000; stroke-width: 2.0;" width="801" x="112" y="154.0435"/><rect fill="#FFFFFF" filter="url(#f125so8vol5fjf)" height="644.3335" style="stroke: #000000; stroke-width: 2.0;" width="801" x="112" y="625.375"/><line style="stroke: #A80036; stroke-width: 1.0;" x1="151" x2="151" y1="74.146" y2="257.8384"/><line style="stroke: #A80036; stroke-width: 1.0; stroke-dasharray: 1.0,4.0;" x1="151" x2="151" y1="257.8384" y2="298.4873"/><line style="stroke: #A80036; stroke-width: 1.0;" x1="151" x2="151" y1="298.4873" y2="327.436"/><line style="stroke: #A80036; stroke-width: 1.0; stroke-dasharray: 1.0,4.0;" x1="151" x2="151" y1="327.436" y2="368.085"/><line style="stroke: #A80036; stroke-width: 1.0;" x1="151" x2="151" y1="368.085" y2="397.0337"/><line style="stroke: #A80036; stroke-width: 1.0; stroke-dasharray: 1.0,4.0;" x1="151" x2="151" y1="397.0337" y2="437.6826"/><line style="stroke: #A80036; stroke-width: 1.0;" x1="151" x2="151" y1="437.6826" y2="714.2212"/><line style="stroke: #A80036; stroke-width: 1.0; stroke-dasharray: 1.0,4.0;" x1="151" x2="151" y1="714.2212" y2="742.2212"/><line style="stroke: #A80036; stroke-width: 1.0;" x1="151" x2="151" y1="742.2212" y2="828.1187"/><line style="stroke: #A80036; stroke-width: 1.0; stroke-dasharray: 1.0,4.0;" x1="151" x2="151" y1="828.1187" y2="856.1187"/><line style="stroke: #A80036; stroke-width: 1.0;" x1="151" x2="151" y1="856.1187" y2="942.0161"/><line style="stroke: #A80036; stroke-width: 1.0; stroke-dasharray: 1.0,4.0;" x1="151" x2="151" y1="942.0161" y2="970.0161"/><line style="stroke: #A80036; stroke-width: 1.0;" x1="151" x2="151" y1="970.0161" y2="1055.9136"/><line style="stroke: #A80036; stroke-width: 1.0; stroke-dasharray: 1.0,4.0;" x1="151" x2="151" y1="1055.9136" y2="1083.9136"/><line style="stroke: #A80036; stroke-width: 1.0;" x1="151" x2="151" y1="1083.9136" y2="1169.811"/><line style="stroke: #A80036; stroke-width: 1.0; stroke-dasharray: 1.0,4.0;" x1="151" x2="151" y1="1169.811" y2="1197.811"/><line style="stroke: #A80036; stroke-width: 1.0;" x1="151" x2="151" y1="1197.811" y2="1293.7085"/><line style="stroke: #A80036; stroke-width: 1.0;" x1="392" x2="392" y1="74.146" y2="257.8384"/><line style="stroke: #A80036; stroke-width: 1.0; stroke-dasharray: 1.0,4.0;" x1="392" x2="392" y1="257.8384" y2="298.4873"/><line style="stroke: #A80036; stroke-width: 1.0;" x1="392" x2="392" y1="298.4873" y2="327.436"/><line style="stroke: #A80036; stroke-width: 1.0; stroke-dasharray: 1.0,4.0;" x1="392" x2="392" y1="327.436" y2="368.085"/><line style="stroke: #A80036; stroke-width: 1.0;" x1="392" x2="392" y1="368.085" y2="397.0337"/><line style="stroke: #A80036; stroke-width: 1.0; stroke-dasharray: 1.0,4.0;" x1="392" x2="392" y1="397.0337" y2="437.6826"/><line style="stroke: #A80036; stroke-width: 1.0;" x1="392" x2="392" y1="437.6826" y2="714.2212"/><line style="stroke: #A80036; stroke-width: 1.0; stroke-dasharray: 1.0,4.0;" x1="392" x2="392" y1="714.2212" y2="742.2212"/><line style="stroke: #A80036; stroke-width: 1.0;" x1="392" x2="392" y1="742.2212" y2="828.1187"/><line style="stroke: #A80036; stroke-width: 1.0; stroke-dasharray: 1.0,4.0;" x1="392" x2="392" y1="828.1187" y2="856.1187"/><line style="stroke: #A80036; stroke-width: 1.0;" x1="392" x2="392" y1="856.1187" y2="942.0161"/><line style="stroke: #A80036; stroke-width: 1.0; stroke-dasharray: 1.0,4.0;" x1="392" x2="392" y1="942.0161" y2="970.0161"/><line style="stroke: #A80036; stroke-width: 1.0;" x1="392" x2="392" y1="970.0161" y2="1055.9136"/><line style="stroke: #A80036; stroke-width: 1.0; stroke-dasharray: 1.0,4.0;" x1="392" x2="392" y1="1055.9136" y2="1083.9136"/><line style="stroke: #A80036; stroke-width: 1.0;" x1="392" x2="392" y1="1083.9136" y2="1169.811"/><line style="stroke: #A80036; stroke-width: 1.0; stroke-dasharray: 1.0,4.0;" x1="392" x2="392" y1="1169.811" y2="1197.811"/><line style="stroke: #A80036; stroke-width: 1.0;" x1="392" x2="392" y1="1197.811" y2="1293.7085"/><line style="stroke: #A80036; stroke-width: 1.0;" x1="745.5" x2="745.5" y1="74.146" y2="257.8384"/><line style="stroke: #A80036; stroke-width: 1.0; stroke-dasharray: 1.0,4.0;" x1="745.5" x2="745.5" y1="257.8384" y2="298.4873"/><line style="stroke: #A80036; stroke-width: 1.0;" x1="745.5" x2="745.5" y1="298.4873" y2="327.436"/><line style="stroke: #A80036; stroke-width: 1.0; stroke-dasharray: 1.0,4.0;" x1="745.5" x2="745.5" y1="327.436" y2="368.085"/><line style="stroke: #A80036; stroke-width: 1.0;" x1="745.5" x2="745.5" y1="368.085" y2="397.0337"/><line style="stroke: #A80036; stroke-width: 1.0; stroke-dasharray: 1.0,4.0;" x1="745.5" x2="745.5" y1="397.0337" y2="437.6826"/><line style="stroke: #A80036; stroke-width: 1.0;" x1="745.5" x2="745.5" y1="437.6826" y2="714.2212"/><line style="stroke: #A80036; stroke-width: 1.0; stroke-dasharray: 1.0,4.0;" x1="745.5" x2="745.5" y1="714.2212" y2="742.2212"/><line style="stroke: #A80036; stroke-width: 1.0;" x1="745.5" x2="745.5" y1="742.2212" y2="828.1187"/><line style="stroke: #A80036; stroke-width: 1.0; stroke-dasharray: 1.0,4.0;" x1="745.5" x2="745.5" y1="828.1187" y2="856.1187"/><line style="stroke: #A80036; stroke-width: 1.0;" x1="745.5" x2="745.5" y1="856.1187" y2="942.0161"/><line style="stroke: #A80036; stroke-width: 1.0; stroke-dasharray: 1.0,4.0;" x1="745.5" x2="745.5" y1="942.0161" y2="970.0161"/><line style="stroke: #A80036; stroke-width: 1.0;" x1="745.5" x2="745.5" y1="970.0161" y2="1055.9136"/><line style="stroke: #A80036; stroke-width: 1.0; stroke-dasharray: 1.0,4.0;" x1="745.5" x2="745.5" y1="1055.9136" y2="1083.9136"/><line style="stroke: #A80036; stroke-width: 1.0;" x1="745.5" x2="745.5" y1="1083.9136" y2="1169.811"/><line style="stroke: #A80036; stroke-width: 1.0; stroke-dasharray: 1.0,4.0;" x1="745.5" x2="745.5" y1="1169.811" y2="1197.811"/><line style="stroke: #A80036; stroke-width: 1.0;" x1="745.5" x2="745.5" y1="1197.811" y2="1293.7085"/><line style="stroke: #A80036; stroke-width: 1.0;" x1="886" x2="886" y1="74.146" y2="257.8384"/><line style="stroke: #A80036; stroke-width: 1.0; stroke-dasharray: 1.0,4.0;" x1="886" x2="886" y1="257.8384" y2="298.4873"/><line style="stroke: #A80036; stroke-width: 1.0;" x1="886" x2="886" y1="298.4873" y2="327.436"/><line style="stroke: #A80036; stroke-width: 1.0; stroke-dasharray: 1.0,4.0;" x1="886" x2="886" y1="327.436" y2="368.085"/><line style="stroke: #A80036; stroke-width: 1.0;" x1="886" x2="886" y1="368.085" y2="397.0337"/><line style="stroke: #A80036; stroke-width: 1.0; stroke-dasharray: 1.0,4.0;" x1="886" x2="886" y1="397.0337" y2="437.6826"/><line style="stroke: #A80036; stroke-width: 1.0;" x1="886" x2="886" y1="437.6826" y2="714.2212"/><line style="stroke: #A80036; stroke-width: 1.0; stroke-dasharray: 1.0,4.0;" x1="886" x2="886" y1="714.2212" y2="742.2212"/><line style="stroke: #A80036; stroke-width: 1.0;" x1="886" x2="886" y1="742.2212" y2="828.1187"/><line style="stroke: #A80036; stroke-width: 1.0; stroke-dasharray: 1.0,4.0;" x1="886" x2="886" y1="828.1187" y2="856.1187"/><line style="stroke: #A80036; stroke-width: 1.0;" x1="886" x2="886" y1="856.1187" y2="942.0161"/><line style="stroke: #A80036; stroke-width: 1.0; stroke-dasharray: 1.0,4.0;" x1="886" x2="886" y1="942.0161" y2="970.0161"/><line style="stroke: #A80036; stroke-width: 1.0;" x1="886" x2="886" y1="970.0161" y2="1055.9136"/><line style="stroke: #A80036; stroke-width: 1.0; stroke-dasharray: 1.0,4.0;" x1="886" x2="886" y1="1055.9136" y2="1083.9136"/><line style="stroke: #A80036; stroke-width: 1.0;" x1="886" x2="886" y1="1083.9136" y2="1169.811"/><line style="stroke: #A80036; stroke-width: 1.0; stroke-dasharray: 1.0,4.0;" x1="886" x2="886" y1="1169.811" y2="1197.811"/><line style="stroke: #A80036; stroke-width: 1.0;" x1="886" x2="886" y1="1197.811" y2="1293.7085"/><rect fill="#FEFECE" filter="url(#f125so8vol5fjf)" height="30.0986" style="stroke: #A80036; stroke-width: 1.5;" width="55" x="122" y="39.0474"/><text fill="#000000" font-family="Arial" font-size="14" lengthAdjust="spacingAndGlyphs" textLength="41" x="129" y="59.4082">main.c</text><rect fill="#FEFECE" filter="url(#f125so8vol5fjf)" height="30.0986" style="stroke: #A80036; stroke-width: 1.5;" width="55" x="122" y="1292.7085"/><text fill="#000000" font-family="Arial" font-size="14" lengthAdjust="spacingAndGlyphs" textLength="41" x="129" y="1313.0693">main.c</text><rect fill="#FEFECE" filter="url(#f125so8vol5fjf)" height="46.1973" style="stroke: #A80036; stroke-width: 1.5;" width="147" x="317" y="22.9487"/><text fill="#000000" font-family="Arial" font-size="14" lengthAdjust="spacingAndGlyphs" textLength="129" x="324" y="43.3096">provisioner_helper.c</text><text fill="#000000" font-family="Arial" font-size="14" lengthAdjust="spacingAndGlyphs" textLength="86" x="347.5" y="59.4082">node_setup.c</text><rect fill="#FEFECE" filter="url(#f125so8vol5fjf)" height="46.1973" style="stroke: #A80036; stroke-width: 1.5;" width="147" x="317" y="1292.7085"/><text fill="#000000" font-family="Arial" font-size="14" lengthAdjust="spacingAndGlyphs" textLength="129" x="324" y="1313.0693">provisioner_helper.c</text><text fill="#000000" font-family="Arial" font-size="14" lengthAdjust="spacingAndGlyphs" textLength="86" x="347.5" y="1329.168">node_setup.c</text><rect fill="#FEFECE" filter="url(#f125so8vol5fjf)" height="30.0986" style="stroke: #A80036; stroke-width: 1.5;" width="136" x="675.5" y="39.0474"/><text fill="#000000" font-family="Arial" font-size="14" lengthAdjust="spacingAndGlyphs" textLength="122" x="682.5" y="59.4082">Configuration client</text><rect fill="#FEFECE" filter="url(#f125so8vol5fjf)" height="30.0986" style="stroke: #A80036; stroke-width: 1.5;" width="136" x="675.5" y="1292.7085"/><text fill="#000000" font-family="Arial" font-size="14" lengthAdjust="spacingAndGlyphs" textLength="122" x="682.5" y="1313.0693">Configuration client</text><rect fill="#FEFECE" filter="url(#f125so8vol5fjf)" height="30.0986" style="stroke: #A80036; stroke-width: 1.5;" width="30" x="869" y="39.0474"/><text fill="#000000" font-family="Arial" font-size="14" lengthAdjust="spacingAndGlyphs" textLength="0" x="892" y="59.4082"/><rect fill="#FEFECE" filter="url(#f125so8vol5fjf)" height="30.0986" style="stroke: #A80036; stroke-width: 1.5;" width="30" x="869" y="1292.7085"/><text fill="#000000" font-family="Arial" font-size="14" lengthAdjust="spacingAndGlyphs" textLength="0" x="892" y="1313.0693"/><rect fill="#FFFFFF" filter="url(#f125so8vol5fjf)" height="22.9487" style="stroke: #FFFFFF; stroke-width: 1.0;" width="10" x="740.5" y="691.2725"/><line style="stroke: #A80036; stroke-width: 1.0;" x1="740.5" x2="740.5" y1="691.2725" y2="714.2212"/><line style="stroke: #A80036; stroke-width: 1.0;" x1="750.5" x2="750.5" y1="691.2725" y2="714.2212"/><line style="stroke: #A80036; stroke-width: 1.0;" x1="740.5" x2="750.5" y1="691.2725" y2="691.2725"/><rect fill="#FFFFFF" filter="url(#f125so8vol5fjf)" height="34" style="stroke: #FFFFFF; stroke-width: 1.0;" width="10" x="740.5" y="742.2212"/><line style="stroke: #A80036; stroke-width: 1.0;" x1="740.5" x2="740.5" y1="742.2212" y2="776.2212"/><line style="stroke: #A80036; stroke-width: 1.0;" x1="750.5" x2="750.5" y1="742.2212" y2="776.2212"/><line style="stroke: #A80036; stroke-width: 1.0;" x1="740.5" x2="750.5" y1="776.2212" y2="776.2212"/><rect fill="#FFFFFF" filter="url(#f125so8vol5fjf)" height="22.9487" style="stroke: #FFFFFF; stroke-width: 1.0;" width="10" x="740.5" y="805.1699"/><line style="stroke: #A80036; stroke-width: 1.0;" x1="740.5" x2="740.5" y1="805.1699" y2="828.1187"/><line style="stroke: #A80036; stroke-width: 1.0;" x1="750.5" x2="750.5" y1="805.1699" y2="828.1187"/><line style="stroke: #A80036; stroke-width: 1.0;" x1="740.5" x2="750.5" y1="805.1699" y2="805.1699"/><rect fill="#FFFFFF" filter="url(#f125so8vol5fjf)" height="34" style="stroke: #FFFFFF; stroke-width: 1.0;" width="10" x="740.5" y="856.1187"/><line style="stroke: #A80036; stroke-width: 1.0;" x1="740.5" x2="740.5" y1="856.1187" y2="890.1187"/><line style="stroke: #A80036; stroke-width: 1.0;" x1="750.5" x2="750.5" y1="856.1187" y2="890.1187"/><line style="stroke: #A80036; stroke-width: 1.0;" x1="740.5" x2="750.5" y1="890.1187" y2="890.1187"/><rect fill="#FFFFFF" filter="url(#f125so8vol5fjf)" height="22.9487" style="stroke: #FFFFFF; stroke-width: 1.0;" width="10" x="740.5" y="919.0674"/><line style="stroke: #A80036; stroke-width: 1.0;" x1="740.5" x2="740.5" y1="919.0674" y2="942.0161"/><line style="stroke: #A80036; stroke-width: 1.0;" x1="750.5" x2="750.5" y1="919.0674" y2="942.0161"/><line style="stroke: #A80036; stroke-width: 1.0;" x1="740.5" x2="750.5" y1="919.0674" y2="919.0674"/><rect fill="#FFFFFF" filter="url(#f125so8vol5fjf)" height="34" style="stroke: #FFFFFF; stroke-width: 1.0;" width="10" x="740.5" y="970.0161"/><line style="stroke: #A80036; stroke-width: 1.0;" x1="740.5" x2="740.5" y1="970.0161" y2="1004.0161"/><line style="stroke: #A80036; stroke-width: 1.0;" x1="750.5" x2="750.5" y1="970.0161" y2="1004.0161"/><line style="stroke: #A80036; stroke-width: 1.0;" x1="740.5" x2="750.5" y1="1004.0161" y2="1004.0161"/><rect fill="#FFFFFF" filter="url(#f125so8vol5fjf)" height="22.9487" style="stroke: #FFFFFF; stroke-width: 1.0;" width="10" x="740.5" y="1032.9648"/><line style="stroke: #A80036; stroke-width: 1.0;" x1="740.5" x2="740.5" y1="1032.9648" y2="1055.9136"/><line style="stroke: #A80036; stroke-width: 1.0;" x1="750.5" x2="750.5" y1="1032.9648" y2="1055.9136"/><line style="stroke: #A80036; stroke-width: 1.0;" x1="740.5" x2="750.5" y1="1032.9648" y2="1032.9648"/><rect fill="#FFFFFF" filter="url(#f125so8vol5fjf)" height="34" style="stroke: #FFFFFF; stroke-width: 1.0;" width="10" x="740.5" y="1083.9136"/><line style="stroke: #A80036; stroke-width: 1.0;" x1="740.5" x2="740.5" y1="1083.9136" y2="1117.9136"/><line style="stroke: #A80036; stroke-width: 1.0;" x1="750.5" x2="750.5" y1="1083.9136" y2="1117.9136"/><line style="stroke: #A80036; stroke-width: 1.0;" x1="740.5" x2="750.5" y1="1117.9136" y2="1117.9136"/><rect fill="#FFFFFF" filter="url(#f125so8vol5fjf)" height="22.9487" style="stroke: #FFFFFF; stroke-width: 1.0;" width="10" x="740.5" y="1146.8623"/><line style="stroke: #A80036; stroke-width: 1.0;" x1="740.5" x2="740.5" y1="1146.8623" y2="1169.811"/><line style="stroke: #A80036; stroke-width: 1.0;" x1="750.5" x2="750.5" y1="1146.8623" y2="1169.811"/><line style="stroke: #A80036; stroke-width: 1.0;" x1="740.5" x2="750.5" y1="1146.8623" y2="1146.8623"/><rect fill="#FFFFFF" filter="url(#f125so8vol5fjf)" height="34" style="stroke: #FFFFFF; stroke-width: 1.0;" width="10" x="740.5" y="1197.811"/><line style="stroke: #A80036; stroke-width: 1.0;" x1="740.5" x2="740.5" y1="1197.811" y2="1231.811"/><line style="stroke: #A80036; stroke-width: 1.0;" x1="750.5" x2="750.5" y1="1197.811" y2="1231.811"/><line style="stroke: #A80036; stroke-width: 1.0;" x1="740.5" x2="750.5" y1="1231.811" y2="1231.811"/><polygon fill="#FBFB77" filter="url(#f125so8vol5fjf)" points="8,89.146,8,113.146,291,113.146,291,99.146,281,89.146,8,89.146" style="stroke: #A80036; stroke-width: 1.0;"/><line style="stroke: #A80036; stroke-width: 1.0;" x1="281" x2="281" y1="89.146" y2="99.146"/><line style="stroke: #A80036; stroke-width: 1.0;" x1="291" x2="281" y1="99.146" y2="99.146"/><text fill="#000000" font-family="Arial" font-size="13" lengthAdjust="spacingAndGlyphs" textLength="262" x="14" y="106.5525">SoftDevice and core mesh modules initialized</text><rect fill="none" height="1146.6138" style="stroke: #000000; stroke-width: 2.0;" width="821" x="102" y="130.0947"/><polygon fill="#EEEEEE" points="102,130.0947,175,130.0947,175,136.0947,165,146.0947,102,146.0947,102,130.0947" style="stroke: #000000; stroke-width: 2.0;"/><text fill="#000000" font-family="Arial" font-size="13" font-weight="bold" lengthAdjust="spacingAndGlyphs" textLength="28" x="117" y="143.5012">loop</text><text fill="#000000" font-family="Arial" font-size="11" font-weight="bold" lengthAdjust="spacingAndGlyphs" textLength="177" x="190" y="142.5925">[While provisioned devices &lt; 30]</text><rect fill="none" height="457.3315" style="stroke: #000000; stroke-width: 2.0;" width="801" x="112" y="154.0435"/><polygon fill="#EEEEEE" points="112,154.0435,236,154.0435,236,160.0435,226,170.0435,112,170.0435,112,154.0435" style="stroke: #000000; stroke-width: 2.0;"/><text fill="#000000" font-family="Arial" font-size="13" font-weight="bold" lengthAdjust="spacingAndGlyphs" textLength="79" x="127" y="167.45">Provisioning</text><polygon fill="#A80036" points="380.5,186.9922,390.5,190.9922,380.5,194.9922,384.5,190.9922" style="stroke: #A80036; stroke-width: 1.0;"/><line style="stroke: #A80036; stroke-width: 1.0;" x1="151.5" x2="386.5" y1="190.9922" y2="190.9922"/><text fill="#000000" font-family="Arial" font-size="13" lengthAdjust="spacingAndGlyphs" textLength="217" x="158.5" y="187.3987">prov_helper_provision_next_device(...)</text><polygon fill="#A80036" points="403.5,215.9409,393.5,219.9409,403.5,223.9409,399.5,219.9409" style="stroke: #A80036; stroke-width: 1.0;"/><line style="stroke: #A80036; stroke-width: 1.0;" x1="397.5" x2="885" y1="219.9409" y2="219.9409"/><text fill="#000000" font-family="Arial" font-size="13" lengthAdjust="spacingAndGlyphs" textLength="227" x="409.5" y="216.3474">NRF_MESH_EVT_UNPROV_BEACON</text><polygon fill="#A80036" points="874,244.8896,884,248.8896,874,252.8896,878,248.8896" style="stroke: #A80036; stroke-width: 1.0;"/><line style="stroke: #A80036; stroke-width: 1.0;" x1="392.5" x2="880" y1="248.8896" y2="248.8896"/><text fill="#000000" font-family="Arial" font-size="13" lengthAdjust="spacingAndGlyphs" textLength="127" x="399.5" y="245.2961">nrf_mesh_prov_init(...)</text><text fill="#000000" font-family="Arial" font-size="11" lengthAdjust="spacingAndGlyphs" textLength="0" x="520.25" y="282.3362"/><polygon fill="#A80036" points="380.5,314.4873,390.5,318.4873,380.5,322.4873,384.5,318.4873" style="stroke: #A80036; stroke-width: 1.0;"/><line style="stroke: #A80036; stroke-width: 1.0;" x1="151.5" x2="386.5" y1="318.4873" y2="318.4873"/><text fill="#000000" font-family="Arial" font-size="13" lengthAdjust="spacingAndGlyphs" textLength="153" x="158.5" y="314.8938">prov_helper_scan_start(...)</text><text fill="#000000" font-family="Arial" font-size="11" lengthAdjust="spacingAndGlyphs" textLength="0" x="520.25" y="351.9338"/><polygon fill="#A80036" points="874,384.085,884,388.085,874,392.085,878,388.085" style="stroke: #A80036; stroke-width: 1.0;"/><line style="stroke: #A80036; stroke-width: 1.0;" x1="392.5" x2="880" y1="388.085" y2="388.085"/><text fill="#000000" font-family="Arial" font-size="13" lengthAdjust="spacingAndGlyphs" textLength="198" x="399.5" y="384.4915">nrf_mesh_prov_provision(UUID, ...)</text><text fill="#000000" font-family="Arial" font-size="11" lengthAdjust="spacingAndGlyphs" textLength="103" x="467.25" y="421.5315">Device is provisioned</text><polygon fill="#A80036" points="403.5,453.6826,393.5,457.6826,403.5,461.6826,399.5,457.6826" style="stroke: #A80036; stroke-width: 1.0;"/><line style="stroke: #A80036; stroke-width: 1.0;" x1="397.5" x2="885" y1="457.6826" y2="457.6826"/><text fill="#000000" font-family="Arial" font-size="13" lengthAdjust="spacingAndGlyphs" textLength="225" x="409.5" y="454.0891">NRF_MESH_EVT_PROV_COMPLETE</text><polygon fill="#A80036" points="874,482.6313,884,486.6313,874,490.6313,878,486.6313" style="stroke: #A80036; stroke-width: 1.0;"/><line style="stroke: #A80036; stroke-width: 1.0;" x1="392.5" x2="880" y1="486.6313" y2="486.6313"/><text fill="#000000" font-family="Arial" font-size="13" lengthAdjust="spacingAndGlyphs" textLength="174" x="399.5" y="483.0378">dsm_address_publish_add(...)</text><polygon fill="#A80036" points="874,511.5801,884,515.5801,874,519.5801,878,515.5801" style="stroke: #A80036; stroke-width: 1.0;"/><line style="stroke: #A80036; stroke-width: 1.0;" x1="392.5" x2="880" y1="515.5801" y2="515.5801"/><text fill="#000000" font-family="Arial" font-size="13" lengthAdjust="spacingAndGlyphs" textLength="120" x="399.5" y="511.9866">dsm_devkey_add(...)</text><polygon fill="#A80036" points="733.5,540.5288,743.5,544.5288,733.5,548.5288,737.5,544.5288" style="stroke: #A80036; stroke-width: 1.0;"/><line style="stroke: #A80036; stroke-width: 1.0;" x1="392.5" x2="739.5" y1="544.5288" y2="544.5288"/><text fill="#000000" font-family="Arial" font-size="13" lengthAdjust="spacingAndGlyphs" textLength="164" x="399.5" y="540.9353">config_client_server_bind(...)</text><polygon fill="#A80036" points="733.5,569.4775,743.5,573.4775,733.5,577.4775,737.5,573.4775" style="stroke: #A80036; stroke-width: 1.0;"/><line style="stroke: #A80036; stroke-width: 1.0;" x1="392.5" x2="739.5" y1="573.4775" y2="573.4775"/><text fill="#000000" font-family="Arial" font-size="13" lengthAdjust="spacingAndGlyphs" textLength="158" x="399.5" y="569.884">config_client_server_set(...)</text><polygon fill="#A80036" points="162.5,598.4263,152.5,602.4263,162.5,606.4263,158.5,602.4263" style="stroke: #A80036; stroke-width: 1.0;"/><line style="stroke: #A80036; stroke-width: 1.0;" x1="156.5" x2="391.5" y1="602.4263" y2="602.4263"/><text fill="#000000" font-family="Arial" font-size="13" lengthAdjust="spacingAndGlyphs" textLength="136" x="168.5" y="598.8328">app_prov_success_cb()</text><rect fill="none" height="644.3335" style="stroke: #000000; stroke-width: 2.0;" width="801" x="112" y="625.375"/><polygon fill="#EEEEEE" points="112,625.375,243,625.375,243,631.375,233,641.375,112,641.375,112,625.375" style="stroke: #000000; stroke-width: 2.0;"/><text fill="#000000" font-family="Arial" font-size="13" font-weight="bold" lengthAdjust="spacingAndGlyphs" textLength="86" x="127" y="638.7815">Configuration</text><polygon fill="#A80036" points="380.5,658.3237,390.5,662.3237,380.5,666.3237,384.5,662.3237" style="stroke: #A80036; stroke-width: 1.0;"/><line style="stroke: #A80036; stroke-width: 1.0;" x1="151.5" x2="386.5" y1="662.3237" y2="662.3237"/><text fill="#000000" font-family="Arial" font-size="13" lengthAdjust="spacingAndGlyphs" textLength="108" x="158.5" y="658.7302">node_setup_start()</text><polygon fill="#A80036" points="728.5,687.2725,738.5,691.2725,728.5,695.2725,732.5,691.2725" style="stroke: #A80036; stroke-width: 1.0;"/><line style="stroke: #A80036; stroke-width: 1.0;" x1="392.5" x2="734.5" y1="691.2725" y2="691.2725"/><text fill="#000000" font-family="Arial" font-size="13" lengthAdjust="spacingAndGlyphs" textLength="214" x="399.5" y="687.679">config_client_composition_data_get()</text><polygon fill="#A80036" points="874,702.2212,884,706.2212,874,710.2212,878,706.2212" style="stroke: #A80036; stroke-width: 1.0;"/><line style="stroke: #A80036; stroke-width: 1.0;" x1="750.5" x2="880" y1="706.2212" y2="706.2212"/><polygon fill="#A80036" points="761.5,744.2212,751.5,748.2212,761.5,752.2212,757.5,748.2212" style="stroke: #A80036; stroke-width: 1.0;"/><line style="stroke: #A80036; stroke-width: 1.0;" x1="755.5" x2="885" y1="748.2212" y2="748.2212"/><polygon fill="#A80036" points="403.5,772.2212,393.5,776.2212,403.5,780.2212,399.5,776.2212" style="stroke: #A80036; stroke-width: 1.0;"/><line style="stroke: #A80036; stroke-width: 1.0;" x1="397.5" x2="744.5" y1="776.2212" y2="776.2212"/><text fill="#000000" font-family="Arial" font-size="13" lengthAdjust="spacingAndGlyphs" textLength="250" x="409.5" y="772.6277">CONFIG_OPCODE_COMPOSITION_DATA</text><polygon fill="#A80036" points="728.5,801.1699,738.5,805.1699,728.5,809.1699,732.5,805.1699" style="stroke: #A80036; stroke-width: 1.0;"/><line style="stroke: #A80036; stroke-width: 1.0;" x1="392.5" x2="734.5" y1="805.1699" y2="805.1699"/><text fill="#000000" font-family="Arial" font-size="13" lengthAdjust="spacingAndGlyphs" textLength="157" x="399.5" y="801.5764">config_client_appkey_add()</text><polygon fill="#A80036" points="874,816.1187,884,820.1187,874,824.1187,878,820.1187" style="stroke: #A80036; stroke-width: 1.0;"/><line style="stroke: #A80036; stroke-width: 1.0;" x1="750.5" x2="880" y1="820.1187" y2="820.1187"/><polygon fill="#A80036" points="761.5,858.1187,751.5,862.1187,761.5,866.1187,757.5,862.1187" style="stroke: #A80036; stroke-width: 1.0;"/><line style="stroke: #A80036; stroke-width: 1.0;" x1="755.5" x2="885" y1="862.1187" y2="862.1187"/><polygon fill="#A80036" points="403.5,886.1187,393.5,890.1187,403.5,894.1187,399.5,890.1187" style="stroke: #A80036; stroke-width: 1.0;"/><line style="stroke: #A80036; stroke-width: 1.0;" x1="397.5" x2="744.5" y1="890.1187" y2="890.1187"/><text fill="#000000" font-family="Arial" font-size="13" lengthAdjust="spacingAndGlyphs" textLength="230" x="409.5" y="886.5251">CONFIG_OPCODE_APPKEY_STATUS</text><polygon fill="#A80036" points="728.5,915.0674,738.5,919.0674,728.5,923.0674,732.5,919.0674" style="stroke: #A80036; stroke-width: 1.0;"/><line style="stroke: #A80036; stroke-width: 1.0;" x1="392.5" x2="734.5" y1="919.0674" y2="919.0674"/><text fill="#000000" font-family="Arial" font-size="13" lengthAdjust="spacingAndGlyphs" textLength="181" x="399.5" y="915.4739">config_client_model_app_bind()</text><polygon fill="#A80036" points="874,930.0161,884,934.0161,874,938.0161,878,934.0161" style="stroke: #A80036; stroke-width: 1.0;"/><line style="stroke: #A80036; stroke-width: 1.0;" x1="750.5" x2="880" y1="934.0161" y2="934.0161"/><polygon fill="#A80036" points="761.5,972.0161,751.5,976.0161,761.5,980.0161,757.5,976.0161" style="stroke: #A80036; stroke-width: 1.0;"/><line style="stroke: #A80036; stroke-width: 1.0;" x1="755.5" x2="885" y1="976.0161" y2="976.0161"/><polygon fill="#A80036" points="403.5,1000.0161,393.5,1004.0161,403.5,1008.0161,399.5,1004.0161" style="stroke: #A80036; stroke-width: 1.0;"/><line style="stroke: #A80036; stroke-width: 1.0;" x1="397.5" x2="744.5" y1="1004.0161" y2="1004.0161"/><text fill="#000000" font-family="Arial" font-size="13" lengthAdjust="spacingAndGlyphs" textLength="256" x="409.5" y="1000.4226">CONFIG_OPCODE_MODEL_APP_STATUS</text><polygon fill="#A80036" points="728.5,1028.9648,738.5,1032.9648,728.5,1036.9648,732.5,1032.9648" style="stroke: #A80036; stroke-width: 1.0;"/><line style="stroke: #A80036; stroke-width: 1.0;" x1="392.5" x2="734.5" y1="1032.9648" y2="1032.9648"/><text fill="#000000" font-family="Arial" font-size="13" lengthAdjust="spacingAndGlyphs" textLength="216" x="399.5" y="1029.3713">config_client_model_publication_set()</text><polygon fill="#A80036" points="874,1043.9136,884,1047.9136,874,1051.9136,878,1047.9136" style="stroke: #A80036; stroke-width: 1.0;"/><line style="stroke: #A80036; stroke-width: 1.0;" x1="750.5" x2="880" y1="1047.9136" y2="1047.9136"/><polygon fill="#A80036" points="761.5,1085.9136,751.5,1089.9136,761.5,1093.9136,757.5,1089.9136" style="stroke: #A80036; stroke-width: 1.0;"/><line style="stroke: #A80036; stroke-width: 1.0;" x1="755.5" x2="885" y1="1089.9136" y2="1089.9136"/><polygon fill="#A80036" points="403.5,1113.9136,393.5,1117.9136,403.5,1121.9136,399.5,1117.9136" style="stroke: #A80036; stroke-width: 1.0;"/><line style="stroke: #A80036; stroke-width: 1.0;" x1="397.5" x2="744.5" y1="1117.9136" y2="1117.9136"/><text fill="#000000" font-family="Arial" font-size="13" lengthAdjust="spacingAndGlyphs" textLength="313" x="409.5" y="1114.3201">CONFIG_OPCODE_MODEL_PUBLICATION_STATUS</text><polygon fill="#A80036" points="728.5,1142.8623,738.5,1146.8623,728.5,1150.8623,732.5,1146.8623" style="stroke: #A80036; stroke-width: 1.0;"/><line style="stroke: #A80036; stroke-width: 1.0;" x1="392.5" x2="734.5" y1="1146.8623" y2="1146.8623"/><text fill="#000000" font-family="Arial" font-size="13" lengthAdjust="spacingAndGlyphs" textLength="227" x="399.5" y="1143.2688">config_client_model_subscription_add()</text><polygon fill="#A80036" points="874,1157.811,884,1161.811,874,1165.811,878,1161.811" style="stroke: #A80036; stroke-width: 1.0;"/><line style="stroke: #A80036; stroke-width: 1.0;" x1="750.5" x2="880" y1="1161.811" y2="1161.811"/><polygon fill="#A80036" points="761.5,1199.811,751.5,1203.811,761.5,1207.811,757.5,1203.811" style="stroke: #A80036; stroke-width: 1.0;"/><line style="stroke: #A80036; stroke-width: 1.0;" x1="755.5" x2="885" y1="1203.811" y2="1203.811"/><polygon fill="#A80036" points="403.5,1227.811,393.5,1231.811,403.5,1235.811,399.5,1231.811" style="stroke: #A80036; stroke-width: 1.0;"/><line style="stroke: #A80036; stroke-width: 1.0;" x1="397.5" x2="744.5" y1="1231.811" y2="1231.811"/><text fill="#000000" font-family="Arial" font-size="13" lengthAdjust="spacingAndGlyphs" textLength="324" x="409.5" y="1228.2175">CONFIG_OPCODE_MODEL_SUBSCRIPTION_STATUS</text><polygon fill="#A80036" points="162.5,1256.7598,152.5,1260.7598,162.5,1264.7598,158.5,1260.7598" style="stroke: #A80036; stroke-width: 1.0;"/><line style="stroke: #A80036; stroke-width: 1.0;" x1="156.5" x2="391.5" y1="1260.7598" y2="1260.7598"/><text fill="#000000" font-family="Arial" font-size="13" lengthAdjust="spacingAndGlyphs" textLength="160" x="168.5" y="1257.1663">app_config_successful_cb()</text><!--
@startuml
skinparam defaultFontName Arial
box "Application" #FFFFFF
participant a as "main.c"
participant p as "provisioner_helper.c \nnode_setup.c"
end box

participant c as "Configuration client"

box "Mesh core modules"
participant core as "    "
end box

note over a: SoftDevice and core mesh modules initialized
loop While provisioned devices < 30
group Provisioning
      a -> p: prov_helper_provision_next_device(...)
      core -> p: NRF_MESH_EVT_UNPROV_BEACON
      p -> core: nrf_mesh_prov_init(...)
      ... ...
      a -> p: prov_helper_scan_start(...)
      ... ...
      p -> core: nrf_mesh_prov_provision(UUID, ...)

      ... Device is provisioned ...

      core -> p: NRF_MESH_EVT_PROV_COMPLETE
      p -> core: dsm_address_publish_add(...)
      p -> core: dsm_devkey_add(...)
      p -> c: config_client_server_bind(...)
      p -> c: config_client_server_set(...)
      p -> a: app_prov_success_cb()
end
group Configuration
      a -> p: node_setup_start()
      p -> c: config_client_composition_data_get()
      activate c
      c -> core
      ...
      core -> c
      c -> p: CONFIG_OPCODE_COMPOSITION_DATA
      deactivate c

      p -> c: config_client_appkey_add()
      activate c
      c -> core
      ...
      core -> c
      c -> p: CONFIG_OPCODE_APPKEY_STATUS
      deactivate c

      p -> c: config_client_model_app_bind()
      activate c
      c -> core
      ...
      core -> c
      c -> p: CONFIG_OPCODE_MODEL_APP_STATUS
      deactivate c

      p -> c: config_client_model_publication_set()
      activate c
      c -> core
      ...
      core -> c
      c -> p: CONFIG_OPCODE_MODEL_PUBLICATION_STATUS
      deactivate c

      p -> c: config_client_model_subscription_add()
      activate c
      c -> core
      ...
      core -> c
      c -> p: CONFIG_OPCODE_MODEL_SUBSCRIPTION_STATUS
      deactivate c
      p -> a: app_config_successful_cb()
end
end
@enduml

PlantUML version 1.2017.16(Sun Sep 03 12:53:37 CEST 2017)
(GPL source distribution)
Java Runtime: Java(TM) SE Runtime Environment
JVM: Java HotSpot(TM) 64-Bit Server VM
Java Version: 1.8.0_171-b11
Operating System: Windows 10
OS Version: 10.0
Default Encoding: Cp1252
Language: en
Country: US
--></g></svg>