<?xml version="1.0" encoding="UTF-8" standalone="no"?><svg xmlns="http://www.w3.org/2000/svg" xmlns:xlink="http://www.w3.org/1999/xlink" contentScriptType="application/ecmascript" contentStyleType="text/css" height="1248px" preserveAspectRatio="none" style="width:944px;height:1248px;" version="1.1" viewBox="0 0 944 1248" width="944px" zoomAndPan="magnify"><defs><filter height="300%" id="f1ftdco3h6zeuy" width="300%" x="-1" y="-1"><feGaussianBlur result="blurOut" stdDeviation="2.0"/><feColorMatrix in="blurOut" result="blurOut2" type="matrix" values="0 0 0 0 0 0 0 0 0 0 0 0 0 0 0 0 0 0 .4 0"/><feOffset dx="4.0" dy="4.0" in="blurOut2" result="blurOut3"/><feBlend in="SourceGraphic" in2="blurOut3" mode="normal"/></filter></defs><g><rect fill="#FFFFFF" height="1233.6592" style="stroke: #A80036; stroke-width: 1.0;" width="337" x="118" y="4"/><text fill="#000000" font-family="Arial" font-size="13" font-weight="bold" lengthAdjust="spacingAndGlyphs" textLength="72" x="250.5" y="16.4065">Application</text><rect fill="#DDDDDD" height="1233.6592" style="stroke: #A80036; stroke-width: 1.0;" width="129" x="804.5" y="4"/><text fill="#000000" font-family="Arial" font-size="13" font-weight="bold" lengthAdjust="spacingAndGlyphs" textLength="123" x="807.5" y="16.4065">Mesh core modules</text><rect fill="#FFFFFF" filter="url(#f1ftdco3h6zeuy)" height="22.9487" style="stroke: #FFFFFF; stroke-width: 1.0;" width="10" x="723.5" y="581.0259"/><line style="stroke: #A80036; stroke-width: 1.0;" x1="723.5" x2="723.5" y1="581.0259" y2="603.9746"/><line style="stroke: #A80036; stroke-width: 1.0;" x1="733.5" x2="733.5" y1="581.0259" y2="603.9746"/><line style="stroke: #A80036; stroke-width: 1.0;" x1="723.5" x2="733.5" y1="581.0259" y2="581.0259"/><rect fill="#FFFFFF" filter="url(#f1ftdco3h6zeuy)" height="34" style="stroke: #FFFFFF; stroke-width: 1.0;" width="10" x="723.5" y="631.9746"/><line style="stroke: #A80036; stroke-width: 1.0;" x1="723.5" x2="723.5" y1="631.9746" y2="665.9746"/><line style="stroke: #A80036; stroke-width: 1.0;" x1="733.5" x2="733.5" y1="631.9746" y2="665.9746"/><line style="stroke: #A80036; stroke-width: 1.0;" x1="723.5" x2="733.5" y1="665.9746" y2="665.9746"/><rect fill="#FFFFFF" filter="url(#f1ftdco3h6zeuy)" height="22.9487" style="stroke: #FFFFFF; stroke-width: 1.0;" width="10" x="723.5" y="694.9233"/><line style="stroke: #A80036; stroke-width: 1.0;" x1="723.5" x2="723.5" y1="694.9233" y2="717.8721"/><line style="stroke: #A80036; stroke-width: 1.0;" x1="733.5" x2="733.5" y1="694.9233" y2="717.8721"/><line style="stroke: #A80036; stroke-width: 1.0;" x1="723.5" x2="733.5" y1="694.9233" y2="694.9233"/><rect fill="#FFFFFF" filter="url(#f1ftdco3h6zeuy)" height="34" style="stroke: #FFFFFF; stroke-width: 1.0;" width="10" x="723.5" y="745.8721"/><line style="stroke: #A80036; stroke-width: 1.0;" x1="723.5" x2="723.5" y1="745.8721" y2="779.8721"/><line style="stroke: #A80036; stroke-width: 1.0;" x1="733.5" x2="733.5" y1="745.8721" y2="779.8721"/><line style="stroke: #A80036; stroke-width: 1.0;" x1="723.5" x2="733.5" y1="779.8721" y2="779.8721"/><rect fill="#FFFFFF" filter="url(#f1ftdco3h6zeuy)" height="22.9487" style="stroke: #FFFFFF; stroke-width: 1.0;" width="10" x="723.5" y="808.8208"/><line style="stroke: #A80036; stroke-width: 1.0;" x1="723.5" x2="723.5" y1="808.8208" y2="831.7695"/><line style="stroke: #A80036; stroke-width: 1.0;" x1="733.5" x2="733.5" y1="808.8208" y2="831.7695"/><line style="stroke: #A80036; stroke-width: 1.0;" x1="723.5" x2="733.5" y1="808.8208" y2="808.8208"/><rect fill="#FFFFFF" filter="url(#f1ftdco3h6zeuy)" height="34" style="stroke: #FFFFFF; stroke-width: 1.0;" width="10" x="723.5" y="859.7695"/><line style="stroke: #A80036; stroke-width: 1.0;" x1="723.5" x2="723.5" y1="859.7695" y2="893.7695"/><line style="stroke: #A80036; stroke-width: 1.0;" x1="733.5" x2="733.5" y1="859.7695" y2="893.7695"/><line style="stroke: #A80036; stroke-width: 1.0;" x1="723.5" x2="733.5" y1="893.7695" y2="893.7695"/><rect fill="#FFFFFF" filter="url(#f1ftdco3h6zeuy)" height="22.9487" style="stroke: #FFFFFF; stroke-width: 1.0;" width="10" x="723.5" y="922.7183"/><line style="stroke: #A80036; stroke-width: 1.0;" x1="723.5" x2="723.5" y1="922.7183" y2="945.667"/><line style="stroke: #A80036; stroke-width: 1.0;" x1="733.5" x2="733.5" y1="922.7183" y2="945.667"/><line style="stroke: #A80036; stroke-width: 1.0;" x1="723.5" x2="733.5" y1="922.7183" y2="922.7183"/><rect fill="#FFFFFF" filter="url(#f1ftdco3h6zeuy)" height="34" style="stroke: #FFFFFF; stroke-width: 1.0;" width="10" x="723.5" y="973.667"/><line style="stroke: #A80036; stroke-width: 1.0;" x1="723.5" x2="723.5" y1="973.667" y2="1007.667"/><line style="stroke: #A80036; stroke-width: 1.0;" x1="733.5" x2="733.5" y1="973.667" y2="1007.667"/><line style="stroke: #A80036; stroke-width: 1.0;" x1="723.5" x2="733.5" y1="1007.667" y2="1007.667"/><rect fill="#FFFFFF" filter="url(#f1ftdco3h6zeuy)" height="22.9487" style="stroke: #FFFFFF; stroke-width: 1.0;" width="10" x="723.5" y="1036.6157"/><line style="stroke: #A80036; stroke-width: 1.0;" x1="723.5" x2="723.5" y1="1036.6157" y2="1059.5645"/><line style="stroke: #A80036; stroke-width: 1.0;" x1="733.5" x2="733.5" y1="1036.6157" y2="1059.5645"/><line style="stroke: #A80036; stroke-width: 1.0;" x1="723.5" x2="733.5" y1="1036.6157" y2="1036.6157"/><rect fill="#FFFFFF" filter="url(#f1ftdco3h6zeuy)" height="34" style="stroke: #FFFFFF; stroke-width: 1.0;" width="10" x="723.5" y="1087.5645"/><line style="stroke: #A80036; stroke-width: 1.0;" x1="723.5" x2="723.5" y1="1087.5645" y2="1121.5645"/><line style="stroke: #A80036; stroke-width: 1.0;" x1="733.5" x2="733.5" y1="1087.5645" y2="1121.5645"/><line style="stroke: #A80036; stroke-width: 1.0;" x1="723.5" x2="733.5" y1="1121.5645" y2="1121.5645"/><rect fill="#FFFFFF" filter="url(#f1ftdco3h6zeuy)" height="1036.3672" style="stroke: #000000; stroke-width: 2.0;" width="804" x="102" y="130.0947"/><rect fill="#FFFFFF" filter="url(#f1ftdco3h6zeuy)" height="347.085" style="stroke: #000000; stroke-width: 2.0;" width="784" x="112" y="154.0435"/><rect fill="#FFFFFF" filter="url(#f1ftdco3h6zeuy)" height="644.3335" style="stroke: #000000; stroke-width: 2.0;" width="784" x="112" y="515.1284"/><line style="stroke: #A80036; stroke-width: 1.0;" x1="151" x2="151" y1="74.146" y2="286.7871"/><line style="stroke: #A80036; stroke-width: 1.0; stroke-dasharray: 1.0,4.0;" x1="151" x2="151" y1="286.7871" y2="327.436"/><line style="stroke: #A80036; stroke-width: 1.0;" x1="151" x2="151" y1="327.436" y2="603.9746"/><line style="stroke: #A80036; stroke-width: 1.0; stroke-dasharray: 1.0,4.0;" x1="151" x2="151" y1="603.9746" y2="631.9746"/><line style="stroke: #A80036; stroke-width: 1.0;" x1="151" x2="151" y1="631.9746" y2="717.8721"/><line style="stroke: #A80036; stroke-width: 1.0; stroke-dasharray: 1.0,4.0;" x1="151" x2="151" y1="717.8721" y2="745.8721"/><line style="stroke: #A80036; stroke-width: 1.0;" x1="151" x2="151" y1="745.8721" y2="831.7695"/><line style="stroke: #A80036; stroke-width: 1.0; stroke-dasharray: 1.0,4.0;" x1="151" x2="151" y1="831.7695" y2="859.7695"/><line style="stroke: #A80036; stroke-width: 1.0;" x1="151" x2="151" y1="859.7695" y2="945.667"/><line style="stroke: #A80036; stroke-width: 1.0; stroke-dasharray: 1.0,4.0;" x1="151" x2="151" y1="945.667" y2="973.667"/><line style="stroke: #A80036; stroke-width: 1.0;" x1="151" x2="151" y1="973.667" y2="1059.5645"/><line style="stroke: #A80036; stroke-width: 1.0; stroke-dasharray: 1.0,4.0;" x1="151" x2="151" y1="1059.5645" y2="1087.5645"/><line style="stroke: #A80036; stroke-width: 1.0;" x1="151" x2="151" y1="1087.5645" y2="1183.4619"/><line style="stroke: #A80036; stroke-width: 1.0;" x1="375" x2="375" y1="74.146" y2="286.7871"/><line style="stroke: #A80036; stroke-width: 1.0; stroke-dasharray: 1.0,4.0;" x1="375" x2="375" y1="286.7871" y2="327.436"/><line style="stroke: #A80036; stroke-width: 1.0;" x1="375" x2="375" y1="327.436" y2="603.9746"/><line style="stroke: #A80036; stroke-width: 1.0; stroke-dasharray: 1.0,4.0;" x1="375" x2="375" y1="603.9746" y2="631.9746"/><line style="stroke: #A80036; stroke-width: 1.0;" x1="375" x2="375" y1="631.9746" y2="717.8721"/><line style="stroke: #A80036; stroke-width: 1.0; stroke-dasharray: 1.0,4.0;" x1="375" x2="375" y1="717.8721" y2="745.8721"/><line style="stroke: #A80036; stroke-width: 1.0;" x1="375" x2="375" y1="745.8721" y2="831.7695"/><line style="stroke: #A80036; stroke-width: 1.0; stroke-dasharray: 1.0,4.0;" x1="375" x2="375" y1="831.7695" y2="859.7695"/><line style="stroke: #A80036; stroke-width: 1.0;" x1="375" x2="375" y1="859.7695" y2="945.667"/><line style="stroke: #A80036; stroke-width: 1.0; stroke-dasharray: 1.0,4.0;" x1="375" x2="375" y1="945.667" y2="973.667"/><line style="stroke: #A80036; stroke-width: 1.0;" x1="375" x2="375" y1="973.667" y2="1059.5645"/><line style="stroke: #A80036; stroke-width: 1.0; stroke-dasharray: 1.0,4.0;" x1="375" x2="375" y1="1059.5645" y2="1087.5645"/><line style="stroke: #A80036; stroke-width: 1.0;" x1="375" x2="375" y1="1087.5645" y2="1183.4619"/><line style="stroke: #A80036; stroke-width: 1.0;" x1="728.5" x2="728.5" y1="74.146" y2="286.7871"/><line style="stroke: #A80036; stroke-width: 1.0; stroke-dasharray: 1.0,4.0;" x1="728.5" x2="728.5" y1="286.7871" y2="327.436"/><line style="stroke: #A80036; stroke-width: 1.0;" x1="728.5" x2="728.5" y1="327.436" y2="603.9746"/><line style="stroke: #A80036; stroke-width: 1.0; stroke-dasharray: 1.0,4.0;" x1="728.5" x2="728.5" y1="603.9746" y2="631.9746"/><line style="stroke: #A80036; stroke-width: 1.0;" x1="728.5" x2="728.5" y1="631.9746" y2="717.8721"/><line style="stroke: #A80036; stroke-width: 1.0; stroke-dasharray: 1.0,4.0;" x1="728.5" x2="728.5" y1="717.8721" y2="745.8721"/><line style="stroke: #A80036; stroke-width: 1.0;" x1="728.5" x2="728.5" y1="745.8721" y2="831.7695"/><line style="stroke: #A80036; stroke-width: 1.0; stroke-dasharray: 1.0,4.0;" x1="728.5" x2="728.5" y1="831.7695" y2="859.7695"/><line style="stroke: #A80036; stroke-width: 1.0;" x1="728.5" x2="728.5" y1="859.7695" y2="945.667"/><line style="stroke: #A80036; stroke-width: 1.0; stroke-dasharray: 1.0,4.0;" x1="728.5" x2="728.5" y1="945.667" y2="973.667"/><line style="stroke: #A80036; stroke-width: 1.0;" x1="728.5" x2="728.5" y1="973.667" y2="1059.5645"/><line style="stroke: #A80036; stroke-width: 1.0; stroke-dasharray: 1.0,4.0;" x1="728.5" x2="728.5" y1="1059.5645" y2="1087.5645"/><line style="stroke: #A80036; stroke-width: 1.0;" x1="728.5" x2="728.5" y1="1087.5645" y2="1183.4619"/><line style="stroke: #A80036; stroke-width: 1.0;" x1="869" x2="869" y1="74.146" y2="286.7871"/><line style="stroke: #A80036; stroke-width: 1.0; stroke-dasharray: 1.0,4.0;" x1="869" x2="869" y1="286.7871" y2="327.436"/><line style="stroke: #A80036; stroke-width: 1.0;" x1="869" x2="869" y1="327.436" y2="603.9746"/><line style="stroke: #A80036; stroke-width: 1.0; stroke-dasharray: 1.0,4.0;" x1="869" x2="869" y1="603.9746" y2="631.9746"/><line style="stroke: #A80036; stroke-width: 1.0;" x1="869" x2="869" y1="631.9746" y2="717.8721"/><line style="stroke: #A80036; stroke-width: 1.0; stroke-dasharray: 1.0,4.0;" x1="869" x2="869" y1="717.8721" y2="745.8721"/><line style="stroke: #A80036; stroke-width: 1.0;" x1="869" x2="869" y1="745.8721" y2="831.7695"/><line style="stroke: #A80036; stroke-width: 1.0; stroke-dasharray: 1.0,4.0;" x1="869" x2="869" y1="831.7695" y2="859.7695"/><line style="stroke: #A80036; stroke-width: 1.0;" x1="869" x2="869" y1="859.7695" y2="945.667"/><line style="stroke: #A80036; stroke-width: 1.0; stroke-dasharray: 1.0,4.0;" x1="869" x2="869" y1="945.667" y2="973.667"/><line style="stroke: #A80036; stroke-width: 1.0;" x1="869" x2="869" y1="973.667" y2="1059.5645"/><line style="stroke: #A80036; stroke-width: 1.0; stroke-dasharray: 1.0,4.0;" x1="869" x2="869" y1="1059.5645" y2="1087.5645"/><line style="stroke: #A80036; stroke-width: 1.0;" x1="869" x2="869" y1="1087.5645" y2="1183.4619"/><rect fill="#FEFECE" filter="url(#f1ftdco3h6zeuy)" height="30.0986" style="stroke: #A80036; stroke-width: 1.5;" width="55" x="122" y="39.0474"/><text fill="#000000" font-family="Arial" font-size="14" lengthAdjust="spacingAndGlyphs" textLength="41" x="129" y="59.4082">main.c</text><rect fill="#FEFECE" filter="url(#f1ftdco3h6zeuy)" height="30.0986" style="stroke: #A80036; stroke-width: 1.5;" width="55" x="122" y="1182.4619"/><text fill="#000000" font-family="Arial" font-size="14" lengthAdjust="spacingAndGlyphs" textLength="41" x="129" y="1202.8228">main.c</text><rect fill="#FEFECE" filter="url(#f1ftdco3h6zeuy)" height="46.1973" style="stroke: #A80036; stroke-width: 1.5;" width="147" x="300" y="22.9487"/><text fill="#000000" font-family="Arial" font-size="14" lengthAdjust="spacingAndGlyphs" textLength="129" x="307" y="43.3096">provisioner_helper.c</text><text fill="#000000" font-family="Arial" font-size="14" lengthAdjust="spacingAndGlyphs" textLength="86" x="330.5" y="59.4082">node_setup.c</text><rect fill="#FEFECE" filter="url(#f1ftdco3h6zeuy)" height="46.1973" style="stroke: #A80036; stroke-width: 1.5;" width="147" x="300" y="1182.4619"/><text fill="#000000" font-family="Arial" font-size="14" lengthAdjust="spacingAndGlyphs" textLength="129" x="307" y="1202.8228">provisioner_helper.c</text><text fill="#000000" font-family="Arial" font-size="14" lengthAdjust="spacingAndGlyphs" textLength="86" x="330.5" y="1218.9214">node_setup.c</text><rect fill="#FEFECE" filter="url(#f1ftdco3h6zeuy)" height="30.0986" style="stroke: #A80036; stroke-width: 1.5;" width="136" x="658.5" y="39.0474"/><text fill="#000000" font-family="Arial" font-size="14" lengthAdjust="spacingAndGlyphs" textLength="122" x="665.5" y="59.4082">Configuration client</text><rect fill="#FEFECE" filter="url(#f1ftdco3h6zeuy)" height="30.0986" style="stroke: #A80036; stroke-width: 1.5;" width="136" x="658.5" y="1182.4619"/><text fill="#000000" font-family="Arial" font-size="14" lengthAdjust="spacingAndGlyphs" textLength="122" x="665.5" y="1202.8228">Configuration client</text><rect fill="#FEFECE" filter="url(#f1ftdco3h6zeuy)" height="30.0986" style="stroke: #A80036; stroke-width: 1.5;" width="30" x="852" y="39.0474"/><text fill="#000000" font-family="Arial" font-size="14" lengthAdjust="spacingAndGlyphs" textLength="0" x="875" y="59.4082"/><rect fill="#FEFECE" filter="url(#f1ftdco3h6zeuy)" height="30.0986" style="stroke: #A80036; stroke-width: 1.5;" width="30" x="852" y="1182.4619"/><text fill="#000000" font-family="Arial" font-size="14" lengthAdjust="spacingAndGlyphs" textLength="0" x="875" y="1202.8228"/><rect fill="#FFFFFF" filter="url(#f1ftdco3h6zeuy)" height="22.9487" style="stroke: #FFFFFF; stroke-width: 1.0;" width="10" x="723.5" y="581.0259"/><line style="stroke: #A80036; stroke-width: 1.0;" x1="723.5" x2="723.5" y1="581.0259" y2="603.9746"/><line style="stroke: #A80036; stroke-width: 1.0;" x1="733.5" x2="733.5" y1="581.0259" y2="603.9746"/><line style="stroke: #A80036; stroke-width: 1.0;" x1="723.5" x2="733.5" y1="581.0259" y2="581.0259"/><rect fill="#FFFFFF" filter="url(#f1ftdco3h6zeuy)" height="34" style="stroke: #FFFFFF; stroke-width: 1.0;" width="10" x="723.5" y="631.9746"/><line style="stroke: #A80036; stroke-width: 1.0;" x1="723.5" x2="723.5" y1="631.9746" y2="665.9746"/><line style="stroke: #A80036; stroke-width: 1.0;" x1="733.5" x2="733.5" y1="631.9746" y2="665.9746"/><line style="stroke: #A80036; stroke-width: 1.0;" x1="723.5" x2="733.5" y1="665.9746" y2="665.9746"/><rect fill="#FFFFFF" filter="url(#f1ftdco3h6zeuy)" height="22.9487" style="stroke: #FFFFFF; stroke-width: 1.0;" width="10" x="723.5" y="694.9233"/><line style="stroke: #A80036; stroke-width: 1.0;" x1="723.5" x2="723.5" y1="694.9233" y2="717.8721"/><line style="stroke: #A80036; stroke-width: 1.0;" x1="733.5" x2="733.5" y1="694.9233" y2="717.8721"/><line style="stroke: #A80036; stroke-width: 1.0;" x1="723.5" x2="733.5" y1="694.9233" y2="694.9233"/><rect fill="#FFFFFF" filter="url(#f1ftdco3h6zeuy)" height="34" style="stroke: #FFFFFF; stroke-width: 1.0;" width="10" x="723.5" y="745.8721"/><line style="stroke: #A80036; stroke-width: 1.0;" x1="723.5" x2="723.5" y1="745.8721" y2="779.8721"/><line style="stroke: #A80036; stroke-width: 1.0;" x1="733.5" x2="733.5" y1="745.8721" y2="779.8721"/><line style="stroke: #A80036; stroke-width: 1.0;" x1="723.5" x2="733.5" y1="779.8721" y2="779.8721"/><rect fill="#FFFFFF" filter="url(#f1ftdco3h6zeuy)" height="22.9487" style="stroke: #FFFFFF; stroke-width: 1.0;" width="10" x="723.5" y="808.8208"/><line style="stroke: #A80036; stroke-width: 1.0;" x1="723.5" x2="723.5" y1="808.8208" y2="831.7695"/><line style="stroke: #A80036; stroke-width: 1.0;" x1="733.5" x2="733.5" y1="808.8208" y2="831.7695"/><line style="stroke: #A80036; stroke-width: 1.0;" x1="723.5" x2="733.5" y1="808.8208" y2="808.8208"/><rect fill="#FFFFFF" filter="url(#f1ftdco3h6zeuy)" height="34" style="stroke: #FFFFFF; stroke-width: 1.0;" width="10" x="723.5" y="859.7695"/><line style="stroke: #A80036; stroke-width: 1.0;" x1="723.5" x2="723.5" y1="859.7695" y2="893.7695"/><line style="stroke: #A80036; stroke-width: 1.0;" x1="733.5" x2="733.5" y1="859.7695" y2="893.7695"/><line style="stroke: #A80036; stroke-width: 1.0;" x1="723.5" x2="733.5" y1="893.7695" y2="893.7695"/><rect fill="#FFFFFF" filter="url(#f1ftdco3h6zeuy)" height="22.9487" style="stroke: #FFFFFF; stroke-width: 1.0;" width="10" x="723.5" y="922.7183"/><line style="stroke: #A80036; stroke-width: 1.0;" x1="723.5" x2="723.5" y1="922.7183" y2="945.667"/><line style="stroke: #A80036; stroke-width: 1.0;" x1="733.5" x2="733.5" y1="922.7183" y2="945.667"/><line style="stroke: #A80036; stroke-width: 1.0;" x1="723.5" x2="733.5" y1="922.7183" y2="922.7183"/><rect fill="#FFFFFF" filter="url(#f1ftdco3h6zeuy)" height="34" style="stroke: #FFFFFF; stroke-width: 1.0;" width="10" x="723.5" y="973.667"/><line style="stroke: #A80036; stroke-width: 1.0;" x1="723.5" x2="723.5" y1="973.667" y2="1007.667"/><line style="stroke: #A80036; stroke-width: 1.0;" x1="733.5" x2="733.5" y1="973.667" y2="1007.667"/><line style="stroke: #A80036; stroke-width: 1.0;" x1="723.5" x2="733.5" y1="1007.667" y2="1007.667"/><rect fill="#FFFFFF" filter="url(#f1ftdco3h6zeuy)" height="22.9487" style="stroke: #FFFFFF; stroke-width: 1.0;" width="10" x="723.5" y="1036.6157"/><line style="stroke: #A80036; stroke-width: 1.0;" x1="723.5" x2="723.5" y1="1036.6157" y2="1059.5645"/><line style="stroke: #A80036; stroke-width: 1.0;" x1="733.5" x2="733.5" y1="1036.6157" y2="1059.5645"/><line style="stroke: #A80036; stroke-width: 1.0;" x1="723.5" x2="733.5" y1="1036.6157" y2="1036.6157"/><rect fill="#FFFFFF" filter="url(#f1ftdco3h6zeuy)" height="34" style="stroke: #FFFFFF; stroke-width: 1.0;" width="10" x="723.5" y="1087.5645"/><line style="stroke: #A80036; stroke-width: 1.0;" x1="723.5" x2="723.5" y1="1087.5645" y2="1121.5645"/><line style="stroke: #A80036; stroke-width: 1.0;" x1="733.5" x2="733.5" y1="1087.5645" y2="1121.5645"/><line style="stroke: #A80036; stroke-width: 1.0;" x1="723.5" x2="733.5" y1="1121.5645" y2="1121.5645"/><polygon fill="#FBFB77" filter="url(#f1ftdco3h6zeuy)" points="8,89.146,8,113.146,291,113.146,291,99.146,281,89.146,8,89.146" style="stroke: #A80036; stroke-width: 1.0;"/><line style="stroke: #A80036; stroke-width: 1.0;" x1="281" x2="281" y1="89.146" y2="99.146"/><line style="stroke: #A80036; stroke-width: 1.0;" x1="291" x2="281" y1="99.146" y2="99.146"/><text fill="#000000" font-family="Arial" font-size="13" lengthAdjust="spacingAndGlyphs" textLength="262" x="14" y="106.5525">SoftDevice and core mesh modules initialized</text><rect fill="none" height="1036.3672" style="stroke: #000000; stroke-width: 2.0;" width="804" x="102" y="130.0947"/><polygon fill="#EEEEEE" points="102,130.0947,175,130.0947,175,136.0947,165,146.0947,102,146.0947,102,130.0947" style="stroke: #000000; stroke-width: 2.0;"/><text fill="#000000" font-family="Arial" font-size="13" font-weight="bold" lengthAdjust="spacingAndGlyphs" textLength="28" x="117" y="143.5012">loop</text><text fill="#000000" font-family="Arial" font-size="11" font-weight="bold" lengthAdjust="spacingAndGlyphs" textLength="177" x="190" y="142.5925">[While provisioned devices &lt; 30]</text><rect fill="none" height="347.085" style="stroke: #000000; stroke-width: 2.0;" width="784" x="112" y="154.0435"/><polygon fill="#EEEEEE" points="112,154.0435,236,154.0435,236,160.0435,226,170.0435,112,170.0435,112,154.0435" style="stroke: #000000; stroke-width: 2.0;"/><text fill="#000000" font-family="Arial" font-size="13" font-weight="bold" lengthAdjust="spacingAndGlyphs" textLength="79" x="127" y="167.45">Provisioning</text><polygon fill="#A80036" points="363.5,186.9922,373.5,190.9922,363.5,194.9922,367.5,190.9922" style="stroke: #A80036; stroke-width: 1.0;"/><line style="stroke: #A80036; stroke-width: 1.0;" x1="151.5" x2="369.5" y1="190.9922" y2="190.9922"/><text fill="#000000" font-family="Arial" font-size="13" lengthAdjust="spacingAndGlyphs" textLength="164" x="158.5" y="187.3987">provisioner_wait_for_unprov()</text><polygon fill="#A80036" points="386.5,215.9409,376.5,219.9409,386.5,223.9409,382.5,219.9409" style="stroke: #A80036; stroke-width: 1.0;"/><line style="stroke: #A80036; stroke-width: 1.0;" x1="380.5" x2="868" y1="219.9409" y2="219.9409"/><text fill="#000000" font-family="Arial" font-size="13" lengthAdjust="spacingAndGlyphs" textLength="227" x="392.5" y="216.3474">NRF_MESH_EVT_UNPROV_BEACON</text><polygon fill="#A80036" points="857,244.8896,867,248.8896,857,252.8896,861,248.8896" style="stroke: #A80036; stroke-width: 1.0;"/><line style="stroke: #A80036; stroke-width: 1.0;" x1="375.5" x2="863" y1="248.8896" y2="248.8896"/><text fill="#000000" font-family="Arial" font-size="13" lengthAdjust="spacingAndGlyphs" textLength="127" x="382.5" y="245.2961">nrf_mesh_prov_init(...)</text><polygon fill="#A80036" points="857,273.8384,867,277.8384,857,281.8384,861,277.8384" style="stroke: #A80036; stroke-width: 1.0;"/><line style="stroke: #A80036; stroke-width: 1.0;" x1="375.5" x2="863" y1="277.8384" y2="277.8384"/><text fill="#000000" font-family="Arial" font-size="13" lengthAdjust="spacingAndGlyphs" textLength="198" x="382.5" y="274.2449">nrf_mesh_prov_provision(UUID, ...)</text><text fill="#000000" font-family="Arial" font-size="11" lengthAdjust="spacingAndGlyphs" textLength="103" x="458.75" y="311.2849">Device is provisioned</text><polygon fill="#A80036" points="386.5,343.436,376.5,347.436,386.5,351.436,382.5,347.436" style="stroke: #A80036; stroke-width: 1.0;"/><line style="stroke: #A80036; stroke-width: 1.0;" x1="380.5" x2="868" y1="347.436" y2="347.436"/><text fill="#000000" font-family="Arial" font-size="13" lengthAdjust="spacingAndGlyphs" textLength="225" x="392.5" y="343.8425">NRF_MESH_EVT_PROV_COMPLETE</text><polygon fill="#A80036" points="162.5,372.3848,152.5,376.3848,162.5,380.3848,158.5,376.3848" style="stroke: #A80036; stroke-width: 1.0;"/><line style="stroke: #A80036; stroke-width: 1.0;" x1="156.5" x2="374.5" y1="376.3848" y2="376.3848"/><text fill="#000000" font-family="Arial" font-size="13" lengthAdjust="spacingAndGlyphs" textLength="180" x="168.5" y="372.7913">provisioner_prov_complete_cb()</text><polygon fill="#A80036" points="857,401.3335,867,405.3335,857,409.3335,861,405.3335" style="stroke: #A80036; stroke-width: 1.0;"/><line style="stroke: #A80036; stroke-width: 1.0;" x1="151.5" x2="863" y1="405.3335" y2="405.3335"/><text fill="#000000" font-family="Arial" font-size="13" lengthAdjust="spacingAndGlyphs" textLength="174" x="158.5" y="401.74">dsm_address_publish_add(...)</text><polygon fill="#A80036" points="857,430.2822,867,434.2822,857,438.2822,861,434.2822" style="stroke: #A80036; stroke-width: 1.0;"/><line style="stroke: #A80036; stroke-width: 1.0;" x1="151.5" x2="863" y1="434.2822" y2="434.2822"/><text fill="#000000" font-family="Arial" font-size="13" lengthAdjust="spacingAndGlyphs" textLength="120" x="158.5" y="430.6887">dsm_devkey_add(...)</text><polygon fill="#A80036" points="716.5,459.231,726.5,463.231,716.5,467.231,720.5,463.231" style="stroke: #A80036; stroke-width: 1.0;"/><line style="stroke: #A80036; stroke-width: 1.0;" x1="151.5" x2="722.5" y1="463.231" y2="463.231"/><text fill="#000000" font-family="Arial" font-size="13" lengthAdjust="spacingAndGlyphs" textLength="164" x="158.5" y="459.6375">config_client_server_bind(...)</text><polygon fill="#A80036" points="716.5,488.1797,726.5,492.1797,716.5,496.1797,720.5,492.1797" style="stroke: #A80036; stroke-width: 1.0;"/><line style="stroke: #A80036; stroke-width: 1.0;" x1="151.5" x2="722.5" y1="492.1797" y2="492.1797"/><text fill="#000000" font-family="Arial" font-size="13" lengthAdjust="spacingAndGlyphs" textLength="158" x="158.5" y="488.5862">config_client_server_set(...)</text><rect fill="none" height="644.3335" style="stroke: #000000; stroke-width: 2.0;" width="784" x="112" y="515.1284"/><polygon fill="#EEEEEE" points="112,515.1284,243,515.1284,243,521.1284,233,531.1284,112,531.1284,112,515.1284" style="stroke: #000000; stroke-width: 2.0;"/><text fill="#000000" font-family="Arial" font-size="13" font-weight="bold" lengthAdjust="spacingAndGlyphs" textLength="86" x="127" y="528.5349">Configuration</text><polygon fill="#A80036" points="363.5,548.0771,373.5,552.0771,363.5,556.0771,367.5,552.0771" style="stroke: #A80036; stroke-width: 1.0;"/><line style="stroke: #A80036; stroke-width: 1.0;" x1="151.5" x2="369.5" y1="552.0771" y2="552.0771"/><text fill="#000000" font-family="Arial" font-size="13" lengthAdjust="spacingAndGlyphs" textLength="128" x="158.5" y="548.4836">provisioner_configure()</text><polygon fill="#A80036" points="711.5,577.0259,721.5,581.0259,711.5,585.0259,715.5,581.0259" style="stroke: #A80036; stroke-width: 1.0;"/><line style="stroke: #A80036; stroke-width: 1.0;" x1="375.5" x2="717.5" y1="581.0259" y2="581.0259"/><text fill="#000000" font-family="Arial" font-size="13" lengthAdjust="spacingAndGlyphs" textLength="214" x="382.5" y="577.4324">config_client_composition_data_get()</text><polygon fill="#A80036" points="857,591.9746,867,595.9746,857,599.9746,861,595.9746" style="stroke: #A80036; stroke-width: 1.0;"/><line style="stroke: #A80036; stroke-width: 1.0;" x1="733.5" x2="863" y1="595.9746" y2="595.9746"/><polygon fill="#A80036" points="744.5,633.9746,734.5,637.9746,744.5,641.9746,740.5,637.9746" style="stroke: #A80036; stroke-width: 1.0;"/><line style="stroke: #A80036; stroke-width: 1.0;" x1="738.5" x2="868" y1="637.9746" y2="637.9746"/><polygon fill="#A80036" points="386.5,661.9746,376.5,665.9746,386.5,669.9746,382.5,665.9746" style="stroke: #A80036; stroke-width: 1.0;"/><line style="stroke: #A80036; stroke-width: 1.0;" x1="380.5" x2="727.5" y1="665.9746" y2="665.9746"/><text fill="#000000" font-family="Arial" font-size="13" lengthAdjust="spacingAndGlyphs" textLength="250" x="392.5" y="662.3811">CONFIG_OPCODE_COMPOSITION_DATA</text><polygon fill="#A80036" points="711.5,690.9233,721.5,694.9233,711.5,698.9233,715.5,694.9233" style="stroke: #A80036; stroke-width: 1.0;"/><line style="stroke: #A80036; stroke-width: 1.0;" x1="375.5" x2="717.5" y1="694.9233" y2="694.9233"/><text fill="#000000" font-family="Arial" font-size="13" lengthAdjust="spacingAndGlyphs" textLength="157" x="382.5" y="691.3298">config_client_appkey_add()</text><polygon fill="#A80036" points="857,705.8721,867,709.8721,857,713.8721,861,709.8721" style="stroke: #A80036; stroke-width: 1.0;"/><line style="stroke: #A80036; stroke-width: 1.0;" x1="733.5" x2="863" y1="709.8721" y2="709.8721"/><polygon fill="#A80036" points="744.5,747.8721,734.5,751.8721,744.5,755.8721,740.5,751.8721" style="stroke: #A80036; stroke-width: 1.0;"/><line style="stroke: #A80036; stroke-width: 1.0;" x1="738.5" x2="868" y1="751.8721" y2="751.8721"/><polygon fill="#A80036" points="386.5,775.8721,376.5,779.8721,386.5,783.8721,382.5,779.8721" style="stroke: #A80036; stroke-width: 1.0;"/><line style="stroke: #A80036; stroke-width: 1.0;" x1="380.5" x2="727.5" y1="779.8721" y2="779.8721"/><text fill="#000000" font-family="Arial" font-size="13" lengthAdjust="spacingAndGlyphs" textLength="230" x="392.5" y="776.2786">CONFIG_OPCODE_APPKEY_STATUS</text><polygon fill="#A80036" points="711.5,804.8208,721.5,808.8208,711.5,812.8208,715.5,808.8208" style="stroke: #A80036; stroke-width: 1.0;"/><line style="stroke: #A80036; stroke-width: 1.0;" x1="375.5" x2="717.5" y1="808.8208" y2="808.8208"/><text fill="#000000" font-family="Arial" font-size="13" lengthAdjust="spacingAndGlyphs" textLength="181" x="382.5" y="805.2273">config_client_model_app_bind()</text><polygon fill="#A80036" points="857,819.7695,867,823.7695,857,827.7695,861,823.7695" style="stroke: #A80036; stroke-width: 1.0;"/><line style="stroke: #A80036; stroke-width: 1.0;" x1="733.5" x2="863" y1="823.7695" y2="823.7695"/><polygon fill="#A80036" points="744.5,861.7695,734.5,865.7695,744.5,869.7695,740.5,865.7695" style="stroke: #A80036; stroke-width: 1.0;"/><line style="stroke: #A80036; stroke-width: 1.0;" x1="738.5" x2="868" y1="865.7695" y2="865.7695"/><polygon fill="#A80036" points="386.5,889.7695,376.5,893.7695,386.5,897.7695,382.5,893.7695" style="stroke: #A80036; stroke-width: 1.0;"/><line style="stroke: #A80036; stroke-width: 1.0;" x1="380.5" x2="727.5" y1="893.7695" y2="893.7695"/><text fill="#000000" font-family="Arial" font-size="13" lengthAdjust="spacingAndGlyphs" textLength="256" x="392.5" y="890.176">CONFIG_OPCODE_MODEL_APP_STATUS</text><polygon fill="#A80036" points="711.5,918.7183,721.5,922.7183,711.5,926.7183,715.5,922.7183" style="stroke: #A80036; stroke-width: 1.0;"/><line style="stroke: #A80036; stroke-width: 1.0;" x1="375.5" x2="717.5" y1="922.7183" y2="922.7183"/><text fill="#000000" font-family="Arial" font-size="13" lengthAdjust="spacingAndGlyphs" textLength="216" x="382.5" y="919.1248">config_client_model_publication_set()</text><polygon fill="#A80036" points="857,933.667,867,937.667,857,941.667,861,937.667" style="stroke: #A80036; stroke-width: 1.0;"/><line style="stroke: #A80036; stroke-width: 1.0;" x1="733.5" x2="863" y1="937.667" y2="937.667"/><polygon fill="#A80036" points="744.5,975.667,734.5,979.667,744.5,983.667,740.5,979.667" style="stroke: #A80036; stroke-width: 1.0;"/><line style="stroke: #A80036; stroke-width: 1.0;" x1="738.5" x2="868" y1="979.667" y2="979.667"/><polygon fill="#A80036" points="386.5,1003.667,376.5,1007.667,386.5,1011.667,382.5,1007.667" style="stroke: #A80036; stroke-width: 1.0;"/><line style="stroke: #A80036; stroke-width: 1.0;" x1="380.5" x2="727.5" y1="1007.667" y2="1007.667"/><text fill="#000000" font-family="Arial" font-size="13" lengthAdjust="spacingAndGlyphs" textLength="313" x="392.5" y="1004.0735">CONFIG_OPCODE_MODEL_PUBLICATION_STATUS</text><polygon fill="#A80036" points="711.5,1032.6157,721.5,1036.6157,711.5,1040.6157,715.5,1036.6157" style="stroke: #A80036; stroke-width: 1.0;"/><line style="stroke: #A80036; stroke-width: 1.0;" x1="375.5" x2="717.5" y1="1036.6157" y2="1036.6157"/><text fill="#000000" font-family="Arial" font-size="13" lengthAdjust="spacingAndGlyphs" textLength="227" x="382.5" y="1033.0222">config_client_model_subscription_add()</text><polygon fill="#A80036" points="857,1047.5645,867,1051.5645,857,1055.5645,861,1051.5645" style="stroke: #A80036; stroke-width: 1.0;"/><line style="stroke: #A80036; stroke-width: 1.0;" x1="733.5" x2="863" y1="1051.5645" y2="1051.5645"/><polygon fill="#A80036" points="744.5,1089.5645,734.5,1093.5645,744.5,1097.5645,740.5,1093.5645" style="stroke: #A80036; stroke-width: 1.0;"/><line style="stroke: #A80036; stroke-width: 1.0;" x1="738.5" x2="868" y1="1093.5645" y2="1093.5645"/><polygon fill="#A80036" points="386.5,1117.5645,376.5,1121.5645,386.5,1125.5645,382.5,1121.5645" style="stroke: #A80036; stroke-width: 1.0;"/><line style="stroke: #A80036; stroke-width: 1.0;" x1="380.5" x2="727.5" y1="1121.5645" y2="1121.5645"/><text fill="#000000" font-family="Arial" font-size="13" lengthAdjust="spacingAndGlyphs" textLength="324" x="392.5" y="1117.9709">CONFIG_OPCODE_MODEL_SUBSCRIPTION_STATUS</text><polygon fill="#A80036" points="162.5,1146.5132,152.5,1150.5132,162.5,1154.5132,158.5,1150.5132" style="stroke: #A80036; stroke-width: 1.0;"/><line style="stroke: #A80036; stroke-width: 1.0;" x1="156.5" x2="374.5" y1="1150.5132" y2="1150.5132"/><text fill="#000000" font-family="Arial" font-size="13" lengthAdjust="spacingAndGlyphs" textLength="200" x="168.5" y="1146.9197">provisioner_config_successful_cb()</text><!--
@startuml
skinparam defaultFontName Arial
box "Application" #FFFFFF
participant a as "main.c"
participant p as "provisioner_helper.c \nnode_setup.c"
end box

participant c as "Configuration client"

box "Mesh core modules"
participant core as "    "
end box

note over a: SoftDevice and core mesh modules initialized
loop While provisioned devices < 30
group Provisioning
      a -> p: provisioner_wait_for_unprov()
      core -> p: NRF_MESH_EVT_UNPROV_BEACON
      p -> core: nrf_mesh_prov_init(...)
      p -> core: nrf_mesh_prov_provision(UUID, ...)

      ... Device is provisioned ...

      core -> p: NRF_MESH_EVT_PROV_COMPLETE
      p -> a: provisioner_prov_complete_cb()
      a -> core: dsm_address_publish_add(...)
      a -> core: dsm_devkey_add(...)
      a -> c: config_client_server_bind(...)
      a -> c: config_client_server_set(...)
end
group Configuration
      a -> p: provisioner_configure()
      p -> c: config_client_composition_data_get()
      activate c
      c -> core
      ...
      core -> c
      c -> p: CONFIG_OPCODE_COMPOSITION_DATA
      deactivate c

      p -> c: config_client_appkey_add()
      activate c
      c -> core
      ...
      core -> c
      c -> p: CONFIG_OPCODE_APPKEY_STATUS
      deactivate c

      p -> c: config_client_model_app_bind()
      activate c
      c -> core
      ...
      core -> c
      c -> p: CONFIG_OPCODE_MODEL_APP_STATUS
      deactivate c

      p -> c: config_client_model_publication_set()
      activate c
      c -> core
      ...
      core -> c
      c -> p: CONFIG_OPCODE_MODEL_PUBLICATION_STATUS
      deactivate c

      p -> c: config_client_model_subscription_add()
      activate c
      c -> core
      ...
      core -> c
      c -> p: CONFIG_OPCODE_MODEL_SUBSCRIPTION_STATUS
      deactivate c
      p -> a: provisioner_config_successful_cb()
end
end
@enduml

PlantUML version 1.2017.16(Sun Sep 03 12:53:37 CEST 2017)
(GPL source distribution)
Java Runtime: Java(TM) SE Runtime Environment
JVM: Java HotSpot(TM) Client VM
Java Version: 1.8.0_152-b16
Operating System: Windows 10
OS Version: 10.0
Default Encoding: Cp1252
Language: en
Country: US
--></g></svg>