<?xml version="1.0" encoding="UTF-8" standalone="no"?><svg xmlns="http://www.w3.org/2000/svg" xmlns:xlink="http://www.w3.org/1999/xlink" contentScriptType="application/ecmascript" contentStyleType="text/css" height="1216px" preserveAspectRatio="none" style="width:943px;height:1216px;" version="1.1" viewBox="0 0 943 1216" width="943px" zoomAndPan="magnify"><defs><filter height="300%" id="f1gpi3arxd0qck" width="300%" x="-1" y="-1"><feGaussianBlur result="blurOut" stdDeviation="2.0"/><feColorMatrix in="blurOut" result="blurOut2" type="matrix" values="0 0 0 0 0 0 0 0 0 0 0 0 0 0 0 0 0 0 .4 0"/><feOffset dx="4.0" dy="4.0" in="blurOut2" result="blurOut3"/><feBlend in="SourceGraphic" in2="blurOut3" mode="normal"/></filter></defs><g><rect fill="#FFFFFF" height="1201.4619" style="stroke: #A80036; stroke-width: 1.0;" width="311" x="117" y="4"/><text fill="#000000" font-family="Arial" font-size="13" font-weight="bold" lengthAdjust="spacingAndGlyphs" textLength="72" x="236.5" y="16.4065">Application</text><rect fill="#DDDDDD" height="1201.4619" style="stroke: #A80036; stroke-width: 1.0;" width="129" x="803.5" y="4"/><text fill="#000000" font-family="Arial" font-size="13" font-weight="bold" lengthAdjust="spacingAndGlyphs" textLength="123" x="806.5" y="16.4065">Mesh core modules</text><rect fill="#FFFFFF" filter="url(#f1gpi3arxd0qck)" height="22.9487" style="stroke: #FFFFFF; stroke-width: 1.0;" width="10" x="722.5" y="564.9272"/><line style="stroke: #A80036; stroke-width: 1.0;" x1="722.5" x2="722.5" y1="564.9272" y2="587.876"/><line style="stroke: #A80036; stroke-width: 1.0;" x1="732.5" x2="732.5" y1="564.9272" y2="587.876"/><line style="stroke: #A80036; stroke-width: 1.0;" x1="722.5" x2="732.5" y1="564.9272" y2="564.9272"/><rect fill="#FFFFFF" filter="url(#f1gpi3arxd0qck)" height="34" style="stroke: #FFFFFF; stroke-width: 1.0;" width="10" x="722.5" y="615.876"/><line style="stroke: #A80036; stroke-width: 1.0;" x1="722.5" x2="722.5" y1="615.876" y2="649.876"/><line style="stroke: #A80036; stroke-width: 1.0;" x1="732.5" x2="732.5" y1="615.876" y2="649.876"/><line style="stroke: #A80036; stroke-width: 1.0;" x1="722.5" x2="732.5" y1="649.876" y2="649.876"/><rect fill="#FFFFFF" filter="url(#f1gpi3arxd0qck)" height="22.9487" style="stroke: #FFFFFF; stroke-width: 1.0;" width="10" x="722.5" y="678.8247"/><line style="stroke: #A80036; stroke-width: 1.0;" x1="722.5" x2="722.5" y1="678.8247" y2="701.7734"/><line style="stroke: #A80036; stroke-width: 1.0;" x1="732.5" x2="732.5" y1="678.8247" y2="701.7734"/><line style="stroke: #A80036; stroke-width: 1.0;" x1="722.5" x2="732.5" y1="678.8247" y2="678.8247"/><rect fill="#FFFFFF" filter="url(#f1gpi3arxd0qck)" height="34" style="stroke: #FFFFFF; stroke-width: 1.0;" width="10" x="722.5" y="729.7734"/><line style="stroke: #A80036; stroke-width: 1.0;" x1="722.5" x2="722.5" y1="729.7734" y2="763.7734"/><line style="stroke: #A80036; stroke-width: 1.0;" x1="732.5" x2="732.5" y1="729.7734" y2="763.7734"/><line style="stroke: #A80036; stroke-width: 1.0;" x1="722.5" x2="732.5" y1="763.7734" y2="763.7734"/><rect fill="#FFFFFF" filter="url(#f1gpi3arxd0qck)" height="22.9487" style="stroke: #FFFFFF; stroke-width: 1.0;" width="10" x="722.5" y="792.7222"/><line style="stroke: #A80036; stroke-width: 1.0;" x1="722.5" x2="722.5" y1="792.7222" y2="815.6709"/><line style="stroke: #A80036; stroke-width: 1.0;" x1="732.5" x2="732.5" y1="792.7222" y2="815.6709"/><line style="stroke: #A80036; stroke-width: 1.0;" x1="722.5" x2="732.5" y1="792.7222" y2="792.7222"/><rect fill="#FFFFFF" filter="url(#f1gpi3arxd0qck)" height="34" style="stroke: #FFFFFF; stroke-width: 1.0;" width="10" x="722.5" y="843.6709"/><line style="stroke: #A80036; stroke-width: 1.0;" x1="722.5" x2="722.5" y1="843.6709" y2="877.6709"/><line style="stroke: #A80036; stroke-width: 1.0;" x1="732.5" x2="732.5" y1="843.6709" y2="877.6709"/><line style="stroke: #A80036; stroke-width: 1.0;" x1="722.5" x2="732.5" y1="877.6709" y2="877.6709"/><rect fill="#FFFFFF" filter="url(#f1gpi3arxd0qck)" height="22.9487" style="stroke: #FFFFFF; stroke-width: 1.0;" width="10" x="722.5" y="906.6196"/><line style="stroke: #A80036; stroke-width: 1.0;" x1="722.5" x2="722.5" y1="906.6196" y2="929.5684"/><line style="stroke: #A80036; stroke-width: 1.0;" x1="732.5" x2="732.5" y1="906.6196" y2="929.5684"/><line style="stroke: #A80036; stroke-width: 1.0;" x1="722.5" x2="732.5" y1="906.6196" y2="906.6196"/><rect fill="#FFFFFF" filter="url(#f1gpi3arxd0qck)" height="34" style="stroke: #FFFFFF; stroke-width: 1.0;" width="10" x="722.5" y="957.5684"/><line style="stroke: #A80036; stroke-width: 1.0;" x1="722.5" x2="722.5" y1="957.5684" y2="991.5684"/><line style="stroke: #A80036; stroke-width: 1.0;" x1="732.5" x2="732.5" y1="957.5684" y2="991.5684"/><line style="stroke: #A80036; stroke-width: 1.0;" x1="722.5" x2="732.5" y1="991.5684" y2="991.5684"/><rect fill="#FFFFFF" filter="url(#f1gpi3arxd0qck)" height="22.9487" style="stroke: #FFFFFF; stroke-width: 1.0;" width="10" x="722.5" y="1020.5171"/><line style="stroke: #A80036; stroke-width: 1.0;" x1="722.5" x2="722.5" y1="1020.5171" y2="1043.4658"/><line style="stroke: #A80036; stroke-width: 1.0;" x1="732.5" x2="732.5" y1="1020.5171" y2="1043.4658"/><line style="stroke: #A80036; stroke-width: 1.0;" x1="722.5" x2="732.5" y1="1020.5171" y2="1020.5171"/><rect fill="#FFFFFF" filter="url(#f1gpi3arxd0qck)" height="34" style="stroke: #FFFFFF; stroke-width: 1.0;" width="10" x="722.5" y="1071.4658"/><line style="stroke: #A80036; stroke-width: 1.0;" x1="722.5" x2="722.5" y1="1071.4658" y2="1105.4658"/><line style="stroke: #A80036; stroke-width: 1.0;" x1="732.5" x2="732.5" y1="1071.4658" y2="1105.4658"/><line style="stroke: #A80036; stroke-width: 1.0;" x1="722.5" x2="732.5" y1="1105.4658" y2="1105.4658"/><rect fill="#FFFFFF" filter="url(#f1gpi3arxd0qck)" height="1036.3672" style="stroke: #000000; stroke-width: 2.0;" width="804" x="101" y="113.9961"/><rect fill="#FFFFFF" filter="url(#f1gpi3arxd0qck)" height="347.085" style="stroke: #000000; stroke-width: 2.0;" width="784" x="111" y="137.9448"/><rect fill="#FFFFFF" filter="url(#f1gpi3arxd0qck)" height="644.3335" style="stroke: #000000; stroke-width: 2.0;" width="784" x="111" y="499.0298"/><line style="stroke: #A80036; stroke-width: 1.0;" x1="150" x2="150" y1="58.0474" y2="270.6885"/><line style="stroke: #A80036; stroke-width: 1.0; stroke-dasharray: 1.0,4.0;" x1="150" x2="150" y1="270.6885" y2="311.3374"/><line style="stroke: #A80036; stroke-width: 1.0;" x1="150" x2="150" y1="311.3374" y2="587.876"/><line style="stroke: #A80036; stroke-width: 1.0; stroke-dasharray: 1.0,4.0;" x1="150" x2="150" y1="587.876" y2="615.876"/><line style="stroke: #A80036; stroke-width: 1.0;" x1="150" x2="150" y1="615.876" y2="701.7734"/><line style="stroke: #A80036; stroke-width: 1.0; stroke-dasharray: 1.0,4.0;" x1="150" x2="150" y1="701.7734" y2="729.7734"/><line style="stroke: #A80036; stroke-width: 1.0;" x1="150" x2="150" y1="729.7734" y2="815.6709"/><line style="stroke: #A80036; stroke-width: 1.0; stroke-dasharray: 1.0,4.0;" x1="150" x2="150" y1="815.6709" y2="843.6709"/><line style="stroke: #A80036; stroke-width: 1.0;" x1="150" x2="150" y1="843.6709" y2="929.5684"/><line style="stroke: #A80036; stroke-width: 1.0; stroke-dasharray: 1.0,4.0;" x1="150" x2="150" y1="929.5684" y2="957.5684"/><line style="stroke: #A80036; stroke-width: 1.0;" x1="150" x2="150" y1="957.5684" y2="1043.4658"/><line style="stroke: #A80036; stroke-width: 1.0; stroke-dasharray: 1.0,4.0;" x1="150" x2="150" y1="1043.4658" y2="1071.4658"/><line style="stroke: #A80036; stroke-width: 1.0;" x1="150" x2="150" y1="1071.4658" y2="1167.3633"/><line style="stroke: #A80036; stroke-width: 1.0;" x1="374" x2="374" y1="58.0474" y2="270.6885"/><line style="stroke: #A80036; stroke-width: 1.0; stroke-dasharray: 1.0,4.0;" x1="374" x2="374" y1="270.6885" y2="311.3374"/><line style="stroke: #A80036; stroke-width: 1.0;" x1="374" x2="374" y1="311.3374" y2="587.876"/><line style="stroke: #A80036; stroke-width: 1.0; stroke-dasharray: 1.0,4.0;" x1="374" x2="374" y1="587.876" y2="615.876"/><line style="stroke: #A80036; stroke-width: 1.0;" x1="374" x2="374" y1="615.876" y2="701.7734"/><line style="stroke: #A80036; stroke-width: 1.0; stroke-dasharray: 1.0,4.0;" x1="374" x2="374" y1="701.7734" y2="729.7734"/><line style="stroke: #A80036; stroke-width: 1.0;" x1="374" x2="374" y1="729.7734" y2="815.6709"/><line style="stroke: #A80036; stroke-width: 1.0; stroke-dasharray: 1.0,4.0;" x1="374" x2="374" y1="815.6709" y2="843.6709"/><line style="stroke: #A80036; stroke-width: 1.0;" x1="374" x2="374" y1="843.6709" y2="929.5684"/><line style="stroke: #A80036; stroke-width: 1.0; stroke-dasharray: 1.0,4.0;" x1="374" x2="374" y1="929.5684" y2="957.5684"/><line style="stroke: #A80036; stroke-width: 1.0;" x1="374" x2="374" y1="957.5684" y2="1043.4658"/><line style="stroke: #A80036; stroke-width: 1.0; stroke-dasharray: 1.0,4.0;" x1="374" x2="374" y1="1043.4658" y2="1071.4658"/><line style="stroke: #A80036; stroke-width: 1.0;" x1="374" x2="374" y1="1071.4658" y2="1167.3633"/><line style="stroke: #A80036; stroke-width: 1.0;" x1="727.5" x2="727.5" y1="58.0474" y2="270.6885"/><line style="stroke: #A80036; stroke-width: 1.0; stroke-dasharray: 1.0,4.0;" x1="727.5" x2="727.5" y1="270.6885" y2="311.3374"/><line style="stroke: #A80036; stroke-width: 1.0;" x1="727.5" x2="727.5" y1="311.3374" y2="587.876"/><line style="stroke: #A80036; stroke-width: 1.0; stroke-dasharray: 1.0,4.0;" x1="727.5" x2="727.5" y1="587.876" y2="615.876"/><line style="stroke: #A80036; stroke-width: 1.0;" x1="727.5" x2="727.5" y1="615.876" y2="701.7734"/><line style="stroke: #A80036; stroke-width: 1.0; stroke-dasharray: 1.0,4.0;" x1="727.5" x2="727.5" y1="701.7734" y2="729.7734"/><line style="stroke: #A80036; stroke-width: 1.0;" x1="727.5" x2="727.5" y1="729.7734" y2="815.6709"/><line style="stroke: #A80036; stroke-width: 1.0; stroke-dasharray: 1.0,4.0;" x1="727.5" x2="727.5" y1="815.6709" y2="843.6709"/><line style="stroke: #A80036; stroke-width: 1.0;" x1="727.5" x2="727.5" y1="843.6709" y2="929.5684"/><line style="stroke: #A80036; stroke-width: 1.0; stroke-dasharray: 1.0,4.0;" x1="727.5" x2="727.5" y1="929.5684" y2="957.5684"/><line style="stroke: #A80036; stroke-width: 1.0;" x1="727.5" x2="727.5" y1="957.5684" y2="1043.4658"/><line style="stroke: #A80036; stroke-width: 1.0; stroke-dasharray: 1.0,4.0;" x1="727.5" x2="727.5" y1="1043.4658" y2="1071.4658"/><line style="stroke: #A80036; stroke-width: 1.0;" x1="727.5" x2="727.5" y1="1071.4658" y2="1167.3633"/><line style="stroke: #A80036; stroke-width: 1.0;" x1="868" x2="868" y1="58.0474" y2="270.6885"/><line style="stroke: #A80036; stroke-width: 1.0; stroke-dasharray: 1.0,4.0;" x1="868" x2="868" y1="270.6885" y2="311.3374"/><line style="stroke: #A80036; stroke-width: 1.0;" x1="868" x2="868" y1="311.3374" y2="587.876"/><line style="stroke: #A80036; stroke-width: 1.0; stroke-dasharray: 1.0,4.0;" x1="868" x2="868" y1="587.876" y2="615.876"/><line style="stroke: #A80036; stroke-width: 1.0;" x1="868" x2="868" y1="615.876" y2="701.7734"/><line style="stroke: #A80036; stroke-width: 1.0; stroke-dasharray: 1.0,4.0;" x1="868" x2="868" y1="701.7734" y2="729.7734"/><line style="stroke: #A80036; stroke-width: 1.0;" x1="868" x2="868" y1="729.7734" y2="815.6709"/><line style="stroke: #A80036; stroke-width: 1.0; stroke-dasharray: 1.0,4.0;" x1="868" x2="868" y1="815.6709" y2="843.6709"/><line style="stroke: #A80036; stroke-width: 1.0;" x1="868" x2="868" y1="843.6709" y2="929.5684"/><line style="stroke: #A80036; stroke-width: 1.0; stroke-dasharray: 1.0,4.0;" x1="868" x2="868" y1="929.5684" y2="957.5684"/><line style="stroke: #A80036; stroke-width: 1.0;" x1="868" x2="868" y1="957.5684" y2="1043.4658"/><line style="stroke: #A80036; stroke-width: 1.0; stroke-dasharray: 1.0,4.0;" x1="868" x2="868" y1="1043.4658" y2="1071.4658"/><line style="stroke: #A80036; stroke-width: 1.0;" x1="868" x2="868" y1="1071.4658" y2="1167.3633"/><rect fill="#FEFECE" filter="url(#f1gpi3arxd0qck)" height="30.0986" style="stroke: #A80036; stroke-width: 1.5;" width="55" x="121" y="22.9487"/><text fill="#000000" font-family="Arial" font-size="14" lengthAdjust="spacingAndGlyphs" textLength="41" x="128" y="43.3096">main.c</text><rect fill="#FEFECE" filter="url(#f1gpi3arxd0qck)" height="30.0986" style="stroke: #A80036; stroke-width: 1.5;" width="55" x="121" y="1166.3633"/><text fill="#000000" font-family="Arial" font-size="14" lengthAdjust="spacingAndGlyphs" textLength="41" x="128" y="1186.7241">main.c</text><rect fill="#FEFECE" filter="url(#f1gpi3arxd0qck)" height="30.0986" style="stroke: #A80036; stroke-width: 1.5;" width="95" x="325" y="22.9487"/><text fill="#000000" font-family="Arial" font-size="14" lengthAdjust="spacingAndGlyphs" textLength="81" x="332" y="43.3096">provisioner.c</text><rect fill="#FEFECE" filter="url(#f1gpi3arxd0qck)" height="30.0986" style="stroke: #A80036; stroke-width: 1.5;" width="95" x="325" y="1166.3633"/><text fill="#000000" font-family="Arial" font-size="14" lengthAdjust="spacingAndGlyphs" textLength="81" x="332" y="1186.7241">provisioner.c</text><rect fill="#FEFECE" filter="url(#f1gpi3arxd0qck)" height="30.0986" style="stroke: #A80036; stroke-width: 1.5;" width="136" x="657.5" y="22.9487"/><text fill="#000000" font-family="Arial" font-size="14" lengthAdjust="spacingAndGlyphs" textLength="122" x="664.5" y="43.3096">Configuration client</text><rect fill="#FEFECE" filter="url(#f1gpi3arxd0qck)" height="30.0986" style="stroke: #A80036; stroke-width: 1.5;" width="136" x="657.5" y="1166.3633"/><text fill="#000000" font-family="Arial" font-size="14" lengthAdjust="spacingAndGlyphs" textLength="122" x="664.5" y="1186.7241">Configuration client</text><rect fill="#FEFECE" filter="url(#f1gpi3arxd0qck)" height="30.0986" style="stroke: #A80036; stroke-width: 1.5;" width="30" x="851" y="22.9487"/><text fill="#000000" font-family="Arial" font-size="14" lengthAdjust="spacingAndGlyphs" textLength="0" x="874" y="43.3096"/><rect fill="#FEFECE" filter="url(#f1gpi3arxd0qck)" height="30.0986" style="stroke: #A80036; stroke-width: 1.5;" width="30" x="851" y="1166.3633"/><text fill="#000000" font-family="Arial" font-size="14" lengthAdjust="spacingAndGlyphs" textLength="0" x="874" y="1186.7241"/><rect fill="#FFFFFF" filter="url(#f1gpi3arxd0qck)" height="22.9487" style="stroke: #FFFFFF; stroke-width: 1.0;" width="10" x="722.5" y="564.9272"/><line style="stroke: #A80036; stroke-width: 1.0;" x1="722.5" x2="722.5" y1="564.9272" y2="587.876"/><line style="stroke: #A80036; stroke-width: 1.0;" x1="732.5" x2="732.5" y1="564.9272" y2="587.876"/><line style="stroke: #A80036; stroke-width: 1.0;" x1="722.5" x2="732.5" y1="564.9272" y2="564.9272"/><rect fill="#FFFFFF" filter="url(#f1gpi3arxd0qck)" height="34" style="stroke: #FFFFFF; stroke-width: 1.0;" width="10" x="722.5" y="615.876"/><line style="stroke: #A80036; stroke-width: 1.0;" x1="722.5" x2="722.5" y1="615.876" y2="649.876"/><line style="stroke: #A80036; stroke-width: 1.0;" x1="732.5" x2="732.5" y1="615.876" y2="649.876"/><line style="stroke: #A80036; stroke-width: 1.0;" x1="722.5" x2="732.5" y1="649.876" y2="649.876"/><rect fill="#FFFFFF" filter="url(#f1gpi3arxd0qck)" height="22.9487" style="stroke: #FFFFFF; stroke-width: 1.0;" width="10" x="722.5" y="678.8247"/><line style="stroke: #A80036; stroke-width: 1.0;" x1="722.5" x2="722.5" y1="678.8247" y2="701.7734"/><line style="stroke: #A80036; stroke-width: 1.0;" x1="732.5" x2="732.5" y1="678.8247" y2="701.7734"/><line style="stroke: #A80036; stroke-width: 1.0;" x1="722.5" x2="732.5" y1="678.8247" y2="678.8247"/><rect fill="#FFFFFF" filter="url(#f1gpi3arxd0qck)" height="34" style="stroke: #FFFFFF; stroke-width: 1.0;" width="10" x="722.5" y="729.7734"/><line style="stroke: #A80036; stroke-width: 1.0;" x1="722.5" x2="722.5" y1="729.7734" y2="763.7734"/><line style="stroke: #A80036; stroke-width: 1.0;" x1="732.5" x2="732.5" y1="729.7734" y2="763.7734"/><line style="stroke: #A80036; stroke-width: 1.0;" x1="722.5" x2="732.5" y1="763.7734" y2="763.7734"/><rect fill="#FFFFFF" filter="url(#f1gpi3arxd0qck)" height="22.9487" style="stroke: #FFFFFF; stroke-width: 1.0;" width="10" x="722.5" y="792.7222"/><line style="stroke: #A80036; stroke-width: 1.0;" x1="722.5" x2="722.5" y1="792.7222" y2="815.6709"/><line style="stroke: #A80036; stroke-width: 1.0;" x1="732.5" x2="732.5" y1="792.7222" y2="815.6709"/><line style="stroke: #A80036; stroke-width: 1.0;" x1="722.5" x2="732.5" y1="792.7222" y2="792.7222"/><rect fill="#FFFFFF" filter="url(#f1gpi3arxd0qck)" height="34" style="stroke: #FFFFFF; stroke-width: 1.0;" width="10" x="722.5" y="843.6709"/><line style="stroke: #A80036; stroke-width: 1.0;" x1="722.5" x2="722.5" y1="843.6709" y2="877.6709"/><line style="stroke: #A80036; stroke-width: 1.0;" x1="732.5" x2="732.5" y1="843.6709" y2="877.6709"/><line style="stroke: #A80036; stroke-width: 1.0;" x1="722.5" x2="732.5" y1="877.6709" y2="877.6709"/><rect fill="#FFFFFF" filter="url(#f1gpi3arxd0qck)" height="22.9487" style="stroke: #FFFFFF; stroke-width: 1.0;" width="10" x="722.5" y="906.6196"/><line style="stroke: #A80036; stroke-width: 1.0;" x1="722.5" x2="722.5" y1="906.6196" y2="929.5684"/><line style="stroke: #A80036; stroke-width: 1.0;" x1="732.5" x2="732.5" y1="906.6196" y2="929.5684"/><line style="stroke: #A80036; stroke-width: 1.0;" x1="722.5" x2="732.5" y1="906.6196" y2="906.6196"/><rect fill="#FFFFFF" filter="url(#f1gpi3arxd0qck)" height="34" style="stroke: #FFFFFF; stroke-width: 1.0;" width="10" x="722.5" y="957.5684"/><line style="stroke: #A80036; stroke-width: 1.0;" x1="722.5" x2="722.5" y1="957.5684" y2="991.5684"/><line style="stroke: #A80036; stroke-width: 1.0;" x1="732.5" x2="732.5" y1="957.5684" y2="991.5684"/><line style="stroke: #A80036; stroke-width: 1.0;" x1="722.5" x2="732.5" y1="991.5684" y2="991.5684"/><rect fill="#FFFFFF" filter="url(#f1gpi3arxd0qck)" height="22.9487" style="stroke: #FFFFFF; stroke-width: 1.0;" width="10" x="722.5" y="1020.5171"/><line style="stroke: #A80036; stroke-width: 1.0;" x1="722.5" x2="722.5" y1="1020.5171" y2="1043.4658"/><line style="stroke: #A80036; stroke-width: 1.0;" x1="732.5" x2="732.5" y1="1020.5171" y2="1043.4658"/><line style="stroke: #A80036; stroke-width: 1.0;" x1="722.5" x2="732.5" y1="1020.5171" y2="1020.5171"/><rect fill="#FFFFFF" filter="url(#f1gpi3arxd0qck)" height="34" style="stroke: #FFFFFF; stroke-width: 1.0;" width="10" x="722.5" y="1071.4658"/><line style="stroke: #A80036; stroke-width: 1.0;" x1="722.5" x2="722.5" y1="1071.4658" y2="1105.4658"/><line style="stroke: #A80036; stroke-width: 1.0;" x1="732.5" x2="732.5" y1="1071.4658" y2="1105.4658"/><line style="stroke: #A80036; stroke-width: 1.0;" x1="722.5" x2="732.5" y1="1105.4658" y2="1105.4658"/><polygon fill="#FBFB77" filter="url(#f1gpi3arxd0qck)" points="8,73.0474,8,97.0474,289,97.0474,289,83.0474,279,73.0474,8,73.0474" style="stroke: #A80036; stroke-width: 1.0;"/><line style="stroke: #A80036; stroke-width: 1.0;" x1="279" x2="279" y1="73.0474" y2="83.0474"/><line style="stroke: #A80036; stroke-width: 1.0;" x1="289" x2="279" y1="83.0474" y2="83.0474"/><text fill="#000000" font-family="Arial" font-size="13" lengthAdjust="spacingAndGlyphs" textLength="260" x="14" y="90.4539">Softdevice and core mesh modules initialized</text><rect fill="none" height="1036.3672" style="stroke: #000000; stroke-width: 2.0;" width="804" x="101" y="113.9961"/><polygon fill="#EEEEEE" points="101,113.9961,174,113.9961,174,119.9961,164,129.9961,101,129.9961,101,113.9961" style="stroke: #000000; stroke-width: 2.0;"/><text fill="#000000" font-family="Arial" font-size="13" font-weight="bold" lengthAdjust="spacingAndGlyphs" textLength="28" x="116" y="127.4026">loop</text><text fill="#000000" font-family="Arial" font-size="11" font-weight="bold" lengthAdjust="spacingAndGlyphs" textLength="171" x="189" y="126.4939">[While provisioned devices &lt; 3]</text><rect fill="none" height="347.085" style="stroke: #000000; stroke-width: 2.0;" width="784" x="111" y="137.9448"/><polygon fill="#EEEEEE" points="111,137.9448,235,137.9448,235,143.9448,225,153.9448,111,153.9448,111,137.9448" style="stroke: #000000; stroke-width: 2.0;"/><text fill="#000000" font-family="Arial" font-size="13" font-weight="bold" lengthAdjust="spacingAndGlyphs" textLength="79" x="126" y="151.3513">Provisioning</text><polygon fill="#A80036" points="362.5,170.8936,372.5,174.8936,362.5,178.8936,366.5,174.8936" style="stroke: #A80036; stroke-width: 1.0;"/><line style="stroke: #A80036; stroke-width: 1.0;" x1="150.5" x2="368.5" y1="174.8936" y2="174.8936"/><text fill="#000000" font-family="Arial" font-size="13" lengthAdjust="spacingAndGlyphs" textLength="164" x="157.5" y="171.3">provisioner_wait_for_unprov()</text><polygon fill="#A80036" points="385.5,199.8423,375.5,203.8423,385.5,207.8423,381.5,203.8423" style="stroke: #A80036; stroke-width: 1.0;"/><line style="stroke: #A80036; stroke-width: 1.0;" x1="379.5" x2="867" y1="203.8423" y2="203.8423"/><text fill="#000000" font-family="Arial" font-size="13" lengthAdjust="spacingAndGlyphs" textLength="227" x="391.5" y="200.2488">NRF_MESH_EVT_UNPROV_BEACON</text><polygon fill="#A80036" points="856,228.791,866,232.791,856,236.791,860,232.791" style="stroke: #A80036; stroke-width: 1.0;"/><line style="stroke: #A80036; stroke-width: 1.0;" x1="374.5" x2="862" y1="232.791" y2="232.791"/><text fill="#000000" font-family="Arial" font-size="13" lengthAdjust="spacingAndGlyphs" textLength="127" x="381.5" y="229.1975">nrf_mesh_prov_init(...)</text><polygon fill="#A80036" points="856,257.7397,866,261.7397,856,265.7397,860,261.7397" style="stroke: #A80036; stroke-width: 1.0;"/><line style="stroke: #A80036; stroke-width: 1.0;" x1="374.5" x2="862" y1="261.7397" y2="261.7397"/><text fill="#000000" font-family="Arial" font-size="13" lengthAdjust="spacingAndGlyphs" textLength="198" x="381.5" y="258.1462">nrf_mesh_prov_provision(UUID, ...)</text><text fill="#000000" font-family="Arial" font-size="11" lengthAdjust="spacingAndGlyphs" textLength="103" x="457.75" y="295.1863">Device is provisioned</text><polygon fill="#A80036" points="385.5,327.3374,375.5,331.3374,385.5,335.3374,381.5,331.3374" style="stroke: #A80036; stroke-width: 1.0;"/><line style="stroke: #A80036; stroke-width: 1.0;" x1="379.5" x2="867" y1="331.3374" y2="331.3374"/><text fill="#000000" font-family="Arial" font-size="13" lengthAdjust="spacingAndGlyphs" textLength="225" x="391.5" y="327.7439">NRF_MESH_EVT_PROV_COMPLETE</text><polygon fill="#A80036" points="161.5,356.2861,151.5,360.2861,161.5,364.2861,157.5,360.2861" style="stroke: #A80036; stroke-width: 1.0;"/><line style="stroke: #A80036; stroke-width: 1.0;" x1="155.5" x2="373.5" y1="360.2861" y2="360.2861"/><text fill="#000000" font-family="Arial" font-size="13" lengthAdjust="spacingAndGlyphs" textLength="180" x="167.5" y="356.6926">provisioner_prov_complete_cb()</text><polygon fill="#A80036" points="856,385.2349,866,389.2349,856,393.2349,860,389.2349" style="stroke: #A80036; stroke-width: 1.0;"/><line style="stroke: #A80036; stroke-width: 1.0;" x1="150.5" x2="862" y1="389.2349" y2="389.2349"/><text fill="#000000" font-family="Arial" font-size="13" lengthAdjust="spacingAndGlyphs" textLength="174" x="157.5" y="385.6414">dsm_address_publish_add(...)</text><polygon fill="#A80036" points="856,414.1836,866,418.1836,856,422.1836,860,418.1836" style="stroke: #A80036; stroke-width: 1.0;"/><line style="stroke: #A80036; stroke-width: 1.0;" x1="150.5" x2="862" y1="418.1836" y2="418.1836"/><text fill="#000000" font-family="Arial" font-size="13" lengthAdjust="spacingAndGlyphs" textLength="120" x="157.5" y="414.5901">dsm_devkey_add(...)</text><polygon fill="#A80036" points="715.5,443.1323,725.5,447.1323,715.5,451.1323,719.5,447.1323" style="stroke: #A80036; stroke-width: 1.0;"/><line style="stroke: #A80036; stroke-width: 1.0;" x1="150.5" x2="721.5" y1="447.1323" y2="447.1323"/><text fill="#000000" font-family="Arial" font-size="13" lengthAdjust="spacingAndGlyphs" textLength="164" x="157.5" y="443.5388">config_client_server_bind(...)</text><polygon fill="#A80036" points="715.5,472.0811,725.5,476.0811,715.5,480.0811,719.5,476.0811" style="stroke: #A80036; stroke-width: 1.0;"/><line style="stroke: #A80036; stroke-width: 1.0;" x1="150.5" x2="721.5" y1="476.0811" y2="476.0811"/><text fill="#000000" font-family="Arial" font-size="13" lengthAdjust="spacingAndGlyphs" textLength="158" x="157.5" y="472.4875">config_client_server_set(...)</text><rect fill="none" height="644.3335" style="stroke: #000000; stroke-width: 2.0;" width="784" x="111" y="499.0298"/><polygon fill="#EEEEEE" points="111,499.0298,242,499.0298,242,505.0298,232,515.0298,111,515.0298,111,499.0298" style="stroke: #000000; stroke-width: 2.0;"/><text fill="#000000" font-family="Arial" font-size="13" font-weight="bold" lengthAdjust="spacingAndGlyphs" textLength="86" x="126" y="512.4363">Configuration</text><polygon fill="#A80036" points="362.5,531.9785,372.5,535.9785,362.5,539.9785,366.5,535.9785" style="stroke: #A80036; stroke-width: 1.0;"/><line style="stroke: #A80036; stroke-width: 1.0;" x1="150.5" x2="368.5" y1="535.9785" y2="535.9785"/><text fill="#000000" font-family="Arial" font-size="13" lengthAdjust="spacingAndGlyphs" textLength="128" x="157.5" y="532.385">provisioner_configure()</text><polygon fill="#A80036" points="710.5,560.9272,720.5,564.9272,710.5,568.9272,714.5,564.9272" style="stroke: #A80036; stroke-width: 1.0;"/><line style="stroke: #A80036; stroke-width: 1.0;" x1="374.5" x2="716.5" y1="564.9272" y2="564.9272"/><text fill="#000000" font-family="Arial" font-size="13" lengthAdjust="spacingAndGlyphs" textLength="214" x="381.5" y="561.3337">config_client_composition_data_get()</text><polygon fill="#A80036" points="856,575.876,866,579.876,856,583.876,860,579.876" style="stroke: #A80036; stroke-width: 1.0;"/><line style="stroke: #A80036; stroke-width: 1.0;" x1="732.5" x2="862" y1="579.876" y2="579.876"/><polygon fill="#A80036" points="743.5,617.876,733.5,621.876,743.5,625.876,739.5,621.876" style="stroke: #A80036; stroke-width: 1.0;"/><line style="stroke: #A80036; stroke-width: 1.0;" x1="737.5" x2="867" y1="621.876" y2="621.876"/><polygon fill="#A80036" points="385.5,645.876,375.5,649.876,385.5,653.876,381.5,649.876" style="stroke: #A80036; stroke-width: 1.0;"/><line style="stroke: #A80036; stroke-width: 1.0;" x1="379.5" x2="726.5" y1="649.876" y2="649.876"/><text fill="#000000" font-family="Arial" font-size="13" lengthAdjust="spacingAndGlyphs" textLength="250" x="391.5" y="646.2825">CONFIG_OPCODE_COMPOSITION_DATA</text><polygon fill="#A80036" points="710.5,674.8247,720.5,678.8247,710.5,682.8247,714.5,678.8247" style="stroke: #A80036; stroke-width: 1.0;"/><line style="stroke: #A80036; stroke-width: 1.0;" x1="374.5" x2="716.5" y1="678.8247" y2="678.8247"/><text fill="#000000" font-family="Arial" font-size="13" lengthAdjust="spacingAndGlyphs" textLength="157" x="381.5" y="675.2312">config_client_appkey_add()</text><polygon fill="#A80036" points="856,689.7734,866,693.7734,856,697.7734,860,693.7734" style="stroke: #A80036; stroke-width: 1.0;"/><line style="stroke: #A80036; stroke-width: 1.0;" x1="732.5" x2="862" y1="693.7734" y2="693.7734"/><polygon fill="#A80036" points="743.5,731.7734,733.5,735.7734,743.5,739.7734,739.5,735.7734" style="stroke: #A80036; stroke-width: 1.0;"/><line style="stroke: #A80036; stroke-width: 1.0;" x1="737.5" x2="867" y1="735.7734" y2="735.7734"/><polygon fill="#A80036" points="385.5,759.7734,375.5,763.7734,385.5,767.7734,381.5,763.7734" style="stroke: #A80036; stroke-width: 1.0;"/><line style="stroke: #A80036; stroke-width: 1.0;" x1="379.5" x2="726.5" y1="763.7734" y2="763.7734"/><text fill="#000000" font-family="Arial" font-size="13" lengthAdjust="spacingAndGlyphs" textLength="230" x="391.5" y="760.1799">CONFIG_OPCODE_APPKEY_STATUS</text><polygon fill="#A80036" points="710.5,788.7222,720.5,792.7222,710.5,796.7222,714.5,792.7222" style="stroke: #A80036; stroke-width: 1.0;"/><line style="stroke: #A80036; stroke-width: 1.0;" x1="374.5" x2="716.5" y1="792.7222" y2="792.7222"/><text fill="#000000" font-family="Arial" font-size="13" lengthAdjust="spacingAndGlyphs" textLength="209" x="381.5" y="789.1287">config_client_model_app_app_bind()</text><polygon fill="#A80036" points="856,803.6709,866,807.6709,856,811.6709,860,807.6709" style="stroke: #A80036; stroke-width: 1.0;"/><line style="stroke: #A80036; stroke-width: 1.0;" x1="732.5" x2="862" y1="807.6709" y2="807.6709"/><polygon fill="#A80036" points="743.5,845.6709,733.5,849.6709,743.5,853.6709,739.5,849.6709" style="stroke: #A80036; stroke-width: 1.0;"/><line style="stroke: #A80036; stroke-width: 1.0;" x1="737.5" x2="867" y1="849.6709" y2="849.6709"/><polygon fill="#A80036" points="385.5,873.6709,375.5,877.6709,385.5,881.6709,381.5,877.6709" style="stroke: #A80036; stroke-width: 1.0;"/><line style="stroke: #A80036; stroke-width: 1.0;" x1="379.5" x2="726.5" y1="877.6709" y2="877.6709"/><text fill="#000000" font-family="Arial" font-size="13" lengthAdjust="spacingAndGlyphs" textLength="256" x="391.5" y="874.0774">CONFIG_OPCODE_MODEL_APP_STATUS</text><polygon fill="#A80036" points="710.5,902.6196,720.5,906.6196,710.5,910.6196,714.5,906.6196" style="stroke: #A80036; stroke-width: 1.0;"/><line style="stroke: #A80036; stroke-width: 1.0;" x1="374.5" x2="716.5" y1="906.6196" y2="906.6196"/><text fill="#000000" font-family="Arial" font-size="13" lengthAdjust="spacingAndGlyphs" textLength="216" x="381.5" y="903.0261">config_client_model_publication_set()</text><polygon fill="#A80036" points="856,917.5684,866,921.5684,856,925.5684,860,921.5684" style="stroke: #A80036; stroke-width: 1.0;"/><line style="stroke: #A80036; stroke-width: 1.0;" x1="732.5" x2="862" y1="921.5684" y2="921.5684"/><polygon fill="#A80036" points="743.5,959.5684,733.5,963.5684,743.5,967.5684,739.5,963.5684" style="stroke: #A80036; stroke-width: 1.0;"/><line style="stroke: #A80036; stroke-width: 1.0;" x1="737.5" x2="867" y1="963.5684" y2="963.5684"/><polygon fill="#A80036" points="385.5,987.5684,375.5,991.5684,385.5,995.5684,381.5,991.5684" style="stroke: #A80036; stroke-width: 1.0;"/><line style="stroke: #A80036; stroke-width: 1.0;" x1="379.5" x2="726.5" y1="991.5684" y2="991.5684"/><text fill="#000000" font-family="Arial" font-size="13" lengthAdjust="spacingAndGlyphs" textLength="313" x="391.5" y="987.9749">CONFIG_OPCODE_MODEL_PUBLICATION_STATUS</text><polygon fill="#A80036" points="710.5,1016.5171,720.5,1020.5171,710.5,1024.5171,714.5,1020.5171" style="stroke: #A80036; stroke-width: 1.0;"/><line style="stroke: #A80036; stroke-width: 1.0;" x1="374.5" x2="716.5" y1="1020.5171" y2="1020.5171"/><text fill="#000000" font-family="Arial" font-size="13" lengthAdjust="spacingAndGlyphs" textLength="227" x="381.5" y="1016.9236">config_client_model_subscription_add()</text><polygon fill="#A80036" points="856,1031.4658,866,1035.4658,856,1039.4658,860,1035.4658" style="stroke: #A80036; stroke-width: 1.0;"/><line style="stroke: #A80036; stroke-width: 1.0;" x1="732.5" x2="862" y1="1035.4658" y2="1035.4658"/><polygon fill="#A80036" points="743.5,1073.4658,733.5,1077.4658,743.5,1081.4658,739.5,1077.4658" style="stroke: #A80036; stroke-width: 1.0;"/><line style="stroke: #A80036; stroke-width: 1.0;" x1="737.5" x2="867" y1="1077.4658" y2="1077.4658"/><polygon fill="#A80036" points="385.5,1101.4658,375.5,1105.4658,385.5,1109.4658,381.5,1105.4658" style="stroke: #A80036; stroke-width: 1.0;"/><line style="stroke: #A80036; stroke-width: 1.0;" x1="379.5" x2="726.5" y1="1105.4658" y2="1105.4658"/><text fill="#000000" font-family="Arial" font-size="13" lengthAdjust="spacingAndGlyphs" textLength="324" x="391.5" y="1101.8723">CONFIG_OPCODE_MODEL_SUBSCRIPTION_STATUS</text><polygon fill="#A80036" points="161.5,1130.4146,151.5,1134.4146,161.5,1138.4146,157.5,1134.4146" style="stroke: #A80036; stroke-width: 1.0;"/><line style="stroke: #A80036; stroke-width: 1.0;" x1="155.5" x2="373.5" y1="1134.4146" y2="1134.4146"/><text fill="#000000" font-family="Arial" font-size="13" lengthAdjust="spacingAndGlyphs" textLength="200" x="167.5" y="1130.821">provisioner_config_successful_cb()</text><!--
@startuml
skinparam defaultFontName Arial
box "Application" #FFFFFF
participant a as "main.c"
participant p as "provisioner.c"
end box

participant c as "Configuration client"

box "Mesh core modules"
participant core as "    "
end box

note over a: Softdevice and core mesh modules initialized
loop While provisioned devices < 3
group Provisioning
      a -> p: provisioner_wait_for_unprov()
      core -> p: NRF_MESH_EVT_UNPROV_BEACON
      p -> core: nrf_mesh_prov_init(...)
      p -> core: nrf_mesh_prov_provision(UUID, ...)

      ... Device is provisioned ...

      core -> p: NRF_MESH_EVT_PROV_COMPLETE
      p -> a: provisioner_prov_complete_cb()
      a -> core: dsm_address_publish_add(...)
      a -> core: dsm_devkey_add(...)
      a -> c: config_client_server_bind(...)
      a -> c: config_client_server_set(...)
end
group Configuration
      a -> p: provisioner_configure()
      p -> c: config_client_composition_data_get()
      activate c
      c -> core
      ...
      core -> c
      c -> p: CONFIG_OPCODE_COMPOSITION_DATA
      deactivate c

      p -> c: config_client_appkey_add()
      activate c
      c -> core
      ...
      core -> c
      c -> p: CONFIG_OPCODE_APPKEY_STATUS
      deactivate c

      p -> c: config_client_model_app_app_bind()
      activate c
      c -> core
      ...
      core -> c
      c -> p: CONFIG_OPCODE_MODEL_APP_STATUS
      deactivate c

      p -> c: config_client_model_publication_set()
      activate c
      c -> core
      ...
      core -> c
      c -> p: CONFIG_OPCODE_MODEL_PUBLICATION_STATUS
      deactivate c

      p -> c: config_client_model_subscription_add()
      activate c
      c -> core
      ...
      core -> c
      c -> p: CONFIG_OPCODE_MODEL_SUBSCRIPTION_STATUS
      deactivate c
      p -> a: provisioner_config_successful_cb()
end
end
@enduml

PlantUML version 1.2017.16(Sun Sep 03 12:53:37 CEST 2017)
(GPL source distribution)
Java Runtime: Java(TM) SE Runtime Environment
JVM: Java HotSpot(TM) Client VM
Java Version: 1.8.0_144-b01
Operating System: Windows 10
OS Version: 10.0
Default Encoding: Cp1252
Language: en
Country: GB
--></g></svg>