<?xml version="1.0" encoding="UTF-8" standalone="no"?>
<!DOCTYPE svg PUBLIC "-//W3C//DTD SVG 1.1//EN"
 "http://www.w3.org/Graphics/SVG/1.1/DTD/svg11.dtd">
<!-- Generated by graphviz version 2.38.0 (20140413.2041)
 -->
<!-- Title: pbr_tunnel Pages: 1 -->
<svg width="488pt" height="46pt"
 viewBox="0.00 0.00 488.49 46.00" xmlns="http://www.w3.org/2000/svg" xmlns:xlink="http://www.w3.org/1999/xlink">
<g id="graph0" class="graph" transform="scale(1 1) rotate(0) translate(4 42)">
<title>pbr_tunnel</title>
<polygon fill="white" stroke="none" points="-4,4 -4,-42 484.489,-42 484.489,4 -4,4"/>
<!-- PROVISIONER -->
<g id="node1" class="node"><title>PROVISIONER</title>
<polygon fill="none" stroke="black" points="88,-38 7.10543e-15,-38 7.10543e-15,-0 88,-0 88,-38"/>
<text text-anchor="middle" x="44" y="-22.8" font-family="Times,serif" font-size="14.00">PBR Client</text>
<text text-anchor="middle" x="44" y="-7.8" font-family="Times,serif" font-size="14.00">(Provisioner)</text>
</g>
<!-- NETWORK -->
<g id="node4" class="node"><title>NETWORK</title>
<ellipse fill="#e0eeee" stroke="black" cx="185.745" cy="-19" rx="61.99" ry="18"/>
<text text-anchor="middle" x="185.745" y="-15.3" font-family="Times,serif" font-size="14.00">Mesh network</text>
</g>
<!-- PROVISIONER&#45;&gt;NETWORK -->
<g id="edge1" class="edge"><title>PROVISIONER&#45;&gt;NETWORK</title>
<path fill="none" stroke="black" d="M88.0682,-19C96.1956,-19 104.893,-19 113.617,-19"/>
<polygon fill="black" stroke="black" points="113.837,-22.5001 123.837,-19 113.837,-15.5001 113.837,-22.5001"/>
</g>
<!-- RELAY -->
<g id="node2" class="node"><title>RELAY</title>
<polygon fill="none" stroke="black" points="364.489,-37 283.489,-37 283.489,-1 364.489,-1 364.489,-37"/>
<text text-anchor="middle" x="323.989" y="-15.3" font-family="Times,serif" font-size="14.00">PBR Server</text>
</g>
<!-- PROVISIONEE -->
<g id="node3" class="node"><title>PROVISIONEE</title>
<polygon fill="darkseagreen" stroke="black" points="480.489,-37 400.489,-37 400.489,-1 480.489,-1 480.489,-37"/>
<text text-anchor="middle" x="440.489" y="-15.3" font-family="Times,serif" font-size="14.00">Provisionee</text>
</g>
<!-- RELAY&#45;&gt;PROVISIONEE -->
<g id="edge3" class="edge"><title>RELAY&#45;&gt;PROVISIONEE</title>
<path fill="none" stroke="black" d="M364.714,-19C372.888,-19 381.589,-19 390.058,-19"/>
<polygon fill="black" stroke="black" points="390.221,-22.5001 400.221,-19 390.221,-15.5001 390.221,-22.5001"/>
</g>
<!-- NETWORK&#45;&gt;RELAY -->
<g id="edge2" class="edge"><title>NETWORK&#45;&gt;RELAY</title>
<path fill="none" stroke="black" d="M247.694,-19C256.163,-19 264.781,-19 273.018,-19"/>
<polygon fill="black" stroke="black" points="273.207,-22.5001 283.207,-19 273.207,-15.5001 273.207,-22.5001"/>
</g>
</g>
</svg>
