<?xml version="1.0" encoding="UTF-8" standalone="no"?>
<!DOCTYPE svg PUBLIC "-//W3C//DTD SVG 1.1//EN"
 "http://www.w3.org/Graphics/SVG/1.1/DTD/svg11.dtd">
<!-- Generated by graphviz version 2.38.0 (20140413.2041)
 -->
<!-- Title: provisioner_application Pages: 1 -->
<svg width="554pt" height="662pt"
 viewBox="0.00 0.00 553.50 661.77" xmlns="http://www.w3.org/2000/svg" xmlns:xlink="http://www.w3.org/1999/xlink">
<g id="graph0" class="graph" transform="scale(1 1) rotate(0) translate(4 657.774)">
<title>provisioner_application</title>
<polygon fill="white" stroke="none" points="-4,4 -4,-657.774 549.5,-657.774 549.5,4 -4,4"/>
<!-- ENTRY -->
<g id="node1" class="node"><title>ENTRY</title>
<ellipse fill="black" stroke="black" cx="285.5" cy="-635.774" rx="18" ry="18"/>
</g>
<!-- INITIALIZE -->
<g id="node2" class="node"><title>INITIALIZE</title>
<polygon fill="none" stroke="black" points="352.5,-580.774 218.5,-580.774 218.5,-544.774 352.5,-544.774 352.5,-580.774"/>
<text text-anchor="middle" x="285.5" y="-559.074" font-family="Times,serif" font-size="14.00">nrf_mesh_prov_init()</text>
<text text-anchor="middle" x="136.5" y="-584.574" font-family="Times,serif" font-size="14.00">Initialize provisioning context</text>
</g>
<!-- ENTRY&#45;&gt;INITIALIZE -->
<g id="edge1" class="edge"><title>ENTRY&#45;&gt;INITIALIZE</title>
<path fill="none" stroke="black" d="M285.5,-617.587C285.5,-609.564 285.5,-599.822 285.5,-590.843"/>
<polygon fill="black" stroke="black" points="289,-590.803 285.5,-580.803 282,-590.803 289,-590.803"/>
</g>
<!-- WAIT_FOR_EVENTS -->
<g id="node8" class="node"><title>WAIT_FOR_EVENTS</title>
<ellipse fill="#a4d3ee" stroke="black" cx="285.5" cy="-452.831" rx="54.8872" ry="54.8872"/>
<text text-anchor="start" x="240" y="-450.131" font-family="Times,serif" font-weight="bold" font-size="14.00">Wait for events</text>
<text text-anchor="middle" x="143.056" y="-511.574" font-family="Times,serif" font-size="14.00">Wait for unprovisioned beacons</text>
</g>
<!-- INITIALIZE&#45;&gt;WAIT_FOR_EVENTS -->
<g id="edge2" class="edge"><title>INITIALIZE&#45;&gt;WAIT_FOR_EVENTS</title>
<path fill="none" stroke="black" d="M285.5,-544.431C285.5,-537 285.5,-527.816 285.5,-518.172"/>
<polygon fill="black" stroke="black" points="289,-518.01 285.5,-508.01 282,-518.01 289,-518.01"/>
</g>
<!-- PROVISION -->
<g id="node3" class="node"><title>PROVISION</title>
<polygon fill="none" stroke="black" points="369,-346.887 202,-346.887 202,-310.887 369,-310.887 369,-346.887"/>
<text text-anchor="middle" x="285.5" y="-325.187" font-family="Times,serif" font-size="14.00">nrf_mesh_prov_provision()</text>
<text text-anchor="middle" x="153" y="-350.687" font-family="Times,serif" font-size="14.00">Start provisioning</text>
</g>
<!-- WAIT_FOR_PROV_EVENTS -->
<g id="node9" class="node"><title>WAIT_FOR_PROV_EVENTS</title>
<ellipse fill="#a4d3ee" stroke="black" cx="285.5" cy="-218.944" rx="54.8872" ry="54.8872"/>
<text text-anchor="start" x="240" y="-216.244" font-family="Times,serif" font-weight="bold" font-size="14.00">Wait for events</text>
<text text-anchor="middle" x="152.056" y="-277.687" font-family="Times,serif" font-size="14.00">Wait for provisioning events</text>
</g>
<!-- PROVISION&#45;&gt;WAIT_FOR_PROV_EVENTS -->
<g id="edge4" class="edge"><title>PROVISION&#45;&gt;WAIT_FOR_PROV_EVENTS</title>
<path fill="none" stroke="black" d="M285.5,-310.544C285.5,-303.113 285.5,-293.928 285.5,-284.285"/>
<polygon fill="black" stroke="black" points="289,-284.123 285.5,-274.123 282,-284.123 289,-284.123"/>
</g>
<!-- CAPS_SELECT -->
<g id="node4" class="node"><title>CAPS_SELECT</title>
<polygon fill="none" stroke="black" points="173,-112 0,-112 0,-76 173,-76 173,-112"/>
<text text-anchor="start" x="8" y="-97.8" font-family="Times,serif" font-style="italic" font-size="14.00">Choose OOB method to use:</text>
<text text-anchor="start" x="14" y="-83.8" font-family="Times,serif" font-size="14.00">nrf_mesh_prov_oob_use()</text>
</g>
<!-- CAPS_SELECT&#45;&gt;WAIT_FOR_PROV_EVENTS -->
<g id="edge7" class="edge"><title>CAPS_SELECT&#45;&gt;WAIT_FOR_PROV_EVENTS</title>
<path fill="none" stroke="black" d="M114.229,-112.131C144.131,-130.605 192.514,-160.496 230.241,-183.804"/>
<polygon fill="black" stroke="black" points="228.748,-186.996 239.094,-189.274 232.427,-181.04 228.748,-186.996"/>
</g>
<!-- STATIC_AUTH -->
<g id="node5" class="node"><title>STATIC_AUTH</title>
<polygon fill="none" stroke="black" points="379,-112 192,-112 192,-76 379,-76 379,-112"/>
<text text-anchor="start" x="218" y="-97.8" font-family="Times,serif" font-style="italic" font-size="14.00">Provide OOB auth data:</text>
<text text-anchor="start" x="200" y="-83.8" font-family="Times,serif" font-size="14.00">nrf_mesh_prov_auth_provide()</text>
</g>
<!-- STATIC_AUTH&#45;&gt;WAIT_FOR_PROV_EVENTS -->
<g id="edge9" class="edge"><title>STATIC_AUTH&#45;&gt;WAIT_FOR_PROV_EVENTS</title>
<path fill="none" stroke="black" d="M285.5,-112.01C285.5,-123.04 285.5,-138.178 285.5,-153.559"/>
<polygon fill="black" stroke="black" points="282,-153.661 285.5,-163.661 289,-153.661 282,-153.661"/>
</g>
<!-- SETUP_NETWORK -->
<g id="node6" class="node"><title>SETUP_NETWORK</title>
<polygon fill="none" stroke="black" points="545.5,-113 397.5,-113 397.5,-75 545.5,-75 545.5,-113"/>
<text text-anchor="middle" x="471.5" y="-97.8" font-family="Times,serif" font-size="14.00">Configure device using</text>
<text text-anchor="middle" x="471.5" y="-82.8" font-family="Times,serif" font-size="14.00">the configuration model</text>
</g>
<!-- COMPLETE -->
<g id="node7" class="node"><title>COMPLETE</title>
<path fill="none" stroke="black" d="M502.5,-38C502.5,-38 440.5,-38 440.5,-38 434.5,-38 428.5,-32 428.5,-26 428.5,-26 428.5,-12 428.5,-12 428.5,-6 434.5,-0 440.5,-0 440.5,-0 502.5,-0 502.5,-0 508.5,-0 514.5,-6 514.5,-12 514.5,-12 514.5,-26 514.5,-26 514.5,-32 508.5,-38 502.5,-38"/>
<text text-anchor="middle" x="471.5" y="-22.8" font-family="Times,serif" font-size="14.00">Provisioning</text>
<text text-anchor="middle" x="471.5" y="-7.8" font-family="Times,serif" font-size="14.00">complete</text>
</g>
<!-- SETUP_NETWORK&#45;&gt;COMPLETE -->
<g id="edge11" class="edge"><title>SETUP_NETWORK&#45;&gt;COMPLETE</title>
<path fill="none" stroke="black" d="M471.5,-74.9551C471.5,-66.8828 471.5,-57.1764 471.5,-48.1817"/>
<polygon fill="black" stroke="black" points="475,-48.0903 471.5,-38.0904 468,-48.0904 475,-48.0903"/>
</g>
<!-- WAIT_FOR_EVENTS&#45;&gt;PROVISION -->
<g id="edge3" class="edge"><title>WAIT_FOR_EVENTS&#45;&gt;PROVISION</title>
<path fill="none" stroke="midnightblue" d="M285.5,-397.634C285.5,-383.608 285.5,-369.098 285.5,-357.122"/>
<polygon fill="midnightblue" stroke="midnightblue" points="289,-356.923 285.5,-346.923 282,-356.923 289,-356.923"/>
<text text-anchor="middle" x="377.5" y="-368.687" font-family="Times,serif" font-size="14.00">UNPROVISIONED_RECEIVED</text>
</g>
<!-- WAIT_FOR_PROV_EVENTS&#45;&gt;CAPS_SELECT -->
<g id="edge6" class="edge"><title>WAIT_FOR_PROV_EVENTS&#45;&gt;CAPS_SELECT</title>
<path fill="none" stroke="midnightblue" d="M239.094,-189.274C203.716,-167.417 155.673,-137.736 123.011,-117.557"/>
<polygon fill="midnightblue" stroke="midnightblue" points="124.576,-114.41 114.229,-112.131 120.897,-120.365 124.576,-114.41"/>
<text text-anchor="middle" x="163" y="-134.8" font-family="Times,serif" font-size="14.00">PROV_CAPS_RECEIVED</text>
</g>
<!-- WAIT_FOR_PROV_EVENTS&#45;&gt;STATIC_AUTH -->
<g id="edge8" class="edge"><title>WAIT_FOR_PROV_EVENTS&#45;&gt;STATIC_AUTH</title>
<path fill="none" stroke="midnightblue" d="M285.5,-163.661C285.5,-149.378 285.5,-134.571 285.5,-122.38"/>
<polygon fill="midnightblue" stroke="midnightblue" points="289,-122.01 285.5,-112.01 282,-122.01 289,-122.01"/>
<text text-anchor="middle" x="343" y="-134.8" font-family="Times,serif" font-size="14.00">STATIC_REQUEST</text>
</g>
<!-- WAIT_FOR_PROV_EVENTS&#45;&gt;SETUP_NETWORK -->
<g id="edge10" class="edge"><title>WAIT_FOR_PROV_EVENTS&#45;&gt;SETUP_NETWORK</title>
<path fill="none" stroke="midnightblue" d="M331.001,-187.868C363.205,-166.581 405.798,-138.428 435.612,-118.722"/>
<polygon fill="midnightblue" stroke="midnightblue" points="437.633,-121.581 444.045,-113.147 433.773,-115.742 437.633,-121.581"/>
<text text-anchor="middle" x="468" y="-134.8" font-family="Times,serif" font-size="14.00">COMPLETE</text>
</g>
<!-- WAIT_FOR_PROV_EVENTS&#45;&gt;WAIT_FOR_PROV_EVENTS -->
<g id="edge5" class="edge"><title>WAIT_FOR_PROV_EVENTS&#45;&gt;WAIT_FOR_PROV_EVENTS</title>
<path fill="none" stroke="midnightblue" d="M338.934,-232.008C350.263,-230.681 358.444,-226.326 358.444,-218.944 358.444,-213.983 354.751,-210.39 348.891,-208.163"/>
<polygon fill="midnightblue" stroke="midnightblue" points="349.464,-204.704 338.934,-205.879 347.899,-211.527 349.464,-204.704"/>
<text text-anchor="middle" x="423.444" y="-215.244" font-family="Times,serif" font-size="14.00">LINK_ESTABLISHED</text>
</g>
</g>
</svg>
