<!DOCTYPE svg PUBLIC "-//W3C//DTD SVG 1.1//EN"
 "http://www.w3.org/Graphics/SVG/1.1/DTD/svg11.dtd">
<svg version="1.1"
 width="1200px" height="779px"
 viewBox="0 0 1200 779"
 xmlns="http://www.w3.org/2000/svg" shape-rendering="crispEdges"
 stroke-width="1" text-rendering="geometricPrecision">
<polygon fill="white" points="118,7 180,7 180,16 118,16"/>
<text x="150" y="16" textLength="60" font-family="Helvetica" font-size="12" fill="black" text-anchor="middle">

Provisioner
</text>
<polygon fill="white" points="416,7 482,7 482,16 416,16"/>
<text x="450" y="16" textLength="65" font-family="Helvetica" font-size="12" fill="black" text-anchor="middle">

Provisioning
</text>
<polygon fill="white" points="704,7 794,7 794,16 704,16"/>
<text x="750" y="16" textLength="88" font-family="Helvetica" font-size="12" fill="black" text-anchor="middle">

Prov Bearer Adv
</text>
<polygon fill="white" points="1018,7 1080,7 1080,16 1018,16"/>
<text x="1050" y="16" textLength="60" font-family="Helvetica" font-size="12" fill="black" text-anchor="middle">

Bearer Adv
</text>
<line x1="150" y1="22" x2="150" y2="50" stroke="black"/>
<line x1="450" y1="22" x2="450" y2="50" stroke="black"/>
<line x1="750" y1="22" x2="750" y2="50" stroke="black"/>
<line x1="1050" y1="22" x2="1050" y2="50" stroke="black"/>
<polygon fill="white" points="608,22 880,22 880,44 608,44"/>
<polygon fill="white" points="608,34 892,34 892,44 608,44"/>
<polygon fill="white" points="880,22 892,34 880,34"/>
<line x1="608" y1="22" x2="880" y2="22" stroke="black"/>
<line x1="608" y1="44" x2="892" y2="44" stroke="black"/>
<line x1="608" y1="22" x2="608" y2="44" stroke="black"/>
<line x1="892" y1="34" x2="892" y2="44" stroke="black"/>
<line x1="880" y1="22" x2="892" y2="34" stroke="black"/>
<line x1="880" y1="22" x2="880" y2="34" stroke="black"/>
<line x1="892" y1="34" x2="880" y2="34" stroke="black"/>
<polygon fill="white" points="674,29 824,29 824,38 674,38"/>
<text x="675" y="38" textLength="148" font-family="Helvetica" font-size="12" fill="black">
BUFFER STATE=UNUSED
</text>
<line x1="150" y1="50" x2="150" y2="78" stroke="black"/>
<line x1="450" y1="50" x2="450" y2="78" stroke="black"/>
<line x1="750" y1="50" x2="750" y2="78" stroke="black"/>
<line x1="1050" y1="50" x2="1050" y2="78" stroke="black"/>
<line x1="150" y1="61" x2="450" y2="61" stroke="black"/>
<polygon fill="black" points="450,61 440,67 440,55"/>
<polygon fill="white" points="234,51 365,51 365,60 234,60"/>
<text x="235" y="60" textLength="129" font-family="Helvetica" font-size="12" fill="black">
prov_tx_public_key(key)
</text>
<line x1="450" y1="61" x2="750" y2="61" stroke="black"/>
<polygon fill="black" points="750,61 740,67 740,55"/>
<polygon fill="white" points="520,51 679,51 679,60 520,60"/>
<text x="521" y="60" textLength="157" font-family="Helvetica" font-size="12" fill="black">
prov_bearer_adv_tx(payload)
</text>
<line x1="150" y1="78" x2="150" y2="106" stroke="black"/>
<line x1="450" y1="78" x2="450" y2="106" stroke="black"/>
<line x1="750" y1="78" x2="750" y2="106" stroke="black"/>
<line x1="1050" y1="78" x2="1050" y2="106" stroke="black"/>
<path d="M 750 83 A150,6 0 0,1 750,95" stroke="black" fill="none"/><polygon fill="black" points="750,95 760,101 760,89"/>
<polygon fill="white" points="574,79 748,79 748,88 574,88"/>
<text x="575" y="88" textLength="172" font-family="Helvetica" font-size="12" fill="black">
timer_sch_schedule(retry_timer)
</text>
<line x1="150" y1="106" x2="150" y2="134" stroke="black"/>
<line x1="450" y1="106" x2="450" y2="134" stroke="black"/>
<line x1="750" y1="106" x2="750" y2="134" stroke="black"/>
<line x1="1050" y1="106" x2="1050" y2="134" stroke="black"/>
<path d="M 750 111 A150,6 0 0,1 750,123" stroke="black" fill="none"/><line x1="750" y1="123" x2="760" y2="129" stroke="black"/>
<polygon fill="white" points="562,107 748,107 748,116 562,116"/>
<text x="563" y="116" textLength="184" font-family="Helvetica" font-size="12" fill="black">
STORE PAYLOAD AND PARAMS
</text>
<line x1="150" y1="134" x2="150" y2="162" stroke="black"/>
<line x1="450" y1="134" x2="450" y2="162" stroke="black"/>
<line x1="750" y1="134" x2="750" y2="162" stroke="black"/>
<line x1="1050" y1="134" x2="1050" y2="162" stroke="black"/>
<polygon fill="white" points="608,134 880,134 880,156 608,156"/>
<polygon fill="white" points="608,146 892,146 892,156 608,156"/>
<polygon fill="white" points="880,134 892,146 880,146"/>
<line x1="608" y1="134" x2="880" y2="134" stroke="black"/>
<line x1="608" y1="156" x2="892" y2="156" stroke="black"/>
<line x1="608" y1="134" x2="608" y2="156" stroke="black"/>
<line x1="892" y1="146" x2="892" y2="156" stroke="black"/>
<line x1="880" y1="134" x2="892" y2="146" stroke="black"/>
<line x1="880" y1="134" x2="880" y2="146" stroke="black"/>
<line x1="892" y1="146" x2="880" y2="146" stroke="black"/>
<polygon fill="white" points="692,141 806,141 806,150 692,150"/>
<text x="693" y="150" textLength="112" font-family="Helvetica" font-size="12" fill="black">
BUFFER STATE=TX
</text>
<line x1="150" y1="162" x2="150" y2="190" stroke="black"/>
<line x1="450" y1="162" x2="450" y2="190" stroke="black"/>
<line x1="750" y1="162" x2="750" y2="190" stroke="black"/>
<line x1="1050" y1="162" x2="1050" y2="190" stroke="black"/>
<path d="M 750 167 A150,6 0 0,1 750,179" stroke="black" fill="none"/><polygon fill="black" points="750,179 760,185 760,173"/>
<polygon fill="white" points="661,163 748,163 748,172 661,172"/>
<text x="662" y="172" textLength="85" font-family="Helvetica" font-size="12" fill="black">
prov_buffer_tx()
</text>
<line x1="150" y1="190" x2="150" y2="218" stroke="black"/>
<line x1="450" y1="190" x2="450" y2="218" stroke="black"/>
<line x1="750" y1="190" x2="750" y2="218" stroke="black"/>
<line x1="1050" y1="190" x2="1050" y2="218" stroke="black"/>
<line x1="750" y1="201" x2="1050" y2="201" stroke="black"/>
<polygon fill="black" points="1050,201 1040,207 1040,195"/>
<polygon fill="white" points="801,191 997,191 997,200 801,200"/>
<text x="802" y="200" textLength="194" font-family="Helvetica" font-size="12" fill="black">
bearer_adv_tx(START, &amp;payload[0])
</text>
<line x1="150" y1="218" x2="150" y2="246" stroke="black"/>
<line x1="450" y1="218" x2="450" y2="246" stroke="black"/>
<line x1="750" y1="218" x2="750" y2="246" stroke="black"/>
<line x1="1050" y1="218" x2="1050" y2="246" stroke="black"/>
<line x1="750" y1="229" x2="1050" y2="229" stroke="black"/>
<polygon fill="black" points="1050,229 1040,235 1040,223"/>
<polygon fill="white" points="801,219 998,219 998,228 801,228"/>
<text x="802" y="228" textLength="195" font-family="Helvetica" font-size="12" fill="black">
bearer_adv_tx(CONT, &amp;payload[20])
</text>
<line x1="150" y1="246" x2="150" y2="274" stroke="black"/>
<line x1="450" y1="246" x2="450" y2="274" stroke="black"/>
<line x1="750" y1="246" x2="750" y2="274" stroke="black"/>
<line x1="1050" y1="246" x2="1050" y2="274" stroke="black"/>
<polygon fill="white" points="914,246 1186,246 1186,268 914,268"/>
<polygon fill="white" points="908,252 1192,252 1192,262 908,262"/>
<circle fill="white" cx="914" cy="252" r="6"/>
<circle fill="white" cx="1186" cy="252" r="6"/>
<circle fill="white" cx="914" cy="262" r="6"/>
<circle fill="white" cx="1186" cy="262" r="6"/>
<line x1="914" y1="246" x2="1186" y2="246" stroke="black"/>
<line x1="914" y1="268" x2="1186" y2="268" stroke="black"/>
<line x1="908" y1="252" x2="908" y2="262" stroke="black"/>
<line x1="1192" y1="252" x2="1192" y2="262" stroke="black"/>
<path d="M 908 252 A6,6 0 0,1 914,246" stroke="black" fill="none"/><path d="M 1186 246 A6,6 0 0,1 1192,252" stroke="black" fill="none"/><path d="M 1192 262 A6,6 0 0,1 1186,268" stroke="black" fill="none"/><path d="M 914 268 A6,6 0 0,1 908,262" stroke="black" fill="none"/><polygon fill="white" points="1003,253 1096,253 1096,262 1003,262"/>
<text x="1004" y="262" textLength="91" font-family="Helvetica" font-size="12" fill="black">
Bearer queue full
</text>
<line x1="150" y1="274" x2="150" y2="302" stroke="black"/>
<line x1="450" y1="274" x2="450" y2="302" stroke="black"/>
<line x1="750" y1="274" x2="750" y2="302" stroke="black"/>
<line x1="1050" y1="274" x2="1050" y2="302" stroke="black"/>
<line x1="750" y1="285" x2="975" y2="285" stroke="black"/>
<line x1="971" y1="281" x2="979" y2="289" stroke="black"/>
<line x1="979" y1="281" x2="971" y2="289" stroke="black"/>
<polygon fill="white" points="801,275 998,275 998,284 801,284"/>
<text x="802" y="284" textLength="195" font-family="Helvetica" font-size="12" fill="black">
bearer_adv_tx(CONT, &amp;payload[43])
</text>
<line x1="150" y1="302" x2="150" y2="319" stroke="black" stroke-dasharray="2,2"/>
<line x1="450" y1="302" x2="450" y2="319" stroke="black" stroke-dasharray="2,2"/>
<line x1="750" y1="302" x2="750" y2="319" stroke="black" stroke-dasharray="2,2"/>
<line x1="1050" y1="302" x2="1050" y2="319" stroke="black" stroke-dasharray="2,2"/>
<line x1="150" y1="319" x2="150" y2="336" stroke="black"/>
<line x1="450" y1="319" x2="450" y2="336" stroke="black"/>
<line x1="750" y1="319" x2="750" y2="336" stroke="black"/>
<line x1="1050" y1="319" x2="1050" y2="336" stroke="black"/>
<line x1="150" y1="336" x2="150" y2="364" stroke="black"/>
<line x1="450" y1="336" x2="450" y2="364" stroke="black"/>
<line x1="750" y1="336" x2="750" y2="364" stroke="black"/>
<line x1="1050" y1="336" x2="1050" y2="364" stroke="black"/>
<polygon fill="white" points="914,336 1186,336 1186,358 914,358"/>
<polygon fill="white" points="908,342 1192,342 1192,352 908,352"/>
<circle fill="white" cx="914" cy="342" r="6"/>
<circle fill="white" cx="1186" cy="342" r="6"/>
<circle fill="white" cx="914" cy="352" r="6"/>
<circle fill="white" cx="1186" cy="352" r="6"/>
<line x1="914" y1="336" x2="1186" y2="336" stroke="black"/>
<line x1="914" y1="358" x2="1186" y2="358" stroke="black"/>
<line x1="908" y1="342" x2="908" y2="352" stroke="black"/>
<line x1="1192" y1="342" x2="1192" y2="352" stroke="black"/>
<path d="M 908 342 A6,6 0 0,1 914,336" stroke="black" fill="none"/><path d="M 1186 336 A6,6 0 0,1 1192,342" stroke="black" fill="none"/><path d="M 1192 352 A6,6 0 0,1 1186,358" stroke="black" fill="none"/><path d="M 914 358 A6,6 0 0,1 908,352" stroke="black" fill="none"/><polygon fill="white" points="994,343 1105,343 1105,352 994,352"/>
<text x="995" y="352" textLength="109" font-family="Helvetica" font-size="12" fill="black">
Bearer queue empty
</text>
<line x1="150" y1="364" x2="150" y2="392" stroke="black"/>
<line x1="450" y1="364" x2="450" y2="392" stroke="black"/>
<line x1="750" y1="364" x2="750" y2="392" stroke="black"/>
<line x1="1050" y1="364" x2="1050" y2="392" stroke="black"/>
<line x1="1050" y1="375" x2="750" y2="375" stroke="black"/>
<line x1="750" y1="375" x2="760" y2="381" stroke="black"/>
<polygon fill="white" points="837,365 961,365 961,374 837,374"/>
<text x="838" y="374" textLength="122" font-family="Helvetica" font-size="12" fill="black">
bearer_queue_empty()
</text>
<line x1="150" y1="392" x2="150" y2="420" stroke="black"/>
<line x1="450" y1="392" x2="450" y2="420" stroke="black"/>
<line x1="750" y1="392" x2="750" y2="420" stroke="black"/>
<line x1="1050" y1="392" x2="1050" y2="420" stroke="black"/>
<path d="M 750 397 A150,6 0 0,1 750,409" stroke="black" fill="none"/><polygon fill="black" points="750,409 760,415 760,403"/>
<polygon fill="white" points="661,393 748,393 748,402 661,402"/>
<text x="662" y="402" textLength="85" font-family="Helvetica" font-size="12" fill="black">
prov_buffer_tx()
</text>
<line x1="150" y1="420" x2="150" y2="448" stroke="black"/>
<line x1="450" y1="420" x2="450" y2="448" stroke="black"/>
<line x1="750" y1="420" x2="750" y2="448" stroke="black"/>
<line x1="1050" y1="420" x2="1050" y2="448" stroke="black"/>
<line x1="750" y1="431" x2="1050" y2="431" stroke="black"/>
<polygon fill="black" points="1050,431 1040,437 1040,425"/>
<polygon fill="white" points="801,421 998,421 998,430 801,430"/>
<text x="802" y="430" textLength="195" font-family="Helvetica" font-size="12" fill="black">
bearer_adv_tx(CONT, &amp;payload[43])
</text>
<line x1="150" y1="448" x2="150" y2="465" stroke="black" stroke-dasharray="2,2"/>
<line x1="450" y1="448" x2="450" y2="465" stroke="black" stroke-dasharray="2,2"/>
<line x1="750" y1="448" x2="750" y2="465" stroke="black" stroke-dasharray="2,2"/>
<line x1="1050" y1="448" x2="1050" y2="465" stroke="black" stroke-dasharray="2,2"/>
<line x1="150" y1="465" x2="150" y2="482" stroke="black"/>
<line x1="450" y1="465" x2="450" y2="482" stroke="black"/>
<line x1="750" y1="465" x2="750" y2="482" stroke="black"/>
<line x1="1050" y1="465" x2="1050" y2="482" stroke="black"/>
<line x1="150" y1="482" x2="150" y2="510" stroke="black"/>
<line x1="450" y1="482" x2="450" y2="510" stroke="black"/>
<line x1="750" y1="482" x2="750" y2="510" stroke="black"/>
<line x1="1050" y1="482" x2="1050" y2="510" stroke="black"/>
<polygon fill="white" points="614,482 886,482 886,504 614,504"/>
<polygon fill="white" points="608,488 892,488 892,498 608,498"/>
<circle fill="white" cx="614" cy="488" r="6"/>
<circle fill="white" cx="886" cy="488" r="6"/>
<circle fill="white" cx="614" cy="498" r="6"/>
<circle fill="white" cx="886" cy="498" r="6"/>
<line x1="614" y1="482" x2="886" y2="482" stroke="black"/>
<line x1="614" y1="504" x2="886" y2="504" stroke="black"/>
<line x1="608" y1="488" x2="608" y2="498" stroke="black"/>
<line x1="892" y1="488" x2="892" y2="498" stroke="black"/>
<path d="M 608 488 A6,6 0 0,1 614,482" stroke="black" fill="none"/><path d="M 886 482 A6,6 0 0,1 892,488" stroke="black" fill="none"/><path d="M 892 498 A6,6 0 0,1 886,504" stroke="black" fill="none"/><path d="M 614 504 A6,6 0 0,1 608,498" stroke="black" fill="none"/><polygon fill="white" points="706,489 793,489 793,498 706,498"/>
<text x="707" y="498" textLength="85" font-family="Helvetica" font-size="12" fill="black">
Retry timer fires
</text>
<line x1="150" y1="510" x2="150" y2="538" stroke="black"/>
<line x1="450" y1="510" x2="450" y2="538" stroke="black"/>
<line x1="750" y1="510" x2="750" y2="538" stroke="black"/>
<line x1="1050" y1="510" x2="1050" y2="538" stroke="black"/>
<path d="M 750 515 A150,6 0 0,1 750,527" stroke="black" fill="none"/><line x1="750" y1="527" x2="760" y2="533" stroke="black"/>
<polygon fill="white" points="687,511 748,511 748,520 687,520"/>
<text x="688" y="520" textLength="59" font-family="Helvetica" font-size="12" fill="black">
tx_retry_cb
</text>
<line x1="150" y1="538" x2="150" y2="566" stroke="black"/>
<line x1="450" y1="538" x2="450" y2="566" stroke="black"/>
<line x1="750" y1="538" x2="750" y2="566" stroke="black"/>
<line x1="1050" y1="538" x2="1050" y2="566" stroke="black"/>
<path d="M 750 543 A150,6 0 0,1 750,555" stroke="black" fill="none"/><polygon fill="black" points="750,555 760,561 760,549"/>
<polygon fill="white" points="661,539 748,539 748,548 661,548"/>
<text x="662" y="548" textLength="85" font-family="Helvetica" font-size="12" fill="black">
prov_buffer_tx()
</text>
<line x1="150" y1="566" x2="150" y2="594" stroke="black"/>
<line x1="450" y1="566" x2="450" y2="594" stroke="black"/>
<line x1="750" y1="566" x2="750" y2="594" stroke="black"/>
<line x1="1050" y1="566" x2="1050" y2="594" stroke="black"/>
<line x1="750" y1="577" x2="1050" y2="577" stroke="black"/>
<polygon fill="black" points="1050,577 1040,583 1040,571"/>
<polygon fill="white" points="801,567 997,567 997,576 801,576"/>
<text x="802" y="576" textLength="194" font-family="Helvetica" font-size="12" fill="black">
bearer_adv_tx(START, &amp;payload[0])
</text>
<line x1="150" y1="594" x2="150" y2="622" stroke="black"/>
<line x1="450" y1="594" x2="450" y2="622" stroke="black"/>
<line x1="750" y1="594" x2="750" y2="622" stroke="black"/>
<line x1="1050" y1="594" x2="1050" y2="622" stroke="black"/>
<line x1="750" y1="605" x2="1050" y2="605" stroke="black"/>
<polygon fill="black" points="1050,605 1040,611 1040,599"/>
<polygon fill="white" points="801,595 998,595 998,604 801,604"/>
<text x="802" y="604" textLength="195" font-family="Helvetica" font-size="12" fill="black">
bearer_adv_tx(CONT, &amp;payload[20])
</text>
<line x1="150" y1="622" x2="150" y2="650" stroke="black"/>
<line x1="450" y1="622" x2="450" y2="650" stroke="black"/>
<line x1="750" y1="622" x2="750" y2="650" stroke="black"/>
<line x1="1050" y1="622" x2="1050" y2="650" stroke="black"/>
<line x1="750" y1="633" x2="1050" y2="633" stroke="black"/>
<polygon fill="black" points="1050,633 1040,639 1040,627"/>
<polygon fill="white" points="801,623 998,623 998,632 801,632"/>
<text x="802" y="632" textLength="195" font-family="Helvetica" font-size="12" fill="black">
bearer_adv_tx(CONT, &amp;payload[43])
</text>
<line x1="150" y1="650" x2="150" y2="667" stroke="black" stroke-dasharray="2,2"/>
<line x1="450" y1="650" x2="450" y2="667" stroke="black" stroke-dasharray="2,2"/>
<line x1="750" y1="650" x2="750" y2="667" stroke="black" stroke-dasharray="2,2"/>
<line x1="1050" y1="650" x2="1050" y2="667" stroke="black" stroke-dasharray="2,2"/>
<line x1="150" y1="667" x2="150" y2="695" stroke="black"/>
<line x1="450" y1="667" x2="450" y2="695" stroke="black"/>
<line x1="750" y1="667" x2="750" y2="695" stroke="black"/>
<line x1="1050" y1="667" x2="1050" y2="695" stroke="black"/>
<line x1="1050" y1="678" x2="750" y2="678" stroke="black"/>
<polygon fill="black" points="750,678 760,684 760,672"/>
<polygon fill="white" points="851,668 948,668 948,677 851,677"/>
<text x="852" y="677" textLength="95" font-family="Helvetica" font-size="12" fill="black">
prov_pkt_in(ACK)
</text>
<line x1="150" y1="695" x2="150" y2="723" stroke="black"/>
<line x1="450" y1="695" x2="450" y2="723" stroke="black"/>
<line x1="750" y1="695" x2="750" y2="723" stroke="black"/>
<line x1="1050" y1="695" x2="1050" y2="723" stroke="black"/>
<path d="M 750 700 A150,6 0 0,1 750,712" stroke="black" fill="none"/><polygon fill="black" points="750,712 760,718 760,706"/>
<polygon fill="white" points="595,696 748,696 748,705 595,705"/>
<text x="596" y="705" textLength="151" font-family="Helvetica" font-size="12" fill="black">
timer_sch_abort(retry_timer)
</text>
<line x1="150" y1="723" x2="150" y2="751" stroke="black"/>
<line x1="450" y1="723" x2="450" y2="751" stroke="black"/>
<line x1="750" y1="723" x2="750" y2="751" stroke="black"/>
<line x1="1050" y1="723" x2="1050" y2="751" stroke="black"/>
<polygon fill="white" points="608,723 880,723 880,745 608,745"/>
<polygon fill="white" points="608,735 892,735 892,745 608,745"/>
<polygon fill="white" points="880,723 892,735 880,735"/>
<line x1="608" y1="723" x2="880" y2="723" stroke="black"/>
<line x1="608" y1="745" x2="892" y2="745" stroke="black"/>
<line x1="608" y1="723" x2="608" y2="745" stroke="black"/>
<line x1="892" y1="735" x2="892" y2="745" stroke="black"/>
<line x1="880" y1="723" x2="892" y2="735" stroke="black"/>
<line x1="880" y1="723" x2="880" y2="735" stroke="black"/>
<line x1="892" y1="735" x2="880" y2="735" stroke="black"/>
<polygon fill="white" points="674,730 824,730 824,739 674,739"/>
<text x="675" y="739" textLength="148" font-family="Helvetica" font-size="12" fill="black">
BUFFER STATE=UNUSED
</text>
<line x1="150" y1="751" x2="150" y2="779" stroke="black"/>
<line x1="450" y1="751" x2="450" y2="779" stroke="black"/>
<line x1="750" y1="751" x2="750" y2="779" stroke="black"/>
<line x1="1050" y1="751" x2="1050" y2="779" stroke="black"/>
<line x1="750" y1="762" x2="450" y2="762" stroke="black"/>
<polygon fill="black" points="450,762 460,768 460,756"/>
<polygon fill="white" points="552,752 646,752 646,761 552,761"/>
<text x="553" y="761" textLength="92" font-family="Helvetica" font-size="12" fill="black">
prov_cb_ack_in()
</text>
<line x1="450" y1="762" x2="150" y2="762" stroke="black"/>
<polygon fill="black" points="150,762 160,768 160,756"/>
<polygon fill="white" points="252,752 346,752 346,761 252,761"/>
<text x="253" y="761" textLength="92" font-family="Helvetica" font-size="12" fill="black">
prov_cb_ack_in()
</text>
<line x1="150" y1="773" x2="150" y2="779" stroke="black"/>
<line x1="450" y1="773" x2="450" y2="779" stroke="black"/>
<line x1="750" y1="773" x2="750" y2="779" stroke="black"/>
<line x1="1050" y1="773" x2="1050" y2="779" stroke="black"/>
</svg>
