<?xml version="1.0" encoding="UTF-8" standalone="no"?>
<!DOCTYPE svg PUBLIC "-//W3C//DTD SVG 1.1//EN"
 "http://www.w3.org/Graphics/SVG/1.1/DTD/svg11.dtd">
<!-- Generated by graphviz version 2.38.0 (20140413.2041)
 -->
<!-- Title: prov_sar_pkt_in Pages: 1 -->
<svg width="811pt" height="1383pt"
 viewBox="0.00 0.00 811.00 1383.00" xmlns="http://www.w3.org/2000/svg" xmlns:xlink="http://www.w3.org/1999/xlink">
<g id="graph0" class="graph" transform="scale(1 1) rotate(0) translate(4 1379)">
<title>prov_sar_pkt_in</title>
<polygon fill="white" stroke="none" points="-4,4 -4,-1379 807,-1379 807,4 -4,4"/>
<!-- GPCF_CHECK -->
<g id="node1" class="node"><title>GPCF_CHECK</title>
<polygon fill="#ffd700" stroke="black" points="547,-1302 445.793,-1259 547,-1216 648.207,-1259 547,-1302"/>
<text text-anchor="middle" x="547" y="-1262" font-family="Times,serif" font-size="10.00">GENERIC PROVISIONING</text>
<text text-anchor="middle" x="547" y="-1251" font-family="Times,serif" font-size="10.00">CONTROL FIELD TYPE</text>
</g>
<!-- SAR_LENGTH_VALID -->
<g id="node2" class="node"><title>SAR_LENGTH_VALID</title>
<polygon fill="#ffd700" stroke="black" points="164,-1169 90.1175,-1126 164,-1083 237.882,-1126 164,-1169"/>
<text text-anchor="middle" x="164" y="-1129" font-family="Times,serif" font-size="10.00">IS SAR PACKET</text>
<text text-anchor="middle" x="164" y="-1118" font-family="Times,serif" font-size="10.00"> LENGTH VALID?</text>
</g>
<!-- GPCF_CHECK&#45;&gt;SAR_LENGTH_VALID -->
<g id="edge21" class="edge"><title>GPCF_CHECK&#45;&gt;SAR_LENGTH_VALID</title>
<path fill="none" stroke="midnightblue" d="M492.125,-1239.23C419.377,-1214.35 291.741,-1170.69 218.953,-1145.8"/>
<polygon fill="midnightblue" stroke="midnightblue" points="220.085,-1142.48 209.491,-1142.56 217.82,-1149.11 220.085,-1142.48"/>
<text text-anchor="middle" x="383" y="-1190" font-family="Times,serif" font-size="10.00">START</text>
</g>
<!-- EXISTING_SAR -->
<g id="node3" class="node"><title>EXISTING_SAR</title>
<polygon fill="#ffd700" stroke="black" points="469,-1169 361.212,-1126 469,-1083 576.788,-1126 469,-1169"/>
<text text-anchor="middle" x="469" y="-1129" font-family="Times,serif" font-size="10.00">IS THERE AN</text>
<text text-anchor="middle" x="469" y="-1118" font-family="Times,serif" font-size="10.00"> EXISTING TRANSACTION?</text>
</g>
<!-- GPCF_CHECK&#45;&gt;EXISTING_SAR -->
<g id="edge3" class="edge"><title>GPCF_CHECK&#45;&gt;EXISTING_SAR</title>
<path fill="none" stroke="midnightblue" d="M526.781,-1224.38C521.624,-1215.79 516.098,-1206.56 511,-1198 505.612,-1188.96 499.855,-1179.25 494.386,-1170.01"/>
<polygon fill="midnightblue" stroke="midnightblue" points="497.355,-1168.16 489.251,-1161.33 491.33,-1171.72 497.355,-1168.16"/>
<text text-anchor="middle" x="551" y="-1190" font-family="Times,serif" font-size="10.00">ACKNOWLEDGE</text>
</g>
<!-- EXISTING_SAR2 -->
<g id="node4" class="node"><title>EXISTING_SAR2</title>
<polygon fill="#ffd700" stroke="black" points="605,-783 497.212,-740 605,-697 712.788,-740 605,-783"/>
<text text-anchor="middle" x="605" y="-743" font-family="Times,serif" font-size="10.00">IS THERE AN</text>
<text text-anchor="middle" x="605" y="-732" font-family="Times,serif" font-size="10.00"> EXISTING TRANSACTION?</text>
</g>
<!-- GPCF_CHECK&#45;&gt;EXISTING_SAR2 -->
<g id="edge11" class="edge"><title>GPCF_CHECK&#45;&gt;EXISTING_SAR2</title>
<path fill="none" stroke="midnightblue" d="M573.531,-1227.22C580.103,-1218.28 586.534,-1208.17 591,-1198 603.93,-1168.55 605,-1159.16 605,-1127 605,-1127 605,-1127 605,-865.5 605,-841.802 605,-815.568 605,-793.315"/>
<polygon fill="midnightblue" stroke="midnightblue" points="608.5,-793.069 605,-783.069 601.5,-793.069 608.5,-793.069"/>
<text text-anchor="middle" x="631" y="-990.5" font-family="Times,serif" font-size="10.00">CONTINUE</text>
</g>
<!-- EXIT -->
<g id="node20" class="node"><title>EXIT</title>
<ellipse fill="black" stroke="black" cx="521" cy="-22" rx="18" ry="18"/>
<ellipse fill="none" stroke="black" cx="521" cy="-22" rx="22" ry="22"/>
</g>
<!-- GPCF_CHECK&#45;&gt;EXIT -->
<g id="edge2" class="edge"><title>GPCF_CHECK&#45;&gt;EXIT</title>
<path fill="none" stroke="midnightblue" d="M611.061,-1243.17C667.568,-1225.84 741,-1191.01 741,-1127 741,-1127 741,-1127 741,-116.5 741,-36.0465 614.84,-23.8247 553.594,-22.6317"/>
<polygon fill="midnightblue" stroke="midnightblue" points="553.342,-19.1289 543.305,-22.5237 553.268,-26.1285 553.342,-19.1289"/>
<text text-anchor="middle" x="772" y="-610" font-family="Times,serif" font-size="10.00">TRANSPORT/</text>
<text text-anchor="middle" x="772" y="-599" font-family="Times,serif" font-size="10.00">UNKNOWN</text>
</g>
<!-- EXISTING_SAR3 -->
<g id="node5" class="node"><title>EXISTING_SAR3</title>
<polygon fill="#ffd700" stroke="black" points="164,-1036 56.2123,-993 164,-950 271.788,-993 164,-1036"/>
<text text-anchor="middle" x="164" y="-996" font-family="Times,serif" font-size="10.00">IS THERE AN</text>
<text text-anchor="middle" x="164" y="-985" font-family="Times,serif" font-size="10.00"> EXISTING TRANSACTION?</text>
</g>
<!-- SAR_LENGTH_VALID&#45;&gt;EXISTING_SAR3 -->
<g id="edge23" class="edge"><title>SAR_LENGTH_VALID&#45;&gt;EXISTING_SAR3</title>
<path fill="none" stroke="midnightblue" d="M164,-1082.83C164,-1071.14 164,-1058.32 164,-1046.13"/>
<polygon fill="midnightblue" stroke="midnightblue" points="167.5,-1046.09 164,-1036.09 160.5,-1046.09 167.5,-1046.09"/>
<text text-anchor="middle" x="172" y="-1057" font-family="Times,serif" font-size="10.00">Yes</text>
</g>
<!-- LINK_CLOSE -->
<g id="node10" class="node"><title>LINK_CLOSE</title>
<polygon fill="white" stroke="black" points="31.5,-444.5 31.5,-516.5 180.5,-516.5 180.5,-444.5 31.5,-444.5"/>
<text text-anchor="middle" x="41" y="-478" font-family="Times,serif" font-size="10.00"> </text>
<polyline fill="none" stroke="black" points="50.5,-444.5 50.5,-516.5 "/>
<text text-anchor="middle" x="106" y="-478" font-family="Times,serif" font-size="10.00">prov_bearer:link_close</text>
<polyline fill="none" stroke="black" points="161.5,-444.5 161.5,-516.5 "/>
<text text-anchor="middle" x="171" y="-478" font-family="Times,serif" font-size="10.00"> </text>
</g>
<!-- SAR_LENGTH_VALID&#45;&gt;LINK_CLOSE -->
<g id="edge22" class="edge"><title>SAR_LENGTH_VALID&#45;&gt;LINK_CLOSE</title>
<path fill="none" stroke="midnightblue" d="M117.004,-1110.07C68.5425,-1091.39 0,-1054.31 0,-994 0,-994 0,-994 0,-606 0,-573.34 21.4087,-544.891 44.9836,-523.463"/>
<polygon fill="midnightblue" stroke="midnightblue" points="47.444,-525.962 52.6895,-516.757 42.8484,-520.682 47.444,-525.962"/>
<text text-anchor="middle" x="6.5" y="-804" font-family="Times,serif" font-size="10.00">No</text>
</g>
<!-- STOP_TIMEOUT -->
<g id="node18" class="node"><title>STOP_TIMEOUT</title>
<polygon fill="white" stroke="black" points="305,-957 305,-1029 427,-1029 427,-957 305,-957"/>
<text text-anchor="middle" x="366" y="-990.5" font-family="Times,serif" font-size="10.00">STOP TIMEOUT</text>
</g>
<!-- EXISTING_SAR&#45;&gt;STOP_TIMEOUT -->
<g id="edge4" class="edge"><title>EXISTING_SAR&#45;&gt;STOP_TIMEOUT</title>
<path fill="none" stroke="midnightblue" d="M443.803,-1092.95C430.685,-1076.27 414.454,-1055.63 400.217,-1037.52"/>
<polygon fill="midnightblue" stroke="midnightblue" points="402.766,-1035.1 393.834,-1029.4 397.264,-1039.43 402.766,-1035.1"/>
<text text-anchor="middle" x="429" y="-1057" font-family="Times,serif" font-size="10.00">Yes</text>
</g>
<!-- EXISTING_SAR&#45;&gt;EXIT -->
<g id="edge10" class="edge"><title>EXISTING_SAR&#45;&gt;EXIT</title>
<path fill="none" stroke="midnightblue" d="M469,-1082.82C469,-1057.14 469,-1023.68 469,-994 469,-994 469,-994 469,-672.5 469,-611.227 472.042,-595.876 479,-535 485.538,-477.793 492.902,-464.255 499,-407 512.902,-276.485 518.425,-120.013 520.241,-54.3856"/>
<polygon fill="midnightblue" stroke="midnightblue" points="523.742,-54.3798 520.511,-44.2899 516.745,-54.1929 523.742,-54.3798"/>
<text text-anchor="middle" x="485.5" y="-538" font-family="Times,serif" font-size="10.00">No</text>
</g>
<!-- NEW_FRAGMENT -->
<g id="node9" class="node"><title>NEW_FRAGMENT</title>
<polygon fill="#ffd700" stroke="black" points="574,-650 497.082,-607 574,-564 650.918,-607 574,-650"/>
<text text-anchor="middle" x="574" y="-610" font-family="Times,serif" font-size="10.00">IS THIS A</text>
<text text-anchor="middle" x="574" y="-599" font-family="Times,serif" font-size="10.00">NEW FRAGMENT?</text>
</g>
<!-- EXISTING_SAR2&#45;&gt;NEW_FRAGMENT -->
<g id="edge12" class="edge"><title>EXISTING_SAR2&#45;&gt;NEW_FRAGMENT</title>
<path fill="none" stroke="midnightblue" d="M595.867,-700.404C592.529,-686.3 588.715,-670.182 585.217,-655.399"/>
<polygon fill="midnightblue" stroke="midnightblue" points="588.564,-654.344 582.855,-645.419 581.752,-655.956 588.564,-654.344"/>
<text text-anchor="middle" x="599" y="-671" font-family="Times,serif" font-size="10.00">Yes</text>
</g>
<!-- EXISTING_SAR2&#45;&gt;EXIT -->
<g id="edge13" class="edge"><title>EXISTING_SAR2&#45;&gt;EXIT</title>
<path fill="none" stroke="midnightblue" d="M634.247,-708.349C654.931,-683.382 679,-646.136 679,-608 679,-608 679,-608 679,-116.5 679,-58.5421 599.286,-35.7461 553.099,-27.4022"/>
<polygon fill="midnightblue" stroke="midnightblue" points="553.41,-23.9057 542.969,-25.7056 552.254,-30.8095 553.41,-23.9057"/>
<text text-anchor="middle" x="685.5" y="-361.5" font-family="Times,serif" font-size="10.00">No</text>
</g>
<!-- DISCARD_PREVIOUS -->
<g id="node12" class="node"><title>DISCARD_PREVIOUS</title>
<polygon fill="white" stroke="black" points="29,-830.5 29,-902.5 183,-902.5 183,-830.5 29,-830.5"/>
<text text-anchor="middle" x="106" y="-869.5" font-family="Times,serif" font-size="10.00">DISCARD PREVIOUS SESSION</text>
<text text-anchor="middle" x="106" y="-858.5" font-family="Times,serif" font-size="10.00">FREE RX BUFFER</text>
</g>
<!-- EXISTING_SAR3&#45;&gt;DISCARD_PREVIOUS -->
<g id="edge24" class="edge"><title>EXISTING_SAR3&#45;&gt;DISCARD_PREVIOUS</title>
<path fill="none" stroke="midnightblue" d="M147.38,-956.323C140.954,-942.531 133.53,-926.595 126.76,-912.062"/>
<polygon fill="midnightblue" stroke="midnightblue" points="129.818,-910.338 122.422,-902.751 123.473,-913.294 129.818,-910.338"/>
<text text-anchor="middle" x="143" y="-924" font-family="Times,serif" font-size="10.00">Yes</text>
</g>
<!-- MALLOC -->
<g id="node15" class="node"><title>MALLOC</title>
<polygon fill="white" stroke="black" points="45,-704 45,-776 167,-776 167,-704 45,-704"/>
<text text-anchor="middle" x="106" y="-743" font-family="Times,serif" font-size="10.00">MALLOC NEW</text>
<text text-anchor="middle" x="106" y="-732" font-family="Times,serif" font-size="10.00">PACKET BUFFER</text>
</g>
<!-- EXISTING_SAR3&#45;&gt;MALLOC -->
<g id="edge25" class="edge"><title>EXISTING_SAR3&#45;&gt;MALLOC</title>
<path fill="none" stroke="midnightblue" d="M180.858,-956.696C194.457,-923.063 208.793,-871.545 192,-830 185.002,-812.688 172.845,-796.873 159.837,-783.534"/>
<polygon fill="midnightblue" stroke="midnightblue" points="162.139,-780.89 152.55,-776.384 157.237,-785.886 162.139,-780.89"/>
<text text-anchor="middle" x="206.5" y="-864" font-family="Times,serif" font-size="10.00">No</text>
</g>
<!-- MALLOC_FAIL -->
<g id="node6" class="node"><title>MALLOC_FAIL</title>
<polygon fill="#ffd700" stroke="black" points="106,-650 27.8947,-607 106,-564 184.105,-607 106,-650"/>
<text text-anchor="middle" x="106" y="-604.5" font-family="Times,serif" font-size="10.00">DID MALLOC FAIL?</text>
</g>
<!-- MALLOC_FAIL&#45;&gt;LINK_CLOSE -->
<g id="edge28" class="edge"><title>MALLOC_FAIL&#45;&gt;LINK_CLOSE</title>
<path fill="none" stroke="midnightblue" d="M106,-563.85C106,-551.956 106,-538.965 106,-526.889"/>
<polygon fill="midnightblue" stroke="midnightblue" points="109.5,-526.563 106,-516.563 102.5,-526.563 109.5,-526.563"/>
<text text-anchor="middle" x="114" y="-538" font-family="Times,serif" font-size="10.00">Yes</text>
</g>
<!-- COPY -->
<g id="node17" class="node"><title>COPY</title>
<polygon fill="white" stroke="black" points="335,-444.5 335,-516.5 457,-516.5 457,-444.5 335,-444.5"/>
<text text-anchor="middle" x="396" y="-483.5" font-family="Times,serif" font-size="10.00">COPY INCOMING</text>
<text text-anchor="middle" x="396" y="-472.5" font-family="Times,serif" font-size="10.00">PACKET TO BUFFER</text>
</g>
<!-- MALLOC_FAIL&#45;&gt;COPY -->
<g id="edge29" class="edge"><title>MALLOC_FAIL&#45;&gt;COPY</title>
<path fill="none" stroke="midnightblue" d="M146.519,-586.062C161.368,-578.914 178.364,-570.917 194,-564 237.114,-544.926 286.049,-524.9 324.955,-509.355"/>
<polygon fill="midnightblue" stroke="midnightblue" points="326.628,-512.456 334.621,-505.503 324.036,-505.954 326.628,-512.456"/>
<text text-anchor="middle" x="267.5" y="-538" font-family="Times,serif" font-size="10.00">No</text>
</g>
<!-- LAST_FRAGMENT_RECEIVED -->
<g id="node7" class="node"><title>LAST_FRAGMENT_RECEIVED</title>
<polygon fill="#ffd700" stroke="black" points="396,-407 301.874,-364 396,-321 490.126,-364 396,-407"/>
<text text-anchor="middle" x="396" y="-367" font-family="Times,serif" font-size="10.00">IS THIS</text>
<text text-anchor="middle" x="396" y="-356" font-family="Times,serif" font-size="10.00">THE LAST FRAGMENT?</text>
</g>
<!-- PROCESS -->
<g id="node16" class="node"><title>PROCESS</title>
<polygon fill="white" stroke="black" points="299.5,-201.5 299.5,-273.5 454.5,-273.5 454.5,-201.5 299.5,-201.5"/>
<text text-anchor="middle" x="377" y="-235" font-family="Times,serif" font-size="10.00">PROCESS INCOMING PACKET</text>
</g>
<!-- LAST_FRAGMENT_RECEIVED&#45;&gt;PROCESS -->
<g id="edge18" class="edge"><title>LAST_FRAGMENT_RECEIVED&#45;&gt;PROCESS</title>
<path fill="none" stroke="midnightblue" d="M389.988,-323.607C388.067,-311.016 385.924,-296.975 383.942,-283.987"/>
<polygon fill="midnightblue" stroke="midnightblue" points="387.362,-283.201 382.394,-273.844 380.443,-284.257 387.362,-283.201"/>
<text text-anchor="middle" x="395" y="-295" font-family="Times,serif" font-size="10.00">Yes</text>
</g>
<!-- LAST_FRAGMENT_RECEIVED&#45;&gt;EXIT -->
<g id="edge17" class="edge"><title>LAST_FRAGMENT_RECEIVED&#45;&gt;EXIT</title>
<path fill="none" stroke="midnightblue" d="M423.52,-333.443C437.342,-317.065 453.192,-295.673 463,-274 502.675,-186.329 480.902,-154.624 507,-62 507.897,-58.8148 508.924,-55.5151 510.005,-52.2449"/>
<polygon fill="midnightblue" stroke="midnightblue" points="513.357,-53.2613 513.335,-42.6665 506.745,-50.9631 513.357,-53.2613"/>
<text text-anchor="middle" x="496.5" y="-175" font-family="Times,serif" font-size="10.00">No</text>
</g>
<!-- CB_ACK_SUCCESS -->
<g id="node8" class="node"><title>CB_ACK_SUCCESS</title>
<polygon fill="#ffd700" stroke="black" points="322,-650 202.577,-607 322,-564 441.423,-607 322,-650"/>
<text text-anchor="middle" x="322" y="-610" font-family="Times,serif" font-size="10.00">Did prov_bearer_cb_ack_received</text>
<text text-anchor="middle" x="322" y="-599" font-family="Times,serif" font-size="10.00"> return success?</text>
</g>
<!-- CB_ACK_SUCCESS&#45;&gt;LINK_CLOSE -->
<g id="edge8" class="edge"><title>CB_ACK_SUCCESS&#45;&gt;LINK_CLOSE</title>
<path fill="none" stroke="midnightblue" d="M265.837,-584.162C241.542,-573.836 213.193,-560.575 189,-546 177.665,-539.171 166.091,-531.036 155.324,-522.882"/>
<polygon fill="midnightblue" stroke="midnightblue" points="157.321,-520.001 147.265,-516.664 153.045,-525.544 157.321,-520.001"/>
<text text-anchor="middle" x="195.5" y="-538" font-family="Times,serif" font-size="10.00">No</text>
</g>
<!-- CB_ACK_SUCCESS&#45;&gt;EXIT -->
<g id="edge9" class="edge"><title>CB_ACK_SUCCESS&#45;&gt;EXIT</title>
<path fill="none" stroke="midnightblue" d="M299.631,-571.838C285.928,-547.638 271,-513.851 271,-481.5 271,-481.5 271,-481.5 271,-116.5 271,-70.4249 421.855,-39.5123 489.197,-28.0085"/>
<polygon fill="midnightblue" stroke="midnightblue" points="489.965,-31.4288 499.251,-26.3295 488.812,-24.5244 489.965,-31.4288"/>
<text text-anchor="middle" x="279" y="-295" font-family="Times,serif" font-size="10.00">Yes</text>
</g>
<!-- NEW_FRAGMENT&#45;&gt;COPY -->
<g id="edge14" class="edge"><title>NEW_FRAGMENT&#45;&gt;COPY</title>
<path fill="none" stroke="midnightblue" d="M547.26,-578.598C532.819,-564.616 514.249,-547.887 496,-535 486.67,-528.412 476.434,-522.062 466.182,-516.181"/>
<polygon fill="midnightblue" stroke="midnightblue" points="467.624,-512.978 457.19,-511.14 464.201,-519.083 467.624,-512.978"/>
<text text-anchor="middle" x="518" y="-538" font-family="Times,serif" font-size="10.00">Yes</text>
</g>
<!-- NEW_FRAGMENT&#45;&gt;EXIT -->
<g id="edge15" class="edge"><title>NEW_FRAGMENT&#45;&gt;EXIT</title>
<path fill="none" stroke="midnightblue" d="M569.205,-566.535C566.639,-542.085 564,-510.015 564,-481.5 564,-481.5 564,-481.5 564,-116.5 564,-91.8519 551.513,-66.617 539.997,-48.5852"/>
<polygon fill="midnightblue" stroke="midnightblue" points="542.615,-46.2051 534.135,-39.8537 536.803,-50.107 542.615,-46.2051"/>
<text text-anchor="middle" x="570.5" y="-295" font-family="Times,serif" font-size="10.00">No</text>
</g>
<!-- ACK_RECEIVED -->
<g id="node11" class="node"><title>ACK_RECEIVED</title>
<polygon fill="white" stroke="black" points="251.5,-704 251.5,-776 426.5,-776 426.5,-704 251.5,-704"/>
<text text-anchor="middle" x="261" y="-737.5" font-family="Times,serif" font-size="10.00"> </text>
<polyline fill="none" stroke="black" points="270.5,-704 270.5,-776 "/>
<text text-anchor="middle" x="339" y="-737.5" font-family="Times,serif" font-size="10.00">prov_bearer:cb_ack_received</text>
<polyline fill="none" stroke="black" points="407.5,-704 407.5,-776 "/>
<text text-anchor="middle" x="417" y="-737.5" font-family="Times,serif" font-size="10.00"> </text>
</g>
<!-- ACK_RECEIVED&#45;&gt;CB_ACK_SUCCESS -->
<g id="edge7" class="edge"><title>ACK_RECEIVED&#45;&gt;CB_ACK_SUCCESS</title>
<path fill="none" stroke="black" d="M334.444,-703.894C332.638,-689.978 330.527,-673.709 328.562,-658.565"/>
<polygon fill="black" stroke="black" points="331.988,-657.77 327.23,-648.303 325.046,-658.671 331.988,-657.77"/>
</g>
<!-- DISCARD_PREVIOUS&#45;&gt;MALLOC -->
<g id="edge26" class="edge"><title>DISCARD_PREVIOUS&#45;&gt;MALLOC</title>
<path fill="none" stroke="black" d="M106,-830.488C106,-816.83 106,-800.992 106,-786.471"/>
<polygon fill="black" stroke="black" points="109.5,-786.18 106,-776.18 102.5,-786.18 109.5,-786.18"/>
</g>
<!-- DISCARD_OUTPUT -->
<g id="node13" class="node"><title>DISCARD_OUTPUT</title>
<polygon fill="white" stroke="black" points="289,-830.5 289,-902.5 411,-902.5 411,-830.5 289,-830.5"/>
<text text-anchor="middle" x="350" y="-864" font-family="Times,serif" font-size="10.00">FREE TX BUFFER</text>
</g>
<!-- DISCARD_OUTPUT&#45;&gt;ACK_RECEIVED -->
<g id="edge6" class="edge"><title>DISCARD_OUTPUT&#45;&gt;ACK_RECEIVED</title>
<path fill="none" stroke="black" d="M346.907,-830.488C345.7,-816.83 344.301,-800.992 343.018,-786.471"/>
<polygon fill="black" stroke="black" points="346.475,-785.833 342.108,-776.18 339.502,-786.449 346.475,-785.833"/>
</g>
<!-- DISCARD_INPUT -->
<g id="node14" class="node"><title>DISCARD_INPUT</title>
<polygon fill="white" stroke="black" points="329,-81.5 329,-153.5 451,-153.5 451,-81.5 329,-81.5"/>
<text text-anchor="middle" x="390" y="-115" font-family="Times,serif" font-size="10.00">FREE RX BUFFER</text>
</g>
<!-- DISCARD_INPUT&#45;&gt;EXIT -->
<g id="edge20" class="edge"><title>DISCARD_INPUT&#45;&gt;EXIT</title>
<path fill="none" stroke="black" d="M439.152,-81.418C458.142,-67.8643 479.09,-52.9127 495.04,-41.5288"/>
<polygon fill="black" stroke="black" points="497.236,-44.2613 503.342,-35.603 493.17,-38.5637 497.236,-44.2613"/>
</g>
<!-- MALLOC&#45;&gt;MALLOC_FAIL -->
<g id="edge27" class="edge"><title>MALLOC&#45;&gt;MALLOC_FAIL</title>
<path fill="none" stroke="black" d="M106,-703.894C106,-690.599 106,-675.158 106,-660.601"/>
<polygon fill="black" stroke="black" points="109.5,-660.201 106,-650.201 102.5,-660.201 109.5,-660.201"/>
</g>
<!-- PROCESS&#45;&gt;DISCARD_INPUT -->
<g id="edge19" class="edge"><title>PROCESS&#45;&gt;DISCARD_INPUT</title>
<path fill="none" stroke="black" d="M380.865,-201.416C382.163,-189.633 383.63,-176.319 385.002,-163.862"/>
<polygon fill="black" stroke="black" points="388.511,-163.976 386.127,-153.653 381.553,-163.21 388.511,-163.976"/>
</g>
<!-- COPY&#45;&gt;LAST_FRAGMENT_RECEIVED -->
<g id="edge16" class="edge"><title>COPY&#45;&gt;LAST_FRAGMENT_RECEIVED</title>
<path fill="none" stroke="black" d="M396,-444.212C396,-435.714 396,-426.455 396,-417.362"/>
<polygon fill="black" stroke="black" points="399.5,-417.215 396,-407.215 392.5,-417.215 399.5,-417.215"/>
</g>
<!-- STOP_TIMEOUT&#45;&gt;DISCARD_OUTPUT -->
<g id="edge5" class="edge"><title>STOP_TIMEOUT&#45;&gt;DISCARD_OUTPUT</title>
<path fill="none" stroke="black" d="M361.501,-956.988C359.745,-943.33 357.71,-927.492 355.844,-912.971"/>
<polygon fill="black" stroke="black" points="359.267,-912.152 354.521,-902.68 352.324,-913.045 359.267,-912.152"/>
</g>
<!-- ENTRY -->
<g id="node19" class="node"><title>ENTRY</title>
<ellipse fill="black" stroke="black" cx="547" cy="-1357" rx="18" ry="18"/>
</g>
<!-- ENTRY&#45;&gt;GPCF_CHECK -->
<g id="edge1" class="edge"><title>ENTRY&#45;&gt;GPCF_CHECK</title>
<path fill="none" stroke="black" d="M547,-1338.84C547,-1331.23 547,-1321.84 547,-1312.21"/>
<polygon fill="black" stroke="black" points="550.5,-1312.17 547,-1302.17 543.5,-1312.17 550.5,-1312.17"/>
</g>
</g>
</svg>
