<?xml version="1.0" encoding="UTF-8" standalone="no"?>
<!DOCTYPE svg PUBLIC "-//W3C//DTD SVG 1.1//EN"
 "http://www.w3.org/Graphics/SVG/1.1/DTD/svg11.dtd">
<!-- Generated by graphviz version 2.40.1 (20161225.0304)
 -->
<!-- Title: provisionee_application Pages: 1 -->
<svg width="672pt" height="465pt"
 viewBox="0.00 0.00 671.50 464.80" xmlns="http://www.w3.org/2000/svg" xmlns:xlink="http://www.w3.org/1999/xlink">
<g id="graph0" class="graph" transform="scale(1 1) rotate(0) translate(4 460.7962)">
<title>provisionee_application</title>
<polygon fill="#ffffff" stroke="transparent" points="-4,4 -4,-460.7962 667.5,-460.7962 667.5,4 -4,4"/>
<!-- ENTRY -->
<g id="node1" class="node">
<title>ENTRY</title>
<ellipse fill="#000000" stroke="#000000" cx="283.5" cy="-438.7962" rx="18" ry="18"/>
</g>
<!-- INITIALIZE -->
<g id="node2" class="node">
<title>INITIALIZE</title>
<polygon fill="none" stroke="#000000" points="350.5,-383.7962 216.5,-383.7962 216.5,-347.7962 350.5,-347.7962 350.5,-383.7962"/>
<text text-anchor="middle" x="283.5" y="-362.0962" font-family="Times,serif" font-size="14.00" fill="#000000">nrf_mesh_prov_init()</text>
<text text-anchor="middle" x="134.5" y="-387.5962" font-family="Times,serif" font-size="14.00" fill="#000000">Initialize provisioning context</text>
</g>
<!-- ENTRY&#45;&gt;INITIALIZE -->
<g id="edge1" class="edge">
<title>ENTRY&#45;&gt;INITIALIZE</title>
<path fill="none" stroke="#000000" d="M283.5,-420.7512C283.5,-412.679 283.5,-402.9726 283.5,-393.9779"/>
<polygon fill="#000000" stroke="#000000" points="287.0001,-393.8865 283.5,-383.8865 280.0001,-393.8866 287.0001,-393.8865"/>
</g>
<!-- LISTEN -->
<g id="node3" class="node">
<title>LISTEN</title>
<polygon fill="none" stroke="#000000" points="356,-310.7962 211,-310.7962 211,-274.7962 356,-274.7962 356,-310.7962"/>
<text text-anchor="middle" x="283.5" y="-289.0962" font-family="Times,serif" font-size="14.00" fill="#000000">nrf_mesh_prov_listen()</text>
<text text-anchor="middle" x="141.5" y="-314.5962" font-family="Times,serif" font-size="14.00" fill="#000000">Listen for incoming links</text>
</g>
<!-- INITIALIZE&#45;&gt;LISTEN -->
<g id="edge2" class="edge">
<title>INITIALIZE&#45;&gt;LISTEN</title>
<path fill="none" stroke="#000000" d="M283.5,-347.7512C283.5,-339.679 283.5,-329.9726 283.5,-320.9779"/>
<polygon fill="#000000" stroke="#000000" points="287.0001,-320.8865 283.5,-310.8865 280.0001,-320.8866 287.0001,-320.8865"/>
</g>
<!-- WAIT_FOR_EVENTS -->
<g id="node8" class="node">
<title>WAIT_FOR_EVENTS</title>
<ellipse fill="#a4d3ee" stroke="#000000" cx="283.5" cy="-163.3981" rx="74.2963" ry="74.2963"/>
<text text-anchor="start" x="221" y="-160.6981" font-family="Times,serif" font-weight="bold" font-size="14.00" fill="#000000">Wait for mesh events</text>
<text text-anchor="middle" x="141.1019" y="-241.5962" font-family="Times,serif" font-size="14.00" fill="#000000">Process incoming events</text>
</g>
<!-- LISTEN&#45;&gt;WAIT_FOR_EVENTS -->
<g id="edge3" class="edge">
<title>LISTEN&#45;&gt;WAIT_FOR_EVENTS</title>
<path fill="none" stroke="#000000" d="M283.5,-274.531C283.5,-267.0594 283.5,-257.8416 283.5,-247.9371"/>
<polygon fill="#000000" stroke="#000000" points="287.0001,-247.8428 283.5,-237.8428 280.0001,-247.8428 287.0001,-247.8428"/>
</g>
<!-- ATTENTION_TIMER -->
<g id="node4" class="node">
<title>ATTENTION_TIMER</title>
<polygon fill="none" stroke="#000000" points="361.5,-38 205.5,-38 205.5,0 361.5,0 361.5,-38"/>
<text text-anchor="middle" x="283.5" y="-22.8" font-family="Times,serif" font-size="14.00" fill="#000000">Identify device for</text>
<text text-anchor="middle" x="283.5" y="-7.8" font-family="Times,serif" font-size="14.00" fill="#000000">a provided period of time</text>
</g>
<!-- START_PROVISION -->
<g id="node5" class="node">
<title>START_PROVISION</title>
<polygon fill="none" stroke="#000000" points="511.5,-38 379.5,-38 379.5,0 511.5,0 511.5,-38"/>
<text text-anchor="middle" x="445.5" y="-22.8" font-family="Times,serif" font-size="14.00" fill="#000000">The device shall stop</text>
<text text-anchor="middle" x="445.5" y="-7.8" font-family="Times,serif" font-size="14.00" fill="#000000">identifying itself</text>
</g>
<!-- PROVIDE_AUTH -->
<g id="node6" class="node">
<title>PROVIDE_AUTH</title>
<polygon fill="none" stroke="#000000" points="187,-37 0,-37 0,-1 187,-1 187,-37"/>
<text text-anchor="start" x="15" y="-22.8" font-family="Times,serif" font-style="italic" font-size="14.00" fill="#000000">Provide authentication data:</text>
<text text-anchor="start" x="8" y="-8.8" font-family="Times,serif" font-size="14.00" fill="#000000">nrf_mesh_prov_auth_provide()</text>
</g>
<!-- PROVIDE_AUTH&#45;&gt;WAIT_FOR_EVENTS -->
<g id="edge7" class="edge">
<title>PROVIDE_AUTH&#45;&gt;WAIT_FOR_EVENTS</title>
<path fill="none" stroke="#191970" d="M117.1899,-37.0041C141.8309,-55.731 181.5498,-85.917 215.9928,-112.0933"/>
<polygon fill="#191970" stroke="#191970" points="214.0849,-115.0394 224.1644,-118.3036 218.3205,-109.4662 214.0849,-115.0394"/>
</g>
<!-- COMPLETE -->
<g id="node7" class="node">
<title>COMPLETE</title>
<path fill="none" stroke="#000000" d="M609.5,-38C609.5,-38 547.5,-38 547.5,-38 541.5,-38 535.5,-32 535.5,-26 535.5,-26 535.5,-12 535.5,-12 535.5,-6 541.5,0 547.5,0 547.5,0 609.5,0 609.5,0 615.5,0 621.5,-6 621.5,-12 621.5,-12 621.5,-26 621.5,-26 621.5,-32 615.5,-38 609.5,-38"/>
<text text-anchor="middle" x="578.5" y="-22.8" font-family="Times,serif" font-size="14.00" fill="#000000">Provisioning</text>
<text text-anchor="middle" x="578.5" y="-7.8" font-family="Times,serif" font-size="14.00" fill="#000000">complete</text>
</g>
<!-- WAIT_FOR_EVENTS&#45;&gt;ATTENTION_TIMER -->
<g id="edge4" class="edge">
<title>WAIT_FOR_EVENTS&#45;&gt;ATTENTION_TIMER</title>
<path fill="none" stroke="#191970" d="M283.5,-88.6613C283.5,-74.3302 283.5,-60.1327 283.5,-48.3309"/>
<polygon fill="#191970" stroke="#191970" points="287.0001,-48.2309 283.5,-38.2309 280.0001,-48.231 287.0001,-48.2309"/>
<text text-anchor="middle" x="343" y="-59.8" font-family="Times,serif" font-size="14.00" fill="#000000">INVITE_RECEIVED</text>
</g>
<!-- WAIT_FOR_EVENTS&#45;&gt;START_PROVISION -->
<g id="edge5" class="edge">
<title>WAIT_FOR_EVENTS&#45;&gt;START_PROVISION</title>
<path fill="none" stroke="#191970" d="M339.2512,-113.7045C365.1728,-90.5993 394.9276,-64.0775 416.3431,-44.9889"/>
<polygon fill="#191970" stroke="#191970" points="418.697,-47.5793 423.8332,-38.3126 414.0393,-42.3538 418.697,-47.5793"/>
<text text-anchor="middle" x="476" y="-59.8" font-family="Times,serif" font-size="14.00" fill="#000000">START_RECEIVED</text>
</g>
<!-- WAIT_FOR_EVENTS&#45;&gt;PROVIDE_AUTH -->
<g id="edge6" class="edge">
<title>WAIT_FOR_EVENTS&#45;&gt;PROVIDE_AUTH</title>
<path fill="none" stroke="#191970" d="M224.1644,-118.3036C191.5453,-93.5135 152.364,-63.7361 125.4671,-43.2947"/>
<polygon fill="#191970" stroke="#191970" points="127.2694,-40.2683 117.1899,-37.0041 123.0338,-45.8415 127.2694,-40.2683"/>
<text text-anchor="middle" x="172" y="-59.8" font-family="Times,serif" font-size="14.00" fill="#000000">STATIC_REQUEST</text>
</g>
<!-- WAIT_FOR_EVENTS&#45;&gt;COMPLETE -->
<g id="edge9" class="edge">
<title>WAIT_FOR_EVENTS&#45;&gt;COMPLETE</title>
<path fill="none" stroke="#191970" d="M350.4401,-130.6319C405.2179,-103.819 481.379,-66.5393 530.3106,-42.588"/>
<polygon fill="#191970" stroke="#191970" points="531.9761,-45.6696 539.4191,-38.1295 528.8986,-39.3824 531.9761,-45.6696"/>
<text text-anchor="middle" x="606" y="-59.8" font-family="Times,serif" font-size="14.00" fill="#000000">PROV_COMPLETE</text>
</g>
<!-- WAIT_FOR_EVENTS&#45;&gt;WAIT_FOR_EVENTS -->
<g id="edge8" class="edge">
<title>WAIT_FOR_EVENTS&#45;&gt;WAIT_FOR_EVENTS</title>
<path fill="none" stroke="#191970" d="M356.3201,-179.2836C367.9426,-176.9589 375.8981,-171.6637 375.8981,-163.3981 375.8981,-157.7155 372.1379,-153.4369 366.011,-150.5623"/>
<polygon fill="#191970" stroke="#191970" points="366.9096,-147.1759 356.3201,-147.5126 364.8083,-153.8531 366.9096,-147.1759"/>
<text text-anchor="middle" x="440.8981" y="-159.6981" font-family="Times,serif" font-size="14.00" fill="#000000">LINK_ESTABLISHED</text>
</g>
</g>
</svg>
