<!DOCTYPE svg PUBLIC "-//W3C//DTD SVG 1.1//EN"
 "http://www.w3.org/Graphics/SVG/1.1/DTD/svg11.dtd">
<svg version="1.1"
 width="1500px" height="908px"
 viewBox="0 0 1500 908"
 xmlns="http://www.w3.org/2000/svg" shape-rendering="crispEdges"
 stroke-width="1" text-rendering="geometricPrecision">
<polygon fill="white" points="156,7 216,7 216,16 156,16"/>
<text x="187" y="16" textLength="59" font-family="Helvetica" font-size="12" fill="black" text-anchor="middle">

Application
</text>
<polygon fill="white" points="530,7 592,7 592,16 530,16"/>
<text x="562" y="16" textLength="60" font-family="Helvetica" font-size="12" fill="black" text-anchor="middle">

Provisioner
</text>
<polygon fill="white" points="904,7 968,7 968,16 904,16"/>
<text x="937" y="16" textLength="63" font-family="Helvetica" font-size="12" fill="black" text-anchor="middle">

Provisionee
</text>
<polygon fill="white" points="1281,7 1341,7 1341,16 1281,16"/>
<text x="1312" y="16" textLength="59" font-family="Helvetica" font-size="12" fill="black" text-anchor="middle">

Application
</text>
<line x1="187" y1="22" x2="187" y2="39" stroke="black"/>
<line x1="562" y1="22" x2="562" y2="39" stroke="black"/>
<line x1="937" y1="22" x2="937" y2="39" stroke="black"/>
<line x1="1312" y1="22" x2="1312" y2="39" stroke="black"/>
<line x1="93" y1="27" x2="1407" y2="27" stroke="black" stroke-dasharray="2,2"/>
<polygon fill="white" points="664,23 834,23 834,32 664,32"/>
<text x="665" y="32" textLength="168" font-family="Helvetica" font-size="12" fill="black">
Unprovisioned node advertising
</text>
<line x1="187" y1="39" x2="187" y2="67" stroke="black"/>
<line x1="562" y1="39" x2="562" y2="67" stroke="black"/>
<line x1="937" y1="39" x2="937" y2="67" stroke="black"/>
<line x1="1312" y1="39" x2="1312" y2="67" stroke="black"/>
<line x1="937" y1="50" x2="562" y2="50" stroke="#FF9900"/>
<line x1="562" y1="50" x2="572" y2="56" stroke="#FF9900"/>
<polygon fill="white" points="653,40 845,40 845,49 653,49"/>
<text x="654" y="49" textLength="190" font-family="Helvetica" font-size="12" fill="black">
Unprovisioned node beacon (UUID)
</text>
<line x1="187" y1="67" x2="187" y2="95" stroke="black"/>
<line x1="562" y1="67" x2="562" y2="95" stroke="black"/>
<line x1="937" y1="67" x2="937" y2="95" stroke="black"/>
<line x1="1312" y1="67" x2="1312" y2="95" stroke="black"/>
<line x1="562" y1="78" x2="187" y2="78" stroke="black"/>
<line x1="187" y1="78" x2="197" y2="84" stroke="black"/>
<polygon fill="white" points="238,68 511,68 511,77 238,77"/>
<text x="239" y="77" textLength="271" font-family="Helvetica" font-size="12" fill="black">
NRF_MESH_EVT_UNPROVISIONED_RECEIVED
</text>
<line x1="187" y1="95" x2="187" y2="112" stroke="black" stroke-dasharray="2,2"/>
<line x1="562" y1="95" x2="562" y2="112" stroke="black" stroke-dasharray="2,2"/>
<line x1="937" y1="95" x2="937" y2="112" stroke="black" stroke-dasharray="2,2"/>
<line x1="1312" y1="95" x2="1312" y2="112" stroke="black" stroke-dasharray="2,2"/>
<line x1="187" y1="112" x2="187" y2="140" stroke="black"/>
<line x1="562" y1="112" x2="562" y2="140" stroke="black"/>
<line x1="937" y1="112" x2="937" y2="140" stroke="black"/>
<line x1="1312" y1="112" x2="1312" y2="140" stroke="black"/>
<line x1="937" y1="123" x2="562" y2="123" stroke="#FF9900"/>
<line x1="562" y1="123" x2="572" y2="129" stroke="#FF9900"/>
<polygon fill="white" points="653,113 845,113 845,122 653,122"/>
<text x="654" y="122" textLength="190" font-family="Helvetica" font-size="12" fill="black">
Unprovisioned node beacon (UUID)
</text>
<line x1="187" y1="140" x2="187" y2="168" stroke="black"/>
<line x1="562" y1="140" x2="562" y2="168" stroke="black"/>
<line x1="937" y1="140" x2="937" y2="168" stroke="black"/>
<line x1="1312" y1="140" x2="1312" y2="168" stroke="black"/>
<line x1="562" y1="151" x2="187" y2="151" stroke="black"/>
<line x1="187" y1="151" x2="197" y2="157" stroke="black"/>
<polygon fill="white" points="238,141 511,141 511,150 238,150"/>
<text x="239" y="150" textLength="271" font-family="Helvetica" font-size="12" fill="black">
NRF_MESH_EVT_UNPROVISIONED_RECEIVED
</text>
<line x1="187" y1="168" x2="187" y2="185" stroke="black"/>
<line x1="562" y1="168" x2="562" y2="185" stroke="black"/>
<line x1="937" y1="168" x2="937" y2="185" stroke="black"/>
<line x1="1312" y1="168" x2="1312" y2="185" stroke="black"/>
<line x1="93" y1="173" x2="1407" y2="173" stroke="black" stroke-dasharray="2,2"/>
<polygon fill="white" points="677,169 822,169 822,178 677,178"/>
<text x="678" y="178" textLength="143" font-family="Helvetica" font-size="12" fill="black">
PB-ADV link establishment
</text>
<line x1="187" y1="185" x2="187" y2="213" stroke="black"/>
<line x1="562" y1="185" x2="562" y2="213" stroke="black"/>
<line x1="937" y1="185" x2="937" y2="213" stroke="black"/>
<line x1="1312" y1="185" x2="1312" y2="213" stroke="black"/>
<line x1="187" y1="196" x2="562" y2="196" stroke="black"/>
<polygon fill="black" points="562,196 552,202 552,190"/>
<polygon fill="white" points="302,186 447,186 447,195 302,195"/>
<text x="303" y="195" textLength="143" font-family="Helvetica" font-size="12" fill="black">
nrf_mesh_prov_provision()
</text>
<line x1="187" y1="213" x2="187" y2="241" stroke="black"/>
<line x1="562" y1="213" x2="562" y2="241" stroke="black"/>
<line x1="937" y1="213" x2="937" y2="241" stroke="black"/>
<line x1="1312" y1="213" x2="1312" y2="241" stroke="black"/>
<line x1="562" y1="224" x2="937" y2="224" stroke="#0099FF"/>
<line x1="937" y1="224" x2="927" y2="230" stroke="#0099FF"/>
<polygon fill="white" points="677,214 822,214 822,223 677,223"/>
<text x="678" y="223" textLength="143" font-family="Helvetica" font-size="12" fill="black">
Link establishment request
</text>
<line x1="187" y1="241" x2="187" y2="269" stroke="black"/>
<line x1="562" y1="241" x2="562" y2="269" stroke="black"/>
<line x1="937" y1="241" x2="937" y2="269" stroke="black"/>
<line x1="1312" y1="241" x2="1312" y2="269" stroke="black"/>
<line x1="937" y1="252" x2="562" y2="252" stroke="#0099FF"/>
<line x1="562" y1="252" x2="572" y2="258" stroke="#0099FF"/>
<polygon fill="white" points="664,242 834,242 834,251 664,251"/>
<text x="665" y="251" textLength="168" font-family="Helvetica" font-size="12" fill="black">
Link establishment confirmation
</text>
<line x1="187" y1="269" x2="187" y2="297" stroke="black"/>
<line x1="562" y1="269" x2="562" y2="297" stroke="black"/>
<line x1="937" y1="269" x2="937" y2="297" stroke="black"/>
<line x1="1312" y1="269" x2="1312" y2="297" stroke="black"/>
<line x1="562" y1="280" x2="187" y2="280" stroke="black"/>
<line x1="187" y1="280" x2="197" y2="286" stroke="black"/>
<polygon fill="white" points="244,270 505,270 505,279 244,279"/>
<text x="245" y="279" textLength="259" font-family="Helvetica" font-size="12" fill="black">
NRF_MESH_EVT_PROV_LINK_ESTABLISHED
</text>
<line x1="937" y1="280" x2="1312" y2="280" stroke="black"/>
<line x1="1312" y1="280" x2="1302" y2="286" stroke="black"/>
<polygon fill="white" points="994,270 1255,270 1255,279 994,279"/>
<text x="995" y="279" textLength="259" font-family="Helvetica" font-size="12" fill="black">
NRF_MESH_EVT_PROV_LINK_ESTABLISHED
</text>
<line x1="187" y1="297" x2="187" y2="314" stroke="black"/>
<line x1="562" y1="297" x2="562" y2="314" stroke="black"/>
<line x1="937" y1="297" x2="937" y2="314" stroke="black"/>
<line x1="1312" y1="297" x2="1312" y2="314" stroke="black"/>
<line x1="93" y1="302" x2="1407" y2="302" stroke="black" stroke-dasharray="2,2"/>
<polygon fill="white" points="695,298 804,298 804,307 695,307"/>
<text x="696" y="307" textLength="107" font-family="Helvetica" font-size="12" fill="black">
Start of Provisioning
</text>
<line x1="187" y1="314" x2="187" y2="342" stroke="black"/>
<line x1="562" y1="314" x2="562" y2="342" stroke="black"/>
<line x1="937" y1="314" x2="937" y2="342" stroke="black"/>
<line x1="1312" y1="314" x2="1312" y2="342" stroke="black"/>
<line x1="562" y1="325" x2="937" y2="325" stroke="black"/>
<line x1="937" y1="325" x2="927" y2="331" stroke="black"/>
<polygon fill="white" points="700,315 799,315 799,324 700,324"/>
<text x="701" y="324" textLength="97" font-family="Helvetica" font-size="12" fill="black">
Provisioning invite
</text>
<line x1="187" y1="342" x2="187" y2="370" stroke="black"/>
<line x1="562" y1="342" x2="562" y2="370" stroke="black"/>
<line x1="937" y1="342" x2="937" y2="370" stroke="black"/>
<line x1="1312" y1="342" x2="1312" y2="370" stroke="black"/>
<line x1="937" y1="353" x2="562" y2="353" stroke="black"/>
<line x1="562" y1="353" x2="572" y2="359" stroke="black"/>
<polygon fill="white" points="642,343 856,343 856,352 642,352"/>
<text x="643" y="352" textLength="212" font-family="Helvetica" font-size="12" fill="black">
Provisioning capabilities(OOB methods)
</text>
<line x1="187" y1="370" x2="187" y2="398" stroke="black"/>
<line x1="562" y1="370" x2="562" y2="398" stroke="black"/>
<line x1="937" y1="370" x2="937" y2="398" stroke="black"/>
<line x1="1312" y1="370" x2="1312" y2="398" stroke="black"/>
<line x1="562" y1="381" x2="187" y2="381" stroke="black"/>
<line x1="187" y1="381" x2="197" y2="387" stroke="black"/>
<polygon fill="white" points="251,371 497,371 497,380 251,380"/>
<text x="252" y="380" textLength="244" font-family="Helvetica" font-size="12" fill="black">
NRF_MESH_EVT_PROV_CAPS_RECEIVED
</text>
<line x1="187" y1="398" x2="187" y2="426" stroke="black"/>
<line x1="562" y1="398" x2="562" y2="426" stroke="black"/>
<line x1="937" y1="398" x2="937" y2="426" stroke="black"/>
<line x1="1312" y1="398" x2="1312" y2="426" stroke="black"/>
<line x1="187" y1="409" x2="562" y2="409" stroke="black"/>
<polygon fill="black" points="562,409 552,415 552,403"/>
<polygon fill="white" points="303,399 446,399 446,408 303,408"/>
<text x="304" y="408" textLength="141" font-family="Helvetica" font-size="12" fill="black">
nrf_mesh_prov_oob_use()
</text>
<line x1="187" y1="426" x2="187" y2="454" stroke="black"/>
<line x1="562" y1="426" x2="562" y2="454" stroke="black"/>
<line x1="937" y1="426" x2="937" y2="454" stroke="black"/>
<line x1="1312" y1="426" x2="1312" y2="454" stroke="black"/>
<line x1="562" y1="437" x2="937" y2="437" stroke="black"/>
<line x1="937" y1="437" x2="927" y2="443" stroke="black"/>
<polygon fill="white" points="663,427 835,427 835,436 663,436"/>
<text x="664" y="436" textLength="170" font-family="Helvetica" font-size="12" fill="black">
Provisioning start(OOB method)
</text>
<line x1="187" y1="454" x2="187" y2="471" stroke="black"/>
<line x1="562" y1="454" x2="562" y2="471" stroke="black"/>
<line x1="937" y1="454" x2="937" y2="471" stroke="black"/>
<line x1="1312" y1="454" x2="1312" y2="471" stroke="black"/>
<line x1="93" y1="459" x2="1407" y2="459" stroke="black" stroke-dasharray="2,2"/>
<polygon fill="white" points="639,455 860,455 860,464 639,464"/>
<text x="640" y="464" textLength="219" font-family="Helvetica" font-size="12" fill="black">
Key Exchange and Authentication (static)
</text>
<line x1="187" y1="471" x2="187" y2="499" stroke="black"/>
<line x1="562" y1="471" x2="562" y2="499" stroke="black"/>
<line x1="937" y1="471" x2="937" y2="499" stroke="black"/>
<line x1="1312" y1="471" x2="1312" y2="499" stroke="black"/>
<line x1="562" y1="482" x2="937" y2="482" stroke="black"/>
<line x1="937" y1="482" x2="927" y2="488" stroke="black"/>
<polygon fill="white" points="721,472 778,472 778,481 721,481"/>
<text x="722" y="481" textLength="55" font-family="Helvetica" font-size="12" fill="black">
Public key
</text>
<line x1="187" y1="499" x2="187" y2="527" stroke="black"/>
<line x1="562" y1="499" x2="562" y2="527" stroke="black"/>
<line x1="937" y1="499" x2="937" y2="527" stroke="black"/>
<line x1="1312" y1="499" x2="1312" y2="527" stroke="black"/>
<line x1="937" y1="510" x2="1312" y2="510" stroke="black"/>
<line x1="1312" y1="510" x2="1302" y2="516" stroke="black"/>
<polygon fill="white" points="1018,500 1230,500 1230,509 1018,509"/>
<text x="1019" y="509" textLength="210" font-family="Helvetica" font-size="12" fill="black">
NRF_MESH_EVT_STATIC_REQUEST
</text>
<line x1="187" y1="527" x2="187" y2="555" stroke="black"/>
<line x1="562" y1="527" x2="562" y2="555" stroke="black"/>
<line x1="937" y1="527" x2="937" y2="555" stroke="black"/>
<line x1="1312" y1="527" x2="1312" y2="555" stroke="black"/>
<line x1="1312" y1="538" x2="937" y2="538" stroke="black"/>
<polygon fill="black" points="937,538 947,544 947,532"/>
<polygon fill="white" points="1026,528 1222,528 1222,537 1026,537"/>
<text x="1027" y="537" textLength="194" font-family="Helvetica" font-size="12" fill="black">
nrf_mesh_prov_auth_data_provide()
</text>
<line x1="187" y1="555" x2="187" y2="583" stroke="black"/>
<line x1="562" y1="555" x2="562" y2="583" stroke="black"/>
<line x1="937" y1="555" x2="937" y2="583" stroke="black"/>
<line x1="1312" y1="555" x2="1312" y2="583" stroke="black"/>
<line x1="937" y1="566" x2="562" y2="566" stroke="black"/>
<line x1="562" y1="566" x2="572" y2="572" stroke="black"/>
<polygon fill="white" points="721,556 778,556 778,565 721,565"/>
<text x="722" y="565" textLength="55" font-family="Helvetica" font-size="12" fill="black">
Public key
</text>
<line x1="187" y1="583" x2="187" y2="611" stroke="black"/>
<line x1="562" y1="583" x2="562" y2="611" stroke="black"/>
<line x1="937" y1="583" x2="937" y2="611" stroke="black"/>
<line x1="1312" y1="583" x2="1312" y2="611" stroke="black"/>
<line x1="562" y1="594" x2="187" y2="594" stroke="black"/>
<line x1="187" y1="594" x2="197" y2="600" stroke="black"/>
<polygon fill="white" points="268,584 480,584 480,593 268,593"/>
<text x="269" y="593" textLength="210" font-family="Helvetica" font-size="12" fill="black">
NRF_MESH_EVT_STATIC_REQUEST
</text>
<line x1="187" y1="611" x2="187" y2="639" stroke="black"/>
<line x1="562" y1="611" x2="562" y2="639" stroke="black"/>
<line x1="937" y1="611" x2="937" y2="639" stroke="black"/>
<line x1="1312" y1="611" x2="1312" y2="639" stroke="black"/>
<line x1="187" y1="622" x2="562" y2="622" stroke="black"/>
<polygon fill="black" points="562,622 552,628 552,616"/>
<polygon fill="white" points="276,612 472,612 472,621 276,621"/>
<text x="277" y="621" textLength="194" font-family="Helvetica" font-size="12" fill="black">
nrf_mesh_prov_auth_data_provide()
</text>
<line x1="187" y1="639" x2="187" y2="667" stroke="black"/>
<line x1="562" y1="639" x2="562" y2="667" stroke="black"/>
<line x1="937" y1="639" x2="937" y2="667" stroke="black"/>
<line x1="1312" y1="639" x2="1312" y2="667" stroke="black"/>
<line x1="562" y1="650" x2="937" y2="650" stroke="black"/>
<line x1="937" y1="650" x2="927" y2="656" stroke="black"/>
<polygon fill="white" points="681,640 817,640 817,649 681,649"/>
<text x="682" y="649" textLength="134" font-family="Helvetica" font-size="12" fill="black">
Provisioning confirmation
</text>
<line x1="187" y1="667" x2="187" y2="695" stroke="black"/>
<line x1="562" y1="667" x2="562" y2="695" stroke="black"/>
<line x1="937" y1="667" x2="937" y2="695" stroke="black"/>
<line x1="1312" y1="667" x2="1312" y2="695" stroke="black"/>
<line x1="937" y1="678" x2="562" y2="678" stroke="black"/>
<line x1="562" y1="678" x2="572" y2="684" stroke="black"/>
<polygon fill="white" points="681,668 817,668 817,677 681,677"/>
<text x="682" y="677" textLength="134" font-family="Helvetica" font-size="12" fill="black">
Provisioning confirmation
</text>
<line x1="187" y1="695" x2="187" y2="723" stroke="black"/>
<line x1="562" y1="695" x2="562" y2="723" stroke="black"/>
<line x1="937" y1="695" x2="937" y2="723" stroke="black"/>
<line x1="1312" y1="695" x2="1312" y2="723" stroke="black"/>
<line x1="562" y1="706" x2="937" y2="706" stroke="black"/>
<line x1="937" y1="706" x2="927" y2="712" stroke="black"/>
<polygon fill="white" points="694,696 805,696 805,705 694,705"/>
<text x="695" y="705" textLength="109" font-family="Helvetica" font-size="12" fill="black">
Provisioning random
</text>
<line x1="187" y1="723" x2="187" y2="751" stroke="black"/>
<line x1="562" y1="723" x2="562" y2="751" stroke="black"/>
<line x1="937" y1="723" x2="937" y2="751" stroke="black"/>
<line x1="1312" y1="723" x2="1312" y2="751" stroke="black"/>
<line x1="937" y1="734" x2="562" y2="734" stroke="black"/>
<line x1="562" y1="734" x2="572" y2="740" stroke="black"/>
<polygon fill="white" points="694,724 805,724 805,733 694,733"/>
<text x="695" y="733" textLength="109" font-family="Helvetica" font-size="12" fill="black">
Provisioning random
</text>
<line x1="187" y1="751" x2="187" y2="768" stroke="black"/>
<line x1="562" y1="751" x2="562" y2="768" stroke="black"/>
<line x1="937" y1="751" x2="937" y2="768" stroke="black"/>
<line x1="1312" y1="751" x2="1312" y2="768" stroke="black"/>
<line x1="93" y1="756" x2="1407" y2="756" stroke="black" stroke-dasharray="2,2"/>
<polygon fill="white" points="666,752 832,752 832,761 666,761"/>
<text x="667" y="761" textLength="164" font-family="Helvetica" font-size="12" fill="black">
Exchange of Provisioning Data
</text>
<line x1="187" y1="768" x2="187" y2="796" stroke="black"/>
<line x1="562" y1="768" x2="562" y2="796" stroke="black"/>
<line x1="937" y1="768" x2="937" y2="796" stroke="black"/>
<line x1="1312" y1="768" x2="1312" y2="796" stroke="black"/>
<line x1="562" y1="779" x2="937" y2="779" stroke="black"/>
<line x1="937" y1="779" x2="927" y2="785" stroke="black"/>
<polygon fill="white" points="702,769 796,769 796,778 702,778"/>
<text x="703" y="778" textLength="92" font-family="Helvetica" font-size="12" fill="black">
Provisioning data
</text>
<line x1="187" y1="796" x2="187" y2="824" stroke="black"/>
<line x1="562" y1="796" x2="562" y2="824" stroke="black"/>
<line x1="937" y1="796" x2="937" y2="824" stroke="black"/>
<line x1="1312" y1="796" x2="1312" y2="824" stroke="black"/>
<line x1="937" y1="807" x2="562" y2="807" stroke="black"/>
<line x1="562" y1="807" x2="572" y2="813" stroke="black"/>
<polygon fill="white" points="690,797 809,797 809,806 690,806"/>
<text x="691" y="806" textLength="117" font-family="Helvetica" font-size="12" fill="black">
Provisioning complete
</text>
<line x1="187" y1="824" x2="187" y2="852" stroke="black"/>
<line x1="562" y1="824" x2="562" y2="852" stroke="black"/>
<line x1="937" y1="824" x2="937" y2="852" stroke="black"/>
<line x1="1312" y1="824" x2="1312" y2="852" stroke="black"/>
<line x1="562" y1="835" x2="187" y2="835" stroke="black"/>
<line x1="187" y1="835" x2="197" y2="841" stroke="black"/>
<polygon fill="white" points="269,825 480,825 480,834 269,834"/>
<text x="270" y="834" textLength="209" font-family="Helvetica" font-size="12" fill="black">
NRF_MESH_EVT_PROV_COMPLETE
</text>
<line x1="937" y1="835" x2="1312" y2="835" stroke="black"/>
<line x1="1312" y1="835" x2="1302" y2="841" stroke="black"/>
<polygon fill="white" points="1019,825 1230,825 1230,834 1019,834"/>
<text x="1020" y="834" textLength="209" font-family="Helvetica" font-size="12" fill="black">
NRF_MESH_EVT_PROV_COMPLETE
</text>
<line x1="187" y1="852" x2="187" y2="880" stroke="black"/>
<line x1="562" y1="852" x2="562" y2="880" stroke="black"/>
<line x1="937" y1="852" x2="937" y2="880" stroke="black"/>
<line x1="1312" y1="852" x2="1312" y2="880" stroke="black"/>
<line x1="562" y1="863" x2="937" y2="863" stroke="#0099FF"/>
<line x1="937" y1="863" x2="927" y2="869" stroke="#0099FF"/>
<polygon fill="white" points="700,853 799,853 799,862 700,862"/>
<text x="701" y="862" textLength="97" font-family="Helvetica" font-size="12" fill="black">
PB-ADV close link
</text>
<line x1="187" y1="880" x2="187" y2="908" stroke="black"/>
<line x1="562" y1="880" x2="562" y2="908" stroke="black"/>
<line x1="937" y1="880" x2="937" y2="908" stroke="black"/>
<line x1="1312" y1="880" x2="1312" y2="908" stroke="black"/>
<line x1="562" y1="891" x2="187" y2="891" stroke="black"/>
<line x1="187" y1="891" x2="197" y2="897" stroke="black"/>
<polygon fill="white" points="260,881 488,881 488,890 260,890"/>
<text x="261" y="890" textLength="226" font-family="Helvetica" font-size="12" fill="black">
NRF_MESH_EVT_PROV_LINK_CLOSED
</text>
<line x1="937" y1="891" x2="1312" y2="891" stroke="black"/>
<line x1="1312" y1="891" x2="1302" y2="897" stroke="black"/>
<polygon fill="white" points="1010,881 1238,881 1238,890 1010,890"/>
<text x="1011" y="890" textLength="226" font-family="Helvetica" font-size="12" fill="black">
NRF_MESH_EVT_PROV_LINK_CLOSED
</text>
<line x1="187" y1="902" x2="187" y2="908" stroke="black"/>
<line x1="562" y1="902" x2="562" y2="908" stroke="black"/>
<line x1="937" y1="902" x2="937" y2="908" stroke="black"/>
<line x1="1312" y1="902" x2="1312" y2="908" stroke="black"/>
</svg>
