<?xml version="1.0" encoding="UTF-8" standalone="no"?>
<!DOCTYPE svg PUBLIC "-//W3C//DTD SVG 1.1//EN"
 "http://www.w3.org/Graphics/SVG/1.1/DTD/svg11.dtd">
<!-- Generated by graphviz version 2.38.0 (20140413.2041)
 -->
<!-- Title: provisionee_application Pages: 1 -->
<svg width="461pt" height="540pt"
 viewBox="0.00 0.00 461.40 539.80" xmlns="http://www.w3.org/2000/svg" xmlns:xlink="http://www.w3.org/1999/xlink">
<g id="graph0" class="graph" transform="scale(1 1) rotate(0) translate(4 535.796)">
<title>provisionee_application</title>
<polygon fill="white" stroke="none" points="-4,4 -4,-535.796 457.398,-535.796 457.398,4 -4,4"/>
<!-- ENTRY -->
<g id="node1" class="node"><title>ENTRY</title>
<ellipse fill="black" stroke="black" cx="231" cy="-513.796" rx="18" ry="18"/>
</g>
<!-- INITIALIZE -->
<g id="node2" class="node"><title>INITIALIZE</title>
<polygon fill="none" stroke="black" points="298,-458.796 164,-458.796 164,-422.796 298,-422.796 298,-458.796"/>
<text text-anchor="middle" x="231" y="-437.096" font-family="Times,serif" font-size="14.00">nrf_mesh_prov_init()</text>
<text text-anchor="middle" x="82" y="-462.596" font-family="Times,serif" font-size="14.00">Initialize provisioning context</text>
</g>
<!-- ENTRY&#45;&gt;INITIALIZE -->
<g id="edge1" class="edge"><title>ENTRY&#45;&gt;INITIALIZE</title>
<path fill="none" stroke="black" d="M231,-495.609C231,-487.586 231,-477.844 231,-468.865"/>
<polygon fill="black" stroke="black" points="234.5,-468.825 231,-458.825 227.5,-468.825 234.5,-468.825"/>
</g>
<!-- LISTEN -->
<g id="node3" class="node"><title>LISTEN</title>
<polygon fill="none" stroke="black" points="303.5,-385.796 158.5,-385.796 158.5,-349.796 303.5,-349.796 303.5,-385.796"/>
<text text-anchor="middle" x="231" y="-364.096" font-family="Times,serif" font-size="14.00">nrf_mesh_prov_listen()</text>
<text text-anchor="middle" x="89" y="-389.596" font-family="Times,serif" font-size="14.00">Listen for incoming links</text>
</g>
<!-- INITIALIZE&#45;&gt;LISTEN -->
<g id="edge2" class="edge"><title>INITIALIZE&#45;&gt;LISTEN</title>
<path fill="none" stroke="black" d="M231,-422.609C231,-414.586 231,-404.844 231,-395.865"/>
<polygon fill="black" stroke="black" points="234.5,-395.825 231,-385.825 227.5,-395.825 234.5,-395.825"/>
</g>
<!-- WAIT_FOR_EVENTS -->
<g id="node7" class="node"><title>WAIT_FOR_EVENTS</title>
<ellipse fill="#a4d3ee" stroke="black" cx="231" cy="-238.398" rx="74.2963" ry="74.2963"/>
<text text-anchor="start" x="168.5" y="-235.698" font-family="Times,serif" font-weight="bold" font-size="14.00">Wait for mesh events</text>
<text text-anchor="middle" x="88.6019" y="-316.596" font-family="Times,serif" font-size="14.00">Process incoming events</text>
</g>
<!-- LISTEN&#45;&gt;WAIT_FOR_EVENTS -->
<g id="edge3" class="edge"><title>LISTEN&#45;&gt;WAIT_FOR_EVENTS</title>
<path fill="none" stroke="black" d="M231,-349.615C231,-342.229 231,-333.008 231,-323.065"/>
<polygon fill="black" stroke="black" points="234.5,-322.922 231,-312.922 227.5,-322.922 234.5,-322.922"/>
</g>
<!-- PROVIDE_AUTH -->
<g id="node4" class="node"><title>PROVIDE_AUTH</title>
<polygon fill="none" stroke="black" points="194.5,-112 7.5,-112 7.5,-76 194.5,-76 194.5,-112"/>
<text text-anchor="start" x="22.5" y="-97.8" font-family="Times,serif" font-style="italic" font-size="14.00">Provide authentication data:</text>
<text text-anchor="start" x="15.5" y="-83.8" font-family="Times,serif" font-size="14.00">nrf_mesh_prov_auth_provide()</text>
</g>
<!-- PROVIDE_AUTH&#45;&gt;WAIT_FOR_EVENTS -->
<g id="edge7" class="edge"><title>PROVIDE_AUTH&#45;&gt;WAIT_FOR_EVENTS</title>
<path fill="none" stroke="midnightblue" d="M116.681,-112.177C131.075,-127.943 153.296,-152.283 174.333,-175.327"/>
<polygon fill="midnightblue" stroke="midnightblue" points="171.783,-177.725 181.11,-182.751 176.953,-173.005 171.783,-177.725"/>
</g>
<!-- SETUP_NETWORK -->
<g id="node5" class="node"><title>SETUP_NETWORK</title>
<polygon fill="none" stroke="black" points="361,-113 213,-113 213,-75 361,-75 361,-113"/>
<text text-anchor="middle" x="287" y="-97.8" font-family="Times,serif" font-size="14.00">Configure device using</text>
<text text-anchor="middle" x="287" y="-82.8" font-family="Times,serif" font-size="14.00">the configuration model</text>
</g>
<!-- COMPLETE -->
<g id="node6" class="node"><title>COMPLETE</title>
<path fill="none" stroke="black" d="M318,-38C318,-38 256,-38 256,-38 250,-38 244,-32 244,-26 244,-26 244,-12 244,-12 244,-6 250,-0 256,-0 256,-0 318,-0 318,-0 324,-0 330,-6 330,-12 330,-12 330,-26 330,-26 330,-32 324,-38 318,-38"/>
<text text-anchor="middle" x="287" y="-22.8" font-family="Times,serif" font-size="14.00">Provisioning</text>
<text text-anchor="middle" x="287" y="-7.8" font-family="Times,serif" font-size="14.00">complete</text>
</g>
<!-- SETUP_NETWORK&#45;&gt;COMPLETE -->
<g id="edge8" class="edge"><title>SETUP_NETWORK&#45;&gt;COMPLETE</title>
<path fill="none" stroke="black" d="M287,-74.9551C287,-66.8828 287,-57.1764 287,-48.1817"/>
<polygon fill="black" stroke="black" points="290.5,-48.0903 287,-38.0904 283.5,-48.0904 290.5,-48.0903"/>
</g>
<!-- WAIT_FOR_EVENTS&#45;&gt;PROVIDE_AUTH -->
<g id="edge6" class="edge"><title>WAIT_FOR_EVENTS&#45;&gt;PROVIDE_AUTH</title>
<path fill="none" stroke="midnightblue" d="M181.11,-182.751C161.241,-160.986 139.376,-137.036 123.517,-119.664"/>
<polygon fill="midnightblue" stroke="midnightblue" points="126.008,-117.202 116.681,-112.177 120.838,-121.922 126.008,-117.202"/>
<text text-anchor="middle" x="159.5" y="-134.8" font-family="Times,serif" font-size="14.00">STATIC_REQUEST</text>
</g>
<!-- WAIT_FOR_EVENTS&#45;&gt;SETUP_NETWORK -->
<g id="edge5" class="edge"><title>WAIT_FOR_EVENTS&#45;&gt;SETUP_NETWORK</title>
<path fill="none" stroke="midnightblue" d="M258.016,-168.702C264.435,-152.379 270.923,-135.882 276.128,-122.645"/>
<polygon fill="midnightblue" stroke="midnightblue" points="279.434,-123.803 279.836,-113.216 272.919,-121.241 279.434,-123.803"/>
<text text-anchor="middle" x="328.5" y="-134.8" font-family="Times,serif" font-size="14.00">PROV_COMPLETE</text>
</g>
<!-- WAIT_FOR_EVENTS&#45;&gt;WAIT_FOR_EVENTS -->
<g id="edge4" class="edge"><title>WAIT_FOR_EVENTS&#45;&gt;WAIT_FOR_EVENTS</title>
<path fill="none" stroke="midnightblue" d="M303.82,-254.284C315.443,-251.959 323.398,-246.664 323.398,-238.398 323.398,-232.715 319.638,-228.437 313.511,-225.562"/>
<polygon fill="midnightblue" stroke="midnightblue" points="314.41,-222.176 303.82,-222.513 312.308,-228.853 314.41,-222.176"/>
<text text-anchor="middle" x="388.398" y="-234.698" font-family="Times,serif" font-size="14.00">LINK_ESTABLISHED</text>
</g>
</g>
</svg>
