<!DOCTYPE svg PUBLIC "-//W3C//DTD SVG 1.1//EN"
 "http://www.w3.org/Graphics/SVG/1.1/DTD/svg11.dtd">
<svg version="1.1"
 width="1500px" height="964px"
 viewBox="0 0 1500 964"
 xmlns="http://www.w3.org/2000/svg" shape-rendering="crispEdges"
 stroke-width="1" text-rendering="geometricPrecision">
<polygon fill="white" points="156,7 216,7 216,16 156,16"/>
<text x="187" y="16" textLength="59" font-family="Helvetica" font-size="12" fill="black" text-anchor="middle">

Application
</text>
<polygon fill="white" points="530,7 592,7 592,16 530,16"/>
<text x="562" y="16" textLength="60" font-family="Helvetica" font-size="12" fill="black" text-anchor="middle">

Provisioner
</text>
<polygon fill="white" points="904,7 968,7 968,16 904,16"/>
<text x="937" y="16" textLength="63" font-family="Helvetica" font-size="12" fill="black" text-anchor="middle">

Provisionee
</text>
<polygon fill="white" points="1281,7 1341,7 1341,16 1281,16"/>
<text x="1312" y="16" textLength="59" font-family="Helvetica" font-size="12" fill="black" text-anchor="middle">

Application
</text>
<line x1="187" y1="22" x2="187" y2="39" stroke="black"/>
<line x1="562" y1="22" x2="562" y2="39" stroke="black"/>
<line x1="937" y1="22" x2="937" y2="39" stroke="black"/>
<line x1="1312" y1="22" x2="1312" y2="39" stroke="black"/>
<line x1="93" y1="27" x2="1407" y2="27" stroke="black" stroke-dasharray="2,2"/>
<polygon fill="white" points="664,23 834,23 834,32 664,32"/>
<text x="665" y="32" textLength="168" font-family="Helvetica" font-size="12" fill="black">
Unprovisioned node advertising
</text>
<line x1="187" y1="39" x2="187" y2="67" stroke="black"/>
<line x1="562" y1="39" x2="562" y2="67" stroke="black"/>
<line x1="937" y1="39" x2="937" y2="67" stroke="black"/>
<line x1="1312" y1="39" x2="1312" y2="67" stroke="black"/>
<line x1="937" y1="50" x2="562" y2="50" stroke="#FF9900"/>
<line x1="562" y1="50" x2="572" y2="56" stroke="#FF9900"/>
<polygon fill="white" points="653,40 845,40 845,49 653,49"/>
<text x="654" y="49" textLength="190" font-family="Helvetica" font-size="12" fill="black">
Unprovisioned node beacon (UUID)
</text>
<line x1="187" y1="67" x2="187" y2="95" stroke="black"/>
<line x1="562" y1="67" x2="562" y2="95" stroke="black"/>
<line x1="937" y1="67" x2="937" y2="95" stroke="black"/>
<line x1="1312" y1="67" x2="1312" y2="95" stroke="black"/>
<line x1="562" y1="78" x2="187" y2="78" stroke="black"/>
<line x1="187" y1="78" x2="197" y2="84" stroke="black"/>
<polygon fill="white" points="238,68 511,68 511,77 238,77"/>
<text x="239" y="77" textLength="271" font-family="Helvetica" font-size="12" fill="black">
NRF_MESH_EVT_UNPROVISIONED_RECEIVED
</text>
<line x1="187" y1="95" x2="187" y2="112" stroke="black" stroke-dasharray="2,2"/>
<line x1="562" y1="95" x2="562" y2="112" stroke="black" stroke-dasharray="2,2"/>
<line x1="937" y1="95" x2="937" y2="112" stroke="black" stroke-dasharray="2,2"/>
<line x1="1312" y1="95" x2="1312" y2="112" stroke="black" stroke-dasharray="2,2"/>
<line x1="187" y1="112" x2="187" y2="140" stroke="black"/>
<line x1="562" y1="112" x2="562" y2="140" stroke="black"/>
<line x1="937" y1="112" x2="937" y2="140" stroke="black"/>
<line x1="1312" y1="112" x2="1312" y2="140" stroke="black"/>
<line x1="937" y1="123" x2="562" y2="123" stroke="#FF9900"/>
<line x1="562" y1="123" x2="572" y2="129" stroke="#FF9900"/>
<polygon fill="white" points="653,113 845,113 845,122 653,122"/>
<text x="654" y="122" textLength="190" font-family="Helvetica" font-size="12" fill="black">
Unprovisioned node beacon (UUID)
</text>
<line x1="187" y1="140" x2="187" y2="168" stroke="black"/>
<line x1="562" y1="140" x2="562" y2="168" stroke="black"/>
<line x1="937" y1="140" x2="937" y2="168" stroke="black"/>
<line x1="1312" y1="140" x2="1312" y2="168" stroke="black"/>
<line x1="562" y1="151" x2="187" y2="151" stroke="black"/>
<line x1="187" y1="151" x2="197" y2="157" stroke="black"/>
<polygon fill="white" points="238,141 511,141 511,150 238,150"/>
<text x="239" y="150" textLength="271" font-family="Helvetica" font-size="12" fill="black">
NRF_MESH_EVT_UNPROVISIONED_RECEIVED
</text>
<line x1="187" y1="168" x2="187" y2="185" stroke="black"/>
<line x1="562" y1="168" x2="562" y2="185" stroke="black"/>
<line x1="937" y1="168" x2="937" y2="185" stroke="black"/>
<line x1="1312" y1="168" x2="1312" y2="185" stroke="black"/>
<line x1="93" y1="173" x2="1407" y2="173" stroke="black" stroke-dasharray="2,2"/>
<polygon fill="white" points="677,169 822,169 822,178 677,178"/>
<text x="678" y="178" textLength="143" font-family="Helvetica" font-size="12" fill="black">
PB-ADV link establishment
</text>
<line x1="187" y1="185" x2="187" y2="213" stroke="black"/>
<line x1="562" y1="185" x2="562" y2="213" stroke="black"/>
<line x1="937" y1="185" x2="937" y2="213" stroke="black"/>
<line x1="1312" y1="185" x2="1312" y2="213" stroke="black"/>
<line x1="187" y1="196" x2="562" y2="196" stroke="black"/>
<polygon fill="black" points="562,196 552,202 552,190"/>
<polygon fill="white" points="302,186 447,186 447,195 302,195"/>
<text x="303" y="195" textLength="143" font-family="Helvetica" font-size="12" fill="black">
nrf_mesh_prov_provision()
</text>
<line x1="187" y1="213" x2="187" y2="241" stroke="black"/>
<line x1="562" y1="213" x2="562" y2="241" stroke="black"/>
<line x1="937" y1="213" x2="937" y2="241" stroke="black"/>
<line x1="1312" y1="213" x2="1312" y2="241" stroke="black"/>
<line x1="562" y1="224" x2="937" y2="224" stroke="#0099FF"/>
<line x1="937" y1="224" x2="927" y2="230" stroke="#0099FF"/>
<polygon fill="white" points="677,214 822,214 822,223 677,223"/>
<text x="678" y="223" textLength="143" font-family="Helvetica" font-size="12" fill="black">
Link establishment request
</text>
<line x1="187" y1="241" x2="187" y2="269" stroke="black"/>
<line x1="562" y1="241" x2="562" y2="269" stroke="black"/>
<line x1="937" y1="241" x2="937" y2="269" stroke="black"/>
<line x1="1312" y1="241" x2="1312" y2="269" stroke="black"/>
<line x1="937" y1="252" x2="562" y2="252" stroke="#0099FF"/>
<line x1="562" y1="252" x2="572" y2="258" stroke="#0099FF"/>
<polygon fill="white" points="664,242 834,242 834,251 664,251"/>
<text x="665" y="251" textLength="168" font-family="Helvetica" font-size="12" fill="black">
Link establishment confirmation
</text>
<line x1="187" y1="269" x2="187" y2="297" stroke="black"/>
<line x1="562" y1="269" x2="562" y2="297" stroke="black"/>
<line x1="937" y1="269" x2="937" y2="297" stroke="black"/>
<line x1="1312" y1="269" x2="1312" y2="297" stroke="black"/>
<line x1="562" y1="280" x2="187" y2="280" stroke="black"/>
<line x1="187" y1="280" x2="197" y2="286" stroke="black"/>
<polygon fill="white" points="244,270 505,270 505,279 244,279"/>
<text x="245" y="279" textLength="259" font-family="Helvetica" font-size="12" fill="black">
NRF_MESH_EVT_PROV_LINK_ESTABLISHED
</text>
<line x1="937" y1="280" x2="1312" y2="280" stroke="black"/>
<line x1="1312" y1="280" x2="1302" y2="286" stroke="black"/>
<polygon fill="white" points="994,270 1255,270 1255,279 994,279"/>
<text x="995" y="279" textLength="259" font-family="Helvetica" font-size="12" fill="black">
NRF_MESH_EVT_PROV_LINK_ESTABLISHED
</text>
<line x1="187" y1="297" x2="187" y2="314" stroke="black"/>
<line x1="562" y1="297" x2="562" y2="314" stroke="black"/>
<line x1="937" y1="297" x2="937" y2="314" stroke="black"/>
<line x1="1312" y1="297" x2="1312" y2="314" stroke="black"/>
<line x1="93" y1="302" x2="1407" y2="302" stroke="black" stroke-dasharray="2,2"/>
<polygon fill="white" points="695,298 804,298 804,307 695,307"/>
<text x="696" y="307" textLength="107" font-family="Helvetica" font-size="12" fill="black">
Start of Provisioning
</text>
<line x1="187" y1="314" x2="187" y2="342" stroke="black"/>
<line x1="562" y1="314" x2="562" y2="342" stroke="black"/>
<line x1="937" y1="314" x2="937" y2="342" stroke="black"/>
<line x1="1312" y1="314" x2="1312" y2="342" stroke="black"/>
<line x1="562" y1="325" x2="937" y2="325" stroke="black"/>
<line x1="937" y1="325" x2="927" y2="331" stroke="black"/>
<polygon fill="white" points="700,315 799,315 799,324 700,324"/>
<text x="701" y="324" textLength="97" font-family="Helvetica" font-size="12" fill="black">
Provisioning invite
</text>
<line x1="187" y1="342" x2="187" y2="370" stroke="black"/>
<line x1="562" y1="342" x2="562" y2="370" stroke="black"/>
<line x1="937" y1="342" x2="937" y2="370" stroke="black"/>
<line x1="1312" y1="342" x2="1312" y2="370" stroke="black"/>
<line x1="937" y1="353" x2="1312" y2="353" stroke="black"/>
<line x1="1312" y1="353" x2="1302" y2="359" stroke="black"/>
<polygon fill="white" points="998,343 1250,343 1250,352 998,352"/>
<text x="999" y="352" textLength="250" font-family="Helvetica" font-size="12" fill="black">
NRF_MESH_EVT_PROV_INVITE_RECEIVED
</text>
<line x1="187" y1="370" x2="187" y2="398" stroke="black"/>
<line x1="562" y1="370" x2="562" y2="398" stroke="black"/>
<line x1="937" y1="370" x2="937" y2="398" stroke="black"/>
<line x1="1312" y1="370" x2="1312" y2="398" stroke="black"/>
<line x1="937" y1="381" x2="562" y2="381" stroke="black"/>
<line x1="562" y1="381" x2="572" y2="387" stroke="black"/>
<polygon fill="white" points="642,371 856,371 856,380 642,380"/>
<text x="643" y="380" textLength="212" font-family="Helvetica" font-size="12" fill="black">
Provisioning capabilities(OOB methods)
</text>
<line x1="187" y1="398" x2="187" y2="426" stroke="black"/>
<line x1="562" y1="398" x2="562" y2="426" stroke="black"/>
<line x1="937" y1="398" x2="937" y2="426" stroke="black"/>
<line x1="1312" y1="398" x2="1312" y2="426" stroke="black"/>
<line x1="562" y1="409" x2="187" y2="409" stroke="black"/>
<line x1="187" y1="409" x2="197" y2="415" stroke="black"/>
<polygon fill="white" points="251,399 497,399 497,408 251,408"/>
<text x="252" y="408" textLength="244" font-family="Helvetica" font-size="12" fill="black">
NRF_MESH_EVT_PROV_CAPS_RECEIVED
</text>
<line x1="187" y1="426" x2="187" y2="454" stroke="black"/>
<line x1="562" y1="426" x2="562" y2="454" stroke="black"/>
<line x1="937" y1="426" x2="937" y2="454" stroke="black"/>
<line x1="1312" y1="426" x2="1312" y2="454" stroke="black"/>
<line x1="187" y1="437" x2="562" y2="437" stroke="black"/>
<polygon fill="black" points="562,437 552,443 552,431"/>
<polygon fill="white" points="303,427 446,427 446,436 303,436"/>
<text x="304" y="436" textLength="141" font-family="Helvetica" font-size="12" fill="black">
nrf_mesh_prov_oob_use()
</text>
<line x1="187" y1="454" x2="187" y2="482" stroke="black"/>
<line x1="562" y1="454" x2="562" y2="482" stroke="black"/>
<line x1="937" y1="454" x2="937" y2="482" stroke="black"/>
<line x1="1312" y1="454" x2="1312" y2="482" stroke="black"/>
<line x1="562" y1="465" x2="937" y2="465" stroke="black"/>
<line x1="937" y1="465" x2="927" y2="471" stroke="black"/>
<polygon fill="white" points="663,455 835,455 835,464 663,464"/>
<text x="664" y="464" textLength="170" font-family="Helvetica" font-size="12" fill="black">
Provisioning start(OOB method)
</text>
<line x1="187" y1="482" x2="187" y2="510" stroke="black"/>
<line x1="562" y1="482" x2="562" y2="510" stroke="black"/>
<line x1="937" y1="482" x2="937" y2="510" stroke="black"/>
<line x1="1312" y1="482" x2="1312" y2="510" stroke="black"/>
<line x1="937" y1="493" x2="1312" y2="493" stroke="black"/>
<line x1="1312" y1="493" x2="1302" y2="499" stroke="black"/>
<polygon fill="white" points="998,483 1251,483 1251,492 998,492"/>
<text x="999" y="492" textLength="251" font-family="Helvetica" font-size="12" fill="black">
NRF_MESH_EVT_PROV_START_RECEIVED
</text>
<line x1="187" y1="510" x2="187" y2="527" stroke="black"/>
<line x1="562" y1="510" x2="562" y2="527" stroke="black"/>
<line x1="937" y1="510" x2="937" y2="527" stroke="black"/>
<line x1="1312" y1="510" x2="1312" y2="527" stroke="black"/>
<line x1="93" y1="515" x2="1407" y2="515" stroke="black" stroke-dasharray="2,2"/>
<polygon fill="white" points="639,511 860,511 860,520 639,520"/>
<text x="640" y="520" textLength="219" font-family="Helvetica" font-size="12" fill="black">
Key Exchange and Authentication (static)
</text>
<line x1="187" y1="527" x2="187" y2="555" stroke="black"/>
<line x1="562" y1="527" x2="562" y2="555" stroke="black"/>
<line x1="937" y1="527" x2="937" y2="555" stroke="black"/>
<line x1="1312" y1="527" x2="1312" y2="555" stroke="black"/>
<line x1="562" y1="538" x2="937" y2="538" stroke="black"/>
<line x1="937" y1="538" x2="927" y2="544" stroke="black"/>
<polygon fill="white" points="721,528 778,528 778,537 721,537"/>
<text x="722" y="537" textLength="55" font-family="Helvetica" font-size="12" fill="black">
Public key
</text>
<line x1="187" y1="555" x2="187" y2="583" stroke="black"/>
<line x1="562" y1="555" x2="562" y2="583" stroke="black"/>
<line x1="937" y1="555" x2="937" y2="583" stroke="black"/>
<line x1="1312" y1="555" x2="1312" y2="583" stroke="black"/>
<line x1="937" y1="566" x2="1312" y2="566" stroke="black"/>
<line x1="1312" y1="566" x2="1302" y2="572" stroke="black"/>
<polygon fill="white" points="1018,556 1230,556 1230,565 1018,565"/>
<text x="1019" y="565" textLength="210" font-family="Helvetica" font-size="12" fill="black">
NRF_MESH_EVT_STATIC_REQUEST
</text>
<line x1="187" y1="583" x2="187" y2="611" stroke="black"/>
<line x1="562" y1="583" x2="562" y2="611" stroke="black"/>
<line x1="937" y1="583" x2="937" y2="611" stroke="black"/>
<line x1="1312" y1="583" x2="1312" y2="611" stroke="black"/>
<line x1="1312" y1="594" x2="937" y2="594" stroke="black"/>
<polygon fill="black" points="937,594 947,600 947,588"/>
<polygon fill="white" points="1026,584 1222,584 1222,593 1026,593"/>
<text x="1027" y="593" textLength="194" font-family="Helvetica" font-size="12" fill="black">
nrf_mesh_prov_auth_data_provide()
</text>
<line x1="187" y1="611" x2="187" y2="639" stroke="black"/>
<line x1="562" y1="611" x2="562" y2="639" stroke="black"/>
<line x1="937" y1="611" x2="937" y2="639" stroke="black"/>
<line x1="1312" y1="611" x2="1312" y2="639" stroke="black"/>
<line x1="937" y1="622" x2="562" y2="622" stroke="black"/>
<line x1="562" y1="622" x2="572" y2="628" stroke="black"/>
<polygon fill="white" points="721,612 778,612 778,621 721,621"/>
<text x="722" y="621" textLength="55" font-family="Helvetica" font-size="12" fill="black">
Public key
</text>
<line x1="187" y1="639" x2="187" y2="667" stroke="black"/>
<line x1="562" y1="639" x2="562" y2="667" stroke="black"/>
<line x1="937" y1="639" x2="937" y2="667" stroke="black"/>
<line x1="1312" y1="639" x2="1312" y2="667" stroke="black"/>
<line x1="562" y1="650" x2="187" y2="650" stroke="black"/>
<line x1="187" y1="650" x2="197" y2="656" stroke="black"/>
<polygon fill="white" points="268,640 480,640 480,649 268,649"/>
<text x="269" y="649" textLength="210" font-family="Helvetica" font-size="12" fill="black">
NRF_MESH_EVT_STATIC_REQUEST
</text>
<line x1="187" y1="667" x2="187" y2="695" stroke="black"/>
<line x1="562" y1="667" x2="562" y2="695" stroke="black"/>
<line x1="937" y1="667" x2="937" y2="695" stroke="black"/>
<line x1="1312" y1="667" x2="1312" y2="695" stroke="black"/>
<line x1="187" y1="678" x2="562" y2="678" stroke="black"/>
<polygon fill="black" points="562,678 552,684 552,672"/>
<polygon fill="white" points="276,668 472,668 472,677 276,677"/>
<text x="277" y="677" textLength="194" font-family="Helvetica" font-size="12" fill="black">
nrf_mesh_prov_auth_data_provide()
</text>
<line x1="187" y1="695" x2="187" y2="723" stroke="black"/>
<line x1="562" y1="695" x2="562" y2="723" stroke="black"/>
<line x1="937" y1="695" x2="937" y2="723" stroke="black"/>
<line x1="1312" y1="695" x2="1312" y2="723" stroke="black"/>
<line x1="562" y1="706" x2="937" y2="706" stroke="black"/>
<line x1="937" y1="706" x2="927" y2="712" stroke="black"/>
<polygon fill="white" points="681,696 817,696 817,705 681,705"/>
<text x="682" y="705" textLength="134" font-family="Helvetica" font-size="12" fill="black">
Provisioning confirmation
</text>
<line x1="187" y1="723" x2="187" y2="751" stroke="black"/>
<line x1="562" y1="723" x2="562" y2="751" stroke="black"/>
<line x1="937" y1="723" x2="937" y2="751" stroke="black"/>
<line x1="1312" y1="723" x2="1312" y2="751" stroke="black"/>
<line x1="937" y1="734" x2="562" y2="734" stroke="black"/>
<line x1="562" y1="734" x2="572" y2="740" stroke="black"/>
<polygon fill="white" points="681,724 817,724 817,733 681,733"/>
<text x="682" y="733" textLength="134" font-family="Helvetica" font-size="12" fill="black">
Provisioning confirmation
</text>
<line x1="187" y1="751" x2="187" y2="779" stroke="black"/>
<line x1="562" y1="751" x2="562" y2="779" stroke="black"/>
<line x1="937" y1="751" x2="937" y2="779" stroke="black"/>
<line x1="1312" y1="751" x2="1312" y2="779" stroke="black"/>
<line x1="562" y1="762" x2="937" y2="762" stroke="black"/>
<line x1="937" y1="762" x2="927" y2="768" stroke="black"/>
<polygon fill="white" points="694,752 805,752 805,761 694,761"/>
<text x="695" y="761" textLength="109" font-family="Helvetica" font-size="12" fill="black">
Provisioning random
</text>
<line x1="187" y1="779" x2="187" y2="807" stroke="black"/>
<line x1="562" y1="779" x2="562" y2="807" stroke="black"/>
<line x1="937" y1="779" x2="937" y2="807" stroke="black"/>
<line x1="1312" y1="779" x2="1312" y2="807" stroke="black"/>
<line x1="937" y1="790" x2="562" y2="790" stroke="black"/>
<line x1="562" y1="790" x2="572" y2="796" stroke="black"/>
<polygon fill="white" points="694,780 805,780 805,789 694,789"/>
<text x="695" y="789" textLength="109" font-family="Helvetica" font-size="12" fill="black">
Provisioning random
</text>
<line x1="187" y1="807" x2="187" y2="824" stroke="black"/>
<line x1="562" y1="807" x2="562" y2="824" stroke="black"/>
<line x1="937" y1="807" x2="937" y2="824" stroke="black"/>
<line x1="1312" y1="807" x2="1312" y2="824" stroke="black"/>
<line x1="93" y1="812" x2="1407" y2="812" stroke="black" stroke-dasharray="2,2"/>
<polygon fill="white" points="666,808 832,808 832,817 666,817"/>
<text x="667" y="817" textLength="164" font-family="Helvetica" font-size="12" fill="black">
Exchange of Provisioning Data
</text>
<line x1="187" y1="824" x2="187" y2="852" stroke="black"/>
<line x1="562" y1="824" x2="562" y2="852" stroke="black"/>
<line x1="937" y1="824" x2="937" y2="852" stroke="black"/>
<line x1="1312" y1="824" x2="1312" y2="852" stroke="black"/>
<line x1="562" y1="835" x2="937" y2="835" stroke="black"/>
<line x1="937" y1="835" x2="927" y2="841" stroke="black"/>
<polygon fill="white" points="702,825 796,825 796,834 702,834"/>
<text x="703" y="834" textLength="92" font-family="Helvetica" font-size="12" fill="black">
Provisioning data
</text>
<line x1="187" y1="852" x2="187" y2="880" stroke="black"/>
<line x1="562" y1="852" x2="562" y2="880" stroke="black"/>
<line x1="937" y1="852" x2="937" y2="880" stroke="black"/>
<line x1="1312" y1="852" x2="1312" y2="880" stroke="black"/>
<line x1="937" y1="863" x2="562" y2="863" stroke="black"/>
<line x1="562" y1="863" x2="572" y2="869" stroke="black"/>
<polygon fill="white" points="690,853 809,853 809,862 690,862"/>
<text x="691" y="862" textLength="117" font-family="Helvetica" font-size="12" fill="black">
Provisioning complete
</text>
<line x1="187" y1="880" x2="187" y2="908" stroke="black"/>
<line x1="562" y1="880" x2="562" y2="908" stroke="black"/>
<line x1="937" y1="880" x2="937" y2="908" stroke="black"/>
<line x1="1312" y1="880" x2="1312" y2="908" stroke="black"/>
<line x1="562" y1="891" x2="187" y2="891" stroke="black"/>
<line x1="187" y1="891" x2="197" y2="897" stroke="black"/>
<polygon fill="white" points="269,881 480,881 480,890 269,890"/>
<text x="270" y="890" textLength="209" font-family="Helvetica" font-size="12" fill="black">
NRF_MESH_EVT_PROV_COMPLETE
</text>
<line x1="937" y1="891" x2="1312" y2="891" stroke="black"/>
<line x1="1312" y1="891" x2="1302" y2="897" stroke="black"/>
<polygon fill="white" points="1019,881 1230,881 1230,890 1019,890"/>
<text x="1020" y="890" textLength="209" font-family="Helvetica" font-size="12" fill="black">
NRF_MESH_EVT_PROV_COMPLETE
</text>
<line x1="187" y1="908" x2="187" y2="936" stroke="black"/>
<line x1="562" y1="908" x2="562" y2="936" stroke="black"/>
<line x1="937" y1="908" x2="937" y2="936" stroke="black"/>
<line x1="1312" y1="908" x2="1312" y2="936" stroke="black"/>
<line x1="562" y1="919" x2="937" y2="919" stroke="#0099FF"/>
<line x1="937" y1="919" x2="927" y2="925" stroke="#0099FF"/>
<polygon fill="white" points="700,909 799,909 799,918 700,918"/>
<text x="701" y="918" textLength="97" font-family="Helvetica" font-size="12" fill="black">
PB-ADV close link
</text>
<line x1="187" y1="936" x2="187" y2="964" stroke="black"/>
<line x1="562" y1="936" x2="562" y2="964" stroke="black"/>
<line x1="937" y1="936" x2="937" y2="964" stroke="black"/>
<line x1="1312" y1="936" x2="1312" y2="964" stroke="black"/>
<line x1="562" y1="947" x2="187" y2="947" stroke="black"/>
<line x1="187" y1="947" x2="197" y2="953" stroke="black"/>
<polygon fill="white" points="260,937 488,937 488,946 260,946"/>
<text x="261" y="946" textLength="226" font-family="Helvetica" font-size="12" fill="black">
NRF_MESH_EVT_PROV_LINK_CLOSED
</text>
<line x1="937" y1="947" x2="1312" y2="947" stroke="black"/>
<line x1="1312" y1="947" x2="1302" y2="953" stroke="black"/>
<polygon fill="white" points="1010,937 1238,937 1238,946 1010,946"/>
<text x="1011" y="946" textLength="226" font-family="Helvetica" font-size="12" fill="black">
NRF_MESH_EVT_PROV_LINK_CLOSED
</text>
<line x1="187" y1="958" x2="187" y2="964" stroke="black"/>
<line x1="562" y1="958" x2="562" y2="964" stroke="black"/>
<line x1="937" y1="958" x2="937" y2="964" stroke="black"/>
<line x1="1312" y1="958" x2="1312" y2="964" stroke="black"/>
</svg>
