<?xml version="1.0" encoding="UTF-8"?><svg xmlns="http://www.w3.org/2000/svg" xmlns:xlink="http://www.w3.org/1999/xlink" fill-opacity="1" color-rendering="auto" color-interpolation="auto" text-rendering="auto" stroke="black" stroke-linecap="square" width="804" stroke-miterlimit="10" shape-rendering="auto" stroke-opacity="1" fill="black" stroke-dasharray="none" font-weight="normal" stroke-width="1" height="238" font-family="'Dialog'" font-style="normal" stroke-linejoin="miter" font-size="12px" stroke-dashoffset="0" image-rendering="auto">
  <!--Generated by ySVG 2.5-->
  <defs id="genericDefs"/>
  <g>
    <defs id="defs1">
      <clipPath clipPathUnits="userSpaceOnUse" id="clipPath1">
        <path d="M0 0 L804 0 L804 238 L0 238 L0 0 Z"/>
      </clipPath>
      <clipPath clipPathUnits="userSpaceOnUse" id="clipPath2">
        <path d="M416 184 L1220 184 L1220 422 L416 422 L416 184 Z"/>
      </clipPath>
    </defs>
    <g fill="white" text-rendering="geometricPrecision" shape-rendering="geometricPrecision" transform="translate(-416,-184)" stroke="white">
      <rect x="416" width="804" height="238" y="184" clip-path="url(#clipPath2)" stroke="none"/>
    </g>
    <g fill="green" text-rendering="geometricPrecision" shape-rendering="geometricPrecision" transform="matrix(1,0,0,1,-416,-184)" stroke="green">
      <rect x="431" width="129" height="45" y="314.0704" clip-path="url(#clipPath2)" stroke="none"/>
    </g>
    <g text-rendering="geometricPrecision" stroke-miterlimit="1.45" shape-rendering="geometricPrecision" transform="matrix(1,0,0,1,-416,-184)" stroke-linecap="butt">
      <rect fill="none" x="431" width="129" height="45" y="314.0704" clip-path="url(#clipPath2)"/>
    </g>
    <g fill="green" text-rendering="geometricPrecision" shape-rendering="geometricPrecision" transform="matrix(1,0,0,1,-416,-184)" stroke="green">
      <rect x="560" width="129" height="45" y="314.0704" clip-path="url(#clipPath2)" stroke="none"/>
    </g>
    <g text-rendering="geometricPrecision" stroke-miterlimit="1.45" shape-rendering="geometricPrecision" transform="matrix(1,0,0,1,-416,-184)" stroke-linecap="butt">
      <rect fill="none" x="560" width="129" height="45" y="314.0704" clip-path="url(#clipPath2)"/>
    </g>
    <g fill="silver" text-rendering="geometricPrecision" shape-rendering="geometricPrecision" transform="matrix(1,0,0,1,-416,-184)" stroke="silver">
      <rect x="689" width="129" height="45" y="314.0704" clip-path="url(#clipPath2)" stroke="none"/>
    </g>
    <g text-rendering="geometricPrecision" stroke-miterlimit="1.45" shape-rendering="geometricPrecision" transform="matrix(1,0,0,1,-416,-184)" stroke-linecap="butt">
      <rect fill="none" x="689" width="129" height="45" y="314.0704" clip-path="url(#clipPath2)"/>
    </g>
    <g fill="silver" text-rendering="geometricPrecision" shape-rendering="geometricPrecision" transform="matrix(1,0,0,1,-416,-184)" stroke="silver">
      <rect x="818" width="129" height="45" y="314.0704" clip-path="url(#clipPath2)" stroke="none"/>
    </g>
    <g text-rendering="geometricPrecision" stroke-miterlimit="1.45" shape-rendering="geometricPrecision" transform="matrix(1,0,0,1,-416,-184)" stroke-linecap="butt">
      <rect fill="none" x="818" width="129" height="45" y="314.0704" clip-path="url(#clipPath2)"/>
    </g>
    <g fill="silver" text-rendering="geometricPrecision" shape-rendering="geometricPrecision" transform="matrix(1,0,0,1,-416,-184)" stroke="silver">
      <rect x="947" width="129" height="45" y="314.0704" clip-path="url(#clipPath2)" stroke="none"/>
    </g>
    <g text-rendering="geometricPrecision" stroke-miterlimit="1.45" shape-rendering="geometricPrecision" transform="matrix(1,0,0,1,-416,-184)" stroke-linecap="butt">
      <rect fill="none" x="947" width="129" height="45" y="314.0704" clip-path="url(#clipPath2)"/>
    </g>
    <g fill="silver" text-rendering="geometricPrecision" shape-rendering="geometricPrecision" transform="matrix(1,0,0,1,-416,-184)" stroke="silver">
      <rect x="1076" width="129" height="45" y="314.0704" clip-path="url(#clipPath2)" stroke="none"/>
    </g>
    <g text-rendering="geometricPrecision" stroke-miterlimit="1.45" shape-rendering="geometricPrecision" transform="matrix(1,0,0,1,-416,-184)" stroke-linecap="butt">
      <rect fill="none" x="1076" width="129" height="45" y="314.0704" clip-path="url(#clipPath2)"/>
    </g>
    <g fill="rgb(255,153,0)" text-rendering="geometricPrecision" shape-rendering="geometricPrecision" transform="matrix(1,0,0,1,-416,-184)" stroke="rgb(255,153,0)">
      <rect x="1076" width="21.04" height="21.04" y="383.008" clip-path="url(#clipPath2)" stroke="none"/>
    </g>
    <g text-rendering="geometricPrecision" stroke-miterlimit="1.45" shape-rendering="geometricPrecision" transform="matrix(1,0,0,1,-416,-184)" stroke-linecap="butt">
      <rect fill="none" x="1076" width="21.04" height="21.04" y="383.008" clip-path="url(#clipPath2)"/>
      <text x="1103.04" font-size="18px" y="399.7595" clip-path="url(#clipPath2)" font-family="sans-serif" stroke="none" xml:space="preserve">Skipped</text>
    </g>
    <g fill="green" text-rendering="geometricPrecision" shape-rendering="geometricPrecision" transform="matrix(1,0,0,1,-416,-184)" stroke="green">
      <rect x="947" width="21.04" height="21.04" y="383.008" clip-path="url(#clipPath2)" stroke="none"/>
    </g>
    <g text-rendering="geometricPrecision" stroke-miterlimit="1.45" shape-rendering="geometricPrecision" transform="matrix(1,0,0,1,-416,-184)" stroke-linecap="butt">
      <rect fill="none" x="947" width="21.04" height="21.04" y="383.008" clip-path="url(#clipPath2)"/>
      <text x="974.04" font-size="18px" y="399.7595" clip-path="url(#clipPath2)" font-family="sans-serif" stroke="none" xml:space="preserve">Reserved</text>
    </g>
    <g fill="rgb(204,255,204)" text-rendering="geometricPrecision" shape-rendering="geometricPrecision" transform="matrix(1,0,0,1,-416,-184)" stroke="rgb(204,255,204)">
      <rect x="689" width="21.04" height="21.04" y="383.008" clip-path="url(#clipPath2)" stroke="none"/>
    </g>
    <g text-rendering="geometricPrecision" stroke-miterlimit="1.45" shape-rendering="geometricPrecision" transform="matrix(1,0,0,1,-416,-184)" stroke-linecap="butt">
      <rect fill="none" x="689" width="21.04" height="21.04" y="383.008" clip-path="url(#clipPath2)"/>
      <text x="716.04" font-size="18px" y="399.7595" clip-path="url(#clipPath2)" font-family="sans-serif" stroke="none" xml:space="preserve">Committed</text>
    </g>
    <g fill="rgb(153,204,255)" text-rendering="geometricPrecision" shape-rendering="geometricPrecision" transform="matrix(1,0,0,1,-416,-184)" stroke="rgb(153,204,255)">
      <rect x="560" width="21.04" height="21.04" y="383.008" clip-path="url(#clipPath2)" stroke="none"/>
    </g>
    <g text-rendering="geometricPrecision" stroke-miterlimit="1.45" shape-rendering="geometricPrecision" transform="matrix(1,0,0,1,-416,-184)" stroke-linecap="butt">
      <rect fill="none" x="560" width="21.04" height="21.04" y="383.008" clip-path="url(#clipPath2)"/>
      <text x="587.04" font-size="18px" y="399.7595" clip-path="url(#clipPath2)" font-family="sans-serif" stroke="none" xml:space="preserve">Popped</text>
    </g>
    <g fill="silver" text-rendering="geometricPrecision" shape-rendering="geometricPrecision" transform="matrix(1,0,0,1,-416,-184)" stroke="silver">
      <rect x="431" width="21.04" height="21.04" y="383.008" clip-path="url(#clipPath2)" stroke="none"/>
    </g>
    <g text-rendering="geometricPrecision" stroke-miterlimit="1.45" shape-rendering="geometricPrecision" transform="matrix(1,0,0,1,-416,-184)" stroke-linecap="butt">
      <rect fill="none" x="431" width="21.04" height="21.04" y="383.008" clip-path="url(#clipPath2)"/>
      <text x="458.04" font-size="18px" y="399.7595" clip-path="url(#clipPath2)" font-family="sans-serif" stroke="none" xml:space="preserve">Free</text>
      <circle stroke-linecap="square" clip-path="url(#clipPath2)" r="7.1328" cx="495.5" cy="236.0704" stroke="none" stroke-miterlimit="10"/>
      <circle fill="none" r="7.1328" clip-path="url(#clipPath2)" cx="495.5" cy="236.0704"/>
      <text x="479.4863" font-size="18px" y="218.6925" clip-path="url(#clipPath2)" font-family="sans-serif" stroke="none" xml:space="preserve">Tail</text>
      <circle stroke-linecap="square" clip-path="url(#clipPath2)" r="7.1328" cx="753.5" cy="236.0704" stroke="none" stroke-miterlimit="10"/>
      <circle fill="none" r="7.1328" clip-path="url(#clipPath2)" cx="753.5" cy="236.0704"/>
      <text x="729.9673" font-size="18px" y="218.6925" clip-path="url(#clipPath2)" font-family="sans-serif" stroke="none" xml:space="preserve">Head</text>
      <path fill="none" d="M495.5 243.2032 L495.5 303.0704" clip-path="url(#clipPath2)"/>
      <path d="M495.5 314.0704 L501.5 302.0704 L489.5 302.0704 Z" clip-path="url(#clipPath2)" stroke="none"/>
      <path fill="none" d="M753.5 243.2032 L753.5 306.0704" clip-path="url(#clipPath2)"/>
      <path d="M753.5 314.0704 L758.5 302.0704 L753.5 305.0704 L748.5 302.0704 Z" clip-path="url(#clipPath2)" stroke="none"/>
    </g>
  </g>
</svg>
