<?xml version="1.0" encoding="UTF-8"?><svg xmlns="http://www.w3.org/2000/svg" xmlns:xlink="http://www.w3.org/1999/xlink" fill-opacity="1" color-rendering="auto" color-interpolation="auto" text-rendering="auto" stroke="black" stroke-linecap="square" width="804" stroke-miterlimit="10" shape-rendering="auto" stroke-opacity="1" fill="black" stroke-dasharray="none" font-weight="normal" stroke-width="1" height="237" font-family="'Dialog'" font-style="normal" stroke-linejoin="miter" font-size="12px" stroke-dashoffset="0" image-rendering="auto">
  <!--Generated by ySVG 2.5-->
  <defs id="genericDefs"/>
  <g>
    <defs id="defs1">
      <clipPath clipPathUnits="userSpaceOnUse" id="clipPath1">
        <path d="M0 0 L804 0 L804 237 L0 237 L0 0 Z"/>
      </clipPath>
      <clipPath clipPathUnits="userSpaceOnUse" id="clipPath2">
        <path d="M441 239 L1245 239 L1245 476 L441 476 L441 239 Z"/>
      </clipPath>
    </defs>
    <g fill="white" text-rendering="geometricPrecision" shape-rendering="geometricPrecision" transform="translate(-441,-239)" stroke="white">
      <rect x="441" width="804" height="237" y="239" clip-path="url(#clipPath2)" stroke="none"/>
    </g>
    <g fill="rgb(204,255,204)" text-rendering="geometricPrecision" shape-rendering="geometricPrecision" transform="matrix(1,0,0,1,-441,-239)" stroke="rgb(204,255,204)">
      <rect x="456" width="129" height="45" y="369.008" clip-path="url(#clipPath2)" stroke="none"/>
    </g>
    <g text-rendering="geometricPrecision" stroke-miterlimit="1.45" shape-rendering="geometricPrecision" transform="matrix(1,0,0,1,-441,-239)" stroke-linecap="butt">
      <rect fill="none" x="456" width="129" height="45" y="369.008" clip-path="url(#clipPath2)"/>
    </g>
    <g fill="green" text-rendering="geometricPrecision" shape-rendering="geometricPrecision" transform="matrix(1,0,0,1,-441,-239)" stroke="green">
      <rect x="585" width="129" height="45" y="369.008" clip-path="url(#clipPath2)" stroke="none"/>
    </g>
    <g text-rendering="geometricPrecision" stroke-miterlimit="1.45" shape-rendering="geometricPrecision" transform="matrix(1,0,0,1,-441,-239)" stroke-linecap="butt">
      <rect fill="none" x="585" width="129" height="45" y="369.008" clip-path="url(#clipPath2)"/>
    </g>
    <g fill="silver" text-rendering="geometricPrecision" shape-rendering="geometricPrecision" transform="matrix(1,0,0,1,-441,-239)" stroke="silver">
      <rect x="714" width="129" height="45" y="369.008" clip-path="url(#clipPath2)" stroke="none"/>
    </g>
    <g text-rendering="geometricPrecision" stroke-miterlimit="1.45" shape-rendering="geometricPrecision" transform="matrix(1,0,0,1,-441,-239)" stroke-linecap="butt">
      <rect fill="none" x="714" width="129" height="45" y="369.008" clip-path="url(#clipPath2)"/>
    </g>
    <g fill="silver" text-rendering="geometricPrecision" shape-rendering="geometricPrecision" transform="matrix(1,0,0,1,-441,-239)" stroke="silver">
      <rect x="843" width="129" height="45" y="369.008" clip-path="url(#clipPath2)" stroke="none"/>
    </g>
    <g text-rendering="geometricPrecision" stroke-miterlimit="1.45" shape-rendering="geometricPrecision" transform="matrix(1,0,0,1,-441,-239)" stroke-linecap="butt">
      <rect fill="none" x="843" width="129" height="45" y="369.008" clip-path="url(#clipPath2)"/>
    </g>
    <g fill="silver" text-rendering="geometricPrecision" shape-rendering="geometricPrecision" transform="matrix(1,0,0,1,-441,-239)" stroke="silver">
      <rect x="972" width="129" height="45" y="369.008" clip-path="url(#clipPath2)" stroke="none"/>
    </g>
    <g text-rendering="geometricPrecision" stroke-miterlimit="1.45" shape-rendering="geometricPrecision" transform="matrix(1,0,0,1,-441,-239)" stroke-linecap="butt">
      <rect fill="none" x="972" width="129" height="45" y="369.008" clip-path="url(#clipPath2)"/>
    </g>
    <g fill="silver" text-rendering="geometricPrecision" shape-rendering="geometricPrecision" transform="matrix(1,0,0,1,-441,-239)" stroke="silver">
      <rect x="1101" width="129" height="45" y="369.008" clip-path="url(#clipPath2)" stroke="none"/>
    </g>
    <g text-rendering="geometricPrecision" stroke-miterlimit="1.45" shape-rendering="geometricPrecision" transform="matrix(1,0,0,1,-441,-239)" stroke-linecap="butt">
      <rect fill="none" x="1101" width="129" height="45" y="369.008" clip-path="url(#clipPath2)"/>
    </g>
    <g fill="rgb(255,153,0)" text-rendering="geometricPrecision" shape-rendering="geometricPrecision" transform="matrix(1,0,0,1,-441,-239)" stroke="rgb(255,153,0)">
      <rect x="1101" width="21.04" height="21.04" y="437.9456" clip-path="url(#clipPath2)" stroke="none"/>
    </g>
    <g text-rendering="geometricPrecision" stroke-miterlimit="1.45" shape-rendering="geometricPrecision" transform="matrix(1,0,0,1,-441,-239)" stroke-linecap="butt">
      <rect fill="none" x="1101" width="21.04" height="21.04" y="437.9456" clip-path="url(#clipPath2)"/>
      <text x="1128.04" font-size="18px" y="454.6971" clip-path="url(#clipPath2)" font-family="sans-serif" stroke="none" xml:space="preserve">Skipped</text>
    </g>
    <g fill="green" text-rendering="geometricPrecision" shape-rendering="geometricPrecision" transform="matrix(1,0,0,1,-441,-239)" stroke="green">
      <rect x="972" width="21.04" height="21.04" y="437.9456" clip-path="url(#clipPath2)" stroke="none"/>
    </g>
    <g text-rendering="geometricPrecision" stroke-miterlimit="1.45" shape-rendering="geometricPrecision" transform="matrix(1,0,0,1,-441,-239)" stroke-linecap="butt">
      <rect fill="none" x="972" width="21.04" height="21.04" y="437.9456" clip-path="url(#clipPath2)"/>
      <text x="999.04" font-size="18px" y="454.6971" clip-path="url(#clipPath2)" font-family="sans-serif" stroke="none" xml:space="preserve">Reserved</text>
    </g>
    <g fill="rgb(204,255,204)" text-rendering="geometricPrecision" shape-rendering="geometricPrecision" transform="matrix(1,0,0,1,-441,-239)" stroke="rgb(204,255,204)">
      <rect x="714" width="21.04" height="21.04" y="437.9456" clip-path="url(#clipPath2)" stroke="none"/>
    </g>
    <g text-rendering="geometricPrecision" stroke-miterlimit="1.45" shape-rendering="geometricPrecision" transform="matrix(1,0,0,1,-441,-239)" stroke-linecap="butt">
      <rect fill="none" x="714" width="21.04" height="21.04" y="437.9456" clip-path="url(#clipPath2)"/>
      <text x="741.04" font-size="18px" y="454.6971" clip-path="url(#clipPath2)" font-family="sans-serif" stroke="none" xml:space="preserve">Committed</text>
    </g>
    <g fill="rgb(153,204,255)" text-rendering="geometricPrecision" shape-rendering="geometricPrecision" transform="matrix(1,0,0,1,-441,-239)" stroke="rgb(153,204,255)">
      <rect x="585" width="21.04" height="21.04" y="437.9456" clip-path="url(#clipPath2)" stroke="none"/>
    </g>
    <g text-rendering="geometricPrecision" stroke-miterlimit="1.45" shape-rendering="geometricPrecision" transform="matrix(1,0,0,1,-441,-239)" stroke-linecap="butt">
      <rect fill="none" x="585" width="21.04" height="21.04" y="437.9456" clip-path="url(#clipPath2)"/>
      <text x="612.04" font-size="18px" y="454.6971" clip-path="url(#clipPath2)" font-family="sans-serif" stroke="none" xml:space="preserve">Popped</text>
    </g>
    <g fill="silver" text-rendering="geometricPrecision" shape-rendering="geometricPrecision" transform="matrix(1,0,0,1,-441,-239)" stroke="silver">
      <rect x="456" width="21.04" height="21.04" y="437.9456" clip-path="url(#clipPath2)" stroke="none"/>
    </g>
    <g text-rendering="geometricPrecision" stroke-miterlimit="1.45" shape-rendering="geometricPrecision" transform="matrix(1,0,0,1,-441,-239)" stroke-linecap="butt">
      <rect fill="none" x="456" width="21.04" height="21.04" y="437.9456" clip-path="url(#clipPath2)"/>
      <text x="483.04" font-size="18px" y="454.6971" clip-path="url(#clipPath2)" font-family="sans-serif" stroke="none" xml:space="preserve">Free</text>
      <circle stroke-linecap="square" clip-path="url(#clipPath2)" r="7.1328" cx="520.5" cy="291.008" stroke="none" stroke-miterlimit="10"/>
      <circle fill="none" r="7.1328" clip-path="url(#clipPath2)" cx="520.5" cy="291.008"/>
      <text x="504.4863" font-size="18px" y="273.6301" clip-path="url(#clipPath2)" font-family="sans-serif" stroke="none" xml:space="preserve">Tail</text>
      <circle stroke-linecap="square" clip-path="url(#clipPath2)" r="7.1328" cx="778.5" cy="291.008" stroke="none" stroke-miterlimit="10"/>
      <circle fill="none" r="7.1328" clip-path="url(#clipPath2)" cx="778.5" cy="291.008"/>
      <text x="754.9673" font-size="18px" y="273.6301" clip-path="url(#clipPath2)" font-family="sans-serif" stroke="none" xml:space="preserve">Head</text>
      <path fill="none" d="M520.5 298.1408 L520.5 358.008" clip-path="url(#clipPath2)"/>
      <path d="M520.5 369.008 L526.5 357.008 L514.5 357.008 Z" clip-path="url(#clipPath2)" stroke="none"/>
      <path fill="none" d="M778.5 298.1408 L778.5 361.008" clip-path="url(#clipPath2)"/>
      <path d="M778.5 369.008 L783.5 357.008 L778.5 360.008 L773.5 357.008 Z" clip-path="url(#clipPath2)" stroke="none"/>
    </g>
  </g>
</svg>
