<?xml version="1.0" encoding="UTF-8"?><svg xmlns="http://www.w3.org/2000/svg" xmlns:xlink="http://www.w3.org/1999/xlink" fill-opacity="1" color-rendering="auto" color-interpolation="auto" text-rendering="auto" stroke="black" stroke-linecap="square" width="804" stroke-miterlimit="10" shape-rendering="auto" stroke-opacity="1" fill="black" stroke-dasharray="none" font-weight="normal" stroke-width="1" height="237" font-family="'Dialog'" font-style="normal" stroke-linejoin="miter" font-size="12px" stroke-dashoffset="0" image-rendering="auto">
  <!--Generated by ySVG 2.5-->
  <defs id="genericDefs"/>
  <g>
    <defs id="defs1">
      <clipPath clipPathUnits="userSpaceOnUse" id="clipPath1">
        <path d="M0 0 L804 0 L804 237 L0 237 L0 0 Z"/>
      </clipPath>
      <clipPath clipPathUnits="userSpaceOnUse" id="clipPath2">
        <path d="M491 349 L1295 349 L1295 586 L491 586 L491 349 Z"/>
      </clipPath>
    </defs>
    <g fill="white" text-rendering="geometricPrecision" shape-rendering="geometricPrecision" transform="translate(-491,-349)" stroke="white">
      <rect x="491" width="804" height="237" y="349" clip-path="url(#clipPath2)" stroke="none"/>
    </g>
    <g fill="silver" text-rendering="geometricPrecision" shape-rendering="geometricPrecision" transform="matrix(1,0,0,1,-491,-349)" stroke="silver">
      <rect x="506" width="129" height="45" y="478.6336" clip-path="url(#clipPath2)" stroke="none"/>
    </g>
    <g text-rendering="geometricPrecision" stroke-miterlimit="1.45" shape-rendering="geometricPrecision" transform="matrix(1,0,0,1,-491,-349)" stroke-linecap="butt">
      <rect fill="none" x="506" width="129" height="45" y="478.6336" clip-path="url(#clipPath2)"/>
    </g>
    <g fill="green" text-rendering="geometricPrecision" shape-rendering="geometricPrecision" transform="matrix(1,0,0,1,-491,-349)" stroke="green">
      <rect x="635" width="129" height="45" y="478.6336" clip-path="url(#clipPath2)" stroke="none"/>
    </g>
    <g text-rendering="geometricPrecision" stroke-miterlimit="1.45" shape-rendering="geometricPrecision" transform="matrix(1,0,0,1,-491,-349)" stroke-linecap="butt">
      <rect fill="none" x="635" width="129" height="45" y="478.6336" clip-path="url(#clipPath2)"/>
    </g>
    <g fill="silver" text-rendering="geometricPrecision" shape-rendering="geometricPrecision" transform="matrix(1,0,0,1,-491,-349)" stroke="silver">
      <rect x="764" width="129" height="45" y="478.6336" clip-path="url(#clipPath2)" stroke="none"/>
    </g>
    <g text-rendering="geometricPrecision" stroke-miterlimit="1.45" shape-rendering="geometricPrecision" transform="matrix(1,0,0,1,-491,-349)" stroke-linecap="butt">
      <rect fill="none" x="764" width="129" height="45" y="478.6336" clip-path="url(#clipPath2)"/>
    </g>
    <g fill="silver" text-rendering="geometricPrecision" shape-rendering="geometricPrecision" transform="matrix(1,0,0,1,-491,-349)" stroke="silver">
      <rect x="893" width="129" height="45" y="478.6336" clip-path="url(#clipPath2)" stroke="none"/>
    </g>
    <g text-rendering="geometricPrecision" stroke-miterlimit="1.45" shape-rendering="geometricPrecision" transform="matrix(1,0,0,1,-491,-349)" stroke-linecap="butt">
      <rect fill="none" x="893" width="129" height="45" y="478.6336" clip-path="url(#clipPath2)"/>
    </g>
    <g fill="silver" text-rendering="geometricPrecision" shape-rendering="geometricPrecision" transform="matrix(1,0,0,1,-491,-349)" stroke="silver">
      <rect x="1022" width="129" height="45" y="478.6336" clip-path="url(#clipPath2)" stroke="none"/>
    </g>
    <g text-rendering="geometricPrecision" stroke-miterlimit="1.45" shape-rendering="geometricPrecision" transform="matrix(1,0,0,1,-491,-349)" stroke-linecap="butt">
      <rect fill="none" x="1022" width="129" height="45" y="478.6336" clip-path="url(#clipPath2)"/>
    </g>
    <g fill="silver" text-rendering="geometricPrecision" shape-rendering="geometricPrecision" transform="matrix(1,0,0,1,-491,-349)" stroke="silver">
      <rect x="1151" width="129" height="45" y="478.6336" clip-path="url(#clipPath2)" stroke="none"/>
    </g>
    <g text-rendering="geometricPrecision" stroke-miterlimit="1.45" shape-rendering="geometricPrecision" transform="matrix(1,0,0,1,-491,-349)" stroke-linecap="butt">
      <rect fill="none" x="1151" width="129" height="45" y="478.6336" clip-path="url(#clipPath2)"/>
    </g>
    <g fill="rgb(255,153,0)" text-rendering="geometricPrecision" shape-rendering="geometricPrecision" transform="matrix(1,0,0,1,-491,-349)" stroke="rgb(255,153,0)">
      <rect x="1151" width="21.04" height="21.04" y="547.5712" clip-path="url(#clipPath2)" stroke="none"/>
    </g>
    <g text-rendering="geometricPrecision" stroke-miterlimit="1.45" shape-rendering="geometricPrecision" transform="matrix(1,0,0,1,-491,-349)" stroke-linecap="butt">
      <rect fill="none" x="1151" width="21.04" height="21.04" y="547.5712" clip-path="url(#clipPath2)"/>
      <text x="1178.04" font-size="18px" y="564.3226" clip-path="url(#clipPath2)" font-family="sans-serif" stroke="none" xml:space="preserve">Skipped</text>
    </g>
    <g fill="green" text-rendering="geometricPrecision" shape-rendering="geometricPrecision" transform="matrix(1,0,0,1,-491,-349)" stroke="green">
      <rect x="1022" width="21.04" height="21.04" y="547.5712" clip-path="url(#clipPath2)" stroke="none"/>
    </g>
    <g text-rendering="geometricPrecision" stroke-miterlimit="1.45" shape-rendering="geometricPrecision" transform="matrix(1,0,0,1,-491,-349)" stroke-linecap="butt">
      <rect fill="none" x="1022" width="21.04" height="21.04" y="547.5712" clip-path="url(#clipPath2)"/>
      <text x="1049.04" font-size="18px" y="564.3226" clip-path="url(#clipPath2)" font-family="sans-serif" stroke="none" xml:space="preserve">Reserved</text>
    </g>
    <g fill="rgb(204,255,204)" text-rendering="geometricPrecision" shape-rendering="geometricPrecision" transform="matrix(1,0,0,1,-491,-349)" stroke="rgb(204,255,204)">
      <rect x="764" width="21.04" height="21.04" y="547.5712" clip-path="url(#clipPath2)" stroke="none"/>
    </g>
    <g text-rendering="geometricPrecision" stroke-miterlimit="1.45" shape-rendering="geometricPrecision" transform="matrix(1,0,0,1,-491,-349)" stroke-linecap="butt">
      <rect fill="none" x="764" width="21.04" height="21.04" y="547.5712" clip-path="url(#clipPath2)"/>
      <text x="791.04" font-size="18px" y="564.3226" clip-path="url(#clipPath2)" font-family="sans-serif" stroke="none" xml:space="preserve">Committed</text>
    </g>
    <g fill="rgb(153,204,255)" text-rendering="geometricPrecision" shape-rendering="geometricPrecision" transform="matrix(1,0,0,1,-491,-349)" stroke="rgb(153,204,255)">
      <rect x="635" width="21.04" height="21.04" y="547.5712" clip-path="url(#clipPath2)" stroke="none"/>
    </g>
    <g text-rendering="geometricPrecision" stroke-miterlimit="1.45" shape-rendering="geometricPrecision" transform="matrix(1,0,0,1,-491,-349)" stroke-linecap="butt">
      <rect fill="none" x="635" width="21.04" height="21.04" y="547.5712" clip-path="url(#clipPath2)"/>
      <text x="662.04" font-size="18px" y="564.3226" clip-path="url(#clipPath2)" font-family="sans-serif" stroke="none" xml:space="preserve">Popped</text>
    </g>
    <g fill="silver" text-rendering="geometricPrecision" shape-rendering="geometricPrecision" transform="matrix(1,0,0,1,-491,-349)" stroke="silver">
      <rect x="506" width="21.04" height="21.04" y="547.5712" clip-path="url(#clipPath2)" stroke="none"/>
    </g>
    <g text-rendering="geometricPrecision" stroke-miterlimit="1.45" shape-rendering="geometricPrecision" transform="matrix(1,0,0,1,-491,-349)" stroke-linecap="butt">
      <rect fill="none" x="506" width="21.04" height="21.04" y="547.5712" clip-path="url(#clipPath2)"/>
      <text x="533.04" font-size="18px" y="564.3226" clip-path="url(#clipPath2)" font-family="sans-serif" stroke="none" xml:space="preserve">Free</text>
      <circle stroke-linecap="square" clip-path="url(#clipPath2)" r="7.1328" cx="699.5" cy="400.6336" stroke="none" stroke-miterlimit="10"/>
      <circle fill="none" r="7.1328" clip-path="url(#clipPath2)" cx="699.5" cy="400.6336"/>
      <text x="683.4863" font-size="18px" y="383.2557" clip-path="url(#clipPath2)" font-family="sans-serif" stroke="none" xml:space="preserve">Tail</text>
      <circle stroke-linecap="square" clip-path="url(#clipPath2)" r="7.1328" cx="828.5" cy="400.6336" stroke="none" stroke-miterlimit="10"/>
      <circle fill="none" r="7.1328" clip-path="url(#clipPath2)" cx="828.5" cy="400.6336"/>
      <text x="804.9673" font-size="18px" y="383.2557" clip-path="url(#clipPath2)" font-family="sans-serif" stroke="none" xml:space="preserve">Head</text>
      <path fill="none" d="M699.5 407.7664 L699.5 467.6336" clip-path="url(#clipPath2)"/>
      <path d="M699.5 478.6336 L705.5 466.6336 L693.5 466.6336 Z" clip-path="url(#clipPath2)" stroke="none"/>
      <path fill="none" d="M828.5 407.7664 L828.5 470.6336" clip-path="url(#clipPath2)"/>
      <path d="M828.5 478.6336 L833.5 466.6336 L828.5 469.6336 L823.5 466.6336 Z" clip-path="url(#clipPath2)" stroke="none"/>
    </g>
  </g>
</svg>
