<?xml version="1.0" encoding="UTF-8"?><svg xmlns="http://www.w3.org/2000/svg" xmlns:xlink="http://www.w3.org/1999/xlink" fill-opacity="1" color-rendering="auto" color-interpolation="auto" text-rendering="auto" stroke="black" stroke-linecap="square" width="804" stroke-miterlimit="10" shape-rendering="auto" stroke-opacity="1" fill="black" stroke-dasharray="none" font-weight="normal" stroke-width="1" height="237" font-family="'Dialog'" font-style="normal" stroke-linejoin="miter" font-size="12px" stroke-dashoffset="0" image-rendering="auto">
  <!--Generated by ySVG 2.5-->
  <defs id="genericDefs"/>
  <g>
    <defs id="defs1">
      <clipPath clipPathUnits="userSpaceOnUse" id="clipPath1">
        <path d="M0 0 L804 0 L804 237 L0 237 L0 0 Z"/>
      </clipPath>
      <clipPath clipPathUnits="userSpaceOnUse" id="clipPath2">
        <path d="M366 75 L1170 75 L1170 312 L366 312 L366 75 Z"/>
      </clipPath>
    </defs>
    <g fill="white" text-rendering="geometricPrecision" shape-rendering="geometricPrecision" transform="translate(-366,-75)" stroke="white">
      <rect x="366" width="804" height="237" y="75" clip-path="url(#clipPath2)" stroke="none"/>
    </g>
    <g fill="silver" text-rendering="geometricPrecision" shape-rendering="geometricPrecision" transform="matrix(1,0,0,1,-366,-75)" stroke="silver">
      <rect x="381" width="129" height="45" y="204.8672" clip-path="url(#clipPath2)" stroke="none"/>
    </g>
    <g text-rendering="geometricPrecision" stroke-miterlimit="1.45" shape-rendering="geometricPrecision" transform="matrix(1,0,0,1,-366,-75)" stroke-linecap="butt">
      <rect fill="none" x="381" width="129" height="45" y="204.8672" clip-path="url(#clipPath2)"/>
    </g>
    <g fill="silver" text-rendering="geometricPrecision" shape-rendering="geometricPrecision" transform="matrix(1,0,0,1,-366,-75)" stroke="silver">
      <rect x="510" width="129" height="45" y="204.8672" clip-path="url(#clipPath2)" stroke="none"/>
    </g>
    <g text-rendering="geometricPrecision" stroke-miterlimit="1.45" shape-rendering="geometricPrecision" transform="matrix(1,0,0,1,-366,-75)" stroke-linecap="butt">
      <rect fill="none" x="510" width="129" height="45" y="204.8672" clip-path="url(#clipPath2)"/>
    </g>
    <g fill="silver" text-rendering="geometricPrecision" shape-rendering="geometricPrecision" transform="matrix(1,0,0,1,-366,-75)" stroke="silver">
      <rect x="639" width="129" height="45" y="204.8672" clip-path="url(#clipPath2)" stroke="none"/>
    </g>
    <g text-rendering="geometricPrecision" stroke-miterlimit="1.45" shape-rendering="geometricPrecision" transform="matrix(1,0,0,1,-366,-75)" stroke-linecap="butt">
      <rect fill="none" x="639" width="129" height="45" y="204.8672" clip-path="url(#clipPath2)"/>
    </g>
    <g fill="silver" text-rendering="geometricPrecision" shape-rendering="geometricPrecision" transform="matrix(1,0,0,1,-366,-75)" stroke="silver">
      <rect x="768" width="129" height="45" y="204.8672" clip-path="url(#clipPath2)" stroke="none"/>
    </g>
    <g text-rendering="geometricPrecision" stroke-miterlimit="1.45" shape-rendering="geometricPrecision" transform="matrix(1,0,0,1,-366,-75)" stroke-linecap="butt">
      <rect fill="none" x="768" width="129" height="45" y="204.8672" clip-path="url(#clipPath2)"/>
    </g>
    <g fill="silver" text-rendering="geometricPrecision" shape-rendering="geometricPrecision" transform="matrix(1,0,0,1,-366,-75)" stroke="silver">
      <rect x="897" width="129" height="45" y="204.8672" clip-path="url(#clipPath2)" stroke="none"/>
    </g>
    <g text-rendering="geometricPrecision" stroke-miterlimit="1.45" shape-rendering="geometricPrecision" transform="matrix(1,0,0,1,-366,-75)" stroke-linecap="butt">
      <rect fill="none" x="897" width="129" height="45" y="204.8672" clip-path="url(#clipPath2)"/>
    </g>
    <g fill="silver" text-rendering="geometricPrecision" shape-rendering="geometricPrecision" transform="matrix(1,0,0,1,-366,-75)" stroke="silver">
      <rect x="1026" width="129" height="45" y="204.8672" clip-path="url(#clipPath2)" stroke="none"/>
    </g>
    <g text-rendering="geometricPrecision" stroke-miterlimit="1.45" shape-rendering="geometricPrecision" transform="matrix(1,0,0,1,-366,-75)" stroke-linecap="butt">
      <rect fill="none" x="1026" width="129" height="45" y="204.8672" clip-path="url(#clipPath2)"/>
    </g>
    <g fill="rgb(255,153,0)" text-rendering="geometricPrecision" shape-rendering="geometricPrecision" transform="matrix(1,0,0,1,-366,-75)" stroke="rgb(255,153,0)">
      <rect x="1026" width="21.04" height="21.04" y="273.8048" clip-path="url(#clipPath2)" stroke="none"/>
    </g>
    <g text-rendering="geometricPrecision" stroke-miterlimit="1.45" shape-rendering="geometricPrecision" transform="matrix(1,0,0,1,-366,-75)" stroke-linecap="butt">
      <rect fill="none" x="1026" width="21.04" height="21.04" y="273.8048" clip-path="url(#clipPath2)"/>
      <text x="1053.04" font-size="18px" y="290.5562" clip-path="url(#clipPath2)" font-family="sans-serif" stroke="none" xml:space="preserve">Skipped</text>
    </g>
    <g fill="green" text-rendering="geometricPrecision" shape-rendering="geometricPrecision" transform="matrix(1,0,0,1,-366,-75)" stroke="green">
      <rect x="897" width="21.04" height="21.04" y="273.8048" clip-path="url(#clipPath2)" stroke="none"/>
    </g>
    <g text-rendering="geometricPrecision" stroke-miterlimit="1.45" shape-rendering="geometricPrecision" transform="matrix(1,0,0,1,-366,-75)" stroke-linecap="butt">
      <rect fill="none" x="897" width="21.04" height="21.04" y="273.8048" clip-path="url(#clipPath2)"/>
      <text x="924.04" font-size="18px" y="290.5562" clip-path="url(#clipPath2)" font-family="sans-serif" stroke="none" xml:space="preserve">Reserved</text>
    </g>
    <g fill="rgb(204,255,204)" text-rendering="geometricPrecision" shape-rendering="geometricPrecision" transform="matrix(1,0,0,1,-366,-75)" stroke="rgb(204,255,204)">
      <rect x="639" width="21.04" height="21.04" y="273.8048" clip-path="url(#clipPath2)" stroke="none"/>
    </g>
    <g text-rendering="geometricPrecision" stroke-miterlimit="1.45" shape-rendering="geometricPrecision" transform="matrix(1,0,0,1,-366,-75)" stroke-linecap="butt">
      <rect fill="none" x="639" width="21.04" height="21.04" y="273.8048" clip-path="url(#clipPath2)"/>
      <text x="666.04" font-size="18px" y="290.5562" clip-path="url(#clipPath2)" font-family="sans-serif" stroke="none" xml:space="preserve">Committed</text>
    </g>
    <g fill="rgb(153,204,255)" text-rendering="geometricPrecision" shape-rendering="geometricPrecision" transform="matrix(1,0,0,1,-366,-75)" stroke="rgb(153,204,255)">
      <rect x="510" width="21.04" height="21.04" y="273.8048" clip-path="url(#clipPath2)" stroke="none"/>
    </g>
    <g text-rendering="geometricPrecision" stroke-miterlimit="1.45" shape-rendering="geometricPrecision" transform="matrix(1,0,0,1,-366,-75)" stroke-linecap="butt">
      <rect fill="none" x="510" width="21.04" height="21.04" y="273.8048" clip-path="url(#clipPath2)"/>
      <text x="537.04" font-size="18px" y="290.5562" clip-path="url(#clipPath2)" font-family="sans-serif" stroke="none" xml:space="preserve">Popped</text>
    </g>
    <g fill="silver" text-rendering="geometricPrecision" shape-rendering="geometricPrecision" transform="matrix(1,0,0,1,-366,-75)" stroke="silver">
      <rect x="381" width="21.04" height="21.04" y="273.8048" clip-path="url(#clipPath2)" stroke="none"/>
    </g>
    <g text-rendering="geometricPrecision" stroke-miterlimit="1.45" shape-rendering="geometricPrecision" transform="matrix(1,0,0,1,-366,-75)" stroke-linecap="butt">
      <rect fill="none" x="381" width="21.04" height="21.04" y="273.8048" clip-path="url(#clipPath2)"/>
      <text x="408.04" font-size="18px" y="290.5562" clip-path="url(#clipPath2)" font-family="sans-serif" stroke="none" xml:space="preserve">Free</text>
      <circle stroke-linecap="square" clip-path="url(#clipPath2)" r="7.1328" cx="445.5" cy="126.8672" stroke="none" stroke-miterlimit="10"/>
      <circle fill="none" r="7.1328" clip-path="url(#clipPath2)" cx="445.5" cy="126.8672"/>
      <text x="400.2319" font-size="18px" y="109.4893" clip-path="url(#clipPath2)" font-family="sans-serif" stroke="none" xml:space="preserve">Head, Tail</text>
      <path fill="none" d="M445.5 134 L445.5 193.8672" clip-path="url(#clipPath2)"/>
      <path d="M445.5 204.8672 L451.5 192.8672 L439.5 192.8672 Z" clip-path="url(#clipPath2)" stroke="none"/>
    </g>
  </g>
</svg>
