<?xml version="1.0" encoding="UTF-8"?><svg xmlns="http://www.w3.org/2000/svg" xmlns:xlink="http://www.w3.org/1999/xlink" fill-opacity="1" color-rendering="auto" color-interpolation="auto" text-rendering="auto" stroke="black" stroke-linecap="square" width="804" stroke-miterlimit="10" shape-rendering="auto" stroke-opacity="1" fill="black" stroke-dasharray="none" font-weight="normal" stroke-width="1" height="237" font-family="'Dialog'" font-style="normal" stroke-linejoin="miter" font-size="12px" stroke-dashoffset="0" image-rendering="auto">
  <!--Generated by ySVG 2.5-->
  <defs id="genericDefs"/>
  <g>
    <defs id="defs1">
      <clipPath clipPathUnits="userSpaceOnUse" id="clipPath1">
        <path d="M0 0 L804 0 L804 237 L0 237 L0 0 Z"/>
      </clipPath>
      <clipPath clipPathUnits="userSpaceOnUse" id="clipPath2">
        <path d="M341 20 L1145 20 L1145 257 L341 257 L341 20 Z"/>
      </clipPath>
    </defs>
    <g fill="white" text-rendering="geometricPrecision" shape-rendering="geometricPrecision" transform="translate(-341,-20)" stroke="white">
      <rect x="341" width="804" height="237" y="20" clip-path="url(#clipPath2)" stroke="none"/>
    </g>
    <g fill="silver" text-rendering="geometricPrecision" shape-rendering="geometricPrecision" transform="matrix(1,0,0,1,-341,-20)" stroke="silver">
      <rect x="356" width="129" height="45" y="150" clip-path="url(#clipPath2)" stroke="none"/>
    </g>
    <g text-rendering="geometricPrecision" stroke-miterlimit="1.45" shape-rendering="geometricPrecision" transform="matrix(1,0,0,1,-341,-20)" stroke-linecap="butt">
      <rect fill="none" x="356" width="129" height="45" y="150" clip-path="url(#clipPath2)"/>
    </g>
    <g fill="rgb(153,204,255)" text-rendering="geometricPrecision" shape-rendering="geometricPrecision" transform="matrix(1,0,0,1,-341,-20)" stroke="rgb(153,204,255)">
      <rect x="485" width="129" height="45" y="150" clip-path="url(#clipPath2)" stroke="none"/>
    </g>
    <g text-rendering="geometricPrecision" stroke-miterlimit="1.45" shape-rendering="geometricPrecision" transform="matrix(1,0,0,1,-341,-20)" stroke-linecap="butt">
      <rect fill="none" x="485" width="129" height="45" y="150" clip-path="url(#clipPath2)"/>
    </g>
    <g fill="rgb(204,255,204)" text-rendering="geometricPrecision" shape-rendering="geometricPrecision" transform="matrix(1,0,0,1,-341,-20)" stroke="rgb(204,255,204)">
      <rect x="614" width="129" height="45" y="150" clip-path="url(#clipPath2)" stroke="none"/>
    </g>
    <g text-rendering="geometricPrecision" stroke-miterlimit="1.45" shape-rendering="geometricPrecision" transform="matrix(1,0,0,1,-341,-20)" stroke-linecap="butt">
      <rect fill="none" x="614" width="129" height="45" y="150" clip-path="url(#clipPath2)"/>
    </g>
    <g fill="rgb(204,255,204)" text-rendering="geometricPrecision" shape-rendering="geometricPrecision" transform="matrix(1,0,0,1,-341,-20)" stroke="rgb(204,255,204)">
      <rect x="743" width="129" height="45" y="150" clip-path="url(#clipPath2)" stroke="none"/>
    </g>
    <g text-rendering="geometricPrecision" stroke-miterlimit="1.45" shape-rendering="geometricPrecision" transform="matrix(1,0,0,1,-341,-20)" stroke-linecap="butt">
      <rect fill="none" x="743" width="129" height="45" y="150" clip-path="url(#clipPath2)"/>
    </g>
    <g fill="green" text-rendering="geometricPrecision" shape-rendering="geometricPrecision" transform="matrix(1,0,0,1,-341,-20)" stroke="green">
      <rect x="872" width="129" height="45" y="150" clip-path="url(#clipPath2)" stroke="none"/>
    </g>
    <g text-rendering="geometricPrecision" stroke-miterlimit="1.45" shape-rendering="geometricPrecision" transform="matrix(1,0,0,1,-341,-20)" stroke-linecap="butt">
      <rect fill="none" x="872" width="129" height="45" y="150" clip-path="url(#clipPath2)"/>
    </g>
    <g fill="rgb(255,153,0)" text-rendering="geometricPrecision" shape-rendering="geometricPrecision" transform="matrix(1,0,0,1,-341,-20)" stroke="rgb(255,153,0)">
      <rect x="1001" width="129" height="45" y="150" clip-path="url(#clipPath2)" stroke="none"/>
    </g>
    <g text-rendering="geometricPrecision" stroke-miterlimit="1.45" shape-rendering="geometricPrecision" transform="matrix(1,0,0,1,-341,-20)" stroke-linecap="butt">
      <rect fill="none" x="1001" width="129" height="45" y="150" clip-path="url(#clipPath2)"/>
      <circle stroke-linecap="square" clip-path="url(#clipPath2)" r="7.1328" cx="420.5" cy="72" stroke="none" stroke-miterlimit="10"/>
      <circle fill="none" r="7.1328" clip-path="url(#clipPath2)" cx="420.5" cy="72"/>
      <text x="380.2637" font-size="18px" y="54.6221" clip-path="url(#clipPath2)" font-family="sans-serif" stroke="none" xml:space="preserve">Producer</text>
      <circle stroke-linecap="square" clip-path="url(#clipPath2)" r="7.1328" cx="549.5" cy="72" stroke="none" stroke-miterlimit="10"/>
      <circle fill="none" r="7.1328" clip-path="url(#clipPath2)" cx="549.5" cy="72"/>
      <text x="503.6079" font-size="18px" y="54.6221" clip-path="url(#clipPath2)" font-family="sans-serif" stroke="none" xml:space="preserve">Consumer</text>
    </g>
    <g fill="rgb(255,153,0)" text-rendering="geometricPrecision" shape-rendering="geometricPrecision" transform="matrix(1,0,0,1,-341,-20)" stroke="rgb(255,153,0)">
      <rect x="1001" width="21.04" height="21.04" y="218.9376" clip-path="url(#clipPath2)" stroke="none"/>
    </g>
    <g text-rendering="geometricPrecision" stroke-miterlimit="1.45" shape-rendering="geometricPrecision" transform="matrix(1,0,0,1,-341,-20)" stroke-linecap="butt">
      <rect fill="none" x="1001" width="21.04" height="21.04" y="218.9376" clip-path="url(#clipPath2)"/>
      <text x="1028.04" font-size="18px" y="235.689" clip-path="url(#clipPath2)" font-family="sans-serif" stroke="none" xml:space="preserve">Skipped</text>
    </g>
    <g fill="green" text-rendering="geometricPrecision" shape-rendering="geometricPrecision" transform="matrix(1,0,0,1,-341,-20)" stroke="green">
      <rect x="872" width="21.04" height="21.04" y="218.9376" clip-path="url(#clipPath2)" stroke="none"/>
    </g>
    <g text-rendering="geometricPrecision" stroke-miterlimit="1.45" shape-rendering="geometricPrecision" transform="matrix(1,0,0,1,-341,-20)" stroke-linecap="butt">
      <rect fill="none" x="872" width="21.04" height="21.04" y="218.9376" clip-path="url(#clipPath2)"/>
      <text x="899.04" font-size="18px" y="235.689" clip-path="url(#clipPath2)" font-family="sans-serif" stroke="none" xml:space="preserve">Reserved</text>
    </g>
    <g fill="rgb(204,255,204)" text-rendering="geometricPrecision" shape-rendering="geometricPrecision" transform="matrix(1,0,0,1,-341,-20)" stroke="rgb(204,255,204)">
      <rect x="614" width="21.04" height="21.04" y="218.9376" clip-path="url(#clipPath2)" stroke="none"/>
    </g>
    <g text-rendering="geometricPrecision" stroke-miterlimit="1.45" shape-rendering="geometricPrecision" transform="matrix(1,0,0,1,-341,-20)" stroke-linecap="butt">
      <rect fill="none" x="614" width="21.04" height="21.04" y="218.9376" clip-path="url(#clipPath2)"/>
      <text x="641.04" font-size="18px" y="235.689" clip-path="url(#clipPath2)" font-family="sans-serif" stroke="none" xml:space="preserve">Committed</text>
    </g>
    <g fill="rgb(153,204,255)" text-rendering="geometricPrecision" shape-rendering="geometricPrecision" transform="matrix(1,0,0,1,-341,-20)" stroke="rgb(153,204,255)">
      <rect x="485" width="21.04" height="21.04" y="218.9376" clip-path="url(#clipPath2)" stroke="none"/>
    </g>
    <g text-rendering="geometricPrecision" stroke-miterlimit="1.45" shape-rendering="geometricPrecision" transform="matrix(1,0,0,1,-341,-20)" stroke-linecap="butt">
      <rect fill="none" x="485" width="21.04" height="21.04" y="218.9376" clip-path="url(#clipPath2)"/>
      <text x="512.04" font-size="18px" y="235.689" clip-path="url(#clipPath2)" font-family="sans-serif" stroke="none" xml:space="preserve">Popped</text>
    </g>
    <g fill="silver" text-rendering="geometricPrecision" shape-rendering="geometricPrecision" transform="matrix(1,0,0,1,-341,-20)" stroke="silver">
      <rect x="356" width="21.04" height="21.04" y="218.9376" clip-path="url(#clipPath2)" stroke="none"/>
    </g>
    <g text-rendering="geometricPrecision" stroke-miterlimit="1.45" shape-rendering="geometricPrecision" transform="matrix(1,0,0,1,-341,-20)" stroke-linecap="butt">
      <rect fill="none" x="356" width="21.04" height="21.04" y="218.9376" clip-path="url(#clipPath2)"/>
      <text x="383.04" font-size="18px" y="235.689" clip-path="url(#clipPath2)" font-family="sans-serif" stroke="none" xml:space="preserve">Free</text>
      <path fill="none" d="M420.5 79.1328 L420.5 139" clip-path="url(#clipPath2)"/>
      <path d="M420.5 150 L426.5 138 L414.5 138 Z" clip-path="url(#clipPath2)" stroke="none"/>
      <path fill="none" d="M549.5 79.1328 L549.5 139" clip-path="url(#clipPath2)"/>
      <path d="M549.5 150 L555.5 138 L543.5 138 Z" clip-path="url(#clipPath2)" stroke="none"/>
    </g>
  </g>
</svg>
