<?xml version="1.0" encoding="UTF-8"?><svg xmlns="http://www.w3.org/2000/svg" xmlns:xlink="http://www.w3.org/1999/xlink" fill-opacity="1" color-rendering="auto" color-interpolation="auto" text-rendering="auto" stroke="black" stroke-linecap="square" width="804" stroke-miterlimit="10" shape-rendering="auto" stroke-opacity="1" fill="black" stroke-dasharray="none" font-weight="normal" stroke-width="1" height="237" font-family="'Dialog'" font-style="normal" stroke-linejoin="miter" font-size="12px" stroke-dashoffset="0" image-rendering="auto">
  <!--Generated by ySVG 2.5-->
  <defs id="genericDefs"/>
  <g>
    <defs id="defs1">
      <clipPath clipPathUnits="userSpaceOnUse" id="clipPath1">
        <path d="M0 0 L804 0 L804 237 L0 237 L0 0 Z"/>
      </clipPath>
      <clipPath clipPathUnits="userSpaceOnUse" id="clipPath2">
        <path d="M516 404 L1320 404 L1320 641 L516 641 L516 404 Z"/>
      </clipPath>
    </defs>
    <g fill="white" text-rendering="geometricPrecision" shape-rendering="geometricPrecision" transform="translate(-516,-404)" stroke="white">
      <rect x="516" width="804" height="237" y="404" clip-path="url(#clipPath2)" stroke="none"/>
    </g>
    <g fill="silver" text-rendering="geometricPrecision" shape-rendering="geometricPrecision" transform="matrix(1,0,0,1,-516,-404)" stroke="silver">
      <rect x="531" width="129" height="45" y="533.1344" clip-path="url(#clipPath2)" stroke="none"/>
    </g>
    <g text-rendering="geometricPrecision" stroke-miterlimit="1.45" shape-rendering="geometricPrecision" transform="matrix(1,0,0,1,-516,-404)" stroke-linecap="butt">
      <rect fill="none" x="531" width="129" height="45" y="533.1344" clip-path="url(#clipPath2)"/>
    </g>
    <g fill="silver" text-rendering="geometricPrecision" shape-rendering="geometricPrecision" transform="matrix(1,0,0,1,-516,-404)" stroke="silver">
      <rect x="660" width="129" height="45" y="533.1344" clip-path="url(#clipPath2)" stroke="none"/>
    </g>
    <g text-rendering="geometricPrecision" stroke-miterlimit="1.45" shape-rendering="geometricPrecision" transform="matrix(1,0,0,1,-516,-404)" stroke-linecap="butt">
      <rect fill="none" x="660" width="129" height="45" y="533.1344" clip-path="url(#clipPath2)"/>
    </g>
    <g fill="silver" text-rendering="geometricPrecision" shape-rendering="geometricPrecision" transform="matrix(1,0,0,1,-516,-404)" stroke="silver">
      <rect x="789" width="129" height="45" y="533.1344" clip-path="url(#clipPath2)" stroke="none"/>
    </g>
    <g text-rendering="geometricPrecision" stroke-miterlimit="1.45" shape-rendering="geometricPrecision" transform="matrix(1,0,0,1,-516,-404)" stroke-linecap="butt">
      <rect fill="none" x="789" width="129" height="45" y="533.1344" clip-path="url(#clipPath2)"/>
    </g>
    <g fill="silver" text-rendering="geometricPrecision" shape-rendering="geometricPrecision" transform="matrix(1,0,0,1,-516,-404)" stroke="silver">
      <rect x="918" width="129" height="45" y="533.1344" clip-path="url(#clipPath2)" stroke="none"/>
    </g>
    <g text-rendering="geometricPrecision" stroke-miterlimit="1.45" shape-rendering="geometricPrecision" transform="matrix(1,0,0,1,-516,-404)" stroke-linecap="butt">
      <rect fill="none" x="918" width="129" height="45" y="533.1344" clip-path="url(#clipPath2)"/>
    </g>
    <g fill="silver" text-rendering="geometricPrecision" shape-rendering="geometricPrecision" transform="matrix(1,0,0,1,-516,-404)" stroke="silver">
      <rect x="1047" width="129" height="45" y="533.1344" clip-path="url(#clipPath2)" stroke="none"/>
    </g>
    <g text-rendering="geometricPrecision" stroke-miterlimit="1.45" shape-rendering="geometricPrecision" transform="matrix(1,0,0,1,-516,-404)" stroke-linecap="butt">
      <rect fill="none" x="1047" width="129" height="45" y="533.1344" clip-path="url(#clipPath2)"/>
    </g>
    <g fill="silver" text-rendering="geometricPrecision" shape-rendering="geometricPrecision" transform="matrix(1,0,0,1,-516,-404)" stroke="silver">
      <rect x="1176" width="129" height="45" y="533.1344" clip-path="url(#clipPath2)" stroke="none"/>
    </g>
    <g text-rendering="geometricPrecision" stroke-miterlimit="1.45" shape-rendering="geometricPrecision" transform="matrix(1,0,0,1,-516,-404)" stroke-linecap="butt">
      <rect fill="none" x="1176" width="129" height="45" y="533.1344" clip-path="url(#clipPath2)"/>
    </g>
    <g fill="rgb(255,153,0)" text-rendering="geometricPrecision" shape-rendering="geometricPrecision" transform="matrix(1,0,0,1,-516,-404)" stroke="rgb(255,153,0)">
      <rect x="1176" width="21.04" height="21.04" y="602.072" clip-path="url(#clipPath2)" stroke="none"/>
    </g>
    <g text-rendering="geometricPrecision" stroke-miterlimit="1.45" shape-rendering="geometricPrecision" transform="matrix(1,0,0,1,-516,-404)" stroke-linecap="butt">
      <rect fill="none" x="1176" width="21.04" height="21.04" y="602.072" clip-path="url(#clipPath2)"/>
      <text x="1203.04" font-size="18px" y="618.8234" clip-path="url(#clipPath2)" font-family="sans-serif" stroke="none" xml:space="preserve">Skipped</text>
    </g>
    <g fill="green" text-rendering="geometricPrecision" shape-rendering="geometricPrecision" transform="matrix(1,0,0,1,-516,-404)" stroke="green">
      <rect x="1047" width="21.04" height="21.04" y="602.072" clip-path="url(#clipPath2)" stroke="none"/>
    </g>
    <g text-rendering="geometricPrecision" stroke-miterlimit="1.45" shape-rendering="geometricPrecision" transform="matrix(1,0,0,1,-516,-404)" stroke-linecap="butt">
      <rect fill="none" x="1047" width="21.04" height="21.04" y="602.072" clip-path="url(#clipPath2)"/>
      <text x="1074.04" font-size="18px" y="618.8234" clip-path="url(#clipPath2)" font-family="sans-serif" stroke="none" xml:space="preserve">Reserved</text>
    </g>
    <g fill="rgb(204,255,204)" text-rendering="geometricPrecision" shape-rendering="geometricPrecision" transform="matrix(1,0,0,1,-516,-404)" stroke="rgb(204,255,204)">
      <rect x="789" width="21.04" height="21.04" y="602.072" clip-path="url(#clipPath2)" stroke="none"/>
    </g>
    <g text-rendering="geometricPrecision" stroke-miterlimit="1.45" shape-rendering="geometricPrecision" transform="matrix(1,0,0,1,-516,-404)" stroke-linecap="butt">
      <rect fill="none" x="789" width="21.04" height="21.04" y="602.072" clip-path="url(#clipPath2)"/>
      <text x="816.04" font-size="18px" y="618.8234" clip-path="url(#clipPath2)" font-family="sans-serif" stroke="none" xml:space="preserve">Committed</text>
    </g>
    <g fill="rgb(153,204,255)" text-rendering="geometricPrecision" shape-rendering="geometricPrecision" transform="matrix(1,0,0,1,-516,-404)" stroke="rgb(153,204,255)">
      <rect x="660" width="21.04" height="21.04" y="602.072" clip-path="url(#clipPath2)" stroke="none"/>
    </g>
    <g text-rendering="geometricPrecision" stroke-miterlimit="1.45" shape-rendering="geometricPrecision" transform="matrix(1,0,0,1,-516,-404)" stroke-linecap="butt">
      <rect fill="none" x="660" width="21.04" height="21.04" y="602.072" clip-path="url(#clipPath2)"/>
      <text x="687.04" font-size="18px" y="618.8234" clip-path="url(#clipPath2)" font-family="sans-serif" stroke="none" xml:space="preserve">Popped</text>
    </g>
    <g fill="silver" text-rendering="geometricPrecision" shape-rendering="geometricPrecision" transform="matrix(1,0,0,1,-516,-404)" stroke="silver">
      <rect x="531" width="21.04" height="21.04" y="602.072" clip-path="url(#clipPath2)" stroke="none"/>
    </g>
    <g text-rendering="geometricPrecision" stroke-miterlimit="1.45" shape-rendering="geometricPrecision" transform="matrix(1,0,0,1,-516,-404)" stroke-linecap="butt">
      <rect fill="none" x="531" width="21.04" height="21.04" y="602.072" clip-path="url(#clipPath2)"/>
      <text x="558.04" font-size="18px" y="618.8234" clip-path="url(#clipPath2)" font-family="sans-serif" stroke="none" xml:space="preserve">Free</text>
      <circle stroke-linecap="square" clip-path="url(#clipPath2)" r="7.1328" cx="724.5" cy="455.1344" stroke="none" stroke-miterlimit="10"/>
      <circle fill="none" r="7.1328" clip-path="url(#clipPath2)" cx="724.5" cy="455.1344"/>
      <text x="679.2319" font-size="18px" y="437.7565" clip-path="url(#clipPath2)" font-family="sans-serif" stroke="none" xml:space="preserve">Tail, Head</text>
      <path fill="none" d="M724.5 462.2672 L724.5 522.1344" clip-path="url(#clipPath2)"/>
      <path d="M724.5 533.1344 L730.5 521.1344 L718.5 521.1344 Z" clip-path="url(#clipPath2)" stroke="none"/>
    </g>
  </g>
</svg>
