<?xml version="1.0" encoding="UTF-8"?><svg xmlns="http://www.w3.org/2000/svg" xmlns:xlink="http://www.w3.org/1999/xlink" fill-opacity="1" color-rendering="auto" color-interpolation="auto" text-rendering="auto" stroke="black" stroke-linecap="square" width="804" stroke-miterlimit="10" shape-rendering="auto" stroke-opacity="1" fill="black" stroke-dasharray="none" font-weight="normal" stroke-width="1" height="237" font-family="'Dialog'" font-style="normal" stroke-linejoin="miter" font-size="12px" stroke-dashoffset="0" image-rendering="auto">
  <!--Generated by ySVG 2.5-->
  <defs id="genericDefs"/>
  <g>
    <defs id="defs1">
      <clipPath clipPathUnits="userSpaceOnUse" id="clipPath1">
        <path d="M0 0 L804 0 L804 237 L0 237 L0 0 Z"/>
      </clipPath>
      <clipPath clipPathUnits="userSpaceOnUse" id="clipPath2">
        <path d="M466 294 L1270 294 L1270 531 L466 531 L466 294 Z"/>
      </clipPath>
    </defs>
    <g fill="white" text-rendering="geometricPrecision" shape-rendering="geometricPrecision" transform="translate(-466,-294)" stroke="white">
      <rect x="466" width="804" height="237" y="294" clip-path="url(#clipPath2)" stroke="none"/>
    </g>
    <g fill="rgb(153,204,255)" text-rendering="geometricPrecision" shape-rendering="geometricPrecision" transform="matrix(1,0,0,1,-466,-294)" stroke="rgb(153,204,255)">
      <rect x="481" width="129" height="45" y="423.8832" clip-path="url(#clipPath2)" stroke="none"/>
    </g>
    <g text-rendering="geometricPrecision" stroke-miterlimit="1.45" shape-rendering="geometricPrecision" transform="matrix(1,0,0,1,-466,-294)" stroke-linecap="butt">
      <rect fill="none" x="481" width="129" height="45" y="423.8832" clip-path="url(#clipPath2)"/>
    </g>
    <g fill="green" text-rendering="geometricPrecision" shape-rendering="geometricPrecision" transform="matrix(1,0,0,1,-466,-294)" stroke="green">
      <rect x="610" width="129" height="45" y="423.8832" clip-path="url(#clipPath2)" stroke="none"/>
    </g>
    <g text-rendering="geometricPrecision" stroke-miterlimit="1.45" shape-rendering="geometricPrecision" transform="matrix(1,0,0,1,-466,-294)" stroke-linecap="butt">
      <rect fill="none" x="610" width="129" height="45" y="423.8832" clip-path="url(#clipPath2)"/>
    </g>
    <g fill="silver" text-rendering="geometricPrecision" shape-rendering="geometricPrecision" transform="matrix(1,0,0,1,-466,-294)" stroke="silver">
      <rect x="739" width="129" height="45" y="423.8832" clip-path="url(#clipPath2)" stroke="none"/>
    </g>
    <g text-rendering="geometricPrecision" stroke-miterlimit="1.45" shape-rendering="geometricPrecision" transform="matrix(1,0,0,1,-466,-294)" stroke-linecap="butt">
      <rect fill="none" x="739" width="129" height="45" y="423.8832" clip-path="url(#clipPath2)"/>
    </g>
    <g fill="silver" text-rendering="geometricPrecision" shape-rendering="geometricPrecision" transform="matrix(1,0,0,1,-466,-294)" stroke="silver">
      <rect x="868" width="129" height="45" y="423.8832" clip-path="url(#clipPath2)" stroke="none"/>
    </g>
    <g text-rendering="geometricPrecision" stroke-miterlimit="1.45" shape-rendering="geometricPrecision" transform="matrix(1,0,0,1,-466,-294)" stroke-linecap="butt">
      <rect fill="none" x="868" width="129" height="45" y="423.8832" clip-path="url(#clipPath2)"/>
    </g>
    <g fill="silver" text-rendering="geometricPrecision" shape-rendering="geometricPrecision" transform="matrix(1,0,0,1,-466,-294)" stroke="silver">
      <rect x="997" width="129" height="45" y="423.8832" clip-path="url(#clipPath2)" stroke="none"/>
    </g>
    <g text-rendering="geometricPrecision" stroke-miterlimit="1.45" shape-rendering="geometricPrecision" transform="matrix(1,0,0,1,-466,-294)" stroke-linecap="butt">
      <rect fill="none" x="997" width="129" height="45" y="423.8832" clip-path="url(#clipPath2)"/>
    </g>
    <g fill="silver" text-rendering="geometricPrecision" shape-rendering="geometricPrecision" transform="matrix(1,0,0,1,-466,-294)" stroke="silver">
      <rect x="1126" width="129" height="45" y="423.8832" clip-path="url(#clipPath2)" stroke="none"/>
    </g>
    <g text-rendering="geometricPrecision" stroke-miterlimit="1.45" shape-rendering="geometricPrecision" transform="matrix(1,0,0,1,-466,-294)" stroke-linecap="butt">
      <rect fill="none" x="1126" width="129" height="45" y="423.8832" clip-path="url(#clipPath2)"/>
    </g>
    <g fill="rgb(255,153,0)" text-rendering="geometricPrecision" shape-rendering="geometricPrecision" transform="matrix(1,0,0,1,-466,-294)" stroke="rgb(255,153,0)">
      <rect x="1126" width="21.04" height="21.04" y="492.8208" clip-path="url(#clipPath2)" stroke="none"/>
    </g>
    <g text-rendering="geometricPrecision" stroke-miterlimit="1.45" shape-rendering="geometricPrecision" transform="matrix(1,0,0,1,-466,-294)" stroke-linecap="butt">
      <rect fill="none" x="1126" width="21.04" height="21.04" y="492.8208" clip-path="url(#clipPath2)"/>
      <text x="1153.04" font-size="18px" y="509.5722" clip-path="url(#clipPath2)" font-family="sans-serif" stroke="none" xml:space="preserve">Skipped</text>
    </g>
    <g fill="green" text-rendering="geometricPrecision" shape-rendering="geometricPrecision" transform="matrix(1,0,0,1,-466,-294)" stroke="green">
      <rect x="997" width="21.04" height="21.04" y="492.8208" clip-path="url(#clipPath2)" stroke="none"/>
    </g>
    <g text-rendering="geometricPrecision" stroke-miterlimit="1.45" shape-rendering="geometricPrecision" transform="matrix(1,0,0,1,-466,-294)" stroke-linecap="butt">
      <rect fill="none" x="997" width="21.04" height="21.04" y="492.8208" clip-path="url(#clipPath2)"/>
      <text x="1024.04" font-size="18px" y="509.5722" clip-path="url(#clipPath2)" font-family="sans-serif" stroke="none" xml:space="preserve">Reserved</text>
    </g>
    <g fill="rgb(204,255,204)" text-rendering="geometricPrecision" shape-rendering="geometricPrecision" transform="matrix(1,0,0,1,-466,-294)" stroke="rgb(204,255,204)">
      <rect x="739" width="21.04" height="21.04" y="492.8208" clip-path="url(#clipPath2)" stroke="none"/>
    </g>
    <g text-rendering="geometricPrecision" stroke-miterlimit="1.45" shape-rendering="geometricPrecision" transform="matrix(1,0,0,1,-466,-294)" stroke-linecap="butt">
      <rect fill="none" x="739" width="21.04" height="21.04" y="492.8208" clip-path="url(#clipPath2)"/>
      <text x="766.04" font-size="18px" y="509.5722" clip-path="url(#clipPath2)" font-family="sans-serif" stroke="none" xml:space="preserve">Committed</text>
    </g>
    <g fill="rgb(153,204,255)" text-rendering="geometricPrecision" shape-rendering="geometricPrecision" transform="matrix(1,0,0,1,-466,-294)" stroke="rgb(153,204,255)">
      <rect x="610" width="21.04" height="21.04" y="492.8208" clip-path="url(#clipPath2)" stroke="none"/>
    </g>
    <g text-rendering="geometricPrecision" stroke-miterlimit="1.45" shape-rendering="geometricPrecision" transform="matrix(1,0,0,1,-466,-294)" stroke-linecap="butt">
      <rect fill="none" x="610" width="21.04" height="21.04" y="492.8208" clip-path="url(#clipPath2)"/>
      <text x="637.04" font-size="18px" y="509.5722" clip-path="url(#clipPath2)" font-family="sans-serif" stroke="none" xml:space="preserve">Popped</text>
    </g>
    <g fill="silver" text-rendering="geometricPrecision" shape-rendering="geometricPrecision" transform="matrix(1,0,0,1,-466,-294)" stroke="silver">
      <rect x="481" width="21.04" height="21.04" y="492.8208" clip-path="url(#clipPath2)" stroke="none"/>
    </g>
    <g text-rendering="geometricPrecision" stroke-miterlimit="1.45" shape-rendering="geometricPrecision" transform="matrix(1,0,0,1,-466,-294)" stroke-linecap="butt">
      <rect fill="none" x="481" width="21.04" height="21.04" y="492.8208" clip-path="url(#clipPath2)"/>
      <text x="508.04" font-size="18px" y="509.5722" clip-path="url(#clipPath2)" font-family="sans-serif" stroke="none" xml:space="preserve">Free</text>
      <circle stroke-linecap="square" clip-path="url(#clipPath2)" r="7.1328" cx="545.5" cy="345.8832" stroke="none" stroke-miterlimit="10"/>
      <circle fill="none" r="7.1328" clip-path="url(#clipPath2)" cx="545.5" cy="345.8832"/>
      <text x="529.4863" font-size="18px" y="328.5053" clip-path="url(#clipPath2)" font-family="sans-serif" stroke="none" xml:space="preserve">Tail</text>
      <circle stroke-linecap="square" clip-path="url(#clipPath2)" r="7.1328" cx="803.5" cy="345.8832" stroke="none" stroke-miterlimit="10"/>
      <circle fill="none" r="7.1328" clip-path="url(#clipPath2)" cx="803.5" cy="345.8832"/>
      <text x="779.9673" font-size="18px" y="328.5053" clip-path="url(#clipPath2)" font-family="sans-serif" stroke="none" xml:space="preserve">Head</text>
      <path fill="none" d="M545.5 353.016 L545.5 412.8832" clip-path="url(#clipPath2)"/>
      <path d="M545.5 423.8832 L551.5 411.8832 L539.5 411.8832 Z" clip-path="url(#clipPath2)" stroke="none"/>
      <path fill="none" d="M803.5 353.016 L803.5 415.8832" clip-path="url(#clipPath2)"/>
      <path d="M803.5 423.8832 L808.5 411.8832 L803.5 414.8832 L798.5 411.8832 Z" clip-path="url(#clipPath2)" stroke="none"/>
    </g>
  </g>
</svg>
