<?xml version="1.0" encoding="UTF-8"?><svg xmlns="http://www.w3.org/2000/svg" xmlns:xlink="http://www.w3.org/1999/xlink" fill-opacity="1" color-rendering="auto" color-interpolation="auto" text-rendering="auto" stroke="black" stroke-linecap="square" width="804" stroke-miterlimit="10" shape-rendering="auto" stroke-opacity="1" fill="black" stroke-dasharray="none" font-weight="normal" stroke-width="1" height="237" font-family="'Dialog'" font-style="normal" stroke-linejoin="miter" font-size="12px" stroke-dashoffset="0" image-rendering="auto">
  <!--Generated by ySVG 2.5-->
  <defs id="genericDefs"/>
  <g>
    <defs id="defs1">
      <clipPath clipPathUnits="userSpaceOnUse" id="clipPath1">
        <path d="M0 0 L804 0 L804 237 L0 237 L0 0 Z"/>
      </clipPath>
      <clipPath clipPathUnits="userSpaceOnUse" id="clipPath2">
        <path d="M391 130 L1195 130 L1195 367 L391 367 L391 130 Z"/>
      </clipPath>
    </defs>
    <g fill="white" text-rendering="geometricPrecision" shape-rendering="geometricPrecision" transform="translate(-391,-130)" stroke="white">
      <rect x="391" width="804" height="237" y="130" clip-path="url(#clipPath2)" stroke="none"/>
    </g>
    <g fill="green" text-rendering="geometricPrecision" shape-rendering="geometricPrecision" transform="matrix(1,0,0,1,-391,-130)" stroke="green">
      <rect x="406" width="129" height="45" y="259.6016" clip-path="url(#clipPath2)" stroke="none"/>
    </g>
    <g text-rendering="geometricPrecision" stroke-miterlimit="1.45" shape-rendering="geometricPrecision" transform="matrix(1,0,0,1,-391,-130)" stroke-linecap="butt">
      <rect fill="none" x="406" width="129" height="45" y="259.6016" clip-path="url(#clipPath2)"/>
    </g>
    <g fill="silver" text-rendering="geometricPrecision" shape-rendering="geometricPrecision" transform="matrix(1,0,0,1,-391,-130)" stroke="silver">
      <rect x="535" width="129" height="45" y="259.6016" clip-path="url(#clipPath2)" stroke="none"/>
    </g>
    <g text-rendering="geometricPrecision" stroke-miterlimit="1.45" shape-rendering="geometricPrecision" transform="matrix(1,0,0,1,-391,-130)" stroke-linecap="butt">
      <rect fill="none" x="535" width="129" height="45" y="259.6016" clip-path="url(#clipPath2)"/>
    </g>
    <g fill="silver" text-rendering="geometricPrecision" shape-rendering="geometricPrecision" transform="matrix(1,0,0,1,-391,-130)" stroke="silver">
      <rect x="664" width="129" height="45" y="259.6016" clip-path="url(#clipPath2)" stroke="none"/>
    </g>
    <g text-rendering="geometricPrecision" stroke-miterlimit="1.45" shape-rendering="geometricPrecision" transform="matrix(1,0,0,1,-391,-130)" stroke-linecap="butt">
      <rect fill="none" x="664" width="129" height="45" y="259.6016" clip-path="url(#clipPath2)"/>
    </g>
    <g fill="silver" text-rendering="geometricPrecision" shape-rendering="geometricPrecision" transform="matrix(1,0,0,1,-391,-130)" stroke="silver">
      <rect x="793" width="129" height="45" y="259.6016" clip-path="url(#clipPath2)" stroke="none"/>
    </g>
    <g text-rendering="geometricPrecision" stroke-miterlimit="1.45" shape-rendering="geometricPrecision" transform="matrix(1,0,0,1,-391,-130)" stroke-linecap="butt">
      <rect fill="none" x="793" width="129" height="45" y="259.6016" clip-path="url(#clipPath2)"/>
    </g>
    <g fill="silver" text-rendering="geometricPrecision" shape-rendering="geometricPrecision" transform="matrix(1,0,0,1,-391,-130)" stroke="silver">
      <rect x="922" width="129" height="45" y="259.6016" clip-path="url(#clipPath2)" stroke="none"/>
    </g>
    <g text-rendering="geometricPrecision" stroke-miterlimit="1.45" shape-rendering="geometricPrecision" transform="matrix(1,0,0,1,-391,-130)" stroke-linecap="butt">
      <rect fill="none" x="922" width="129" height="45" y="259.6016" clip-path="url(#clipPath2)"/>
    </g>
    <g fill="silver" text-rendering="geometricPrecision" shape-rendering="geometricPrecision" transform="matrix(1,0,0,1,-391,-130)" stroke="silver">
      <rect x="1051" width="129" height="45" y="259.6016" clip-path="url(#clipPath2)" stroke="none"/>
    </g>
    <g text-rendering="geometricPrecision" stroke-miterlimit="1.45" shape-rendering="geometricPrecision" transform="matrix(1,0,0,1,-391,-130)" stroke-linecap="butt">
      <rect fill="none" x="1051" width="129" height="45" y="259.6016" clip-path="url(#clipPath2)"/>
    </g>
    <g fill="rgb(255,153,0)" text-rendering="geometricPrecision" shape-rendering="geometricPrecision" transform="matrix(1,0,0,1,-391,-130)" stroke="rgb(255,153,0)">
      <rect x="1051" width="21.04" height="21.04" y="328.5392" clip-path="url(#clipPath2)" stroke="none"/>
    </g>
    <g text-rendering="geometricPrecision" stroke-miterlimit="1.45" shape-rendering="geometricPrecision" transform="matrix(1,0,0,1,-391,-130)" stroke-linecap="butt">
      <rect fill="none" x="1051" width="21.04" height="21.04" y="328.5392" clip-path="url(#clipPath2)"/>
      <text x="1078.04" font-size="18px" y="345.2906" clip-path="url(#clipPath2)" font-family="sans-serif" stroke="none" xml:space="preserve">Skipped</text>
    </g>
    <g fill="green" text-rendering="geometricPrecision" shape-rendering="geometricPrecision" transform="matrix(1,0,0,1,-391,-130)" stroke="green">
      <rect x="922" width="21.04" height="21.04" y="328.5392" clip-path="url(#clipPath2)" stroke="none"/>
    </g>
    <g text-rendering="geometricPrecision" stroke-miterlimit="1.45" shape-rendering="geometricPrecision" transform="matrix(1,0,0,1,-391,-130)" stroke-linecap="butt">
      <rect fill="none" x="922" width="21.04" height="21.04" y="328.5392" clip-path="url(#clipPath2)"/>
      <text x="949.04" font-size="18px" y="345.2906" clip-path="url(#clipPath2)" font-family="sans-serif" stroke="none" xml:space="preserve">Reserved</text>
    </g>
    <g fill="rgb(204,255,204)" text-rendering="geometricPrecision" shape-rendering="geometricPrecision" transform="matrix(1,0,0,1,-391,-130)" stroke="rgb(204,255,204)">
      <rect x="664" width="21.04" height="21.04" y="328.5392" clip-path="url(#clipPath2)" stroke="none"/>
    </g>
    <g text-rendering="geometricPrecision" stroke-miterlimit="1.45" shape-rendering="geometricPrecision" transform="matrix(1,0,0,1,-391,-130)" stroke-linecap="butt">
      <rect fill="none" x="664" width="21.04" height="21.04" y="328.5392" clip-path="url(#clipPath2)"/>
      <text x="691.04" font-size="18px" y="345.2906" clip-path="url(#clipPath2)" font-family="sans-serif" stroke="none" xml:space="preserve">Committed</text>
    </g>
    <g fill="rgb(153,204,255)" text-rendering="geometricPrecision" shape-rendering="geometricPrecision" transform="matrix(1,0,0,1,-391,-130)" stroke="rgb(153,204,255)">
      <rect x="535" width="21.04" height="21.04" y="328.5392" clip-path="url(#clipPath2)" stroke="none"/>
    </g>
    <g text-rendering="geometricPrecision" stroke-miterlimit="1.45" shape-rendering="geometricPrecision" transform="matrix(1,0,0,1,-391,-130)" stroke-linecap="butt">
      <rect fill="none" x="535" width="21.04" height="21.04" y="328.5392" clip-path="url(#clipPath2)"/>
      <text x="562.04" font-size="18px" y="345.2906" clip-path="url(#clipPath2)" font-family="sans-serif" stroke="none" xml:space="preserve">Popped</text>
    </g>
    <g fill="silver" text-rendering="geometricPrecision" shape-rendering="geometricPrecision" transform="matrix(1,0,0,1,-391,-130)" stroke="silver">
      <rect x="406" width="21.04" height="21.04" y="328.5392" clip-path="url(#clipPath2)" stroke="none"/>
    </g>
    <g text-rendering="geometricPrecision" stroke-miterlimit="1.45" shape-rendering="geometricPrecision" transform="matrix(1,0,0,1,-391,-130)" stroke-linecap="butt">
      <rect fill="none" x="406" width="21.04" height="21.04" y="328.5392" clip-path="url(#clipPath2)"/>
      <text x="433.04" font-size="18px" y="345.2906" clip-path="url(#clipPath2)" font-family="sans-serif" stroke="none" xml:space="preserve">Free</text>
      <circle stroke-linecap="square" clip-path="url(#clipPath2)" r="7.1328" cx="470.5" cy="181.6016" stroke="none" stroke-miterlimit="10"/>
      <circle fill="none" r="7.1328" clip-path="url(#clipPath2)" cx="470.5" cy="181.6016"/>
      <text x="454.4863" font-size="18px" y="164.2237" clip-path="url(#clipPath2)" font-family="sans-serif" stroke="none" xml:space="preserve">Tail</text>
      <circle stroke-linecap="square" clip-path="url(#clipPath2)" r="7.1328" cx="599.5" cy="181.6016" stroke="none" stroke-miterlimit="10"/>
      <circle fill="none" r="7.1328" clip-path="url(#clipPath2)" cx="599.5" cy="181.6016"/>
      <text x="575.9673" font-size="18px" y="164.2237" clip-path="url(#clipPath2)" font-family="sans-serif" stroke="none" xml:space="preserve">Head</text>
      <path fill="none" d="M470.5 188.7344 L470.5 248.6016" clip-path="url(#clipPath2)"/>
      <path d="M470.5 259.6016 L476.5 247.6016 L464.5 247.6016 Z" clip-path="url(#clipPath2)" stroke="none"/>
      <path fill="none" d="M599.5 188.7344 L599.5 251.6016" clip-path="url(#clipPath2)"/>
      <path d="M599.5 259.6016 L604.5 247.6016 L599.5 250.6016 L594.5 247.6016 Z" clip-path="url(#clipPath2)" stroke="none"/>
    </g>
  </g>
</svg>
