<?xml version="1.0" encoding="UTF-8"?><svg xmlns="http://www.w3.org/2000/svg" xmlns:xlink="http://www.w3.org/1999/xlink" fill-opacity="1" color-rendering="auto" color-interpolation="auto" text-rendering="auto" stroke="black" stroke-linecap="square" width="800" stroke-miterlimit="10" shape-rendering="auto" stroke-opacity="1" fill="black" stroke-dasharray="none" font-weight="normal" stroke-width="1" height="468" font-family="'Dialog'" font-style="normal" stroke-linejoin="miter" font-size="12px" stroke-dashoffset="0" image-rendering="auto">
  <!--Generated by ySVG 2.5-->
  <defs id="genericDefs"/>
  <g>
    <defs id="defs1">
      <clipPath clipPathUnits="userSpaceOnUse" id="clipPath1">
        <path d="M0 0 L800 0 L800 468 L0 468 L0 0 Z"/>
      </clipPath>
      <clipPath clipPathUnits="userSpaceOnUse" id="clipPath2">
        <path d="M-30 -103 L770 -103 L770 365 L-30 365 L-30 -103 Z"/>
      </clipPath>
    </defs>
    <g fill="white" text-rendering="geometricPrecision" shape-rendering="geometricPrecision" transform="translate(30,103)" stroke="white">
      <rect x="-30" width="800" height="468" y="-103" clip-path="url(#clipPath2)" stroke="none"/>
    </g>
    <g transform="matrix(1,0,0,1,30,103)" fill-opacity="0.5176" fill="rgb(202,236,255)" text-rendering="geometricPrecision" shape-rendering="geometricPrecision" stroke="rgb(202,236,255)" stroke-opacity="0.5176">
      <rect x="-15" y="-37.3765" clip-path="url(#clipPath2)" width="170" rx="4" ry="4" height="82.3765" stroke="none"/>
    </g>
    <g fill="rgb(153,204,255)" text-rendering="geometricPrecision" shape-rendering="geometricPrecision" transform="matrix(1,0,0,1,30,103)" stroke="rgb(153,204,255)">
      <rect x="-15" width="170" height="22.3765" y="-37.3765" clip-path="url(#clipPath2)" stroke="none"/>
    </g>
    <g font-size="15px" stroke-linecap="butt" transform="matrix(1,0,0,1,30,103)" text-rendering="geometricPrecision" font-family="sans-serif" shape-rendering="geometricPrecision" stroke-miterlimit="1.45">
      <text x="12.9316" xml:space="preserve" y="-20.2959" clip-path="url(#clipPath2)" stroke="none">nrf_mesh_prov_ctx_t</text>
    </g>
    <g stroke-linecap="round" transform="matrix(1,0,0,1,30,103)" stroke-dashoffset="2" fill="rgb(102,102,153)" text-rendering="geometricPrecision" shape-rendering="geometricPrecision" stroke-dasharray="0,4" stroke="rgb(102,102,153)" stroke-miterlimit="1.45">
      <rect x="-15" y="-37.3765" clip-path="url(#clipPath2)" fill="none" width="170" rx="4" ry="4" height="82.3765"/>
    </g>
    <g fill="white" text-rendering="geometricPrecision" shape-rendering="geometricPrecision" transform="matrix(1,0,0,1,30,103)" stroke="white">
      <rect x="0" width="140" height="30" y="0" clip-path="url(#clipPath2)" stroke="none"/>
    </g>
    <g text-rendering="geometricPrecision" stroke-miterlimit="1.45" shape-rendering="geometricPrecision" transform="matrix(1,0,0,1,30,103)" stroke-linecap="butt">
      <rect fill="none" x="0" width="140" height="30" y="0" clip-path="url(#clipPath2)"/>
      <text x="40.3105" xml:space="preserve" y="18.9375" clip-path="url(#clipPath2)" font-family="'Consolas'" stroke="none">p_bearers</text>
    </g>
    <g transform="matrix(1,0,0,1,30,103)" fill-opacity="0.5176" fill="rgb(202,236,255)" text-rendering="geometricPrecision" shape-rendering="geometricPrecision" stroke="rgb(202,236,255)" stroke-opacity="0.5176">
      <rect x="240" y="-87.7529" clip-path="url(#clipPath2)" width="230" rx="4" ry="4" height="432.1294" stroke="none"/>
    </g>
    <g fill="rgb(153,204,255)" text-rendering="geometricPrecision" shape-rendering="geometricPrecision" transform="matrix(1,0,0,1,30,103)" stroke="rgb(153,204,255)">
      <rect x="240" width="230" height="22.3765" y="-87.7529" clip-path="url(#clipPath2)" stroke="none"/>
    </g>
    <g font-size="15px" stroke-linecap="butt" transform="matrix(1,0,0,1,30,103)" text-rendering="geometricPrecision" font-family="sans-serif" shape-rendering="geometricPrecision" stroke-miterlimit="1.45">
      <text x="412.1528" xml:space="preserve" y="-70.6724" clip-path="url(#clipPath2)" stroke="none">PB-ADV</text>
    </g>
    <g stroke-linecap="round" transform="matrix(1,0,0,1,30,103)" stroke-dashoffset="2" fill="rgb(102,102,153)" text-rendering="geometricPrecision" shape-rendering="geometricPrecision" stroke-dasharray="0,4" stroke="rgb(102,102,153)" stroke-miterlimit="1.45">
      <rect x="240" y="-87.7529" clip-path="url(#clipPath2)" fill="none" width="230" rx="4" ry="4" height="432.1294"/>
    </g>
    <g fill="rgb(184,235,235)" text-rendering="geometricPrecision" shape-rendering="geometricPrecision" transform="matrix(1,0,0,1,30,103)" stroke="rgb(184,235,235)">
      <rect x="255" y="-50.3765" clip-path="url(#clipPath2)" width="200" rx="4" ry="4" height="379.7529" stroke="none"/>
      <rect x="255" y="-50.3765" clip-path="url(#clipPath2)" fill="rgb(153,204,255)" width="200" height="22.3765" stroke="none"/>
    </g>
    <g font-size="15px" stroke-linecap="butt" transform="matrix(1,0,0,1,30,103)" text-rendering="geometricPrecision" font-family="sans-serif" shape-rendering="geometricPrecision" stroke-miterlimit="1.45">
      <text x="359.6089" xml:space="preserve" y="-33.2959" clip-path="url(#clipPath2)" stroke="none">prov_bearer_t</text>
    </g>
    <g stroke-linecap="round" transform="matrix(1,0,0,1,30,103)" stroke-dashoffset="2" fill="rgb(102,102,153)" text-rendering="geometricPrecision" shape-rendering="geometricPrecision" stroke-dasharray="0,4" stroke="rgb(102,102,153)" stroke-miterlimit="1.45">
      <rect x="255" y="-50.3765" clip-path="url(#clipPath2)" fill="none" width="200" rx="4" ry="4" height="379.7529"/>
    </g>
    <g fill="rgb(215,113,164)" text-rendering="geometricPrecision" shape-rendering="geometricPrecision" transform="matrix(1,0,0,1,30,103)" stroke="rgb(215,113,164)">
      <rect x="270" y="-13" clip-path="url(#clipPath2)" width="170" rx="4" ry="4" height="82.3765" stroke="none"/>
      <rect x="270" y="-13" clip-path="url(#clipPath2)" fill="rgb(153,204,255)" width="170" height="22.3765" stroke="none"/>
    </g>
    <g font-size="15px" stroke-linecap="butt" transform="matrix(1,0,0,1,30,103)" text-rendering="geometricPrecision" font-family="sans-serif" shape-rendering="geometricPrecision" stroke-miterlimit="1.45">
      <text x="365.4463" xml:space="preserve" y="4.0806" clip-path="url(#clipPath2)" stroke="none">list_node_t</text>
    </g>
    <g stroke-linecap="round" transform="matrix(1,0,0,1,30,103)" stroke-dashoffset="2" fill="rgb(102,102,153)" text-rendering="geometricPrecision" shape-rendering="geometricPrecision" stroke-dasharray="0,4" stroke="rgb(102,102,153)" stroke-miterlimit="1.45">
      <rect x="270" y="-13" clip-path="url(#clipPath2)" fill="none" width="170" rx="4" ry="4" height="82.3765"/>
    </g>
    <g fill="white" text-rendering="geometricPrecision" shape-rendering="geometricPrecision" transform="matrix(1,0,0,1,30,103)" stroke="white">
      <rect x="285" width="140" height="30" y="24.3765" clip-path="url(#clipPath2)" stroke="none"/>
    </g>
    <g text-rendering="geometricPrecision" stroke-miterlimit="1.45" shape-rendering="geometricPrecision" transform="matrix(1,0,0,1,30,103)" stroke-linecap="butt">
      <rect fill="none" x="285" width="140" height="30" y="24.3765" clip-path="url(#clipPath2)"/>
      <text x="335.207" xml:space="preserve" y="43.314" clip-path="url(#clipPath2)" font-family="'Consolas'" stroke="none">p_next</text>
    </g>
    <g fill="white" text-rendering="geometricPrecision" shape-rendering="geometricPrecision" transform="matrix(1,0,0,1,30,103)" stroke="white">
      <rect x="285" width="140" height="30" y="84.3765" clip-path="url(#clipPath2)" stroke="none"/>
    </g>
    <g text-rendering="geometricPrecision" stroke-miterlimit="1.45" shape-rendering="geometricPrecision" transform="matrix(1,0,0,1,30,103)" stroke-linecap="butt">
      <rect fill="none" x="285" width="140" height="30" y="84.3765" clip-path="url(#clipPath2)"/>
      <text x="318.7129" xml:space="preserve" y="103.314" clip-path="url(#clipPath2)" font-family="'Consolas'" stroke="none">bearer_type</text>
    </g>
    <g fill="white" text-rendering="geometricPrecision" shape-rendering="geometricPrecision" transform="matrix(1,0,0,1,30,103)" stroke="white">
      <rect x="285" width="140" height="30" y="134.3765" clip-path="url(#clipPath2)" stroke="none"/>
    </g>
    <g text-rendering="geometricPrecision" stroke-miterlimit="1.45" shape-rendering="geometricPrecision" transform="matrix(1,0,0,1,30,103)" stroke-linecap="butt">
      <rect fill="none" x="285" width="140" height="30" y="134.3765" clip-path="url(#clipPath2)"/>
      <text x="331.9082" xml:space="preserve" y="153.314" clip-path="url(#clipPath2)" font-family="'Consolas'" stroke="none">timeout</text>
    </g>
    <g fill="white" text-rendering="geometricPrecision" shape-rendering="geometricPrecision" transform="matrix(1,0,0,1,30,103)" stroke="white">
      <rect x="285" width="140" height="30" y="184.3765" clip-path="url(#clipPath2)" stroke="none"/>
    </g>
    <g text-rendering="geometricPrecision" stroke-miterlimit="1.45" shape-rendering="geometricPrecision" transform="matrix(1,0,0,1,30,103)" stroke-linecap="butt">
      <rect fill="none" x="285" width="140" height="30" y="184.3765" clip-path="url(#clipPath2)"/>
      <text x="318.7129" xml:space="preserve" y="203.314" clip-path="url(#clipPath2)" font-family="'Consolas'" stroke="none">p_callbacks</text>
    </g>
    <g fill="white" text-rendering="geometricPrecision" shape-rendering="geometricPrecision" transform="matrix(1,0,0,1,30,103)" stroke="white">
      <rect x="285" width="140" height="30" y="234.3765" clip-path="url(#clipPath2)" stroke="none"/>
    </g>
    <g text-rendering="geometricPrecision" stroke-miterlimit="1.45" shape-rendering="geometricPrecision" transform="matrix(1,0,0,1,30,103)" stroke-linecap="butt">
      <rect fill="none" x="285" width="140" height="30" y="234.3765" clip-path="url(#clipPath2)"/>
      <text x="318.7129" xml:space="preserve" y="253.314" clip-path="url(#clipPath2)" font-family="'Consolas'" stroke="none">p_interface</text>
    </g>
    <g fill="white" text-rendering="geometricPrecision" shape-rendering="geometricPrecision" transform="matrix(1,0,0,1,30,103)" stroke="white">
      <rect x="285" width="140" height="30" y="284.3765" clip-path="url(#clipPath2)" stroke="none"/>
    </g>
    <g text-rendering="geometricPrecision" stroke-miterlimit="1.45" shape-rendering="geometricPrecision" transform="matrix(1,0,0,1,30,103)" stroke-linecap="butt">
      <rect fill="none" x="285" width="140" height="30" y="284.3765" clip-path="url(#clipPath2)"/>
      <text x="328.6094" xml:space="preserve" y="303.314" clip-path="url(#clipPath2)" font-family="'Consolas'" stroke="none">p_parent</text>
      <path fill="none" d="M140 15 L261.9921 15" clip-path="url(#clipPath2)"/>
      <path d="M269.9921 15 L257.9921 10 L260.9921 15 L257.9921 20 Z" clip-path="url(#clipPath2)" stroke="none"/>
      <path fill="none" d="M285 299.3765 L70 299.3765 L70 52.9787" clip-path="url(#clipPath2)"/>
      <path d="M70 44.9787 L65 56.9787 L70 53.9787 L75 56.9787 Z" clip-path="url(#clipPath2)" stroke="none"/>
    </g>
    <g transform="matrix(1,0,0,1,30,103)" fill-opacity="0.5176" fill="rgb(202,236,255)" text-rendering="geometricPrecision" shape-rendering="geometricPrecision" stroke="rgb(202,236,255)" stroke-opacity="0.5176">
      <rect x="525" y="-87.7529" clip-path="url(#clipPath2)" width="230" rx="4" ry="4" height="432.1294" stroke="none"/>
    </g>
    <g fill="rgb(153,204,255)" text-rendering="geometricPrecision" shape-rendering="geometricPrecision" transform="matrix(1,0,0,1,30,103)" stroke="rgb(153,204,255)">
      <rect x="525" width="230" height="22.3765" y="-87.7529" clip-path="url(#clipPath2)" stroke="none"/>
    </g>
    <g font-size="15px" stroke-linecap="butt" transform="matrix(1,0,0,1,30,103)" text-rendering="geometricPrecision" font-family="sans-serif" shape-rendering="geometricPrecision" stroke-miterlimit="1.45">
      <text x="663.8276" xml:space="preserve" y="-70.6724" clip-path="url(#clipPath2)" stroke="none">PB-REMOTE</text>
    </g>
    <g stroke-linecap="round" transform="matrix(1,0,0,1,30,103)" stroke-dashoffset="2" fill="rgb(102,102,153)" text-rendering="geometricPrecision" shape-rendering="geometricPrecision" stroke-dasharray="0,4" stroke="rgb(102,102,153)" stroke-miterlimit="1.45">
      <rect x="525" y="-87.7529" clip-path="url(#clipPath2)" fill="none" width="230" rx="4" ry="4" height="432.1294"/>
    </g>
    <g fill="rgb(184,235,235)" text-rendering="geometricPrecision" shape-rendering="geometricPrecision" transform="matrix(1,0,0,1,30,103)" stroke="rgb(184,235,235)">
      <rect x="540" y="-50.3765" clip-path="url(#clipPath2)" width="200" rx="4" ry="4" height="379.7529" stroke="none"/>
      <rect x="540" y="-50.3765" clip-path="url(#clipPath2)" fill="rgb(153,204,255)" width="200" height="22.3765" stroke="none"/>
    </g>
    <g font-size="15px" stroke-linecap="butt" transform="matrix(1,0,0,1,30,103)" text-rendering="geometricPrecision" font-family="sans-serif" shape-rendering="geometricPrecision" stroke-miterlimit="1.45">
      <text x="644.6089" xml:space="preserve" y="-33.2959" clip-path="url(#clipPath2)" stroke="none">prov_bearer_t</text>
    </g>
    <g stroke-linecap="round" transform="matrix(1,0,0,1,30,103)" stroke-dashoffset="2" fill="rgb(102,102,153)" text-rendering="geometricPrecision" shape-rendering="geometricPrecision" stroke-dasharray="0,4" stroke="rgb(102,102,153)" stroke-miterlimit="1.45">
      <rect x="540" y="-50.3765" clip-path="url(#clipPath2)" fill="none" width="200" rx="4" ry="4" height="379.7529"/>
    </g>
    <g fill="rgb(215,113,164)" text-rendering="geometricPrecision" shape-rendering="geometricPrecision" transform="matrix(1,0,0,1,30,103)" stroke="rgb(215,113,164)">
      <rect x="555" y="-13" clip-path="url(#clipPath2)" width="170" rx="4" ry="4" height="82.3765" stroke="none"/>
      <rect x="555" y="-13" clip-path="url(#clipPath2)" fill="rgb(153,204,255)" width="170" height="22.3765" stroke="none"/>
    </g>
    <g font-size="15px" stroke-linecap="butt" transform="matrix(1,0,0,1,30,103)" text-rendering="geometricPrecision" font-family="sans-serif" shape-rendering="geometricPrecision" stroke-miterlimit="1.45">
      <text x="650.4463" xml:space="preserve" y="4.0806" clip-path="url(#clipPath2)" stroke="none">list_node_t</text>
    </g>
    <g stroke-linecap="round" transform="matrix(1,0,0,1,30,103)" stroke-dashoffset="2" fill="rgb(102,102,153)" text-rendering="geometricPrecision" shape-rendering="geometricPrecision" stroke-dasharray="0,4" stroke="rgb(102,102,153)" stroke-miterlimit="1.45">
      <rect x="555" y="-13" clip-path="url(#clipPath2)" fill="none" width="170" rx="4" ry="4" height="82.3765"/>
    </g>
    <g fill="white" text-rendering="geometricPrecision" shape-rendering="geometricPrecision" transform="matrix(1,0,0,1,30,103)" stroke="white">
      <rect x="570" width="140" height="30" y="24.3765" clip-path="url(#clipPath2)" stroke="none"/>
    </g>
    <g text-rendering="geometricPrecision" stroke-miterlimit="1.45" shape-rendering="geometricPrecision" transform="matrix(1,0,0,1,30,103)" stroke-linecap="butt">
      <rect fill="none" x="570" width="140" height="30" y="24.3765" clip-path="url(#clipPath2)"/>
      <text x="620.207" xml:space="preserve" y="43.314" clip-path="url(#clipPath2)" font-family="'Consolas'" stroke="none">p_next</text>
    </g>
    <g fill="white" text-rendering="geometricPrecision" shape-rendering="geometricPrecision" transform="matrix(1,0,0,1,30,103)" stroke="white">
      <rect x="570" width="140" height="30" y="84.3765" clip-path="url(#clipPath2)" stroke="none"/>
    </g>
    <g text-rendering="geometricPrecision" stroke-miterlimit="1.45" shape-rendering="geometricPrecision" transform="matrix(1,0,0,1,30,103)" stroke-linecap="butt">
      <rect fill="none" x="570" width="140" height="30" y="84.3765" clip-path="url(#clipPath2)"/>
      <text x="603.7129" xml:space="preserve" y="103.314" clip-path="url(#clipPath2)" font-family="'Consolas'" stroke="none">bearer_type</text>
    </g>
    <g fill="white" text-rendering="geometricPrecision" shape-rendering="geometricPrecision" transform="matrix(1,0,0,1,30,103)" stroke="white">
      <rect x="570" width="140" height="30" y="134.3765" clip-path="url(#clipPath2)" stroke="none"/>
    </g>
    <g text-rendering="geometricPrecision" stroke-miterlimit="1.45" shape-rendering="geometricPrecision" transform="matrix(1,0,0,1,30,103)" stroke-linecap="butt">
      <rect fill="none" x="570" width="140" height="30" y="134.3765" clip-path="url(#clipPath2)"/>
      <text x="616.9082" xml:space="preserve" y="153.314" clip-path="url(#clipPath2)" font-family="'Consolas'" stroke="none">timeout</text>
    </g>
    <g fill="white" text-rendering="geometricPrecision" shape-rendering="geometricPrecision" transform="matrix(1,0,0,1,30,103)" stroke="white">
      <rect x="570" width="140" height="30" y="184.3765" clip-path="url(#clipPath2)" stroke="none"/>
    </g>
    <g text-rendering="geometricPrecision" stroke-miterlimit="1.45" shape-rendering="geometricPrecision" transform="matrix(1,0,0,1,30,103)" stroke-linecap="butt">
      <rect fill="none" x="570" width="140" height="30" y="184.3765" clip-path="url(#clipPath2)"/>
      <text x="603.7129" xml:space="preserve" y="203.314" clip-path="url(#clipPath2)" font-family="'Consolas'" stroke="none">p_callbacks</text>
    </g>
    <g fill="white" text-rendering="geometricPrecision" shape-rendering="geometricPrecision" transform="matrix(1,0,0,1,30,103)" stroke="white">
      <rect x="570" width="140" height="30" y="234.3765" clip-path="url(#clipPath2)" stroke="none"/>
    </g>
    <g text-rendering="geometricPrecision" stroke-miterlimit="1.45" shape-rendering="geometricPrecision" transform="matrix(1,0,0,1,30,103)" stroke-linecap="butt">
      <rect fill="none" x="570" width="140" height="30" y="234.3765" clip-path="url(#clipPath2)"/>
      <text x="603.7129" xml:space="preserve" y="253.314" clip-path="url(#clipPath2)" font-family="'Consolas'" stroke="none">p_interface</text>
    </g>
    <g fill="white" text-rendering="geometricPrecision" shape-rendering="geometricPrecision" transform="matrix(1,0,0,1,30,103)" stroke="white">
      <rect x="570" width="140" height="30" y="284.3765" clip-path="url(#clipPath2)" stroke="none"/>
    </g>
    <g text-rendering="geometricPrecision" stroke-miterlimit="1.45" shape-rendering="geometricPrecision" transform="matrix(1,0,0,1,30,103)" stroke-linecap="butt">
      <rect fill="none" x="570" width="140" height="30" y="284.3765" clip-path="url(#clipPath2)"/>
      <text x="613.6094" xml:space="preserve" y="303.314" clip-path="url(#clipPath2)" font-family="'Consolas'" stroke="none">p_parent</text>
    </g>
    <g stroke-linecap="round" transform="matrix(1,0,0,1,30,103)" stroke-dashoffset="2" text-rendering="geometricPrecision" shape-rendering="geometricPrecision" stroke-dasharray="0,8" stroke-width="2" stroke-miterlimit="1.45">
      <path fill="none" d="M425 39.3765 L525 39.3765 L525 39.3765 L561 39.3765" clip-path="url(#clipPath2)"/>
      <path d="M570 39.3765 L556.5 33.7515 L559.875 39.3765 L556.5 45.0015 Z" clip-path="url(#clipPath2)" stroke="none"/>
    </g>
    <g text-rendering="geometricPrecision" stroke-miterlimit="1.45" shape-rendering="geometricPrecision" transform="matrix(1,0,0,1,30,103)" stroke-linecap="butt">
      <path fill="none" d="M640 314.3765 L640 349.3765 L70 349.3765 L70 53.008" clip-path="url(#clipPath2)"/>
      <path d="M70 45.008 L65 57.008 L70 54.008 L75 57.008 Z" clip-path="url(#clipPath2)" stroke="none"/>
    </g>
  </g>
</svg>
